<?xml version="1.0" encoding="UTF-8" standalone="no"?>
<!DOCTYPE svg PUBLIC "-//W3C//DTD SVG 1.1//EN"
 "http://www.w3.org/Graphics/SVG/1.1/DTD/svg11.dtd">
<!-- Generated by graphviz version 2.38.0 (20140413.2041)
 -->
<!-- Title: PROV Pages: 1 -->
<svg width="378pt" height="459pt"
 viewBox="0.00 0.00 378.00 459.00" xmlns="http://www.w3.org/2000/svg" xmlns:xlink="http://www.w3.org/1999/xlink">
<g id="graph0" class="graph" transform="scale(1 1) rotate(0) translate(4 455)">
<title>PROV</title>
<polygon fill="white" stroke="none" points="-4,4 -4,-455 374,-455 374,4 -4,4"/>
<g id="clust1" class="cluster"><title>clusterhttp://example.org/bundle1</title>
<g id="a_clust1"><a xlink:href="http://example.org/bundle1" xlink:title="bundle1">
<polygon fill="none" stroke="black" points="8,-8 8,-443 362,-443 362,-8 8,-8"/>
<text text-anchor="middle" x="185" y="-15.8" font-family="Times New Roman,serif" font-size="14.00">bundle1</text>
</a>
</g>
</g>
<!-- http://example.org/enrol_1 -->
<g id="node1" class="node"><title>http://example.org/enrol_1</title>
<g id="a_node1"><a xlink:href="http://example.org/enrol_1" xlink:title="enrol_1">
<polygon fill="#9fb1fc" stroke="#0000ff" points="258.5,-219 199.5,-219 199.5,-183 258.5,-183 258.5,-219"/>
<text text-anchor="middle" x="229" y="-197.3" font-family="Times New Roman,serif" font-size="14.00">enrol_1</text>
</a>
</g>
</g>
<!-- http://example.org/Student@50c87b21_1 -->
<g id="node7" class="node"><title>http://example.org/Student@50c87b21_1</title>
<g id="a_node7"><a xlink:href="http://example.org/Student@50c87b21_1" xlink:title="Student@50c87b21_1">
<ellipse fill="#fffc87" stroke="#808080" cx="128" cy="-273" rx="91.784" ry="18"/>
<text text-anchor="middle" x="128" y="-269.3" font-family="Times New Roman,serif" font-size="14.00">Student@50c87b21_1</text>
</a>
</g>
</g>
<!-- http://example.org/enrol_1&#45;&gt;http://example.org/Student@50c87b21_1 -->
<g id="edge11" class="edge"><title>http://example.org/enrol_1&#45;&gt;http://example.org/Student@50c87b21_1</title>
<path fill="none" stroke="black" d="M199.5,-218.412C185.255,-227.581 168.381,-239.148 154.544,-249.187"/>
<polygon fill="black" stroke="black" points="152.348,-246.457 146.371,-255.205 156.499,-252.094 152.348,-246.457"/>
<text text-anchor="middle" x="200.275" y="-231.492" font-family="Times New Roman,serif" font-size="8.00">use</text>
</g>
<!-- &#45;attrs0 -->
<g id="node2" class="node"><title>&#45;attrs0</title>
<polygon fill="none" stroke="gray" points="292.5,-147 217.5,-147 217.5,-111 298.5,-111 298.5,-141 292.5,-147"/>
<polyline fill="none" stroke="gray" points="292.5,-147 292.5,-141 "/>
<polyline fill="none" stroke="gray" points="298.5,-141 292.5,-141 "/>
<text text-anchor="start" x="228" y="-126" font-family="Times New Roman,serif" font-size="10.00">type:</text>
<text text-anchor="start" x="251" y="-126" font-family="Times New Roman,serif" font-size="10.00">u2p:enrol</text>
</g>
<!-- &#45;attrs0&#45;&gt;http://example.org/enrol_1 -->
<g id="edge1" class="edge"><title>&#45;attrs0&#45;&gt;http://example.org/enrol_1</title>
<path fill="none" stroke="gray" stroke-dasharray="5,2" d="M250.831,-147.303C246.336,-158.154 240.565,-172.083 236.086,-182.896"/>
</g>
<!-- http://example.org/Student@50c87b21_0 -->
<g id="node3" class="node"><title>http://example.org/Student@50c87b21_0</title>
<g id="a_node3"><a xlink:href="http://example.org/Student@50c87b21_0" xlink:title="Student@50c87b21_0">
<ellipse fill="#fffc87" stroke="#808080" cx="218" cy="-345" rx="91.784" ry="18"/>
<text text-anchor="middle" x="218" y="-341.3" font-family="Times New Roman,serif" font-size="14.00">Student@50c87b21_0</text>
</a>
</g>
</g>
<!-- http://example.org/Student@50c87b21 -->
<g id="node9" class="node"><title>http://example.org/Student@50c87b21</title>
<g id="a_node9"><a xlink:href="http://example.org/Student@50c87b21" xlink:title="Student@50c87b21">
<polygon fill="#fdb266" stroke="black" points="270.057,-422.562 168,-435 65.9433,-422.562 66.0385,-402.438 269.961,-402.438 270.057,-422.562"/>
<text text-anchor="middle" x="168" y="-413.3" font-family="Times New Roman,serif" font-size="14.00">Student@50c87b21</text>
</a>
</g>
</g>
<!-- http://example.org/Student@50c87b21_0&#45;&gt;http://example.org/Student@50c87b21 -->
<g id="edge6" class="edge"><title>http://example.org/Student@50c87b21_0&#45;&gt;http://example.org/Student@50c87b21</title>
<path fill="none" stroke="black" d="M205.896,-362.945C199.28,-372.208 191.003,-383.795 183.874,-393.776"/>
<polygon fill="black" stroke="black" points="180.94,-391.862 177.976,-402.034 186.636,-395.931 180.94,-391.862"/>
<text text-anchor="middle" x="212.108" y="-374.699" font-family="Times New Roman,serif" font-size="8.00">att</text>
</g>
<!-- &#45;attrs1 -->
<g id="node4" class="node"><title>&#45;attrs1</title>
<polygon fill="none" stroke="gray" points="348,-291 238,-291 238,-255 354,-255 354,-285 348,-291"/>
<polyline fill="none" stroke="gray" points="348,-291 348,-285 "/>
<polyline fill="none" stroke="gray" points="354,-285 348,-285 "/>
<text text-anchor="start" x="248" y="-270" font-family="Times New Roman,serif" font-size="10.00">type:</text>
<text text-anchor="start" x="271" y="-270" font-family="Times New Roman,serif" font-size="10.00">u2p:StateMachine</text>
</g>
<!-- &#45;attrs1&#45;&gt;http://example.org/Student@50c87b21_0 -->
<g id="edge2" class="edge"><title>&#45;attrs1&#45;&gt;http://example.org/Student@50c87b21_0</title>
<path fill="none" stroke="gray" stroke-dasharray="5,2" d="M276.719,-291.303C264.538,-302.235 248.875,-316.291 236.79,-327.137"/>
</g>
<!-- http://example.org/Student@50c87b21_2 -->
<g id="node5" class="node"><title>http://example.org/Student@50c87b21_2</title>
<g id="a_node5"><a xlink:href="http://example.org/Student@50c87b21_2" xlink:title="Student@50c87b21_2">
<ellipse fill="#fffc87" stroke="#808080" cx="108" cy="-129" rx="91.784" ry="18"/>
<text text-anchor="middle" x="108" y="-125.3" font-family="Times New Roman,serif" font-size="14.00">Student@50c87b21_2</text>
</a>
</g>
</g>
<!-- http://example.org/Student@50c87b21_2&#45;&gt;http://example.org/enrol_1 -->
<g id="edge8" class="edge"><title>http://example.org/Student@50c87b21_2&#45;&gt;http://example.org/enrol_1</title>
<path fill="none" stroke="black" d="M136.064,-146.235C152.235,-155.59 172.794,-167.484 190.463,-177.706"/>
<polygon fill="black" stroke="black" points="188.992,-180.898 199.4,-182.876 192.497,-174.839 188.992,-180.898"/>
<text text-anchor="middle" x="149.061" y="-136.847" font-family="Times New Roman,serif" font-size="8.00">gen</text>
</g>
<!-- http://example.org/Student@50c87b21_2&#45;&gt;http://example.org/Student@50c87b21_0 -->
<g id="edge7" class="edge"><title>http://example.org/Student@50c87b21_2&#45;&gt;http://example.org/Student@50c87b21_0</title>
<path fill="none" stroke="black" d="M87.9904,-146.666C53.7212,-177.22 -9.17059,-243.426 27,-291 34.7044,-301.133 97.3092,-317.258 148.778,-329.064"/>
<polygon fill="black" stroke="black" points="148.045,-332.486 158.572,-331.29 149.597,-325.66 148.045,-332.486"/>
<text text-anchor="middle" x="91.3024" y="-159.396" font-family="Times New Roman,serif" font-size="8.00">spe</text>
</g>
<!-- http://example.org/Student@50c87b21_2&#45;&gt;http://example.org/Student@50c87b21_1 -->
<g id="edge9" class="edge"><title>http://example.org/Student@50c87b21_2&#45;&gt;http://example.org/Student@50c87b21_1</title>
<path fill="none" stroke="black" d="M89.8341,-146.776C80.7906,-156.387 70.787,-169.252 66,-183 60.7388,-198.11 59.3046,-204.468 66,-219 71.5642,-231.077 81.3878,-241.424 91.5976,-249.687"/>
<polygon fill="black" stroke="black" points="89.7006,-252.64 99.7944,-255.859 93.9115,-247.048 89.7006,-252.64"/>
<text text-anchor="middle" x="94.3283" y="-159.187" font-family="Times New Roman,serif" font-size="8.00">der</text>
</g>
<!-- &#45;attrs2 -->
<g id="node6" class="node"><title>&#45;attrs2</title>
<polygon fill="none" stroke="gray" points="149.5,-75 60.5,-75 60.5,-39 155.5,-39 155.5,-69 149.5,-75"/>
<polyline fill="none" stroke="gray" points="149.5,-75 149.5,-69 "/>
<polyline fill="none" stroke="gray" points="155.5,-69 149.5,-69 "/>
<text text-anchor="start" x="71" y="-61" font-family="Times New Roman,serif" font-size="10.00">type:</text>
<text text-anchor="start" x="95" y="-61" font-family="Times New Roman,serif" font-size="10.00">u2p:Student</text>
<text text-anchor="start" x="71" y="-48" font-family="Times New Roman,serif" font-size="10.00">state:</text>
<text text-anchor="start" x="95" y="-48" font-family="Times New Roman,serif" font-size="10.00">u2p:Enrolled</text>
</g>
<!-- &#45;attrs2&#45;&gt;http://example.org/Student@50c87b21_2 -->
<g id="edge3" class="edge"><title>&#45;attrs2&#45;&gt;http://example.org/Student@50c87b21_2</title>
<path fill="none" stroke="gray" stroke-dasharray="5,2" d="M108,-75.3034C108,-86.1537 108,-100.083 108,-110.896"/>
</g>
<!-- http://example.org/Student@50c87b21_1&#45;&gt;http://example.org/enrol_1 -->
<g id="edge10" class="edge"><title>http://example.org/Student@50c87b21_1&#45;&gt;http://example.org/enrol_1</title>
<path fill="none" stroke="black" d="M167.359,-249.14C178.865,-241.505 191.161,-232.99 201.757,-225.32"/>
<polygon fill="none" stroke="black" points="167.13,-249.29 164.296,-255.921 157.085,-255.855 159.919,-249.224 167.13,-249.29"/>
<polygon fill="black" stroke="black" points="203.961,-228.044 209.949,-219.303 199.818,-222.402 203.961,-228.044"/>
<text text-anchor="middle" x="156.256" y="-238.978" font-family="Times New Roman,serif" font-size="8.00">inv</text>
</g>
<!-- http://example.org/Student@50c87b21_1&#45;&gt;http://example.org/Student@50c87b21_0 -->
<g id="edge12" class="edge"><title>http://example.org/Student@50c87b21_1&#45;&gt;http://example.org/Student@50c87b21_0</title>
<path fill="none" stroke="black" d="M149.329,-290.589C161.012,-299.676 175.672,-311.078 188.443,-321.011"/>
<polygon fill="black" stroke="black" points="186.47,-323.911 196.512,-327.287 190.768,-318.385 186.47,-323.911"/>
<text text-anchor="middle" x="163.224" y="-283.04" font-family="Times New Roman,serif" font-size="8.00">spe</text>
</g>
<!-- &#45;attrs3 -->
<g id="node8" class="node"><title>&#45;attrs3</title>
<polygon fill="none" stroke="gray" points="175,-219 75,-219 75,-183 181,-183 181,-213 175,-219"/>
<polyline fill="none" stroke="gray" points="175,-219 175,-213 "/>
<polyline fill="none" stroke="gray" points="181,-213 175,-213 "/>
<text text-anchor="start" x="85" y="-205" font-family="Times New Roman,serif" font-size="10.00">type:</text>
<text text-anchor="start" x="109" y="-205" font-family="Times New Roman,serif" font-size="10.00">u2p:Student</text>
<text text-anchor="start" x="85" y="-192" font-family="Times New Roman,serif" font-size="10.00">state:</text>
<text text-anchor="start" x="109" y="-192" font-family="Times New Roman,serif" font-size="10.00">u2p:notEnroled</text>
</g>
<!-- &#45;attrs3&#45;&gt;http://example.org/Student@50c87b21_1 -->
<g id="edge4" class="edge"><title>&#45;attrs3&#45;&gt;http://example.org/Student@50c87b21_1</title>
<path fill="none" stroke="gray" stroke-dasharray="5,2" d="M128,-219.303C128,-230.154 128,-244.083 128,-254.896"/>
</g>
<!-- &#45;attrs4 -->
<g id="node10" class="node"><title>&#45;attrs4</title>
<polygon fill="none" stroke="gray" points="102,-363 16,-363 16,-327 108,-327 108,-357 102,-363"/>
<polyline fill="none" stroke="gray" points="102,-363 102,-357 "/>
<polyline fill="none" stroke="gray" points="108,-357 102,-357 "/>
<text text-anchor="start" x="26" y="-342" font-family="Times New Roman,serif" font-size="10.00">type:</text>
<text text-anchor="start" x="49" y="-342" font-family="Times New Roman,serif" font-size="10.00">u2p:Student</text>
</g>
<!-- &#45;attrs4&#45;&gt;http://example.org/Student@50c87b21 -->
<g id="edge5" class="edge"><title>&#45;attrs4&#45;&gt;http://example.org/Student@50c87b21</title>
<path fill="none" stroke="gray" stroke-dasharray="5,2" d="M87.9305,-363.124C106.195,-375.186 130.323,-391.119 147.302,-402.331"/>
</g>
</g>
</svg>
