<?xml version="1.0" encoding="UTF-8" standalone="no"?>
<!DOCTYPE svg PUBLIC "-//W3C//DTD SVG 1.1//EN"
 "http://www.w3.org/Graphics/SVG/1.1/DTD/svg11.dtd">
<!-- Generated by graphviz version 2.38.0 (20140413.2041)
 -->
<!-- Title: PROV Pages: 1 -->
<svg width="683pt" height="387pt"
 viewBox="0.00 0.00 683.00 387.00" xmlns="http://www.w3.org/2000/svg" xmlns:xlink="http://www.w3.org/1999/xlink">
<g id="graph0" class="graph" transform="scale(1 1) rotate(0) translate(4 383)">
<title>PROV</title>
<polygon fill="white" stroke="none" points="-4,4 -4,-383 679,-383 679,4 -4,4"/>
<g id="clust1" class="cluster"><title>clusterhttp://example.org/bundle1</title>
<g id="a_clust1"><a xlink:href="http://example.org/bundle1" xlink:title="bundle1">
<polygon fill="none" stroke="black" points="8,-8 8,-371 667,-371 667,-8 8,-8"/>
<text text-anchor="middle" x="337.5" y="-15.8" font-family="Times New Roman,serif" font-size="14.00">bundle1</text>
</a>
</g>
</g>
<!-- http://example.org/enrolStudent_1 -->
<g id="node1" class="node"><title>http://example.org/enrolStudent_1</title>
<g id="a_node1"><a xlink:href="http://example.org/enrolStudent_1" xlink:title="enrolStudent_1">
<polygon fill="#9fb1fc" stroke="#0000ff" points="286.5,-291 185.5,-291 185.5,-255 286.5,-255 286.5,-291"/>
<text text-anchor="middle" x="236" y="-269.3" font-family="Times New Roman,serif" font-size="14.00">enrolStudent_1</text>
</a>
</g>
</g>
<!-- http://example.org/Seminar@1f89ab83_1 -->
<g id="node7" class="node"><title>http://example.org/Seminar@1f89ab83_1</title>
<g id="a_node7"><a xlink:href="http://example.org/Seminar@1f89ab83_1" xlink:title="Seminar@1f89ab83_1">
<ellipse fill="#fffc87" stroke="#808080" cx="306" cy="-345" rx="90.9839" ry="18"/>
<text text-anchor="middle" x="306" y="-341.3" font-family="Times New Roman,serif" font-size="14.00">Seminar@1f89ab83_1</text>
</a>
</g>
</g>
<!-- http://example.org/enrolStudent_1&#45;&gt;http://example.org/Seminar@1f89ab83_1 -->
<g id="edge11" class="edge"><title>http://example.org/enrolStudent_1&#45;&gt;http://example.org/Seminar@1f89ab83_1</title>
<path fill="none" stroke="black" d="M247.388,-291.303C255.258,-300.079 265.879,-310.868 275.973,-320.394"/>
<polygon fill="black" stroke="black" points="273.813,-323.164 283.534,-327.378 278.563,-318.022 273.813,-323.164"/>
<text text-anchor="middle" x="262.048" y="-286.229" font-family="Times New Roman,serif" font-size="8.00">use</text>
</g>
<!-- &#45;attrs0 -->
<g id="node2" class="node"><title>&#45;attrs0</title>
<polygon fill="none" stroke="gray" points="123.5,-219 16.5,-219 16.5,-183 129.5,-183 129.5,-213 123.5,-219"/>
<polyline fill="none" stroke="gray" points="123.5,-219 123.5,-213 "/>
<polyline fill="none" stroke="gray" points="129.5,-213 123.5,-213 "/>
<text text-anchor="start" x="27" y="-198" font-family="Times New Roman,serif" font-size="10.00">type:</text>
<text text-anchor="start" x="50" y="-198" font-family="Times New Roman,serif" font-size="10.00">u2p:enrolStudent</text>
</g>
<!-- &#45;attrs0&#45;&gt;http://example.org/enrolStudent_1 -->
<g id="edge1" class="edge"><title>&#45;attrs0&#45;&gt;http://example.org/enrolStudent_1</title>
<path fill="none" stroke="gray" stroke-dasharray="5,2" d="M112.874,-219.124C138.227,-230.012 170.927,-244.055 196.255,-254.932"/>
</g>
<!-- http://example.org/Seminar@1f89ab83_0 -->
<g id="node3" class="node"><title>http://example.org/Seminar@1f89ab83_0</title>
<g id="a_node3"><a xlink:href="http://example.org/Seminar@1f89ab83_0" xlink:title="Seminar@1f89ab83_0">
<ellipse fill="#fffc87" stroke="#808080" cx="568" cy="-201" rx="90.9839" ry="18"/>
<text text-anchor="middle" x="568" y="-197.3" font-family="Times New Roman,serif" font-size="14.00">Seminar@1f89ab83_0</text>
</a>
</g>
</g>
<!-- http://example.org/Seminar@1f89ab83 -->
<g id="node11" class="node"><title>http://example.org/Seminar@1f89ab83</title>
<g id="a_node11"><a xlink:href="http://example.org/Seminar@1f89ab83" xlink:title="Seminar@1f89ab83">
<polygon fill="#fdb266" stroke="black" points="547.45,-278.562 446,-291 344.55,-278.562 344.644,-258.438 547.356,-258.438 547.45,-278.562"/>
<text text-anchor="middle" x="446" y="-269.3" font-family="Times New Roman,serif" font-size="14.00">Seminar@1f89ab83</text>
</a>
</g>
</g>
<!-- http://example.org/Seminar@1f89ab83_0&#45;&gt;http://example.org/Seminar@1f89ab83 -->
<g id="edge7" class="edge"><title>http://example.org/Seminar@1f89ab83_0&#45;&gt;http://example.org/Seminar@1f89ab83</title>
<path fill="none" stroke="black" d="M539.704,-218.235C521.556,-228.648 497.926,-242.206 478.936,-253.102"/>
<polygon fill="black" stroke="black" points="476.962,-250.2 470.03,-258.212 480.446,-256.271 476.962,-250.2"/>
<text text-anchor="middle" x="539.664" y="-231.335" font-family="Times New Roman,serif" font-size="8.00">att</text>
</g>
<!-- &#45;attrs1 -->
<g id="node4" class="node"><title>&#45;attrs1</title>
<polygon fill="none" stroke="gray" points="620,-147 510,-147 510,-111 626,-111 626,-141 620,-147"/>
<polyline fill="none" stroke="gray" points="620,-147 620,-141 "/>
<polyline fill="none" stroke="gray" points="626,-141 620,-141 "/>
<text text-anchor="start" x="520" y="-126" font-family="Times New Roman,serif" font-size="10.00">type:</text>
<text text-anchor="start" x="543" y="-126" font-family="Times New Roman,serif" font-size="10.00">u2p:StateMachine</text>
</g>
<!-- &#45;attrs1&#45;&gt;http://example.org/Seminar@1f89ab83_0 -->
<g id="edge2" class="edge"><title>&#45;attrs1&#45;&gt;http://example.org/Seminar@1f89ab83_0</title>
<path fill="none" stroke="gray" stroke-dasharray="5,2" d="M568,-147.303C568,-158.154 568,-172.083 568,-182.896"/>
</g>
<!-- http://example.org/Performing_1 -->
<g id="node5" class="node"><title>http://example.org/Performing_1</title>
<g id="a_node5"><a xlink:href="http://example.org/Performing_1" xlink:title="Performing_1">
<ellipse fill="#fffc87" stroke="#808080" cx="355" cy="-129" rx="60.3893" ry="18"/>
<text text-anchor="middle" x="355" y="-125.3" font-family="Times New Roman,serif" font-size="14.00">Performing_1</text>
</a>
</g>
</g>
<!-- http://example.org/Performing_1&#45;&gt;http://example.org/Seminar@1f89ab83_0 -->
<g id="edge8" class="edge"><title>http://example.org/Performing_1&#45;&gt;http://example.org/Seminar@1f89ab83_0</title>
<path fill="none" stroke="black" d="M394.067,-142.839C427.583,-153.854 476.234,-169.842 513.565,-182.111"/>
<polygon fill="black" stroke="black" points="512.69,-185.507 523.283,-185.304 514.876,-178.857 512.69,-185.507"/>
<text text-anchor="middle" x="405.248" y="-130.94" font-family="Times New Roman,serif" font-size="8.00">spe</text>
</g>
<!-- http://example.org/Performing_1&#45;&gt;http://example.org/Seminar@1f89ab83_1 -->
<g id="edge10" class="edge"><title>http://example.org/Performing_1&#45;&gt;http://example.org/Seminar@1f89ab83_1</title>
<path fill="none" stroke="black" d="M352.053,-147.127C348.886,-165.095 343.553,-194.129 338,-219 330.44,-252.86 320.315,-291.501 313.496,-316.745"/>
<polygon fill="black" stroke="black" points="310.038,-316.123 310.793,-326.691 316.793,-317.959 310.038,-316.123"/>
</g>
<!-- http://example.org/Seminar@1f89ab83_2 -->
<g id="node9" class="node"><title>http://example.org/Seminar@1f89ab83_2</title>
<g id="a_node9"><a xlink:href="http://example.org/Seminar@1f89ab83_2" xlink:title="Seminar@1f89ab83_2">
<ellipse fill="#fffc87" stroke="#808080" cx="238" cy="-201" rx="90.9839" ry="18"/>
<text text-anchor="middle" x="238" y="-197.3" font-family="Times New Roman,serif" font-size="14.00">Seminar@1f89ab83_2</text>
</a>
</g>
</g>
<!-- http://example.org/Performing_1&#45;&gt;http://example.org/Seminar@1f89ab83_2 -->
<g id="edge12" class="edge"><title>http://example.org/Performing_1&#45;&gt;http://example.org/Seminar@1f89ab83_2</title>
<path fill="none" stroke="black" d="M329.324,-145.362C313.17,-155.026 292.08,-167.645 274.237,-178.32"/>
<polygon fill="black" stroke="black" points="272.03,-175.561 265.246,-183.699 275.624,-181.568 272.03,-175.561"/>
</g>
<!-- &#45;attrs2 -->
<g id="node6" class="node"><title>&#45;attrs2</title>
<polygon fill="none" stroke="gray" points="400.5,-75 303.5,-75 303.5,-39 406.5,-39 406.5,-69 400.5,-75"/>
<polyline fill="none" stroke="gray" points="400.5,-75 400.5,-69 "/>
<polyline fill="none" stroke="gray" points="406.5,-69 400.5,-69 "/>
<text text-anchor="start" x="314" y="-61" font-family="Times New Roman,serif" font-size="10.00">type:</text>
<text text-anchor="start" x="338" y="-61" font-family="Times New Roman,serif" font-size="10.00">u2p:Seminar</text>
<text text-anchor="start" x="314" y="-48" font-family="Times New Roman,serif" font-size="10.00">state:</text>
<text text-anchor="start" x="338" y="-48" font-family="Times New Roman,serif" font-size="10.00">exe:Performing</text>
</g>
<!-- &#45;attrs2&#45;&gt;http://example.org/Performing_1 -->
<g id="edge3" class="edge"><title>&#45;attrs2&#45;&gt;http://example.org/Performing_1</title>
<path fill="none" stroke="gray" stroke-dasharray="5,2" d="M355,-75.3034C355,-86.1537 355,-100.083 355,-110.896"/>
</g>
<!-- http://example.org/Seminar@1f89ab83_1&#45;&gt;http://example.org/enrolStudent_1 -->
<g id="edge9" class="edge"><title>http://example.org/Seminar@1f89ab83_1&#45;&gt;http://example.org/enrolStudent_1</title>
<path fill="none" stroke="black" d="M286.438,-317.886C280.295,-311.451 273.399,-304.587 266.703,-298.245"/>
<polygon fill="none" stroke="black" points="286.633,-318.095 293.645,-319.776 294.791,-326.896 287.778,-325.215 286.633,-318.095"/>
<polygon fill="black" stroke="black" points="268.931,-295.537 259.219,-291.303 264.171,-300.67 268.931,-295.537"/>
<text text-anchor="middle" x="280.165" y="-328.327" font-family="Times New Roman,serif" font-size="8.00">inv</text>
</g>
<!-- &#45;attrs3 -->
<g id="node8" class="node"><title>&#45;attrs3</title>
<polygon fill="none" stroke="gray" points="652.5,-291 565.5,-291 565.5,-255 658.5,-255 658.5,-285 652.5,-291"/>
<polyline fill="none" stroke="gray" points="652.5,-291 652.5,-285 "/>
<polyline fill="none" stroke="gray" points="658.5,-285 652.5,-285 "/>
<text text-anchor="start" x="576" y="-277" font-family="Times New Roman,serif" font-size="10.00">type:</text>
<text text-anchor="start" x="600" y="-277" font-family="Times New Roman,serif" font-size="10.00">u2p:Seminar</text>
<text text-anchor="start" x="576" y="-264" font-family="Times New Roman,serif" font-size="10.00">state:</text>
<text text-anchor="start" x="600" y="-264" font-family="Times New Roman,serif" font-size="10.00">exe:Enroling</text>
</g>
<!-- &#45;attrs3&#45;&gt;http://example.org/Seminar@1f89ab83_1 -->
<g id="edge4" class="edge"><title>&#45;attrs3&#45;&gt;http://example.org/Seminar@1f89ab83_1</title>
<path fill="none" stroke="gray" stroke-dasharray="5,2" d="M565.334,-288.494C562.183,-289.371 559.05,-290.215 556,-291 493.052,-307.195 420.278,-322.211 369.539,-332.094"/>
</g>
<!-- http://example.org/Seminar@1f89ab83_2&#45;&gt;http://example.org/enrolStudent_1 -->
<g id="edge13" class="edge"><title>http://example.org/Seminar@1f89ab83_2&#45;&gt;http://example.org/enrolStudent_1</title>
<path fill="none" stroke="black" d="M237.506,-219.303C237.285,-227.017 237.02,-236.288 236.775,-244.888"/>
<polygon fill="black" stroke="black" points="233.276,-244.8 236.489,-254.896 240.273,-245 233.276,-244.8"/>
<text text-anchor="middle" x="250.277" y="-225.271" font-family="Times New Roman,serif" font-size="8.00">gen</text>
</g>
<!-- http://example.org/Seminar@1f89ab83_2&#45;&gt;http://example.org/Seminar@1f89ab83_1 -->
<g id="edge14" class="edge"><title>http://example.org/Seminar@1f89ab83_2&#45;&gt;http://example.org/Seminar@1f89ab83_1</title>
<path fill="none" stroke="black" d="M262.629,-218.525C274.42,-227.803 287.561,-240.44 295,-255 304.771,-274.123 307.206,-298.475 307.374,-316.871"/>
<polygon fill="black" stroke="black" points="303.873,-316.886 307.249,-326.929 310.873,-316.973 303.873,-316.886"/>
<text text-anchor="middle" x="276.625" y="-211.229" font-family="Times New Roman,serif" font-size="8.00">der</text>
</g>
<!-- &#45;attrs4 -->
<g id="node10" class="node"><title>&#45;attrs4</title>
<polygon fill="none" stroke="gray" points="270.5,-147 183.5,-147 183.5,-111 276.5,-111 276.5,-141 270.5,-147"/>
<polyline fill="none" stroke="gray" points="270.5,-147 270.5,-141 "/>
<polyline fill="none" stroke="gray" points="276.5,-141 270.5,-141 "/>
<text text-anchor="start" x="194" y="-133" font-family="Times New Roman,serif" font-size="10.00">type:</text>
<text text-anchor="start" x="218" y="-133" font-family="Times New Roman,serif" font-size="10.00">u2p:Seminar</text>
<text text-anchor="start" x="194" y="-120" font-family="Times New Roman,serif" font-size="10.00">state:</text>
<text text-anchor="start" x="218" y="-120" font-family="Times New Roman,serif" font-size="10.00">exe:Enroling</text>
</g>
<!-- &#45;attrs4&#45;&gt;http://example.org/Seminar@1f89ab83_2 -->
<g id="edge5" class="edge"><title>&#45;attrs4&#45;&gt;http://example.org/Seminar@1f89ab83_2</title>
<path fill="none" stroke="gray" stroke-dasharray="5,2" d="M231.978,-147.303C233.218,-158.154 234.81,-172.083 236.045,-182.896"/>
</g>
<!-- &#45;attrs5 -->
<g id="node12" class="node"><title>&#45;attrs5</title>
<polygon fill="none" stroke="gray" points="453,-219 367,-219 367,-183 459,-183 459,-213 453,-219"/>
<polyline fill="none" stroke="gray" points="453,-219 453,-213 "/>
<polyline fill="none" stroke="gray" points="459,-213 453,-213 "/>
<text text-anchor="start" x="377" y="-198" font-family="Times New Roman,serif" font-size="10.00">type:</text>
<text text-anchor="start" x="400" y="-198" font-family="Times New Roman,serif" font-size="10.00">u2p:Seminar</text>
</g>
<!-- &#45;attrs5&#45;&gt;http://example.org/Seminar@1f89ab83 -->
<g id="edge6" class="edge"><title>&#45;attrs5&#45;&gt;http://example.org/Seminar@1f89ab83</title>
<path fill="none" stroke="gray" stroke-dasharray="5,2" d="M421.157,-219.303C426.807,-231.287 434.227,-247.028 439.483,-258.175"/>
</g>
</g>
</svg>
