<?xml version="1.0" encoding="UTF-8" standalone="no"?>
<!DOCTYPE svg PUBLIC "-//W3C//DTD SVG 1.1//EN"
 "http://www.w3.org/Graphics/SVG/1.1/DTD/svg11.dtd">
<!-- Generated by graphviz version 2.38.0 (20140413.2041)
 -->
<!-- Title: PROV Pages: 1 -->
<svg width="646pt" height="315pt"
 viewBox="0.00 0.00 646.00 315.00" xmlns="http://www.w3.org/2000/svg" xmlns:xlink="http://www.w3.org/1999/xlink">
<g id="graph0" class="graph" transform="scale(1 1) rotate(0) translate(4 311)">
<title>PROV</title>
<polygon fill="white" stroke="none" points="-4,4 -4,-311 642,-311 642,4 -4,4"/>
<g id="clust1" class="cluster"><title>clusterhttp://example.org/bundle1</title>
<g id="a_clust1"><a xlink:href="http://example.org/bundle1" xlink:title="bundle1">
<polygon fill="none" stroke="black" points="8,-8 8,-299 630,-299 630,-8 8,-8"/>
<text text-anchor="middle" x="319" y="-15.8" font-family="Times New Roman,serif" font-size="14.00">bundle1</text>
</a>
</g>
</g>
<!-- http://example.org/enrolStudent_1 -->
<g id="node1" class="node"><title>http://example.org/enrolStudent_1</title>
<g id="a_node1"><a xlink:href="http://example.org/enrolStudent_1" xlink:title="enrolStudent_1">
<polygon fill="#9fb1fc" stroke="#0000ff" points="333.5,-219 232.5,-219 232.5,-183 333.5,-183 333.5,-219"/>
<text text-anchor="middle" x="283" y="-197.3" font-family="Times New Roman,serif" font-size="14.00">enrolStudent_1</text>
</a>
</g>
</g>
<!-- http://example.org/$Proxy0@5f375618_0 -->
<g id="node3" class="node"><title>http://example.org/$Proxy0@5f375618_0</title>
<g id="a_node3"><a xlink:href="http://example.org/$Proxy0@5f375618_0" xlink:title="$Proxy0@5f375618_0">
<ellipse fill="#fffc87" stroke="#808080" cx="529" cy="-273" rx="92.8835" ry="18"/>
<text text-anchor="middle" x="529" y="-269.3" font-family="Times New Roman,serif" font-size="14.00">$Proxy0@5f375618_0</text>
</a>
</g>
</g>
<!-- http://example.org/enrolStudent_1&#45;&gt;http://example.org/$Proxy0@5f375618_0 -->
<g id="edge5" class="edge"><title>http://example.org/enrolStudent_1&#45;&gt;http://example.org/$Proxy0@5f375618_0</title>
<path fill="none" stroke="black" d="M333.673,-216.419C372.997,-227.609 427.618,-243.152 469.104,-254.956"/>
<polygon fill="black" stroke="black" points="468.238,-258.349 478.814,-257.719 470.154,-251.616 468.238,-258.349"/>
<text text-anchor="middle" x="344.442" y="-204.077" font-family="Times New Roman,serif" font-size="8.00">use</text>
</g>
<!-- http://example.org/dataset.caseStudy.CS1Seminar.Student@ -->
<g id="node7" class="node"><title>http://example.org/dataset.caseStudy.CS1Seminar.Student@</title>
<g id="a_node7"><a xlink:href="http://example.org/dataset.caseStudy.CS1Seminar.Student@" xlink:title="dataset.caseStudy.CS1Seminar.Student@">
<polygon fill="#fdb266" stroke="black" points="417.687,-278.562 217,-291 16.3134,-278.562 16.5007,-258.438 417.499,-258.438 417.687,-278.562"/>
<text text-anchor="middle" x="217" y="-269.3" font-family="Times New Roman,serif" font-size="14.00">dataset.caseStudy.CS1Seminar.Student@</text>
</a>
</g>
</g>
<!-- http://example.org/enrolStudent_1&#45;&gt;http://example.org/dataset.caseStudy.CS1Seminar.Student@ -->
<g id="edge6" class="edge"><title>http://example.org/enrolStudent_1&#45;&gt;http://example.org/dataset.caseStudy.CS1Seminar.Student@</title>
<path fill="none" stroke="black" d="M266.685,-219.303C257.681,-228.853 246.428,-240.788 236.91,-250.884"/>
<polygon fill="black" stroke="black" points="234.348,-248.499 230.035,-258.175 239.441,-253.301 234.348,-248.499"/>
<text text-anchor="middle" x="270.992" y="-231.772" font-family="Times New Roman,serif" font-size="8.00">assoc</text>
</g>
<!-- &#45;attrs0 -->
<g id="node2" class="node"><title>&#45;attrs0</title>
<polygon fill="none" stroke="gray" points="236.5,-147 129.5,-147 129.5,-111 242.5,-111 242.5,-141 236.5,-147"/>
<polyline fill="none" stroke="gray" points="236.5,-147 236.5,-141 "/>
<polyline fill="none" stroke="gray" points="242.5,-141 236.5,-141 "/>
<text text-anchor="start" x="140" y="-126" font-family="Times New Roman,serif" font-size="10.00">type:</text>
<text text-anchor="start" x="163" y="-126" font-family="Times New Roman,serif" font-size="10.00">u2p:enrolStudent</text>
</g>
<!-- &#45;attrs0&#45;&gt;http://example.org/enrolStudent_1 -->
<g id="edge1" class="edge"><title>&#45;attrs0&#45;&gt;http://example.org/enrolStudent_1</title>
<path fill="none" stroke="gray" stroke-dasharray="5,2" d="M209.978,-147.303C225.013,-158.154 244.315,-172.083 259.298,-182.896"/>
</g>
<!-- &#45;attrs1 -->
<g id="node4" class="node"><title>&#45;attrs1</title>
<polygon fill="none" stroke="gray" points="616,-219 372,-219 372,-183 622,-183 622,-213 616,-219"/>
<polyline fill="none" stroke="gray" points="616,-219 616,-213 "/>
<polyline fill="none" stroke="gray" points="622,-213 616,-213 "/>
<text text-anchor="start" x="382" y="-198" font-family="Times New Roman,serif" font-size="10.00">value:</text>
<text text-anchor="start" x="409" y="-198" font-family="Times New Roman,serif" font-size="10.00">dataset.caseStudy.CS1Seminar.Student@50c87b21</text>
</g>
<!-- &#45;attrs1&#45;&gt;http://example.org/$Proxy0@5f375618_0 -->
<g id="edge2" class="edge"><title>&#45;attrs1&#45;&gt;http://example.org/$Proxy0@5f375618_0</title>
<path fill="none" stroke="gray" stroke-dasharray="5,2" d="M504.91,-219.303C509.87,-230.154 516.238,-244.083 521.181,-254.896"/>
</g>
<!-- http://example.org/Boolean@1810399e_0 -->
<g id="node5" class="node"><title>http://example.org/Boolean@1810399e_0</title>
<g id="a_node5"><a xlink:href="http://example.org/Boolean@1810399e_0" xlink:title="Boolean@1810399e_0">
<ellipse fill="#fffc87" stroke="#808080" cx="353" cy="-129" rx="92.8835" ry="18"/>
<text text-anchor="middle" x="353" y="-125.3" font-family="Times New Roman,serif" font-size="14.00">Boolean@1810399e_0</text>
</a>
</g>
</g>
<!-- http://example.org/Boolean@1810399e_0&#45;&gt;http://example.org/enrolStudent_1 -->
<g id="edge7" class="edge"><title>http://example.org/Boolean@1810399e_0&#45;&gt;http://example.org/enrolStudent_1</title>
<path fill="none" stroke="black" d="M336.055,-146.945C327.498,-155.502 316.959,-166.041 307.535,-175.465"/>
<polygon fill="black" stroke="black" points="304.872,-173.179 300.275,-182.725 309.821,-178.128 304.872,-173.179"/>
<text text-anchor="middle" x="339.937" y="-159.534" font-family="Times New Roman,serif" font-size="8.00">gen</text>
</g>
<!-- http://example.org/Boolean@1810399e_0&#45;&gt;http://example.org/$Proxy0@5f375618_0 -->
<g id="edge8" class="edge"><title>http://example.org/Boolean@1810399e_0&#45;&gt;http://example.org/$Proxy0@5f375618_0</title>
<path fill="none" stroke="black" d="M349.861,-147.159C347.306,-166.784 346.437,-198.801 363,-219 375.467,-234.204 418.071,-247.632 456.993,-257.168"/>
<polygon fill="black" stroke="black" points="456.249,-260.589 466.788,-259.508 457.875,-253.78 456.249,-260.589"/>
<text text-anchor="middle" x="361.933" y="-154.162" font-family="Times New Roman,serif" font-size="8.00">der</text>
</g>
<!-- &#45;attrs2 -->
<g id="node6" class="node"><title>&#45;attrs2</title>
<polygon fill="none" stroke="gray" points="378.5,-75 321.5,-75 321.5,-39 384.5,-39 384.5,-69 378.5,-75"/>
<polyline fill="none" stroke="gray" points="378.5,-75 378.5,-69 "/>
<polyline fill="none" stroke="gray" points="384.5,-69 378.5,-69 "/>
<text text-anchor="start" x="332" y="-54" font-family="Times New Roman,serif" font-size="10.00">value:</text>
<text text-anchor="start" x="359" y="-54" font-family="Times New Roman,serif" font-size="10.00">true</text>
</g>
<!-- &#45;attrs2&#45;&gt;http://example.org/Boolean@1810399e_0 -->
<g id="edge3" class="edge"><title>&#45;attrs2&#45;&gt;http://example.org/Boolean@1810399e_0</title>
<path fill="none" stroke="gray" stroke-dasharray="5,2" d="M353,-75.3034C353,-86.1537 353,-100.083 353,-110.896"/>
</g>
<!-- &#45;attrs3 -->
<g id="node8" class="node"><title>&#45;attrs3</title>
<polygon fill="none" stroke="gray" points="208,-219 122,-219 122,-183 214,-183 214,-213 208,-219"/>
<polyline fill="none" stroke="gray" points="208,-219 208,-213 "/>
<polyline fill="none" stroke="gray" points="214,-213 208,-213 "/>
<text text-anchor="start" x="132" y="-198" font-family="Times New Roman,serif" font-size="10.00">type:</text>
<text text-anchor="start" x="155" y="-198" font-family="Times New Roman,serif" font-size="10.00">u2p:Student</text>
</g>
<!-- &#45;attrs3&#45;&gt;http://example.org/dataset.caseStudy.CS1Seminar.Student@ -->
<g id="edge4" class="edge"><title>&#45;attrs3&#45;&gt;http://example.org/dataset.caseStudy.CS1Seminar.Student@</title>
<path fill="none" stroke="gray" stroke-dasharray="5,2" d="M180.112,-219.303C188.501,-231.287 199.519,-247.028 207.323,-258.175"/>
</g>
</g>
</svg>
