<?xml version="1.0" encoding="UTF-8" standalone="no"?>
<!DOCTYPE svg PUBLIC "-//W3C//DTD SVG 1.1//EN"
 "http://www.w3.org/Graphics/SVG/1.1/DTD/svg11.dtd">
<!-- Generated by graphviz version 2.38.0 (20140413.2041)
 -->
<!-- Title: PROV Pages: 1 -->
<svg width="498pt" height="243pt"
 viewBox="0.00 0.00 498.00 243.00" xmlns="http://www.w3.org/2000/svg" xmlns:xlink="http://www.w3.org/1999/xlink">
<g id="graph0" class="graph" transform="scale(1 1) rotate(0) translate(4 239)">
<title>PROV</title>
<polygon fill="white" stroke="none" points="-4,4 -4,-239 494,-239 494,4 -4,4"/>
<g id="clust1" class="cluster"><title>clusterhttp://example.org/bundle1</title>
<g id="a_clust1"><a xlink:href="http://example.org/bundle1" xlink:title="bundle1">
<polygon fill="none" stroke="black" points="8,-8 8,-227 482,-227 482,-8 8,-8"/>
<text text-anchor="middle" x="245" y="-15.8" font-family="Times New Roman,serif" font-size="14.00">bundle1</text>
</a>
</g>
</g>
<!-- http://example.org/enrol_1 -->
<g id="node1" class="node"><title>http://example.org/enrol_1</title>
<g id="a_node1"><a xlink:href="http://example.org/enrol_1" xlink:title="enrol_1">
<polygon fill="#9fb1fc" stroke="#0000ff" points="185.5,-147 126.5,-147 126.5,-111 185.5,-111 185.5,-147"/>
<text text-anchor="middle" x="156" y="-125.3" font-family="Times New Roman,serif" font-size="14.00">enrol_1</text>
</a>
</g>
</g>
<!-- http://example.org/$Proxy1@32d992b2_0 -->
<g id="node3" class="node"><title>http://example.org/$Proxy1@32d992b2_0</title>
<g id="a_node3"><a xlink:href="http://example.org/$Proxy1@32d992b2_0" xlink:title="$Proxy1@32d992b2_0">
<ellipse fill="#fffc87" stroke="#808080" cx="323" cy="-201" rx="94.7833" ry="18"/>
<text text-anchor="middle" x="323" y="-197.3" font-family="Times New Roman,serif" font-size="14.00">$Proxy1@32d992b2_0</text>
</a>
</g>
</g>
<!-- http://example.org/enrol_1&#45;&gt;http://example.org/$Proxy1@32d992b2_0 -->
<g id="edge4" class="edge"><title>http://example.org/enrol_1&#45;&gt;http://example.org/$Proxy1@32d992b2_0</title>
<path fill="none" stroke="black" d="M185.856,-142.515C210.975,-153.043 247.324,-168.28 276.291,-180.421"/>
<polygon fill="black" stroke="black" points="275.229,-183.771 285.804,-184.409 277.935,-177.315 275.229,-183.771"/>
<text text-anchor="middle" x="197.795" y="-131.533" font-family="Times New Roman,serif" font-size="8.00">use</text>
</g>
<!-- http://example.org/dataset.Principal@ -->
<g id="node6" class="node"><title>http://example.org/dataset.Principal@</title>
<g id="a_node6"><a xlink:href="http://example.org/dataset.Principal@" xlink:title="dataset.Principal@">
<polygon fill="#fdb266" stroke="black" points="210.417,-206.562 113,-219 15.5833,-206.562 15.6742,-186.438 210.326,-186.438 210.417,-206.562"/>
<text text-anchor="middle" x="113" y="-197.3" font-family="Times New Roman,serif" font-size="14.00">dataset.Principal@</text>
</a>
</g>
</g>
<!-- http://example.org/enrol_1&#45;&gt;http://example.org/dataset.Principal@ -->
<g id="edge5" class="edge"><title>http://example.org/enrol_1&#45;&gt;http://example.org/dataset.Principal@</title>
<path fill="none" stroke="black" d="M145.371,-147.303C139.792,-156.385 132.888,-167.624 126.891,-177.386"/>
<polygon fill="black" stroke="black" points="123.744,-175.823 121.492,-186.175 129.709,-179.487 123.744,-175.823"/>
<text text-anchor="middle" x="152.514" y="-158.593" font-family="Times New Roman,serif" font-size="8.00">assoc</text>
</g>
<!-- &#45;attrs0 -->
<g id="node2" class="node"><title>&#45;attrs0</title>
<polygon fill="none" stroke="gray" points="142.5,-75 35.5,-75 35.5,-39 148.5,-39 148.5,-69 142.5,-75"/>
<polyline fill="none" stroke="gray" points="142.5,-75 142.5,-69 "/>
<polyline fill="none" stroke="gray" points="148.5,-69 142.5,-69 "/>
<text text-anchor="start" x="46" y="-54" font-family="Times New Roman,serif" font-size="10.00">type:</text>
<text text-anchor="start" x="69" y="-54" font-family="Times New Roman,serif" font-size="10.00">u2p:enrolStudent</text>
</g>
<!-- &#45;attrs0&#45;&gt;http://example.org/enrol_1 -->
<g id="edge1" class="edge"><title>&#45;attrs0&#45;&gt;http://example.org/enrol_1</title>
<path fill="none" stroke="gray" stroke-dasharray="5,2" d="M107.82,-75.3034C117.741,-86.1537 130.476,-100.083 140.362,-110.896"/>
</g>
<!-- &#45;attrs1 -->
<g id="node4" class="node"><title>&#45;attrs1</title>
<polygon fill="none" stroke="gray" points="467.5,-147 224.5,-147 224.5,-111 473.5,-111 473.5,-141 467.5,-147"/>
<polyline fill="none" stroke="gray" points="467.5,-147 467.5,-141 "/>
<polyline fill="none" stroke="gray" points="473.5,-141 467.5,-141 "/>
<text text-anchor="start" x="235" y="-126" font-family="Times New Roman,serif" font-size="10.00">value:</text>
<text text-anchor="start" x="262" y="-126" font-family="Times New Roman,serif" font-size="10.00">dataset.caseStudy.CS1Seminar.Seminar@1f89ab83</text>
</g>
<!-- &#45;attrs1&#45;&gt;http://example.org/$Proxy1@32d992b2_0 -->
<g id="edge2" class="edge"><title>&#45;attrs1&#45;&gt;http://example.org/$Proxy1@32d992b2_0</title>
<path fill="none" stroke="gray" stroke-dasharray="5,2" d="M342.573,-147.303C338.543,-158.154 333.369,-172.083 329.353,-182.896"/>
</g>
<!-- http://openprovenance.org/var#output0 -->
<g id="node5" class="node"><title>http://openprovenance.org/var#output0</title>
<g id="a_node5"><a xlink:href="http://openprovenance.org/var#output0" xlink:title="output0">
<ellipse fill="#fffc87" stroke="#808080" cx="205" cy="-57" rx="38.1938" ry="18"/>
<text text-anchor="middle" x="205" y="-53.3" font-family="Times New Roman,serif" font-size="14.00">output0</text>
</a>
</g>
</g>
<!-- http://openprovenance.org/var#output0&#45;&gt;http://example.org/enrol_1 -->
<g id="edge6" class="edge"><title>http://openprovenance.org/var#output0&#45;&gt;http://example.org/enrol_1</title>
<path fill="none" stroke="black" d="M193.635,-74.2354C187.748,-82.6462 180.423,-93.1096 173.805,-102.564"/>
<polygon fill="black" stroke="black" points="170.854,-100.677 167.987,-110.876 176.589,-104.691 170.854,-100.677"/>
<text text-anchor="middle" x="199.976" y="-85.9291" font-family="Times New Roman,serif" font-size="8.00">gen</text>
</g>
<!-- http://openprovenance.org/var#output0&#45;&gt;http://example.org/$Proxy1@32d992b2_0 -->
<g id="edge7" class="edge"><title>http://openprovenance.org/var#output0&#45;&gt;http://example.org/$Proxy1@32d992b2_0</title>
<path fill="none" stroke="black" d="M202.367,-75.0918C200.354,-94.361 200.056,-125.765 215,-147 226.055,-162.709 243.106,-173.971 260.417,-181.954"/>
<polygon fill="black" stroke="black" points="259.454,-185.349 270.025,-186.059 262.205,-178.912 259.454,-185.349"/>
<text text-anchor="middle" x="214.65" y="-81.8021" font-family="Times New Roman,serif" font-size="8.00">der</text>
</g>
<!-- &#45;attrs2 -->
<g id="node7" class="node"><title>&#45;attrs2</title>
<polygon fill="none" stroke="gray" points="102,-147 16,-147 16,-111 108,-111 108,-141 102,-147"/>
<polyline fill="none" stroke="gray" points="102,-147 102,-141 "/>
<polyline fill="none" stroke="gray" points="108,-141 102,-141 "/>
<text text-anchor="start" x="26" y="-126" font-family="Times New Roman,serif" font-size="10.00">type:</text>
<text text-anchor="start" x="49" y="-126" font-family="Times New Roman,serif" font-size="10.00">u2p:Student</text>
</g>
<!-- &#45;attrs2&#45;&gt;http://example.org/dataset.Principal@ -->
<g id="edge3" class="edge"><title>&#45;attrs2&#45;&gt;http://example.org/dataset.Principal@</title>
<path fill="none" stroke="gray" stroke-dasharray="5,2" d="M74.6067,-147.303C83.3379,-159.287 94.8058,-175.028 102.928,-186.175"/>
</g>
</g>
</svg>
