<?xml version="1.0" encoding="UTF-8" standalone="no"?>
<!DOCTYPE svg PUBLIC "-//W3C//DTD SVG 1.1//EN"
 "http://www.w3.org/Graphics/SVG/1.1/DTD/svg11.dtd">
<!-- Generated by graphviz version 2.38.0 (20140413.2041)
 -->
<!-- Title: PROV Pages: 1 -->
<svg width="470pt" height="243pt"
 viewBox="0.00 0.00 470.00 243.00" xmlns="http://www.w3.org/2000/svg" xmlns:xlink="http://www.w3.org/1999/xlink">
<g id="graph0" class="graph" transform="scale(1 1) rotate(0) translate(4 239)">
<title>PROV</title>
<polygon fill="white" stroke="none" points="-4,4 -4,-239 466,-239 466,4 -4,4"/>
<g id="clust1" class="cluster"><title>clusterhttp://example.org/bundle1</title>
<g id="a_clust1"><a xlink:href="http://example.org/bundle1" xlink:title="bundle1">
<polygon fill="none" stroke="black" points="8,-8 8,-227 454,-227 454,-8 8,-8"/>
<text text-anchor="middle" x="231" y="-15.8" font-family="Times New Roman,serif" font-size="14.00">bundle1</text>
</a>
</g>
</g>
<!-- http://example.org/includeAssociatedSeminar_1 -->
<g id="node1" class="node"><title>http://example.org/includeAssociatedSeminar_1</title>
<g id="a_node1"><a xlink:href="http://example.org/includeAssociatedSeminar_1" xlink:title="includeAssociatedSeminar_1">
<polygon fill="#9fb1fc" stroke="#0000ff" points="304,-147 126,-147 126,-111 304,-111 304,-147"/>
<text text-anchor="middle" x="215" y="-125.3" font-family="Times New Roman,serif" font-size="14.00">includeAssociatedSeminar_1</text>
</a>
</g>
</g>
<!-- http://example.org/Seminar@1f89ab83_0 -->
<g id="node3" class="node"><title>http://example.org/Seminar@1f89ab83_0</title>
<g id="a_node3"><a xlink:href="http://example.org/Seminar@1f89ab83_0" xlink:title="Seminar@1f89ab83_0">
<ellipse fill="#fffc87" stroke="#808080" cx="348" cy="-201" rx="90.9839" ry="18"/>
<text text-anchor="middle" x="348" y="-197.3" font-family="Times New Roman,serif" font-size="14.00">Seminar@1f89ab83_0</text>
</a>
</g>
</g>
<!-- http://example.org/includeAssociatedSeminar_1&#45;&gt;http://example.org/Seminar@1f89ab83_0 -->
<g id="edge4" class="edge"><title>http://example.org/includeAssociatedSeminar_1&#45;&gt;http://example.org/Seminar@1f89ab83_0</title>
<path fill="none" stroke="black" d="M247.535,-147.124C265.992,-156.838 289.219,-169.063 308.69,-179.31"/>
<polygon fill="black" stroke="black" points="307.145,-182.452 317.624,-184.013 310.405,-176.258 307.145,-182.452"/>
<text text-anchor="middle" x="260.223" y="-137.222" font-family="Times New Roman,serif" font-size="8.00">use</text>
</g>
<!-- http://example.org/Seminar@1f89ab83 -->
<g id="node5" class="node"><title>http://example.org/Seminar@1f89ab83</title>
<g id="a_node5"><a xlink:href="http://example.org/Seminar@1f89ab83" xlink:title="Seminar@1f89ab83">
<polygon fill="#fdb266" stroke="black" points="232.45,-206.562 131,-219 29.5495,-206.562 29.6442,-186.438 232.356,-186.438 232.45,-206.562"/>
<text text-anchor="middle" x="131" y="-197.3" font-family="Times New Roman,serif" font-size="14.00">Seminar@1f89ab83</text>
</a>
</g>
</g>
<!-- http://example.org/includeAssociatedSeminar_1&#45;&gt;http://example.org/Seminar@1f89ab83 -->
<g id="edge5" class="edge"><title>http://example.org/includeAssociatedSeminar_1&#45;&gt;http://example.org/Seminar@1f89ab83</title>
<path fill="none" stroke="black" d="M194.236,-147.303C182.36,-157.2 167.409,-169.659 155.027,-179.978"/>
<polygon fill="black" stroke="black" points="152.761,-177.31 147.319,-186.401 157.242,-182.688 152.761,-177.31"/>
<text text-anchor="middle" x="196.791" y="-160.184" font-family="Times New Roman,serif" font-size="8.00">assoc</text>
</g>
<!-- &#45;attrs0 -->
<g id="node2" class="node"><title>&#45;attrs0</title>
<polygon fill="none" stroke="gray" points="292.5,-75 131.5,-75 131.5,-39 298.5,-39 298.5,-69 292.5,-75"/>
<polyline fill="none" stroke="gray" points="292.5,-75 292.5,-69 "/>
<polyline fill="none" stroke="gray" points="298.5,-69 292.5,-69 "/>
<text text-anchor="start" x="142" y="-54" font-family="Times New Roman,serif" font-size="10.00">type:</text>
<text text-anchor="start" x="165" y="-54" font-family="Times New Roman,serif" font-size="10.00">u2p:includeAssociatedSeminar</text>
</g>
<!-- &#45;attrs0&#45;&gt;http://example.org/includeAssociatedSeminar_1 -->
<g id="edge1" class="edge"><title>&#45;attrs0&#45;&gt;http://example.org/includeAssociatedSeminar_1</title>
<path fill="none" stroke="gray" stroke-dasharray="5,2" d="M215,-75.3034C215,-86.1537 215,-100.083 215,-110.896"/>
</g>
<!-- &#45;attrs1 -->
<g id="node4" class="node"><title>&#45;attrs1</title>
<polygon fill="none" stroke="gray" points="439.5,-147 322.5,-147 322.5,-111 445.5,-111 445.5,-141 439.5,-147"/>
<polyline fill="none" stroke="gray" points="439.5,-147 439.5,-141 "/>
<polyline fill="none" stroke="gray" points="445.5,-141 439.5,-141 "/>
<text text-anchor="start" x="333" y="-126" font-family="Times New Roman,serif" font-size="10.00">value:</text>
<text text-anchor="start" x="360" y="-126" font-family="Times New Roman,serif" font-size="10.00">Seminar@1f89ab83</text>
</g>
<!-- &#45;attrs1&#45;&gt;http://example.org/Seminar@1f89ab83_0 -->
<g id="edge2" class="edge"><title>&#45;attrs1&#45;&gt;http://example.org/Seminar@1f89ab83_0</title>
<path fill="none" stroke="gray" stroke-dasharray="5,2" d="M375.101,-147.303C369.521,-158.154 362.357,-172.083 356.797,-182.896"/>
</g>
<!-- &#45;attrs2 -->
<g id="node6" class="node"><title>&#45;attrs2</title>
<polygon fill="none" stroke="gray" points="102,-147 16,-147 16,-111 108,-111 108,-141 102,-147"/>
<polyline fill="none" stroke="gray" points="102,-147 102,-141 "/>
<polyline fill="none" stroke="gray" points="108,-141 102,-141 "/>
<text text-anchor="start" x="26" y="-126" font-family="Times New Roman,serif" font-size="10.00">type:</text>
<text text-anchor="start" x="49" y="-126" font-family="Times New Roman,serif" font-size="10.00">u2p:Seminar</text>
</g>
<!-- &#45;attrs2&#45;&gt;http://example.org/Seminar@1f89ab83 -->
<g id="edge3" class="edge"><title>&#45;attrs2&#45;&gt;http://example.org/Seminar@1f89ab83</title>
<path fill="none" stroke="gray" stroke-dasharray="5,2" d="M79.0562,-147.303C90.8689,-159.287 106.384,-175.028 117.373,-186.175"/>
</g>
</g>
</svg>
