<?xml version="1.0" encoding="UTF-8" standalone="no"?>
<!DOCTYPE svg PUBLIC "-//W3C//DTD SVG 1.1//EN"
 "http://www.w3.org/Graphics/SVG/1.1/DTD/svg11.dtd">
<!-- Generated by graphviz version 2.38.0 (20140413.2041)
 -->
<!-- Title: PROV Pages: 1 -->
<svg width="644pt" height="243pt"
 viewBox="0.00 0.00 644.00 243.00" xmlns="http://www.w3.org/2000/svg" xmlns:xlink="http://www.w3.org/1999/xlink">
<g id="graph0" class="graph" transform="scale(1 1) rotate(0) translate(4 239)">
<title>PROV</title>
<polygon fill="white" stroke="none" points="-4,4 -4,-239 640,-239 640,4 -4,4"/>
<g id="clust1" class="cluster"><title>clusterhttp://example.org/bundle1</title>
<g id="a_clust1"><a xlink:href="http://example.org/bundle1" xlink:title="bundle1">
<polygon fill="none" stroke="black" points="8,-8 8,-227 628,-227 628,-8 8,-8"/>
<text text-anchor="middle" x="318" y="-15.8" font-family="Times New Roman,serif" font-size="14.00">bundle1</text>
</a>
</g>
</g>
<!-- http://example.org/setSeminarHistory_1 -->
<g id="node1" class="node"><title>http://example.org/setSeminarHistory_1</title>
<g id="a_node1"><a xlink:href="http://example.org/setSeminarHistory_1" xlink:title="setSeminarHistory_1">
<polygon fill="#9fb1fc" stroke="#0000ff" points="352.5,-147 219.5,-147 219.5,-111 352.5,-111 352.5,-147"/>
<text text-anchor="middle" x="286" y="-125.3" font-family="Times New Roman,serif" font-size="14.00">setSeminarHistory_1</text>
</a>
</g>
</g>
<!-- http://example.org/Seminar@1f89ab83_0 -->
<g id="node3" class="node"><title>http://example.org/Seminar@1f89ab83_0</title>
<g id="a_node3"><a xlink:href="http://example.org/Seminar@1f89ab83_0" xlink:title="Seminar@1f89ab83_0">
<ellipse fill="#fffc87" stroke="#808080" cx="529" cy="-201" rx="90.9839" ry="18"/>
<text text-anchor="middle" x="529" y="-197.3" font-family="Times New Roman,serif" font-size="14.00">Seminar@1f89ab83_0</text>
</a>
</g>
</g>
<!-- http://example.org/setSeminarHistory_1&#45;&gt;http://example.org/Seminar@1f89ab83_0 -->
<g id="edge4" class="edge"><title>http://example.org/setSeminarHistory_1&#45;&gt;http://example.org/Seminar@1f89ab83_0</title>
<path fill="none" stroke="black" d="M345.134,-147.034C383.048,-157.956 432.08,-172.081 469.973,-182.996"/>
<polygon fill="black" stroke="black" points="469.271,-186.436 479.849,-185.841 471.209,-179.71 469.271,-186.436"/>
<text text-anchor="middle" x="355.937" y="-134.728" font-family="Times New Roman,serif" font-size="8.00">use</text>
</g>
<!-- http://example.org/dataset.caseStudy.CS1Seminar.Seminar@ -->
<g id="node5" class="node"><title>http://example.org/dataset.caseStudy.CS1Seminar.Seminar@</title>
<g id="a_node5"><a xlink:href="http://example.org/dataset.caseStudy.CS1Seminar.Seminar@" xlink:title="dataset.caseStudy.CS1Seminar.Seminar@">
<polygon fill="#fdb266" stroke="black" points="420.4,-206.562 218,-219 15.6,-206.562 15.789,-186.438 420.211,-186.438 420.4,-206.562"/>
<text text-anchor="middle" x="218" y="-197.3" font-family="Times New Roman,serif" font-size="14.00">dataset.caseStudy.CS1Seminar.Seminar@</text>
</a>
</g>
</g>
<!-- http://example.org/setSeminarHistory_1&#45;&gt;http://example.org/dataset.caseStudy.CS1Seminar.Seminar@ -->
<g id="edge5" class="edge"><title>http://example.org/setSeminarHistory_1&#45;&gt;http://example.org/dataset.caseStudy.CS1Seminar.Seminar@</title>
<path fill="none" stroke="black" d="M269.191,-147.303C259.914,-156.853 248.32,-168.788 238.513,-178.884"/>
<polygon fill="black" stroke="black" points="235.887,-176.564 231.43,-186.175 240.908,-181.441 235.887,-176.564"/>
<text text-anchor="middle" x="273.283" y="-159.834" font-family="Times New Roman,serif" font-size="8.00">assoc</text>
</g>
<!-- &#45;attrs0 -->
<g id="node2" class="node"><title>&#45;attrs0</title>
<polygon fill="none" stroke="gray" points="347,-75 219,-75 219,-39 353,-39 353,-69 347,-75"/>
<polyline fill="none" stroke="gray" points="347,-75 347,-69 "/>
<polyline fill="none" stroke="gray" points="353,-69 347,-69 "/>
<text text-anchor="start" x="229" y="-54" font-family="Times New Roman,serif" font-size="10.00">type:</text>
<text text-anchor="start" x="252" y="-54" font-family="Times New Roman,serif" font-size="10.00">u2p:setSeminarHistory</text>
</g>
<!-- &#45;attrs0&#45;&gt;http://example.org/setSeminarHistory_1 -->
<g id="edge1" class="edge"><title>&#45;attrs0&#45;&gt;http://example.org/setSeminarHistory_1</title>
<path fill="none" stroke="gray" stroke-dasharray="5,2" d="M286,-75.3034C286,-86.1537 286,-100.083 286,-110.896"/>
</g>
<!-- &#45;attrs1 -->
<g id="node4" class="node"><title>&#45;attrs1</title>
<polygon fill="none" stroke="gray" points="613.5,-147 370.5,-147 370.5,-111 619.5,-111 619.5,-141 613.5,-147"/>
<polyline fill="none" stroke="gray" points="613.5,-147 613.5,-141 "/>
<polyline fill="none" stroke="gray" points="619.5,-141 613.5,-141 "/>
<text text-anchor="start" x="381" y="-126" font-family="Times New Roman,serif" font-size="10.00">value:</text>
<text text-anchor="start" x="408" y="-126" font-family="Times New Roman,serif" font-size="10.00">dataset.caseStudy.CS1Seminar.Seminar@1f89ab83</text>
</g>
<!-- &#45;attrs1&#45;&gt;http://example.org/Seminar@1f89ab83_0 -->
<g id="edge2" class="edge"><title>&#45;attrs1&#45;&gt;http://example.org/Seminar@1f89ab83_0</title>
<path fill="none" stroke="gray" stroke-dasharray="5,2" d="M503.404,-147.303C508.675,-158.154 515.44,-172.083 520.692,-182.896"/>
</g>
<!-- &#45;attrs2 -->
<g id="node6" class="node"><title>&#45;attrs2</title>
<polygon fill="none" stroke="gray" points="195.5,-147 112.5,-147 112.5,-111 201.5,-111 201.5,-141 195.5,-147"/>
<polyline fill="none" stroke="gray" points="195.5,-147 195.5,-141 "/>
<polyline fill="none" stroke="gray" points="201.5,-141 195.5,-141 "/>
<text text-anchor="start" x="123" y="-126" font-family="Times New Roman,serif" font-size="10.00">type:</text>
<text text-anchor="start" x="146" y="-126" font-family="Times New Roman,serif" font-size="10.00">u2p:Course</text>
</g>
<!-- &#45;attrs2&#45;&gt;http://example.org/dataset.caseStudy.CS1Seminar.Seminar@ -->
<g id="edge3" class="edge"><title>&#45;attrs2&#45;&gt;http://example.org/dataset.caseStudy.CS1Seminar.Seminar@</title>
<path fill="none" stroke="gray" stroke-dasharray="5,2" d="M172.079,-147.303C182.522,-159.287 196.238,-175.028 205.953,-186.175"/>
</g>
</g>
</svg>
