<?xml version="1.0" encoding="UTF-8" standalone="no"?>
<!DOCTYPE svg PUBLIC "-//W3C//DTD SVG 1.1//EN"
 "http://www.w3.org/Graphics/SVG/1.1/DTD/svg11.dtd">
<!-- Generated by graphviz version 2.38.0 (20140413.2041)
 -->
<!-- Title: PROV Pages: 1 -->
<svg width="234pt" height="243pt"
 viewBox="0.00 0.00 234.00 243.00" xmlns="http://www.w3.org/2000/svg" xmlns:xlink="http://www.w3.org/1999/xlink">
<g id="graph0" class="graph" transform="scale(1 1) rotate(0) translate(4 239)">
<title>PROV</title>
<polygon fill="white" stroke="none" points="-4,4 -4,-239 230,-239 230,4 -4,4"/>
<g id="clust1" class="cluster"><title>clusterhttp://example.org/bundle1</title>
<g id="a_clust1"><a xlink:href="http://example.org/bundle1" xlink:title="bundle1">
<polygon fill="none" stroke="black" points="8,-8 8,-227 218,-227 218,-8 8,-8"/>
<text text-anchor="middle" x="113" y="-15.8" font-family="Times New Roman,serif" font-size="14.00">bundle1</text>
</a>
</g>
</g>
<!-- http://example.org/atFloor_1 -->
<g id="node1" class="node"><title>http://example.org/atFloor_1</title>
<g id="a_node1"><a xlink:href="http://example.org/atFloor_1" xlink:title="atFloor_1">
<polygon fill="#9fb1fc" stroke="#0000ff" points="194.5,-147 123.5,-147 123.5,-111 194.5,-111 194.5,-147"/>
<text text-anchor="middle" x="159" y="-125.3" font-family="Times New Roman,serif" font-size="14.00">atFloor_1</text>
</a>
</g>
</g>
<!-- http://example.org/dataset.Principal@ -->
<g id="node3" class="node"><title>http://example.org/dataset.Principal@</title>
<g id="a_node3"><a xlink:href="http://example.org/dataset.Principal@" xlink:title="dataset.Principal@">
<polygon fill="#fdb266" stroke="black" points="210.417,-206.562 113,-219 15.5833,-206.562 15.6742,-186.438 210.326,-186.438 210.417,-206.562"/>
<text text-anchor="middle" x="113" y="-197.3" font-family="Times New Roman,serif" font-size="14.00">dataset.Principal@</text>
</a>
</g>
</g>
<!-- http://example.org/atFloor_1&#45;&gt;http://example.org/dataset.Principal@ -->
<g id="edge3" class="edge"><title>http://example.org/atFloor_1&#45;&gt;http://example.org/dataset.Principal@</title>
<path fill="none" stroke="black" d="M147.629,-147.303C141.6,-156.479 134.123,-167.856 127.662,-177.688"/>
<polygon fill="black" stroke="black" points="124.652,-175.896 122.085,-186.175 130.501,-179.741 124.652,-175.896"/>
<text text-anchor="middle" x="154.367" y="-158.805" font-family="Times New Roman,serif" font-size="8.00">assoc</text>
</g>
<!-- &#45;attrs0 -->
<g id="node2" class="node"><title>&#45;attrs0</title>
<polygon fill="none" stroke="gray" points="197.5,-75 114.5,-75 114.5,-39 203.5,-39 203.5,-69 197.5,-75"/>
<polyline fill="none" stroke="gray" points="197.5,-75 197.5,-69 "/>
<polyline fill="none" stroke="gray" points="203.5,-69 197.5,-69 "/>
<text text-anchor="start" x="125" y="-54" font-family="Times New Roman,serif" font-size="10.00">type:</text>
<text text-anchor="start" x="148" y="-54" font-family="Times New Roman,serif" font-size="10.00">u2p:atFloor</text>
</g>
<!-- &#45;attrs0&#45;&gt;http://example.org/atFloor_1 -->
<g id="edge1" class="edge"><title>&#45;attrs0&#45;&gt;http://example.org/atFloor_1</title>
<path fill="none" stroke="gray" stroke-dasharray="5,2" d="M159,-75.3034C159,-86.1537 159,-100.083 159,-110.896"/>
</g>
<!-- &#45;attrs1 -->
<g id="node4" class="node"><title>&#45;attrs1</title>
<polygon fill="none" stroke="gray" points="99.5,-147 22.5,-147 22.5,-111 105.5,-111 105.5,-141 99.5,-147"/>
<polyline fill="none" stroke="gray" points="99.5,-147 99.5,-141 "/>
<polyline fill="none" stroke="gray" points="105.5,-141 99.5,-141 "/>
<text text-anchor="start" x="33" y="-126" font-family="Times New Roman,serif" font-size="10.00">type:</text>
<text text-anchor="start" x="56" y="-126" font-family="Times New Roman,serif" font-size="10.00">u2p:Drive</text>
</g>
<!-- &#45;attrs1&#45;&gt;http://example.org/dataset.Principal@ -->
<g id="edge2" class="edge"><title>&#45;attrs1&#45;&gt;http://example.org/dataset.Principal@</title>
<path fill="none" stroke="gray" stroke-dasharray="5,2" d="M76.1124,-147.303C84.5011,-159.287 95.5193,-175.028 103.323,-186.175"/>
</g>
</g>
</svg>
