<?xml version="1.0" encoding="UTF-8" standalone="no"?>
<!DOCTYPE svg PUBLIC "-//W3C//DTD SVG 1.1//EN"
 "http://www.w3.org/Graphics/SVG/1.1/DTD/svg11.dtd">
<!-- Generated by graphviz version 2.38.0 (20140413.2041)
 -->
<!-- Title: PROV Pages: 1 -->
<svg width="408pt" height="459pt"
 viewBox="0.00 0.00 408.00 459.00" xmlns="http://www.w3.org/2000/svg" xmlns:xlink="http://www.w3.org/1999/xlink">
<g id="graph0" class="graph" transform="scale(1 1) rotate(0) translate(4 455)">
<title>PROV</title>
<polygon fill="white" stroke="none" points="-4,4 -4,-455 404,-455 404,4 -4,4"/>
<g id="clust1" class="cluster"><title>clusterhttp://example.org/bundle1</title>
<g id="a_clust1"><a xlink:href="http://example.org/bundle1" xlink:title="bundle1">
<polygon fill="none" stroke="black" points="8,-8 8,-443 392,-443 392,-8 8,-8"/>
<text text-anchor="middle" x="200" y="-15.8" font-family="Times New Roman,serif" font-size="14.00">bundle1</text>
</a>
</g>
</g>
<!-- http://example.org/atFloor_1 -->
<g id="node1" class="node"><title>http://example.org/atFloor_1</title>
<g id="a_node1"><a xlink:href="http://example.org/atFloor_1" xlink:title="atFloor_1">
<polygon fill="#9fb1fc" stroke="#0000ff" points="297.5,-219 226.5,-219 226.5,-183 297.5,-183 297.5,-219"/>
<text text-anchor="middle" x="262" y="-197.3" font-family="Times New Roman,serif" font-size="14.00">atFloor_1</text>
</a>
</g>
</g>
<!-- http://example.org/DoorControl@3a82f6ef_2 -->
<g id="node7" class="node"><title>http://example.org/DoorControl@3a82f6ef_2</title>
<g id="a_node7"><a xlink:href="http://example.org/DoorControl@3a82f6ef_2" xlink:title="DoorControl@3a82f6ef_2">
<ellipse fill="#fffc87" stroke="#808080" cx="143" cy="-273" rx="106.681" ry="18"/>
<text text-anchor="middle" x="143" y="-269.3" font-family="Times New Roman,serif" font-size="14.00">DoorControl@3a82f6ef_2</text>
</a>
</g>
</g>
<!-- http://example.org/atFloor_1&#45;&gt;http://example.org/DoorControl@3a82f6ef_2 -->
<g id="edge11" class="edge"><title>http://example.org/atFloor_1&#45;&gt;http://example.org/DoorControl@3a82f6ef_2</title>
<path fill="none" stroke="black" d="M226.992,-219.124C210.229,-228.413 190.392,-239.999 174.155,-249.955"/>
<polygon fill="black" stroke="black" points="172.2,-247.049 165.547,-255.294 175.89,-252.998 172.2,-247.049"/>
<text text-anchor="middle" x="226.768" y="-232.222" font-family="Times New Roman,serif" font-size="8.00">use</text>
</g>
<!-- &#45;attrs0 -->
<g id="node2" class="node"><title>&#45;attrs0</title>
<polygon fill="none" stroke="gray" points="330.5,-147 247.5,-147 247.5,-111 336.5,-111 336.5,-141 330.5,-147"/>
<polyline fill="none" stroke="gray" points="330.5,-147 330.5,-141 "/>
<polyline fill="none" stroke="gray" points="336.5,-141 330.5,-141 "/>
<text text-anchor="start" x="258" y="-126" font-family="Times New Roman,serif" font-size="10.00">type:</text>
<text text-anchor="start" x="281" y="-126" font-family="Times New Roman,serif" font-size="10.00">u2p:atFloor</text>
</g>
<!-- &#45;attrs0&#45;&gt;http://example.org/atFloor_1 -->
<g id="edge1" class="edge"><title>&#45;attrs0&#45;&gt;http://example.org/atFloor_1</title>
<path fill="none" stroke="gray" stroke-dasharray="5,2" d="M284.584,-147.303C279.934,-158.154 273.964,-172.083 269.33,-182.896"/>
</g>
<!-- http://example.org/DoorControl@3a82f6ef_0 -->
<g id="node3" class="node"><title>http://example.org/DoorControl@3a82f6ef_0</title>
<g id="a_node3"><a xlink:href="http://example.org/DoorControl@3a82f6ef_0" xlink:title="DoorControl@3a82f6ef_0">
<ellipse fill="#fffc87" stroke="#808080" cx="252" cy="-345" rx="106.681" ry="18"/>
<text text-anchor="middle" x="252" y="-341.3" font-family="Times New Roman,serif" font-size="14.00">DoorControl@3a82f6ef_0</text>
</a>
</g>
</g>
<!-- http://example.org/DoorControl@3a82f6ef -->
<g id="node9" class="node"><title>http://example.org/DoorControl@3a82f6ef</title>
<g id="a_node9"><a xlink:href="http://example.org/DoorControl@3a82f6ef" xlink:title="DoorControl@3a82f6ef">
<polygon fill="#fdb266" stroke="black" points="313.905,-422.562 194,-435 74.0945,-422.562 74.2064,-402.438 313.794,-402.438 313.905,-422.562"/>
<text text-anchor="middle" x="194" y="-413.3" font-family="Times New Roman,serif" font-size="14.00">DoorControl@3a82f6ef</text>
</a>
</g>
</g>
<!-- http://example.org/DoorControl@3a82f6ef_0&#45;&gt;http://example.org/DoorControl@3a82f6ef -->
<g id="edge6" class="edge"><title>http://example.org/DoorControl@3a82f6ef_0&#45;&gt;http://example.org/DoorControl@3a82f6ef</title>
<path fill="none" stroke="black" d="M237.96,-362.945C230.207,-372.302 220.49,-384.03 212.164,-394.078"/>
<polygon fill="black" stroke="black" points="209.257,-392.101 205.572,-402.034 214.647,-396.567 209.257,-392.101"/>
<text text-anchor="middle" x="243.178" y="-375.108" font-family="Times New Roman,serif" font-size="8.00">att</text>
</g>
<!-- &#45;attrs1 -->
<g id="node4" class="node"><title>&#45;attrs1</title>
<polygon fill="none" stroke="gray" points="378,-291 268,-291 268,-255 384,-255 384,-285 378,-291"/>
<polyline fill="none" stroke="gray" points="378,-291 378,-285 "/>
<polyline fill="none" stroke="gray" points="384,-285 378,-285 "/>
<text text-anchor="start" x="278" y="-270" font-family="Times New Roman,serif" font-size="10.00">type:</text>
<text text-anchor="start" x="301" y="-270" font-family="Times New Roman,serif" font-size="10.00">u2p:StateMachine</text>
</g>
<!-- &#45;attrs1&#45;&gt;http://example.org/DoorControl@3a82f6ef_0 -->
<g id="edge2" class="edge"><title>&#45;attrs1&#45;&gt;http://example.org/DoorControl@3a82f6ef_0</title>
<path fill="none" stroke="gray" stroke-dasharray="5,2" d="M307.708,-291.303C296.152,-302.235 281.292,-316.291 269.826,-327.137"/>
</g>
<!-- http://example.org/DoorControl@3a82f6ef_3 -->
<g id="node5" class="node"><title>http://example.org/DoorControl@3a82f6ef_3</title>
<g id="a_node5"><a xlink:href="http://example.org/DoorControl@3a82f6ef_3" xlink:title="DoorControl@3a82f6ef_3">
<ellipse fill="#fffc87" stroke="#808080" cx="123" cy="-129" rx="106.681" ry="18"/>
<text text-anchor="middle" x="123" y="-125.3" font-family="Times New Roman,serif" font-size="14.00">DoorControl@3a82f6ef_3</text>
</a>
</g>
</g>
<!-- http://example.org/DoorControl@3a82f6ef_3&#45;&gt;http://example.org/atFloor_1 -->
<g id="edge8" class="edge"><title>http://example.org/DoorControl@3a82f6ef_3&#45;&gt;http://example.org/atFloor_1</title>
<path fill="none" stroke="black" d="M155.239,-146.235C174.156,-155.762 198.302,-167.922 218.844,-178.267"/>
<polygon fill="black" stroke="black" points="217.491,-181.504 227.997,-182.876 220.64,-175.252 217.491,-181.504"/>
<text text-anchor="middle" x="167.78" y="-136.107" font-family="Times New Roman,serif" font-size="8.00">gen</text>
</g>
<!-- http://example.org/DoorControl@3a82f6ef_3&#45;&gt;http://example.org/DoorControl@3a82f6ef_0 -->
<g id="edge7" class="edge"><title>http://example.org/DoorControl@3a82f6ef_3&#45;&gt;http://example.org/DoorControl@3a82f6ef_0</title>
<path fill="none" stroke="black" d="M99.8042,-146.68C60.4662,-176.976 -11.4847,-242.397 27,-291 36.2036,-302.623 109.753,-318.488 170.296,-329.824"/>
<polygon fill="black" stroke="black" points="169.802,-333.292 180.273,-331.674 171.078,-326.409 169.802,-333.292"/>
<text text-anchor="middle" x="102.049" y="-159.612" font-family="Times New Roman,serif" font-size="8.00">spe</text>
</g>
<!-- http://example.org/DoorControl@3a82f6ef_3&#45;&gt;http://example.org/DoorControl@3a82f6ef_2 -->
<g id="edge9" class="edge"><title>http://example.org/DoorControl@3a82f6ef_3&#45;&gt;http://example.org/DoorControl@3a82f6ef_2</title>
<path fill="none" stroke="black" d="M98.1961,-146.582C86.6994,-155.795 74.2253,-168.356 68,-183 61.7405,-197.725 60.6427,-204.792 68,-219 74.6665,-231.874 86.0594,-242.289 97.9801,-250.368"/>
<polygon fill="black" stroke="black" points="96.3634,-253.486 106.693,-255.839 100.086,-247.557 96.3634,-253.486"/>
<text text-anchor="middle" x="100.676" y="-159.476" font-family="Times New Roman,serif" font-size="8.00">der</text>
</g>
<!-- &#45;attrs2 -->
<g id="node6" class="node"><title>&#45;attrs2</title>
<polygon fill="none" stroke="gray" points="173,-75 67,-75 67,-39 179,-39 179,-69 173,-75"/>
<polyline fill="none" stroke="gray" points="173,-75 173,-69 "/>
<polyline fill="none" stroke="gray" points="179,-69 173,-69 "/>
<text text-anchor="start" x="77" y="-61" font-family="Times New Roman,serif" font-size="10.00">type:</text>
<text text-anchor="start" x="101" y="-61" font-family="Times New Roman,serif" font-size="10.00">u2p:DoorControl</text>
<text text-anchor="start" x="77" y="-48" font-family="Times New Roman,serif" font-size="10.00">state:</text>
<text text-anchor="start" x="101" y="-48" font-family="Times New Roman,serif" font-size="10.00">u2p:Motoropen</text>
</g>
<!-- &#45;attrs2&#45;&gt;http://example.org/DoorControl@3a82f6ef_3 -->
<g id="edge3" class="edge"><title>&#45;attrs2&#45;&gt;http://example.org/DoorControl@3a82f6ef_3</title>
<path fill="none" stroke="gray" stroke-dasharray="5,2" d="M123,-75.3034C123,-86.1537 123,-100.083 123,-110.896"/>
</g>
<!-- http://example.org/DoorControl@3a82f6ef_2&#45;&gt;http://example.org/atFloor_1 -->
<g id="edge10" class="edge"><title>http://example.org/DoorControl@3a82f6ef_2&#45;&gt;http://example.org/atFloor_1</title>
<path fill="none" stroke="black" d="M186.982,-249.851C201.237,-241.791 216.744,-232.675 229.975,-224.578"/>
<polygon fill="none" stroke="black" points="186.858,-249.92 183.572,-256.339 176.383,-255.774 179.669,-249.355 186.858,-249.92"/>
<polygon fill="black" stroke="black" points="232.125,-227.363 238.786,-219.124 228.441,-221.411 232.125,-227.363"/>
<text text-anchor="middle" x="176.593" y="-238.876" font-family="Times New Roman,serif" font-size="8.00">inv</text>
</g>
<!-- http://example.org/DoorControl@3a82f6ef_2&#45;&gt;http://example.org/DoorControl@3a82f6ef_0 -->
<g id="edge12" class="edge"><title>http://example.org/DoorControl@3a82f6ef_2&#45;&gt;http://example.org/DoorControl@3a82f6ef_0</title>
<path fill="none" stroke="black" d="M168.831,-290.589C183.386,-299.936 201.753,-311.732 217.523,-321.859"/>
<polygon fill="black" stroke="black" points="215.671,-324.829 225.976,-327.287 219.453,-318.939 215.671,-324.829"/>
<text text-anchor="middle" x="182.162" y="-281.811" font-family="Times New Roman,serif" font-size="8.00">spe</text>
</g>
<!-- &#45;attrs3 -->
<g id="node8" class="node"><title>&#45;attrs3</title>
<polygon fill="none" stroke="gray" points="202.5,-219 77.5,-219 77.5,-183 208.5,-183 208.5,-213 202.5,-219"/>
<polyline fill="none" stroke="gray" points="202.5,-219 202.5,-213 "/>
<polyline fill="none" stroke="gray" points="208.5,-213 202.5,-213 "/>
<text text-anchor="start" x="88" y="-205" font-family="Times New Roman,serif" font-size="10.00">type:</text>
<text text-anchor="start" x="112" y="-205" font-family="Times New Roman,serif" font-size="10.00">u2p:DoorControl</text>
<text text-anchor="start" x="88" y="-192" font-family="Times New Roman,serif" font-size="10.00">state:</text>
<text text-anchor="start" x="112" y="-192" font-family="Times New Roman,serif" font-size="10.00">u2p:MotorStop/Open</text>
</g>
<!-- &#45;attrs3&#45;&gt;http://example.org/DoorControl@3a82f6ef_2 -->
<g id="edge4" class="edge"><title>&#45;attrs3&#45;&gt;http://example.org/DoorControl@3a82f6ef_2</title>
<path fill="none" stroke="gray" stroke-dasharray="5,2" d="M143,-219.303C143,-230.154 143,-244.083 143,-254.896"/>
</g>
<!-- &#45;attrs4 -->
<g id="node10" class="node"><title>&#45;attrs4</title>
<polygon fill="none" stroke="gray" points="121.5,-363 16.5,-363 16.5,-327 127.5,-327 127.5,-357 121.5,-363"/>
<polyline fill="none" stroke="gray" points="121.5,-363 121.5,-357 "/>
<polyline fill="none" stroke="gray" points="127.5,-357 121.5,-357 "/>
<text text-anchor="start" x="27" y="-342" font-family="Times New Roman,serif" font-size="10.00">type:</text>
<text text-anchor="start" x="50" y="-342" font-family="Times New Roman,serif" font-size="10.00">u2p:DoorControl</text>
</g>
<!-- &#45;attrs4&#45;&gt;http://example.org/DoorControl@3a82f6ef -->
<g id="edge5" class="edge"><title>&#45;attrs4&#45;&gt;http://example.org/DoorControl@3a82f6ef</title>
<path fill="none" stroke="gray" stroke-dasharray="5,2" d="M101.845,-363.124C122.866,-375.186 150.636,-391.119 170.177,-402.331"/>
</g>
</g>
</svg>
