<?xml version="1.0" encoding="UTF-8" standalone="no"?>
<!DOCTYPE svg PUBLIC "-//W3C//DTD SVG 1.1//EN"
 "http://www.w3.org/Graphics/SVG/1.1/DTD/svg11.dtd">
<!-- Generated by graphviz version 2.38.0 (20140413.2041)
 -->
<!-- Title: PROV Pages: 1 -->
<svg width="360pt" height="459pt"
 viewBox="0.00 0.00 360.00 459.00" xmlns="http://www.w3.org/2000/svg" xmlns:xlink="http://www.w3.org/1999/xlink">
<g id="graph0" class="graph" transform="scale(1 1) rotate(0) translate(4 455)">
<title>PROV</title>
<polygon fill="white" stroke="none" points="-4,4 -4,-455 356,-455 356,4 -4,4"/>
<g id="clust1" class="cluster"><title>clusterhttp://example.org/bundle1</title>
<g id="a_clust1"><a xlink:href="http://example.org/bundle1" xlink:title="bundle1">
<polygon fill="none" stroke="black" points="8,-8 8,-443 344,-443 344,-8 8,-8"/>
<text text-anchor="middle" x="176" y="-15.8" font-family="Times New Roman,serif" font-size="14.00">bundle1</text>
</a>
</g>
</g>
<!-- http://example.org/close_2 -->
<g id="node1" class="node"><title>http://example.org/close_2</title>
<g id="a_node1"><a xlink:href="http://example.org/close_2" xlink:title="close_2">
<polygon fill="#9fb1fc" stroke="#0000ff" points="244,-219 184,-219 184,-183 244,-183 244,-219"/>
<text text-anchor="middle" x="214" y="-197.3" font-family="Times New Roman,serif" font-size="14.00">close_2</text>
</a>
</g>
</g>
<!-- http://example.org/Door@2db0f6b2_3 -->
<g id="node7" class="node"><title>http://example.org/Door@2db0f6b2_3</title>
<g id="a_node7"><a xlink:href="http://example.org/Door@2db0f6b2_3" xlink:title="Door@2db0f6b2_3">
<ellipse fill="#fffc87" stroke="#808080" cx="119" cy="-273" rx="82.5854" ry="18"/>
<text text-anchor="middle" x="119" y="-269.3" font-family="Times New Roman,serif" font-size="14.00">Door@2db0f6b2_3</text>
</a>
</g>
</g>
<!-- http://example.org/close_2&#45;&gt;http://example.org/Door@2db0f6b2_3 -->
<g id="edge11" class="edge"><title>http://example.org/close_2&#45;&gt;http://example.org/Door@2db0f6b2_3</title>
<path fill="none" stroke="black" d="M184.863,-219.124C171.788,-228.069 156.592,-239.143 144.034,-248.843"/>
<polygon fill="black" stroke="black" points="141.522,-246.365 135.819,-255.294 145.846,-251.87 141.522,-246.365"/>
<text text-anchor="middle" x="186.059" y="-232.176" font-family="Times New Roman,serif" font-size="8.00">use</text>
</g>
<!-- &#45;attrs0 -->
<g id="node2" class="node"><title>&#45;attrs0</title>
<polygon fill="none" stroke="gray" points="276,-147 200,-147 200,-111 282,-111 282,-141 276,-147"/>
<polyline fill="none" stroke="gray" points="276,-147 276,-141 "/>
<polyline fill="none" stroke="gray" points="282,-141 276,-141 "/>
<text text-anchor="start" x="210" y="-126" font-family="Times New Roman,serif" font-size="10.00">type:</text>
<text text-anchor="start" x="233" y="-126" font-family="Times New Roman,serif" font-size="10.00">u2p:close</text>
</g>
<!-- &#45;attrs0&#45;&gt;http://example.org/close_2 -->
<g id="edge1" class="edge"><title>&#45;attrs0&#45;&gt;http://example.org/close_2</title>
<path fill="none" stroke="gray" stroke-dasharray="5,2" d="M234.326,-147.303C230.141,-158.154 224.768,-172.083 220.597,-182.896"/>
</g>
<!-- http://example.org/Door@2db0f6b2_0 -->
<g id="node3" class="node"><title>http://example.org/Door@2db0f6b2_0</title>
<g id="a_node3"><a xlink:href="http://example.org/Door@2db0f6b2_0" xlink:title="Door@2db0f6b2_0">
<ellipse fill="#fffc87" stroke="#808080" cx="198" cy="-345" rx="82.5854" ry="18"/>
<text text-anchor="middle" x="198" y="-341.3" font-family="Times New Roman,serif" font-size="14.00">Door@2db0f6b2_0</text>
</a>
</g>
</g>
<!-- http://example.org/Door@2db0f6b2 -->
<g id="node9" class="node"><title>http://example.org/Door@2db0f6b2</title>
<g id="a_node9"><a xlink:href="http://example.org/Door@2db0f6b2" xlink:title="Door@2db0f6b2">
<polygon fill="#fdb266" stroke="black" points="242.563,-422.562 152,-435 61.4372,-422.562 61.5217,-402.438 242.478,-402.438 242.563,-422.562"/>
<text text-anchor="middle" x="152" y="-413.3" font-family="Times New Roman,serif" font-size="14.00">Door@2db0f6b2</text>
</a>
</g>
</g>
<!-- http://example.org/Door@2db0f6b2_0&#45;&gt;http://example.org/Door@2db0f6b2 -->
<g id="edge6" class="edge"><title>http://example.org/Door@2db0f6b2_0&#45;&gt;http://example.org/Door@2db0f6b2</title>
<path fill="none" stroke="black" d="M186.865,-362.945C180.839,-372.115 173.317,-383.561 166.804,-393.473"/>
<polygon fill="black" stroke="black" points="163.744,-391.755 161.178,-402.034 169.594,-395.599 163.744,-391.755"/>
<text text-anchor="middle" x="193.602" y="-374.447" font-family="Times New Roman,serif" font-size="8.00">att</text>
</g>
<!-- &#45;attrs1 -->
<g id="node4" class="node"><title>&#45;attrs1</title>
<polygon fill="none" stroke="gray" points="330,-291 220,-291 220,-255 336,-255 336,-285 330,-291"/>
<polyline fill="none" stroke="gray" points="330,-291 330,-285 "/>
<polyline fill="none" stroke="gray" points="336,-285 330,-285 "/>
<text text-anchor="start" x="230" y="-270" font-family="Times New Roman,serif" font-size="10.00">type:</text>
<text text-anchor="start" x="253" y="-270" font-family="Times New Roman,serif" font-size="10.00">u2p:StateMachine</text>
</g>
<!-- &#45;attrs1&#45;&gt;http://example.org/Door@2db0f6b2_0 -->
<g id="edge2" class="edge"><title>&#45;attrs1&#45;&gt;http://example.org/Door@2db0f6b2_0</title>
<path fill="none" stroke="gray" stroke-dasharray="5,2" d="M258.225,-291.303C245.639,-302.316 229.429,-316.5 216.997,-327.378"/>
</g>
<!-- http://example.org/Door@2db0f6b2_4 -->
<g id="node5" class="node"><title>http://example.org/Door@2db0f6b2_4</title>
<g id="a_node5"><a xlink:href="http://example.org/Door@2db0f6b2_4" xlink:title="Door@2db0f6b2_4">
<ellipse fill="#fffc87" stroke="#808080" cx="99" cy="-129" rx="82.5854" ry="18"/>
<text text-anchor="middle" x="99" y="-125.3" font-family="Times New Roman,serif" font-size="14.00">Door@2db0f6b2_4</text>
</a>
</g>
</g>
<!-- http://example.org/Door@2db0f6b2_4&#45;&gt;http://example.org/close_2 -->
<g id="edge8" class="edge"><title>http://example.org/Door@2db0f6b2_4&#45;&gt;http://example.org/close_2</title>
<path fill="none" stroke="black" d="M125.383,-146.059C140.602,-155.323 159.982,-167.12 176.736,-177.317"/>
<polygon fill="black" stroke="black" points="175.368,-180.582 185.73,-182.792 179.008,-174.603 175.368,-180.582"/>
<text text-anchor="middle" x="138.544" y="-136.963" font-family="Times New Roman,serif" font-size="8.00">gen</text>
</g>
<!-- http://example.org/Door@2db0f6b2_4&#45;&gt;http://example.org/Door@2db0f6b2_0 -->
<g id="edge7" class="edge"><title>http://example.org/Door@2db0f6b2_4&#45;&gt;http://example.org/Door@2db0f6b2_0</title>
<path fill="none" stroke="black" d="M80.7215,-146.762C49.46,-177.471 -7.69625,-243.922 27,-291 39.3337,-307.735 85.472,-321.453 126.717,-330.737"/>
<polygon fill="black" stroke="black" points="126.005,-334.164 136.523,-332.883 127.502,-327.326 126.005,-334.164"/>
<text text-anchor="middle" x="84.7411" y="-159.314" font-family="Times New Roman,serif" font-size="8.00">spe</text>
</g>
<!-- http://example.org/Door@2db0f6b2_4&#45;&gt;http://example.org/Door@2db0f6b2_3 -->
<g id="edge9" class="edge"><title>http://example.org/Door@2db0f6b2_4&#45;&gt;http://example.org/Door@2db0f6b2_3</title>
<path fill="none" stroke="black" d="M83.7651,-146.757C75.9048,-156.555 67.1195,-169.604 63,-183 58.2972,-198.293 56.6743,-204.304 63,-219 68.0029,-230.623 76.9469,-240.889 86.2392,-249.215"/>
<polygon fill="black" stroke="black" points="84.1299,-252.014 94.0478,-255.74 88.6185,-246.642 84.1299,-252.014"/>
<text text-anchor="middle" x="89.3561" y="-158.776" font-family="Times New Roman,serif" font-size="8.00">der</text>
</g>
<!-- &#45;attrs2 -->
<g id="node6" class="node"><title>&#45;attrs2</title>
<polygon fill="none" stroke="gray" points="138,-75 54,-75 54,-39 144,-39 144,-69 138,-75"/>
<polyline fill="none" stroke="gray" points="138,-75 138,-69 "/>
<polyline fill="none" stroke="gray" points="144,-69 138,-69 "/>
<text text-anchor="start" x="64" y="-61" font-family="Times New Roman,serif" font-size="10.00">type:</text>
<text text-anchor="start" x="88" y="-61" font-family="Times New Roman,serif" font-size="10.00">u2p:Door</text>
<text text-anchor="start" x="64" y="-48" font-family="Times New Roman,serif" font-size="10.00">state:</text>
<text text-anchor="start" x="88" y="-48" font-family="Times New Roman,serif" font-size="10.00">u2p:Closed</text>
</g>
<!-- &#45;attrs2&#45;&gt;http://example.org/Door@2db0f6b2_4 -->
<g id="edge3" class="edge"><title>&#45;attrs2&#45;&gt;http://example.org/Door@2db0f6b2_4</title>
<path fill="none" stroke="gray" stroke-dasharray="5,2" d="M99,-75.3034C99,-86.1537 99,-100.083 99,-110.896"/>
</g>
<!-- http://example.org/Door@2db0f6b2_3&#45;&gt;http://example.org/close_2 -->
<g id="edge10" class="edge"><title>http://example.org/Door@2db0f6b2_3&#45;&gt;http://example.org/close_2</title>
<path fill="none" stroke="black" d="M156.634,-248.975C167.284,-241.476 178.604,-233.144 188.387,-225.604"/>
<polygon fill="none" stroke="black" points="156.566,-249.022 153.911,-255.727 146.701,-255.855 149.356,-249.151 156.566,-249.022"/>
<polygon fill="black" stroke="black" points="190.718,-228.225 196.433,-219.303 186.402,-222.714 190.718,-228.225"/>
<text text-anchor="middle" x="145.469" y="-239.006" font-family="Times New Roman,serif" font-size="8.00">inv</text>
</g>
<!-- http://example.org/Door@2db0f6b2_3&#45;&gt;http://example.org/Door@2db0f6b2_0 -->
<g id="edge12" class="edge"><title>http://example.org/Door@2db0f6b2_3&#45;&gt;http://example.org/Door@2db0f6b2_0</title>
<path fill="none" stroke="black" d="M137.722,-290.589C147.782,-299.503 160.356,-310.645 171.413,-320.442"/>
<polygon fill="black" stroke="black" points="169.333,-323.275 179.139,-327.287 173.975,-318.036 169.333,-323.275"/>
<text text-anchor="middle" x="151.95" y="-283.94" font-family="Times New Roman,serif" font-size="8.00">spe</text>
</g>
<!-- &#45;attrs3 -->
<g id="node8" class="node"><title>&#45;attrs3</title>
<polygon fill="none" stroke="gray" points="159.5,-219 72.5,-219 72.5,-183 165.5,-183 165.5,-213 159.5,-219"/>
<polyline fill="none" stroke="gray" points="159.5,-219 159.5,-213 "/>
<polyline fill="none" stroke="gray" points="165.5,-213 159.5,-213 "/>
<text text-anchor="start" x="83" y="-205" font-family="Times New Roman,serif" font-size="10.00">type:</text>
<text text-anchor="start" x="107" y="-205" font-family="Times New Roman,serif" font-size="10.00">u2p:Door</text>
<text text-anchor="start" x="83" y="-192" font-family="Times New Roman,serif" font-size="10.00">state:</text>
<text text-anchor="start" x="107" y="-192" font-family="Times New Roman,serif" font-size="10.00">u2p:Opened</text>
</g>
<!-- &#45;attrs3&#45;&gt;http://example.org/Door@2db0f6b2_3 -->
<g id="edge4" class="edge"><title>&#45;attrs3&#45;&gt;http://example.org/Door@2db0f6b2_3</title>
<path fill="none" stroke="gray" stroke-dasharray="5,2" d="M119,-219.303C119,-230.154 119,-244.083 119,-254.896"/>
</g>
<!-- &#45;attrs4 -->
<g id="node10" class="node"><title>&#45;attrs4</title>
<polygon fill="none" stroke="gray" points="91.5,-363 16.5,-363 16.5,-327 97.5,-327 97.5,-357 91.5,-363"/>
<polyline fill="none" stroke="gray" points="91.5,-363 91.5,-357 "/>
<polyline fill="none" stroke="gray" points="97.5,-357 91.5,-357 "/>
<text text-anchor="start" x="27" y="-342" font-family="Times New Roman,serif" font-size="10.00">type:</text>
<text text-anchor="start" x="50" y="-342" font-family="Times New Roman,serif" font-size="10.00">u2p:Door</text>
</g>
<!-- &#45;attrs4&#45;&gt;http://example.org/Door@2db0f6b2 -->
<g id="edge5" class="edge"><title>&#45;attrs4&#45;&gt;http://example.org/Door@2db0f6b2</title>
<path fill="none" stroke="gray" stroke-dasharray="5,2" d="M80.4832,-363.303C96.857,-375.368 118.398,-391.24 133.544,-402.401"/>
</g>
</g>
</svg>
