<?xml version="1.0" encoding="UTF-8" standalone="no"?>
<!DOCTYPE svg PUBLIC "-//W3C//DTD SVG 1.1//EN"
 "http://www.w3.org/Graphics/SVG/1.1/DTD/svg11.dtd">
<!-- Generated by graphviz version 2.38.0 (20140413.2041)
 -->
<!-- Title: PROV Pages: 1 -->
<svg width="234pt" height="243pt"
 viewBox="0.00 0.00 234.00 243.00" xmlns="http://www.w3.org/2000/svg" xmlns:xlink="http://www.w3.org/1999/xlink">
<g id="graph0" class="graph" transform="scale(1 1) rotate(0) translate(4 239)">
<title>PROV</title>
<polygon fill="white" stroke="none" points="-4,4 -4,-239 230,-239 230,4 -4,4"/>
<g id="clust1" class="cluster"><title>clusterhttp://example.org/bundle1</title>
<g id="a_clust1"><a xlink:href="http://example.org/bundle1" xlink:title="bundle1">
<polygon fill="none" stroke="black" points="8,-8 8,-227 218,-227 218,-8 8,-8"/>
<text text-anchor="middle" x="113" y="-15.8" font-family="Times New Roman,serif" font-size="14.00">bundle1</text>
</a>
</g>
</g>
<!-- http://example.org/close_3 -->
<g id="node1" class="node"><title>http://example.org/close_3</title>
<g id="a_node1"><a xlink:href="http://example.org/close_3" xlink:title="close_3">
<polygon fill="#9fb1fc" stroke="#0000ff" points="206,-147 146,-147 146,-111 206,-111 206,-147"/>
<text text-anchor="middle" x="176" y="-125.3" font-family="Times New Roman,serif" font-size="14.00">close_3</text>
</a>
</g>
</g>
<!-- http://example.org/dataset.Principal@ -->
<g id="node4" class="node"><title>http://example.org/dataset.Principal@</title>
<g id="a_node4"><a xlink:href="http://example.org/dataset.Principal@" xlink:title="dataset.Principal@">
<polygon fill="#fdb266" stroke="black" points="210.417,-206.562 113,-219 15.5833,-206.562 15.6742,-186.438 210.326,-186.438 210.417,-206.562"/>
<text text-anchor="middle" x="113" y="-197.3" font-family="Times New Roman,serif" font-size="14.00">dataset.Principal@</text>
</a>
</g>
</g>
<!-- http://example.org/close_3&#45;&gt;http://example.org/dataset.Principal@ -->
<g id="edge3" class="edge"><title>http://example.org/close_3&#45;&gt;http://example.org/dataset.Principal@</title>
<path fill="none" stroke="black" d="M160.427,-147.303C151.916,-156.759 141.301,-168.554 132.272,-178.586"/>
<polygon fill="black" stroke="black" points="129.53,-176.401 125.442,-186.175 134.733,-181.084 129.53,-176.401"/>
<text text-anchor="middle" x="165.065" y="-159.668" font-family="Times New Roman,serif" font-size="8.00">assoc</text>
</g>
<!-- &#45;attrs0 -->
<g id="node2" class="node"><title>&#45;attrs0</title>
<polygon fill="none" stroke="gray" points="204,-75 128,-75 128,-39 210,-39 210,-69 204,-75"/>
<polyline fill="none" stroke="gray" points="204,-75 204,-69 "/>
<polyline fill="none" stroke="gray" points="210,-69 204,-69 "/>
<text text-anchor="start" x="138" y="-54" font-family="Times New Roman,serif" font-size="10.00">type:</text>
<text text-anchor="start" x="161" y="-54" font-family="Times New Roman,serif" font-size="10.00">u2p:close</text>
</g>
<!-- &#45;attrs0&#45;&gt;http://example.org/close_3 -->
<g id="edge1" class="edge"><title>&#45;attrs0&#45;&gt;http://example.org/close_3</title>
<path fill="none" stroke="gray" stroke-dasharray="5,2" d="M170.73,-75.3034C171.815,-86.1537 173.208,-100.083 174.29,-110.896"/>
</g>
<!-- http://openprovenance.org/var#output0 -->
<g id="node3" class="node"><title>http://openprovenance.org/var#output0</title>
<g id="a_node3"><a xlink:href="http://openprovenance.org/var#output0" xlink:title="output0">
<ellipse fill="#fffc87" stroke="#808080" cx="72" cy="-57" rx="38.1938" ry="18"/>
<text text-anchor="middle" x="72" y="-53.3" font-family="Times New Roman,serif" font-size="14.00">output0</text>
</a>
</g>
</g>
<!-- http://openprovenance.org/var#output0&#45;&gt;http://example.org/close_3 -->
<g id="edge4" class="edge"><title>http://openprovenance.org/var#output0&#45;&gt;http://example.org/close_3</title>
<path fill="none" stroke="black" d="M93.046,-72.1655C107.068,-81.6036 125.812,-94.2197 141.935,-105.071"/>
<polygon fill="black" stroke="black" points="140.325,-108.207 150.575,-110.887 144.234,-102.4 140.325,-108.207"/>
<text text-anchor="middle" x="106.521" y="-63.6767" font-family="Times New Roman,serif" font-size="8.00">gen</text>
</g>
<!-- &#45;attrs1 -->
<g id="node5" class="node"><title>&#45;attrs1</title>
<polygon fill="none" stroke="gray" points="121.5,-147 16.5,-147 16.5,-111 127.5,-111 127.5,-141 121.5,-147"/>
<polyline fill="none" stroke="gray" points="121.5,-147 121.5,-141 "/>
<polyline fill="none" stroke="gray" points="127.5,-141 121.5,-141 "/>
<text text-anchor="start" x="27" y="-126" font-family="Times New Roman,serif" font-size="10.00">type:</text>
<text text-anchor="start" x="50" y="-126" font-family="Times New Roman,serif" font-size="10.00">u2p:DoorControl</text>
</g>
<!-- &#45;attrs1&#45;&gt;http://example.org/dataset.Principal@ -->
<g id="edge2" class="edge"><title>&#45;attrs1&#45;&gt;http://example.org/dataset.Principal@</title>
<path fill="none" stroke="gray" stroke-dasharray="5,2" d="M82.1348,-147.303C89.154,-159.287 98.3733,-175.028 104.903,-186.175"/>
</g>
</g>
</svg>
