<?xml version="1.0" encoding="UTF-8" standalone="no"?>
<!DOCTYPE svg PUBLIC "-//W3C//DTD SVG 1.1//EN"
 "http://www.w3.org/Graphics/SVG/1.1/DTD/svg11.dtd">
<!-- Generated by graphviz version 2.38.0 (20140413.2041)
 -->
<!-- Title: PROV Pages: 1 -->
<svg width="518pt" height="243pt"
 viewBox="0.00 0.00 518.00 243.00" xmlns="http://www.w3.org/2000/svg" xmlns:xlink="http://www.w3.org/1999/xlink">
<g id="graph0" class="graph" transform="scale(1 1) rotate(0) translate(4 239)">
<title>PROV</title>
<polygon fill="white" stroke="none" points="-4,4 -4,-239 514,-239 514,4 -4,4"/>
<g id="clust1" class="cluster"><title>clusterhttp://example.org/bundle1</title>
<g id="a_clust1"><a xlink:href="http://example.org/bundle1" xlink:title="bundle1">
<polygon fill="none" stroke="black" points="8,-8 8,-227 502,-227 502,-8 8,-8"/>
<text text-anchor="middle" x="255" y="-15.8" font-family="Times New Roman,serif" font-size="14.00">bundle1</text>
</a>
</g>
</g>
<!-- http://example.org/close_1 -->
<g id="node1" class="node"><title>http://example.org/close_1</title>
<g id="a_node1"><a xlink:href="http://example.org/close_1" xlink:title="close_1">
<polygon fill="#9fb1fc" stroke="#0000ff" points="337,-147 277,-147 277,-111 337,-111 337,-147"/>
<text text-anchor="middle" x="307" y="-125.3" font-family="Times New Roman,serif" font-size="14.00">close_1</text>
</a>
</g>
</g>
<!-- http://example.org/dataset.caseStudy.CS5ElevatorBis.DoorControl@ -->
<g id="node4" class="node"><title>http://example.org/dataset.caseStudy.CS5ElevatorBis.DoorControl@</title>
<g id="a_node4"><a xlink:href="http://example.org/dataset.caseStudy.CS5ElevatorBis.DoorControl@" xlink:title="dataset.caseStudy.CS5ElevatorBis.DoorControl@">
<polygon fill="#fdb266" stroke="black" points="494.31,-206.562 255,-219 15.6897,-206.562 15.9131,-186.438 494.087,-186.438 494.31,-206.562"/>
<text text-anchor="middle" x="255" y="-197.3" font-family="Times New Roman,serif" font-size="14.00">dataset.caseStudy.CS5ElevatorBis.DoorControl@</text>
</a>
</g>
</g>
<!-- http://example.org/close_1&#45;&gt;http://example.org/dataset.caseStudy.CS5ElevatorBis.DoorControl@ -->
<g id="edge3" class="edge"><title>http://example.org/close_1&#45;&gt;http://example.org/dataset.caseStudy.CS5ElevatorBis.DoorControl@</title>
<path fill="none" stroke="black" d="M294.146,-147.303C287.261,-156.572 278.706,-168.088 271.352,-177.988"/>
<polygon fill="black" stroke="black" points="268.423,-176.061 265.27,-186.175 274.043,-180.235 268.423,-176.061"/>
<text text-anchor="middle" x="300.102" y="-159.17" font-family="Times New Roman,serif" font-size="8.00">assoc</text>
</g>
<!-- &#45;attrs0 -->
<g id="node2" class="node"><title>&#45;attrs0</title>
<polygon fill="none" stroke="gray" points="390,-75 314,-75 314,-39 396,-39 396,-69 390,-75"/>
<polyline fill="none" stroke="gray" points="390,-75 390,-69 "/>
<polyline fill="none" stroke="gray" points="396,-69 390,-69 "/>
<text text-anchor="start" x="324" y="-54" font-family="Times New Roman,serif" font-size="10.00">type:</text>
<text text-anchor="start" x="347" y="-54" font-family="Times New Roman,serif" font-size="10.00">u2p:close</text>
</g>
<!-- &#45;attrs0&#45;&gt;http://example.org/close_1 -->
<g id="edge1" class="edge"><title>&#45;attrs0&#45;&gt;http://example.org/close_1</title>
<path fill="none" stroke="gray" stroke-dasharray="5,2" d="M343.135,-75.3034C335.695,-86.1537 326.143,-100.083 318.729,-110.896"/>
</g>
<!-- http://openprovenance.org/var#output0 -->
<g id="node3" class="node"><title>http://openprovenance.org/var#output0</title>
<g id="a_node3"><a xlink:href="http://openprovenance.org/var#output0" xlink:title="output0">
<ellipse fill="#fffc87" stroke="#808080" cx="258" cy="-57" rx="38.1938" ry="18"/>
<text text-anchor="middle" x="258" y="-53.3" font-family="Times New Roman,serif" font-size="14.00">output0</text>
</a>
</g>
</g>
<!-- http://openprovenance.org/var#output0&#45;&gt;http://example.org/close_1 -->
<g id="edge4" class="edge"><title>http://openprovenance.org/var#output0&#45;&gt;http://example.org/close_1</title>
<path fill="none" stroke="black" d="M269.365,-74.2354C275.252,-82.6462 282.577,-93.1096 289.195,-102.564"/>
<polygon fill="black" stroke="black" points="286.411,-104.691 295.013,-110.876 292.146,-100.677 286.411,-104.691"/>
<text text-anchor="middle" x="284.308" y="-71.0301" font-family="Times New Roman,serif" font-size="8.00">gen</text>
</g>
<!-- &#45;attrs1 -->
<g id="node5" class="node"><title>&#45;attrs1</title>
<polygon fill="none" stroke="gray" points="252.5,-147 147.5,-147 147.5,-111 258.5,-111 258.5,-141 252.5,-147"/>
<polyline fill="none" stroke="gray" points="252.5,-147 252.5,-141 "/>
<polyline fill="none" stroke="gray" points="258.5,-141 252.5,-141 "/>
<text text-anchor="start" x="158" y="-126" font-family="Times New Roman,serif" font-size="10.00">type:</text>
<text text-anchor="start" x="181" y="-126" font-family="Times New Roman,serif" font-size="10.00">u2p:DoorControl</text>
</g>
<!-- &#45;attrs1&#45;&gt;http://example.org/dataset.caseStudy.CS5ElevatorBis.DoorControl@ -->
<g id="edge2" class="edge"><title>&#45;attrs1&#45;&gt;http://example.org/dataset.caseStudy.CS5ElevatorBis.DoorControl@</title>
<path fill="none" stroke="gray" stroke-dasharray="5,2" d="M215.854,-147.303C224.756,-159.287 236.449,-175.028 244.73,-186.175"/>
</g>
</g>
</svg>
