<?xml version="1.0" encoding="UTF-8" standalone="no"?>
<!DOCTYPE svg PUBLIC "-//W3C//DTD SVG 1.1//EN"
 "http://www.w3.org/Graphics/SVG/1.1/DTD/svg11.dtd">
<!-- Generated by graphviz version 2.38.0 (20140413.2041)
 -->
<!-- Title: PROV Pages: 1 -->
<svg width="264pt" height="243pt"
 viewBox="0.00 0.00 264.00 243.00" xmlns="http://www.w3.org/2000/svg" xmlns:xlink="http://www.w3.org/1999/xlink">
<g id="graph0" class="graph" transform="scale(1 1) rotate(0) translate(4 239)">
<title>PROV</title>
<polygon fill="white" stroke="none" points="-4,4 -4,-239 260,-239 260,4 -4,4"/>
<g id="clust1" class="cluster"><title>clusterhttp://example.org/bundle1</title>
<g id="a_clust1"><a xlink:href="http://example.org/bundle1" xlink:title="bundle1">
<polygon fill="none" stroke="black" points="8,-8 8,-227 248,-227 248,-8 8,-8"/>
<text text-anchor="middle" x="128" y="-15.8" font-family="Times New Roman,serif" font-size="14.00">bundle1</text>
</a>
</g>
</g>
<!-- http://example.org/desiredFloor_1 -->
<g id="node1" class="node"><title>http://example.org/desiredFloor_1</title>
<g id="a_node1"><a xlink:href="http://example.org/desiredFloor_1" xlink:title="desiredFloor_1">
<polygon fill="#9fb1fc" stroke="#0000ff" points="240,-147 138,-147 138,-111 240,-111 240,-147"/>
<text text-anchor="middle" x="189" y="-125.3" font-family="Times New Roman,serif" font-size="14.00">desiredFloor_1</text>
</a>
</g>
</g>
<!-- http://example.org/dataset.Principal@ -->
<g id="node3" class="node"><title>http://example.org/dataset.Principal@</title>
<g id="a_node3"><a xlink:href="http://example.org/dataset.Principal@" xlink:title="dataset.Principal@">
<polygon fill="#fdb266" stroke="black" points="225.417,-206.562 128,-219 30.5833,-206.562 30.6742,-186.438 225.326,-186.438 225.417,-206.562"/>
<text text-anchor="middle" x="128" y="-197.3" font-family="Times New Roman,serif" font-size="14.00">dataset.Principal@</text>
</a>
</g>
</g>
<!-- http://example.org/desiredFloor_1&#45;&gt;http://example.org/dataset.Principal@ -->
<g id="edge3" class="edge"><title>http://example.org/desiredFloor_1&#45;&gt;http://example.org/dataset.Principal@</title>
<path fill="none" stroke="black" d="M173.921,-147.303C165.681,-156.759 155.403,-168.554 146.661,-178.586"/>
<polygon fill="black" stroke="black" points="143.978,-176.337 140.047,-186.175 149.256,-180.936 143.978,-176.337"/>
<text text-anchor="middle" x="178.788" y="-159.592" font-family="Times New Roman,serif" font-size="8.00">assoc</text>
</g>
<!-- &#45;attrs0 -->
<g id="node2" class="node"><title>&#45;attrs0</title>
<polygon fill="none" stroke="gray" points="233.5,-75 128.5,-75 128.5,-39 239.5,-39 239.5,-69 233.5,-75"/>
<polyline fill="none" stroke="gray" points="233.5,-75 233.5,-69 "/>
<polyline fill="none" stroke="gray" points="239.5,-69 233.5,-69 "/>
<text text-anchor="start" x="139" y="-54" font-family="Times New Roman,serif" font-size="10.00">type:</text>
<text text-anchor="start" x="162" y="-54" font-family="Times New Roman,serif" font-size="10.00">u2p:desiredFloor</text>
</g>
<!-- &#45;attrs0&#45;&gt;http://example.org/desiredFloor_1 -->
<g id="edge1" class="edge"><title>&#45;attrs0&#45;&gt;http://example.org/desiredFloor_1</title>
<path fill="none" stroke="gray" stroke-dasharray="5,2" d="M185.236,-75.3034C186.011,-86.1537 187.006,-100.083 187.778,-110.896"/>
</g>
<!-- &#45;attrs1 -->
<g id="node4" class="node"><title>&#45;attrs1</title>
<polygon fill="none" stroke="gray" points="114,-147 16,-147 16,-111 120,-111 120,-141 114,-147"/>
<polyline fill="none" stroke="gray" points="114,-147 114,-141 "/>
<polyline fill="none" stroke="gray" points="120,-141 114,-141 "/>
<text text-anchor="start" x="26" y="-126" font-family="Times New Roman,serif" font-size="10.00">type:</text>
<text text-anchor="start" x="49" y="-126" font-family="Times New Roman,serif" font-size="10.00">u2p:Dispatcher</text>
</g>
<!-- &#45;attrs1&#45;&gt;http://example.org/dataset.Principal@ -->
<g id="edge2" class="edge"><title>&#45;attrs1&#45;&gt;http://example.org/dataset.Principal@</title>
<path fill="none" stroke="gray" stroke-dasharray="5,2" d="M82.8315,-147.303C93.1034,-159.287 106.595,-175.028 116.15,-186.175"/>
</g>
</g>
</svg>
