<?xml version="1.0" encoding="UTF-8" standalone="no"?>
<!DOCTYPE svg PUBLIC "-//W3C//DTD SVG 1.1//EN"
 "http://www.w3.org/Graphics/SVG/1.1/DTD/svg11.dtd">
<!-- Generated by graphviz version 2.38.0 (20140413.2041)
 -->
<!-- Title: PROV Pages: 1 -->
<svg width="242pt" height="243pt"
 viewBox="0.00 0.00 242.00 243.00" xmlns="http://www.w3.org/2000/svg" xmlns:xlink="http://www.w3.org/1999/xlink">
<g id="graph0" class="graph" transform="scale(1 1) rotate(0) translate(4 239)">
<title>PROV</title>
<polygon fill="white" stroke="none" points="-4,4 -4,-239 238,-239 238,4 -4,4"/>
<g id="clust1" class="cluster"><title>clusterhttp://example.org/bundle1</title>
<g id="a_clust1"><a xlink:href="http://example.org/bundle1" xlink:title="bundle1">
<polygon fill="none" stroke="black" points="8,-8 8,-227 226,-227 226,-8 8,-8"/>
<text text-anchor="middle" x="117" y="-15.8" font-family="Times New Roman,serif" font-size="14.00">bundle1</text>
</a>
</g>
</g>
<!-- http://example.org/doorOpened_2 -->
<g id="node1" class="node"><title>http://example.org/doorOpened_2</title>
<g id="a_node1"><a xlink:href="http://example.org/doorOpened_2" xlink:title="doorOpened_2">
<polygon fill="#9fb1fc" stroke="#0000ff" points="218,-147 116,-147 116,-111 218,-111 218,-147"/>
<text text-anchor="middle" x="167" y="-125.3" font-family="Times New Roman,serif" font-size="14.00">doorOpened_2</text>
</a>
</g>
</g>
<!-- http://example.org/dataset.Principal@ -->
<g id="node3" class="node"><title>http://example.org/dataset.Principal@</title>
<g id="a_node3"><a xlink:href="http://example.org/dataset.Principal@" xlink:title="dataset.Principal@">
<polygon fill="#fdb266" stroke="black" points="214.417,-206.562 117,-219 19.5833,-206.562 19.6742,-186.438 214.326,-186.438 214.417,-206.562"/>
<text text-anchor="middle" x="117" y="-197.3" font-family="Times New Roman,serif" font-size="14.00">dataset.Principal@</text>
</a>
</g>
</g>
<!-- http://example.org/doorOpened_2&#45;&gt;http://example.org/dataset.Principal@ -->
<g id="edge3" class="edge"><title>http://example.org/doorOpened_2&#45;&gt;http://example.org/dataset.Principal@</title>
<path fill="none" stroke="black" d="M154.64,-147.303C148.02,-156.572 139.794,-168.088 132.723,-177.988"/>
<polygon fill="black" stroke="black" points="129.839,-176.004 126.875,-186.175 135.535,-180.072 129.839,-176.004"/>
<text text-anchor="middle" x="160.852" y="-159.057" font-family="Times New Roman,serif" font-size="8.00">assoc</text>
</g>
<!-- &#45;attrs0 -->
<g id="node2" class="node"><title>&#45;attrs0</title>
<polygon fill="none" stroke="gray" points="211.5,-75 106.5,-75 106.5,-39 217.5,-39 217.5,-69 211.5,-75"/>
<polyline fill="none" stroke="gray" points="211.5,-75 211.5,-69 "/>
<polyline fill="none" stroke="gray" points="217.5,-69 211.5,-69 "/>
<text text-anchor="start" x="117" y="-54" font-family="Times New Roman,serif" font-size="10.00">type:</text>
<text text-anchor="start" x="140" y="-54" font-family="Times New Roman,serif" font-size="10.00">u2p:doorOpened</text>
</g>
<!-- &#45;attrs0&#45;&gt;http://example.org/doorOpened_2 -->
<g id="edge1" class="edge"><title>&#45;attrs0&#45;&gt;http://example.org/doorOpened_2</title>
<path fill="none" stroke="gray" stroke-dasharray="5,2" d="M163.236,-75.3034C164.011,-86.1537 165.006,-100.083 165.778,-110.896"/>
</g>
<!-- &#45;attrs1 -->
<g id="node4" class="node"><title>&#45;attrs1</title>
<polygon fill="none" stroke="gray" points="91.5,-147 16.5,-147 16.5,-111 97.5,-111 97.5,-141 91.5,-147"/>
<polyline fill="none" stroke="gray" points="91.5,-147 91.5,-141 "/>
<polyline fill="none" stroke="gray" points="97.5,-141 91.5,-141 "/>
<text text-anchor="start" x="27" y="-126" font-family="Times New Roman,serif" font-size="10.00">type:</text>
<text text-anchor="start" x="50" y="-126" font-family="Times New Roman,serif" font-size="10.00">u2p:Door</text>
</g>
<!-- &#45;attrs1&#45;&gt;http://example.org/dataset.Principal@ -->
<g id="edge2" class="edge"><title>&#45;attrs1&#45;&gt;http://example.org/dataset.Principal@</title>
<path fill="none" stroke="gray" stroke-dasharray="5,2" d="M71.8315,-147.303C82.1034,-159.287 95.595,-175.028 105.15,-186.175"/>
</g>
</g>
</svg>
