<?xml version="1.0" encoding="UTF-8" standalone="no"?>
<!DOCTYPE svg PUBLIC "-//W3C//DTD SVG 1.1//EN"
 "http://www.w3.org/Graphics/SVG/1.1/DTD/svg11.dtd">
<!-- Generated by graphviz version 2.38.0 (20140413.2041)
 -->
<!-- Title: PROV Pages: 1 -->
<svg width="466pt" height="459pt"
 viewBox="0.00 0.00 466.00 459.00" xmlns="http://www.w3.org/2000/svg" xmlns:xlink="http://www.w3.org/1999/xlink">
<g id="graph0" class="graph" transform="scale(1 1) rotate(0) translate(4 455)">
<title>PROV</title>
<polygon fill="white" stroke="none" points="-4,4 -4,-455 462,-455 462,4 -4,4"/>
<g id="clust1" class="cluster"><title>clusterhttp://example.org/bundle1</title>
<g id="a_clust1"><a xlink:href="http://example.org/bundle1" xlink:title="bundle1">
<polygon fill="none" stroke="black" points="8,-8 8,-443 450,-443 450,-8 8,-8"/>
<text text-anchor="middle" x="229" y="-15.8" font-family="Times New Roman,serif" font-size="14.00">bundle1</text>
</a>
</g>
</g>
<!-- http://example.org/doorOpened_2 -->
<g id="node1" class="node"><title>http://example.org/doorOpened_2</title>
<g id="a_node1"><a xlink:href="http://example.org/doorOpened_2" xlink:title="doorOpened_2">
<polygon fill="#9fb1fc" stroke="#0000ff" points="362,-219 260,-219 260,-183 362,-183 362,-219"/>
<text text-anchor="middle" x="311" y="-197.3" font-family="Times New Roman,serif" font-size="14.00">doorOpened_2</text>
</a>
</g>
</g>
<!-- http://example.org/CarPositionControl@643b1d11_2 -->
<g id="node7" class="node"><title>http://example.org/CarPositionControl@643b1d11_2</title>
<g id="a_node7"><a xlink:href="http://example.org/CarPositionControl@643b1d11_2" xlink:title="CarPositionControl@643b1d11_2">
<ellipse fill="#fffc87" stroke="#808080" cx="173" cy="-273" rx="135.376" ry="18"/>
<text text-anchor="middle" x="173" y="-269.3" font-family="Times New Roman,serif" font-size="14.00">CarPositionControl@643b1d11_2</text>
</a>
</g>
</g>
<!-- http://example.org/doorOpened_2&#45;&gt;http://example.org/CarPositionControl@643b1d11_2 -->
<g id="edge11" class="edge"><title>http://example.org/doorOpened_2&#45;&gt;http://example.org/CarPositionControl@643b1d11_2</title>
<path fill="none" stroke="black" d="M271.344,-219.124C251.703,-228.585 228.226,-240.428 209.091,-250.507"/>
<polygon fill="black" stroke="black" points="207.269,-247.511 200.081,-255.294 210.554,-253.692 207.269,-247.511"/>
<text text-anchor="middle" x="270.257" y="-232.184" font-family="Times New Roman,serif" font-size="8.00">use</text>
</g>
<!-- &#45;attrs0 -->
<g id="node2" class="node"><title>&#45;attrs0</title>
<polygon fill="none" stroke="gray" points="409.5,-147 304.5,-147 304.5,-111 415.5,-111 415.5,-141 409.5,-147"/>
<polyline fill="none" stroke="gray" points="409.5,-147 409.5,-141 "/>
<polyline fill="none" stroke="gray" points="415.5,-141 409.5,-141 "/>
<text text-anchor="start" x="315" y="-126" font-family="Times New Roman,serif" font-size="10.00">type:</text>
<text text-anchor="start" x="338" y="-126" font-family="Times New Roman,serif" font-size="10.00">u2p:doorOpened</text>
</g>
<!-- &#45;attrs0&#45;&gt;http://example.org/doorOpened_2 -->
<g id="edge1" class="edge"><title>&#45;attrs0&#45;&gt;http://example.org/doorOpened_2</title>
<path fill="none" stroke="gray" stroke-dasharray="5,2" d="M347.888,-147.303C340.292,-158.154 330.542,-172.083 322.973,-182.896"/>
</g>
<!-- http://example.org/CarPositionControl@643b1d11_0 -->
<g id="node3" class="node"><title>http://example.org/CarPositionControl@643b1d11_0</title>
<g id="a_node3"><a xlink:href="http://example.org/CarPositionControl@643b1d11_0" xlink:title="CarPositionControl@643b1d11_0">
<ellipse fill="#fffc87" stroke="#808080" cx="307" cy="-345" rx="135.376" ry="18"/>
<text text-anchor="middle" x="307" y="-341.3" font-family="Times New Roman,serif" font-size="14.00">CarPositionControl@643b1d11_0</text>
</a>
</g>
</g>
<!-- http://example.org/CarPositionControl@643b1d11 -->
<g id="node9" class="node"><title>http://example.org/CarPositionControl@643b1d11</title>
<g id="a_node9"><a xlink:href="http://example.org/CarPositionControl@643b1d11" xlink:title="CarPositionControl@643b1d11">
<polygon fill="#fdb266" stroke="black" points="384.709,-422.562 229,-435 73.2912,-422.562 73.4365,-402.438 384.563,-402.438 384.709,-422.562"/>
<text text-anchor="middle" x="229" y="-413.3" font-family="Times New Roman,serif" font-size="14.00">CarPositionControl@643b1d11</text>
</a>
</g>
</g>
<!-- http://example.org/CarPositionControl@643b1d11_0&#45;&gt;http://example.org/CarPositionControl@643b1d11 -->
<g id="edge6" class="edge"><title>http://example.org/CarPositionControl@643b1d11_0&#45;&gt;http://example.org/CarPositionControl@643b1d11</title>
<path fill="none" stroke="black" d="M288.118,-362.945C277.202,-372.742 263.389,-385.138 251.861,-395.484"/>
<polygon fill="black" stroke="black" points="249.413,-392.978 244.309,-402.262 254.089,-398.187 249.413,-392.978"/>
<text text-anchor="middle" x="291.213" y="-375.722" font-family="Times New Roman,serif" font-size="8.00">att</text>
</g>
<!-- &#45;attrs1 -->
<g id="node4" class="node"><title>&#45;attrs1</title>
<polygon fill="none" stroke="gray" points="436,-291 326,-291 326,-255 442,-255 442,-285 436,-291"/>
<polyline fill="none" stroke="gray" points="436,-291 436,-285 "/>
<polyline fill="none" stroke="gray" points="442,-285 436,-285 "/>
<text text-anchor="start" x="336" y="-270" font-family="Times New Roman,serif" font-size="10.00">type:</text>
<text text-anchor="start" x="359" y="-270" font-family="Times New Roman,serif" font-size="10.00">u2p:StateMachine</text>
</g>
<!-- &#45;attrs1&#45;&gt;http://example.org/CarPositionControl@643b1d11_0 -->
<g id="edge2" class="edge"><title>&#45;attrs1&#45;&gt;http://example.org/CarPositionControl@643b1d11_0</title>
<path fill="none" stroke="gray" stroke-dasharray="5,2" d="M364.966,-291.303C352.942,-302.235 337.48,-316.291 325.549,-327.137"/>
</g>
<!-- http://example.org/CarPositionControl@643b1d11_3 -->
<g id="node5" class="node"><title>http://example.org/CarPositionControl@643b1d11_3</title>
<g id="a_node5"><a xlink:href="http://example.org/CarPositionControl@643b1d11_3" xlink:title="CarPositionControl@643b1d11_3">
<ellipse fill="#fffc87" stroke="#808080" cx="151" cy="-129" rx="135.376" ry="18"/>
<text text-anchor="middle" x="151" y="-125.3" font-family="Times New Roman,serif" font-size="14.00">CarPositionControl@643b1d11_3</text>
</a>
</g>
</g>
<!-- http://example.org/CarPositionControl@643b1d11_3&#45;&gt;http://example.org/doorOpened_2 -->
<g id="edge8" class="edge"><title>http://example.org/CarPositionControl@643b1d11_3&#45;&gt;http://example.org/doorOpened_2</title>
<path fill="none" stroke="black" d="M188.513,-146.412C210.692,-156.115 239.009,-168.504 262.829,-178.925"/>
<polygon fill="black" stroke="black" points="261.487,-182.158 272.051,-182.96 264.293,-175.745 261.487,-182.158"/>
<text text-anchor="middle" x="200.591" y="-135.617" font-family="Times New Roman,serif" font-size="8.00">gen</text>
</g>
<!-- http://example.org/CarPositionControl@643b1d11_3&#45;&gt;http://example.org/CarPositionControl@643b1d11_0 -->
<g id="edge7" class="edge"><title>http://example.org/CarPositionControl@643b1d11_3&#45;&gt;http://example.org/CarPositionControl@643b1d11_0</title>
<path fill="none" stroke="black" d="M122.004,-146.582C73.8399,-176.178 -13.3643,-239.796 29,-291 40.3859,-304.762 128.53,-319.99 202.56,-330.578"/>
<polygon fill="black" stroke="black" points="202.511,-334.106 212.903,-332.041 203.491,-327.175 202.511,-334.106"/>
<text text-anchor="middle" x="122.665" y="-159.668" font-family="Times New Roman,serif" font-size="8.00">spe</text>
</g>
<!-- http://example.org/CarPositionControl@643b1d11_3&#45;&gt;http://example.org/CarPositionControl@643b1d11_2 -->
<g id="edge9" class="edge"><title>http://example.org/CarPositionControl@643b1d11_3&#45;&gt;http://example.org/CarPositionControl@643b1d11_2</title>
<path fill="none" stroke="black" d="M125.463,-146.719C113.841,-155.887 101.298,-168.368 95,-183 88.6743,-197.696 87.5126,-204.86 95,-219 101.843,-231.924 113.407,-242.281 125.563,-250.289"/>
<polygon fill="black" stroke="black" points="124.1,-253.496 134.461,-255.709 127.741,-247.518 124.1,-253.496"/>
<text text-anchor="middle" x="127.832" y="-159.631" font-family="Times New Roman,serif" font-size="8.00">der</text>
</g>
<!-- &#45;attrs2 -->
<g id="node6" class="node"><title>&#45;attrs2</title>
<polygon fill="none" stroke="gray" points="221.5,-75 74.5,-75 74.5,-39 227.5,-39 227.5,-69 221.5,-75"/>
<polyline fill="none" stroke="gray" points="221.5,-75 221.5,-69 "/>
<polyline fill="none" stroke="gray" points="227.5,-69 221.5,-69 "/>
<text text-anchor="start" x="85" y="-61" font-family="Times New Roman,serif" font-size="10.00">type:</text>
<text text-anchor="start" x="109" y="-61" font-family="Times New Roman,serif" font-size="10.00">u2p:CarPositionControl</text>
<text text-anchor="start" x="85" y="-48" font-family="Times New Roman,serif" font-size="10.00">state:</text>
<text text-anchor="start" x="109" y="-48" font-family="Times New Roman,serif" font-size="10.00">u2p:IndicatingCurrentFloor</text>
</g>
<!-- &#45;attrs2&#45;&gt;http://example.org/CarPositionControl@643b1d11_3 -->
<g id="edge3" class="edge"><title>&#45;attrs2&#45;&gt;http://example.org/CarPositionControl@643b1d11_3</title>
<path fill="none" stroke="gray" stroke-dasharray="5,2" d="M151,-75.3034C151,-86.1537 151,-100.083 151,-110.896"/>
</g>
<!-- http://example.org/CarPositionControl@643b1d11_2&#45;&gt;http://example.org/doorOpened_2 -->
<g id="edge10" class="edge"><title>http://example.org/CarPositionControl@643b1d11_2&#45;&gt;http://example.org/doorOpened_2</title>
<path fill="none" stroke="black" d="M222.251,-250.215C239.394,-241.821 258.287,-232.238 274.252,-223.839"/>
<polygon fill="none" stroke="black" points="222.082,-250.296 218.43,-256.514 211.286,-255.535 214.938,-249.317 222.082,-250.296"/>
<polygon fill="black" stroke="black" points="275.946,-226.903 283.138,-219.124 272.664,-220.72 275.946,-226.903"/>
<text text-anchor="middle" x="212.363" y="-238.674" font-family="Times New Roman,serif" font-size="8.00">inv</text>
</g>
<!-- http://example.org/CarPositionControl@643b1d11_2&#45;&gt;http://example.org/CarPositionControl@643b1d11_0 -->
<g id="edge12" class="edge"><title>http://example.org/CarPositionControl@643b1d11_2&#45;&gt;http://example.org/CarPositionControl@643b1d11_0</title>
<path fill="none" stroke="black" d="M204.756,-290.589C223.063,-300.152 246.277,-312.279 265.957,-322.559"/>
<polygon fill="black" stroke="black" points="264.523,-325.759 275.007,-327.287 267.765,-319.555 264.523,-325.759"/>
<text text-anchor="middle" x="217.419" y="-280.648" font-family="Times New Roman,serif" font-size="8.00">spe</text>
</g>
<!-- &#45;attrs3 -->
<g id="node8" class="node"><title>&#45;attrs3</title>
<polygon fill="none" stroke="gray" points="236,-219 104,-219 104,-183 242,-183 242,-213 236,-219"/>
<polyline fill="none" stroke="gray" points="236,-219 236,-213 "/>
<polyline fill="none" stroke="gray" points="242,-213 236,-213 "/>
<text text-anchor="start" x="114" y="-205" font-family="Times New Roman,serif" font-size="10.00">type:</text>
<text text-anchor="start" x="138" y="-205" font-family="Times New Roman,serif" font-size="10.00">u2p:CarPositionControl</text>
<text text-anchor="start" x="114" y="-192" font-family="Times New Roman,serif" font-size="10.00">state:</text>
<text text-anchor="start" x="138" y="-192" font-family="Times New Roman,serif" font-size="10.00">u2p:Idle</text>
</g>
<!-- &#45;attrs3&#45;&gt;http://example.org/CarPositionControl@643b1d11_2 -->
<g id="edge4" class="edge"><title>&#45;attrs3&#45;&gt;http://example.org/CarPositionControl@643b1d11_2</title>
<path fill="none" stroke="gray" stroke-dasharray="5,2" d="M173,-219.303C173,-230.154 173,-244.083 173,-254.896"/>
</g>
<!-- &#45;attrs4 -->
<g id="node10" class="node"><title>&#45;attrs4</title>
<polygon fill="none" stroke="gray" points="147.5,-363 16.5,-363 16.5,-327 153.5,-327 153.5,-357 147.5,-363"/>
<polyline fill="none" stroke="gray" points="147.5,-363 147.5,-357 "/>
<polyline fill="none" stroke="gray" points="153.5,-357 147.5,-357 "/>
<text text-anchor="start" x="27" y="-342" font-family="Times New Roman,serif" font-size="10.00">type:</text>
<text text-anchor="start" x="50" y="-342" font-family="Times New Roman,serif" font-size="10.00">u2p:CarPositionControl</text>
</g>
<!-- &#45;attrs4&#45;&gt;http://example.org/CarPositionControl@643b1d11 -->
<g id="edge5" class="edge"><title>&#45;attrs4&#45;&gt;http://example.org/CarPositionControl@643b1d11</title>
<path fill="none" stroke="gray" stroke-dasharray="5,2" d="M120.226,-363.124C145.039,-375.186 177.816,-391.119 200.881,-402.331"/>
</g>
</g>
</svg>
