<?xml version="1.0" encoding="UTF-8" standalone="no"?>
<!DOCTYPE svg PUBLIC "-//W3C//DTD SVG 1.1//EN"
 "http://www.w3.org/Graphics/SVG/1.1/DTD/svg11.dtd">
<!-- Generated by graphviz version 2.38.0 (20140413.2041)
 -->
<!-- Title: PROV Pages: 1 -->
<svg width="473pt" height="459pt"
 viewBox="0.00 0.00 473.00 459.00" xmlns="http://www.w3.org/2000/svg" xmlns:xlink="http://www.w3.org/1999/xlink">
<g id="graph0" class="graph" transform="scale(1 1) rotate(0) translate(4 455)">
<title>PROV</title>
<polygon fill="white" stroke="none" points="-4,4 -4,-455 469,-455 469,4 -4,4"/>
<g id="clust1" class="cluster"><title>clusterhttp://example.org/bundle1</title>
<g id="a_clust1"><a xlink:href="http://example.org/bundle1" xlink:title="bundle1">
<polygon fill="none" stroke="black" points="8,-8 8,-443 457,-443 457,-8 8,-8"/>
<text text-anchor="middle" x="232.5" y="-15.8" font-family="Times New Roman,serif" font-size="14.00">bundle1</text>
</a>
</g>
</g>
<!-- http://example.org/indicateCurrentFloor_1 -->
<g id="node1" class="node"><title>http://example.org/indicateCurrentFloor_1</title>
<g id="a_node1"><a xlink:href="http://example.org/indicateCurrentFloor_1" xlink:title="indicateCurrentFloor_1">
<polygon fill="#9fb1fc" stroke="#0000ff" points="415,-219 269,-219 269,-183 415,-183 415,-219"/>
<text text-anchor="middle" x="342" y="-197.3" font-family="Times New Roman,serif" font-size="14.00">indicateCurrentFloor_1</text>
</a>
</g>
</g>
<!-- http://example.org/CarPositionIndicator@2ef5e5e3_1 -->
<g id="node7" class="node"><title>http://example.org/CarPositionIndicator@2ef5e5e3_1</title>
<g id="a_node7"><a xlink:href="http://example.org/CarPositionIndicator@2ef5e5e3_1" xlink:title="CarPositionIndicator@2ef5e5e3_1">
<ellipse fill="#fffc87" stroke="#808080" cx="179" cy="-273" rx="135.676" ry="18"/>
<text text-anchor="middle" x="179" y="-269.3" font-family="Times New Roman,serif" font-size="14.00">CarPositionIndicator@2ef5e5e3_1</text>
</a>
</g>
</g>
<!-- http://example.org/indicateCurrentFloor_1&#45;&gt;http://example.org/CarPositionIndicator@2ef5e5e3_1 -->
<g id="edge11" class="edge"><title>http://example.org/indicateCurrentFloor_1&#45;&gt;http://example.org/CarPositionIndicator@2ef5e5e3_1</title>
<path fill="none" stroke="black" d="M296.229,-219.124C272.598,-228.836 244.031,-241.057 220.971,-251.304"/>
<polygon fill="black" stroke="black" points="219.48,-248.137 211.78,-255.415 222.338,-254.526 219.48,-248.137"/>
<text text-anchor="middle" x="294.255" y="-232.093" font-family="Times New Roman,serif" font-size="8.00">use</text>
</g>
<!-- &#45;attrs0 -->
<g id="node2" class="node"><title>&#45;attrs0</title>
<polygon fill="none" stroke="gray" points="442.5,-147 305.5,-147 305.5,-111 448.5,-111 448.5,-141 442.5,-147"/>
<polyline fill="none" stroke="gray" points="442.5,-147 442.5,-141 "/>
<polyline fill="none" stroke="gray" points="448.5,-141 442.5,-141 "/>
<text text-anchor="start" x="316" y="-126" font-family="Times New Roman,serif" font-size="10.00">type:</text>
<text text-anchor="start" x="339" y="-126" font-family="Times New Roman,serif" font-size="10.00">u2p:indicateCurrentFloor</text>
</g>
<!-- &#45;attrs0&#45;&gt;http://example.org/indicateCurrentFloor_1 -->
<g id="edge1" class="edge"><title>&#45;attrs0&#45;&gt;http://example.org/indicateCurrentFloor_1</title>
<path fill="none" stroke="gray" stroke-dasharray="5,2" d="M368.348,-147.303C362.923,-158.154 355.958,-172.083 350.552,-182.896"/>
</g>
<!-- http://example.org/CarPositionIndicator@2ef5e5e3_0 -->
<g id="node3" class="node"><title>http://example.org/CarPositionIndicator@2ef5e5e3_0</title>
<g id="a_node3"><a xlink:href="http://example.org/CarPositionIndicator@2ef5e5e3_0" xlink:title="CarPositionIndicator@2ef5e5e3_0">
<ellipse fill="#fffc87" stroke="#808080" cx="313" cy="-345" rx="135.676" ry="18"/>
<text text-anchor="middle" x="313" y="-341.3" font-family="Times New Roman,serif" font-size="14.00">CarPositionIndicator@2ef5e5e3_0</text>
</a>
</g>
</g>
<!-- http://example.org/CarPositionIndicator@2ef5e5e3 -->
<g id="node9" class="node"><title>http://example.org/CarPositionIndicator@2ef5e5e3</title>
<g id="a_node9"><a xlink:href="http://example.org/CarPositionIndicator@2ef5e5e3" xlink:title="CarPositionIndicator@2ef5e5e3">
<polygon fill="#fdb266" stroke="black" points="388.816,-422.562 232,-435 75.1844,-422.562 75.3308,-402.438 388.669,-402.438 388.816,-422.562"/>
<text text-anchor="middle" x="232" y="-413.3" font-family="Times New Roman,serif" font-size="14.00">CarPositionIndicator@2ef5e5e3</text>
</a>
</g>
</g>
<!-- http://example.org/CarPositionIndicator@2ef5e5e3_0&#45;&gt;http://example.org/CarPositionIndicator@2ef5e5e3 -->
<g id="edge6" class="edge"><title>http://example.org/CarPositionIndicator@2ef5e5e3_0&#45;&gt;http://example.org/CarPositionIndicator@2ef5e5e3</title>
<path fill="none" stroke="black" d="M293.392,-362.945C282.056,-372.742 267.712,-385.138 255.74,-395.484"/>
<polygon fill="black" stroke="black" points="253.175,-393.075 247.897,-402.262 257.752,-398.371 253.175,-393.075"/>
<text text-anchor="middle" x="296.211" y="-375.778" font-family="Times New Roman,serif" font-size="8.00">att</text>
</g>
<!-- &#45;attrs1 -->
<g id="node4" class="node"><title>&#45;attrs1</title>
<polygon fill="none" stroke="gray" points="443,-291 333,-291 333,-255 449,-255 449,-285 443,-291"/>
<polyline fill="none" stroke="gray" points="443,-291 443,-285 "/>
<polyline fill="none" stroke="gray" points="449,-285 443,-285 "/>
<text text-anchor="start" x="343" y="-270" font-family="Times New Roman,serif" font-size="10.00">type:</text>
<text text-anchor="start" x="366" y="-270" font-family="Times New Roman,serif" font-size="10.00">u2p:StateMachine</text>
</g>
<!-- &#45;attrs1&#45;&gt;http://example.org/CarPositionIndicator@2ef5e5e3_0 -->
<g id="edge2" class="edge"><title>&#45;attrs1&#45;&gt;http://example.org/CarPositionIndicator@2ef5e5e3_0</title>
<path fill="none" stroke="gray" stroke-dasharray="5,2" d="M371.719,-291.303C359.538,-302.235 343.875,-316.291 331.79,-327.137"/>
</g>
<!-- http://example.org/CarPositionIndicator@2ef5e5e3_2 -->
<g id="node5" class="node"><title>http://example.org/CarPositionIndicator@2ef5e5e3_2</title>
<g id="a_node5"><a xlink:href="http://example.org/CarPositionIndicator@2ef5e5e3_2" xlink:title="CarPositionIndicator@2ef5e5e3_2">
<ellipse fill="#fffc87" stroke="#808080" cx="152" cy="-129" rx="135.676" ry="18"/>
<text text-anchor="middle" x="152" y="-125.3" font-family="Times New Roman,serif" font-size="14.00">CarPositionIndicator@2ef5e5e3_2</text>
</a>
</g>
</g>
<!-- http://example.org/CarPositionIndicator@2ef5e5e3_2&#45;&gt;http://example.org/indicateCurrentFloor_1 -->
<g id="edge8" class="edge"><title>http://example.org/CarPositionIndicator@2ef5e5e3_2&#45;&gt;http://example.org/indicateCurrentFloor_1</title>
<path fill="none" stroke="black" d="M195.59,-146.059C222.462,-155.96 257.187,-168.753 286.075,-179.396"/>
<polygon fill="black" stroke="black" points="285.035,-182.743 295.628,-182.916 287.455,-176.174 285.035,-182.743"/>
<text text-anchor="middle" x="207.118" y="-134.563" font-family="Times New Roman,serif" font-size="8.00">gen</text>
</g>
<!-- http://example.org/CarPositionIndicator@2ef5e5e3_2&#45;&gt;http://example.org/CarPositionIndicator@2ef5e5e3_0 -->
<g id="edge7" class="edge"><title>http://example.org/CarPositionIndicator@2ef5e5e3_2&#45;&gt;http://example.org/CarPositionIndicator@2ef5e5e3_0</title>
<path fill="none" stroke="black" d="M123.772,-146.708C76.8999,-176.5 -7.87971,-240.416 34,-291 45.4346,-304.811 133.961,-320.04 208.275,-330.615"/>
<polygon fill="black" stroke="black" points="207.8,-334.083 218.19,-332.011 208.776,-327.151 207.8,-334.083"/>
<text text-anchor="middle" x="124.662" y="-159.781" font-family="Times New Roman,serif" font-size="8.00">spe</text>
</g>
<!-- http://example.org/CarPositionIndicator@2ef5e5e3_2&#45;&gt;http://example.org/CarPositionIndicator@2ef5e5e3_1 -->
<g id="edge9" class="edge"><title>http://example.org/CarPositionIndicator@2ef5e5e3_2&#45;&gt;http://example.org/CarPositionIndicator@2ef5e5e3_1</title>
<path fill="none" stroke="black" d="M127.355,-146.906C116.143,-156.12 104.049,-168.586 98,-183 91.8081,-197.753 90.3897,-204.926 98,-219 105.144,-232.212 117.173,-242.659 129.804,-250.661"/>
<polygon fill="black" stroke="black" points="128.196,-253.775 138.593,-255.814 131.737,-247.737 128.196,-253.775"/>
<text text-anchor="middle" x="130.015" y="-159.768" font-family="Times New Roman,serif" font-size="8.00">der</text>
</g>
<!-- &#45;attrs2 -->
<g id="node6" class="node"><title>&#45;attrs2</title>
<polygon fill="none" stroke="gray" points="222.5,-75 75.5,-75 75.5,-39 228.5,-39 228.5,-69 222.5,-75"/>
<polyline fill="none" stroke="gray" points="222.5,-75 222.5,-69 "/>
<polyline fill="none" stroke="gray" points="228.5,-69 222.5,-69 "/>
<text text-anchor="start" x="86" y="-61" font-family="Times New Roman,serif" font-size="10.00">type:</text>
<text text-anchor="start" x="110" y="-61" font-family="Times New Roman,serif" font-size="10.00">u2p:CarPositionIndicator</text>
<text text-anchor="start" x="86" y="-48" font-family="Times New Roman,serif" font-size="10.00">state:</text>
<text text-anchor="start" x="110" y="-48" font-family="Times New Roman,serif" font-size="10.00">u2p:IndicatingCurrentFloor</text>
</g>
<!-- &#45;attrs2&#45;&gt;http://example.org/CarPositionIndicator@2ef5e5e3_2 -->
<g id="edge3" class="edge"><title>&#45;attrs2&#45;&gt;http://example.org/CarPositionIndicator@2ef5e5e3_2</title>
<path fill="none" stroke="gray" stroke-dasharray="5,2" d="M152,-75.3034C152,-86.1537 152,-100.083 152,-110.896"/>
</g>
<!-- http://example.org/CarPositionIndicator@2ef5e5e3_1&#45;&gt;http://example.org/indicateCurrentFloor_1 -->
<g id="edge10" class="edge"><title>http://example.org/CarPositionIndicator@2ef5e5e3_1&#45;&gt;http://example.org/indicateCurrentFloor_1</title>
<path fill="none" stroke="black" d="M233.424,-251.3C254.633,-242.487 278.573,-232.213 298.597,-223.332"/>
<polygon fill="none" stroke="black" points="233.384,-251.316 229.363,-257.302 222.291,-255.894 226.312,-249.907 233.384,-251.316"/>
<polygon fill="black" stroke="black" points="300.318,-226.397 308.023,-219.124 297.465,-220.005 300.318,-226.397"/>
<text text-anchor="middle" x="224.269" y="-239.125" font-family="Times New Roman,serif" font-size="8.00">inv</text>
</g>
<!-- http://example.org/CarPositionIndicator@2ef5e5e3_1&#45;&gt;http://example.org/CarPositionIndicator@2ef5e5e3_0 -->
<g id="edge12" class="edge"><title>http://example.org/CarPositionIndicator@2ef5e5e3_1&#45;&gt;http://example.org/CarPositionIndicator@2ef5e5e3_0</title>
<path fill="none" stroke="black" d="M210.756,-290.589C229.063,-300.152 252.277,-312.279 271.957,-322.559"/>
<polygon fill="black" stroke="black" points="270.523,-325.759 281.007,-327.287 273.765,-319.555 270.523,-325.759"/>
<text text-anchor="middle" x="223.419" y="-280.648" font-family="Times New Roman,serif" font-size="8.00">spe</text>
</g>
<!-- &#45;attrs3 -->
<g id="node8" class="node"><title>&#45;attrs3</title>
<polygon fill="none" stroke="gray" points="245,-219 107,-219 107,-183 251,-183 251,-213 245,-219"/>
<polyline fill="none" stroke="gray" points="245,-219 245,-213 "/>
<polyline fill="none" stroke="gray" points="251,-213 245,-213 "/>
<text text-anchor="start" x="117" y="-205" font-family="Times New Roman,serif" font-size="10.00">type:</text>
<text text-anchor="start" x="141" y="-205" font-family="Times New Roman,serif" font-size="10.00">u2p:CarPositionIndicator</text>
<text text-anchor="start" x="117" y="-192" font-family="Times New Roman,serif" font-size="10.00">state:</text>
<text text-anchor="start" x="141" y="-192" font-family="Times New Roman,serif" font-size="10.00">u2p:Indicatingnothing</text>
</g>
<!-- &#45;attrs3&#45;&gt;http://example.org/CarPositionIndicator@2ef5e5e3_1 -->
<g id="edge4" class="edge"><title>&#45;attrs3&#45;&gt;http://example.org/CarPositionIndicator@2ef5e5e3_1</title>
<path fill="none" stroke="gray" stroke-dasharray="5,2" d="M179,-219.303C179,-230.154 179,-244.083 179,-254.896"/>
</g>
<!-- &#45;attrs4 -->
<g id="node10" class="node"><title>&#45;attrs4</title>
<polygon fill="none" stroke="gray" points="153.5,-363 16.5,-363 16.5,-327 159.5,-327 159.5,-357 153.5,-363"/>
<polyline fill="none" stroke="gray" points="153.5,-363 153.5,-357 "/>
<polyline fill="none" stroke="gray" points="159.5,-357 153.5,-357 "/>
<text text-anchor="start" x="27" y="-342" font-family="Times New Roman,serif" font-size="10.00">type:</text>
<text text-anchor="start" x="50" y="-342" font-family="Times New Roman,serif" font-size="10.00">u2p:CarPositionIndicator</text>
</g>
<!-- &#45;attrs4&#45;&gt;http://example.org/CarPositionIndicator@2ef5e5e3 -->
<g id="edge5" class="edge"><title>&#45;attrs4&#45;&gt;http://example.org/CarPositionIndicator@2ef5e5e3</title>
<path fill="none" stroke="gray" stroke-dasharray="5,2" d="M123.226,-363.124C148.039,-375.186 180.816,-391.119 203.881,-402.331"/>
</g>
</g>
</svg>
