<?xml version="1.0" encoding="UTF-8" standalone="no"?>
<!DOCTYPE svg PUBLIC "-//W3C//DTD SVG 1.1//EN"
 "http://www.w3.org/Graphics/SVG/1.1/DTD/svg11.dtd">
<!-- Generated by graphviz version 2.38.0 (20140413.2041)
 -->
<!-- Title: PROV Pages: 1 -->
<svg width="578pt" height="243pt"
 viewBox="0.00 0.00 578.00 243.00" xmlns="http://www.w3.org/2000/svg" xmlns:xlink="http://www.w3.org/1999/xlink">
<g id="graph0" class="graph" transform="scale(1 1) rotate(0) translate(4 239)">
<title>PROV</title>
<polygon fill="white" stroke="none" points="-4,4 -4,-239 574,-239 574,4 -4,4"/>
<g id="clust1" class="cluster"><title>clusterhttp://example.org/bundle1</title>
<g id="a_clust1"><a xlink:href="http://example.org/bundle1" xlink:title="bundle1">
<polygon fill="none" stroke="black" points="8,-8 8,-227 562,-227 562,-8 8,-8"/>
<text text-anchor="middle" x="285" y="-15.8" font-family="Times New Roman,serif" font-size="14.00">bundle1</text>
</a>
</g>
</g>
<!-- http://example.org/indicateCurrentFloor_1 -->
<g id="node1" class="node"><title>http://example.org/indicateCurrentFloor_1</title>
<g id="a_node1"><a xlink:href="http://example.org/indicateCurrentFloor_1" xlink:title="indicateCurrentFloor_1">
<polygon fill="#9fb1fc" stroke="#0000ff" points="438,-147 292,-147 292,-111 438,-111 438,-147"/>
<text text-anchor="middle" x="365" y="-125.3" font-family="Times New Roman,serif" font-size="14.00">indicateCurrentFloor_1</text>
</a>
</g>
</g>
<!-- http://example.org/dataset.caseStudy.CS5ElevatorBis.CarPositionControl@ -->
<g id="node3" class="node"><title>http://example.org/dataset.caseStudy.CS5ElevatorBis.CarPositionControl@</title>
<g id="a_node3"><a xlink:href="http://example.org/dataset.caseStudy.CS5ElevatorBis.CarPositionControl@" xlink:title="dataset.caseStudy.CS5ElevatorBis.CarPositionControl@">
<polygon fill="#fdb266" stroke="black" points="554.26,-206.562 285,-219 15.7401,-206.562 15.9914,-186.438 554.009,-186.438 554.26,-206.562"/>
<text text-anchor="middle" x="285" y="-197.3" font-family="Times New Roman,serif" font-size="14.00">dataset.caseStudy.CS5ElevatorBis.CarPositionControl@</text>
</a>
</g>
</g>
<!-- http://example.org/indicateCurrentFloor_1&#45;&gt;http://example.org/dataset.caseStudy.CS5ElevatorBis.CarPositionControl@ -->
<g id="edge3" class="edge"><title>http://example.org/indicateCurrentFloor_1&#45;&gt;http://example.org/dataset.caseStudy.CS5ElevatorBis.CarPositionControl@</title>
<path fill="none" stroke="black" d="M345.225,-147.303C334.022,-157.106 319.946,-169.422 308.22,-179.682"/>
<polygon fill="black" stroke="black" points="305.763,-177.182 300.542,-186.401 310.372,-182.45 305.763,-177.182"/>
<text text-anchor="middle" x="348.135" y="-160.118" font-family="Times New Roman,serif" font-size="8.00">assoc</text>
</g>
<!-- &#45;attrs0 -->
<g id="node2" class="node"><title>&#45;attrs0</title>
<polygon fill="none" stroke="gray" points="430.5,-75 293.5,-75 293.5,-39 436.5,-39 436.5,-69 430.5,-75"/>
<polyline fill="none" stroke="gray" points="430.5,-75 430.5,-69 "/>
<polyline fill="none" stroke="gray" points="436.5,-69 430.5,-69 "/>
<text text-anchor="start" x="304" y="-54" font-family="Times New Roman,serif" font-size="10.00">type:</text>
<text text-anchor="start" x="327" y="-54" font-family="Times New Roman,serif" font-size="10.00">u2p:indicateCurrentFloor</text>
</g>
<!-- &#45;attrs0&#45;&gt;http://example.org/indicateCurrentFloor_1 -->
<g id="edge1" class="edge"><title>&#45;attrs0&#45;&gt;http://example.org/indicateCurrentFloor_1</title>
<path fill="none" stroke="gray" stroke-dasharray="5,2" d="M365,-75.3034C365,-86.1537 365,-100.083 365,-110.896"/>
</g>
<!-- &#45;attrs1 -->
<g id="node4" class="node"><title>&#45;attrs1</title>
<polygon fill="none" stroke="gray" points="267.5,-147 136.5,-147 136.5,-111 273.5,-111 273.5,-141 267.5,-147"/>
<polyline fill="none" stroke="gray" points="267.5,-147 267.5,-141 "/>
<polyline fill="none" stroke="gray" points="273.5,-141 267.5,-141 "/>
<text text-anchor="start" x="147" y="-126" font-family="Times New Roman,serif" font-size="10.00">type:</text>
<text text-anchor="start" x="170" y="-126" font-family="Times New Roman,serif" font-size="10.00">u2p:CarPositionControl</text>
</g>
<!-- &#45;attrs1&#45;&gt;http://example.org/dataset.caseStudy.CS5ElevatorBis.CarPositionControl@ -->
<g id="edge2" class="edge"><title>&#45;attrs1&#45;&gt;http://example.org/dataset.caseStudy.CS5ElevatorBis.CarPositionControl@</title>
<path fill="none" stroke="gray" stroke-dasharray="5,2" d="M224.775,-147.303C238.564,-159.368 256.703,-175.24 269.458,-186.401"/>
</g>
</g>
</svg>
