<?xml version="1.0" encoding="UTF-8" standalone="no"?>
<!DOCTYPE svg PUBLIC "-//W3C//DTD SVG 1.1//EN"
 "http://www.w3.org/Graphics/SVG/1.1/DTD/svg11.dtd">
<!-- Generated by graphviz version 2.38.0 (20140413.2041)
 -->
<!-- Title: PROV Pages: 1 -->
<svg width="412pt" height="459pt"
 viewBox="0.00 0.00 412.00 459.00" xmlns="http://www.w3.org/2000/svg" xmlns:xlink="http://www.w3.org/1999/xlink">
<g id="graph0" class="graph" transform="scale(1 1) rotate(0) translate(4 455)">
<title>PROV</title>
<polygon fill="white" stroke="none" points="-4,4 -4,-455 408,-455 408,4 -4,4"/>
<g id="clust1" class="cluster"><title>clusterhttp://example.org/bundle1</title>
<g id="a_clust1"><a xlink:href="http://example.org/bundle1" xlink:title="bundle1">
<polygon fill="none" stroke="black" points="8,-8 8,-443 396,-443 396,-8 8,-8"/>
<text text-anchor="middle" x="202" y="-15.8" font-family="Times New Roman,serif" font-size="14.00">bundle1</text>
</a>
</g>
</g>
<!-- http://example.org/atFloor_1 -->
<g id="node1" class="node"><title>http://example.org/atFloor_1</title>
<g id="a_node1"><a xlink:href="http://example.org/atFloor_1" xlink:title="atFloor_1">
<polygon fill="#9fb1fc" stroke="#0000ff" points="299.5,-219 228.5,-219 228.5,-183 299.5,-183 299.5,-219"/>
<text text-anchor="middle" x="264" y="-197.3" font-family="Times New Roman,serif" font-size="14.00">atFloor_1</text>
</a>
</g>
</g>
<!-- http://example.org/DoorControl@100fc185_1 -->
<g id="node7" class="node"><title>http://example.org/DoorControl@100fc185_1</title>
<g id="a_node7"><a xlink:href="http://example.org/DoorControl@100fc185_1" xlink:title="DoorControl@100fc185_1">
<ellipse fill="#fffc87" stroke="#808080" cx="145" cy="-273" rx="108.581" ry="18"/>
<text text-anchor="middle" x="145" y="-269.3" font-family="Times New Roman,serif" font-size="14.00">DoorControl@100fc185_1</text>
</a>
</g>
</g>
<!-- http://example.org/atFloor_1&#45;&gt;http://example.org/DoorControl@100fc185_1 -->
<g id="edge11" class="edge"><title>http://example.org/atFloor_1&#45;&gt;http://example.org/DoorControl@100fc185_1</title>
<path fill="none" stroke="black" d="M228.992,-219.124C212.229,-228.413 192.392,-239.999 176.155,-249.955"/>
<polygon fill="black" stroke="black" points="174.2,-247.049 167.547,-255.294 177.89,-252.998 174.2,-247.049"/>
<text text-anchor="middle" x="228.768" y="-232.222" font-family="Times New Roman,serif" font-size="8.00">use</text>
</g>
<!-- &#45;attrs0 -->
<g id="node2" class="node"><title>&#45;attrs0</title>
<polygon fill="none" stroke="gray" points="334.5,-147 251.5,-147 251.5,-111 340.5,-111 340.5,-141 334.5,-147"/>
<polyline fill="none" stroke="gray" points="334.5,-147 334.5,-141 "/>
<polyline fill="none" stroke="gray" points="340.5,-141 334.5,-141 "/>
<text text-anchor="start" x="262" y="-126" font-family="Times New Roman,serif" font-size="10.00">type:</text>
<text text-anchor="start" x="285" y="-126" font-family="Times New Roman,serif" font-size="10.00">u2p:atFloor</text>
</g>
<!-- &#45;attrs0&#45;&gt;http://example.org/atFloor_1 -->
<g id="edge1" class="edge"><title>&#45;attrs0&#45;&gt;http://example.org/atFloor_1</title>
<path fill="none" stroke="gray" stroke-dasharray="5,2" d="M288.09,-147.303C283.13,-158.154 276.762,-172.083 271.819,-182.896"/>
</g>
<!-- http://example.org/DoorControl@100fc185_0 -->
<g id="node3" class="node"><title>http://example.org/DoorControl@100fc185_0</title>
<g id="a_node3"><a xlink:href="http://example.org/DoorControl@100fc185_0" xlink:title="DoorControl@100fc185_0">
<ellipse fill="#fffc87" stroke="#808080" cx="254" cy="-345" rx="108.581" ry="18"/>
<text text-anchor="middle" x="254" y="-341.3" font-family="Times New Roman,serif" font-size="14.00">DoorControl@100fc185_0</text>
</a>
</g>
</g>
<!-- http://example.org/DoorControl@100fc185 -->
<g id="node9" class="node"><title>http://example.org/DoorControl@100fc185</title>
<g id="a_node9"><a xlink:href="http://example.org/DoorControl@100fc185" xlink:title="DoorControl@100fc185">
<polygon fill="#fdb266" stroke="black" points="318.832,-422.562 196,-435 73.1678,-422.562 73.2825,-402.438 318.718,-402.438 318.832,-422.562"/>
<text text-anchor="middle" x="196" y="-413.3" font-family="Times New Roman,serif" font-size="14.00">DoorControl@100fc185</text>
</a>
</g>
</g>
<!-- http://example.org/DoorControl@100fc185_0&#45;&gt;http://example.org/DoorControl@100fc185 -->
<g id="edge6" class="edge"><title>http://example.org/DoorControl@100fc185_0&#45;&gt;http://example.org/DoorControl@100fc185</title>
<path fill="none" stroke="black" d="M239.96,-362.945C232.207,-372.302 222.49,-384.03 214.164,-394.078"/>
<polygon fill="black" stroke="black" points="211.257,-392.101 207.572,-402.034 216.647,-396.567 211.257,-392.101"/>
<text text-anchor="middle" x="245.178" y="-375.108" font-family="Times New Roman,serif" font-size="8.00">att</text>
</g>
<!-- &#45;attrs1 -->
<g id="node4" class="node"><title>&#45;attrs1</title>
<polygon fill="none" stroke="gray" points="382,-291 272,-291 272,-255 388,-255 388,-285 382,-291"/>
<polyline fill="none" stroke="gray" points="382,-291 382,-285 "/>
<polyline fill="none" stroke="gray" points="388,-285 382,-285 "/>
<text text-anchor="start" x="282" y="-270" font-family="Times New Roman,serif" font-size="10.00">type:</text>
<text text-anchor="start" x="305" y="-270" font-family="Times New Roman,serif" font-size="10.00">u2p:StateMachine</text>
</g>
<!-- &#45;attrs1&#45;&gt;http://example.org/DoorControl@100fc185_0 -->
<g id="edge2" class="edge"><title>&#45;attrs1&#45;&gt;http://example.org/DoorControl@100fc185_0</title>
<path fill="none" stroke="gray" stroke-dasharray="5,2" d="M311.213,-291.303C299.345,-302.235 284.084,-316.291 272.308,-327.137"/>
</g>
<!-- http://example.org/DoorControl@100fc185_2 -->
<g id="node5" class="node"><title>http://example.org/DoorControl@100fc185_2</title>
<g id="a_node5"><a xlink:href="http://example.org/DoorControl@100fc185_2" xlink:title="DoorControl@100fc185_2">
<ellipse fill="#fffc87" stroke="#808080" cx="125" cy="-129" rx="108.581" ry="18"/>
<text text-anchor="middle" x="125" y="-125.3" font-family="Times New Roman,serif" font-size="14.00">DoorControl@100fc185_2</text>
</a>
</g>
</g>
<!-- http://example.org/DoorControl@100fc185_2&#45;&gt;http://example.org/atFloor_1 -->
<g id="edge8" class="edge"><title>http://example.org/DoorControl@100fc185_2&#45;&gt;http://example.org/atFloor_1</title>
<path fill="none" stroke="black" d="M157.239,-146.235C176.156,-155.762 200.302,-167.922 220.844,-178.267"/>
<polygon fill="black" stroke="black" points="219.491,-181.504 229.997,-182.876 222.64,-175.252 219.491,-181.504"/>
<text text-anchor="middle" x="169.78" y="-136.107" font-family="Times New Roman,serif" font-size="8.00">gen</text>
</g>
<!-- http://example.org/DoorControl@100fc185_2&#45;&gt;http://example.org/DoorControl@100fc185_0 -->
<g id="edge7" class="edge"><title>http://example.org/DoorControl@100fc185_2&#45;&gt;http://example.org/DoorControl@100fc185_0</title>
<path fill="none" stroke="black" d="M101.427,-146.635C61.4407,-176.858 -11.7446,-242.167 27,-291 36.2628,-302.675 110.02,-318.461 170.986,-329.763"/>
<polygon fill="black" stroke="black" points="170.568,-333.244 181.035,-331.607 171.832,-326.359 170.568,-333.244"/>
<text text-anchor="middle" x="103.537" y="-159.586" font-family="Times New Roman,serif" font-size="8.00">spe</text>
</g>
<!-- http://example.org/DoorControl@100fc185_2&#45;&gt;http://example.org/DoorControl@100fc185_1 -->
<g id="edge9" class="edge"><title>http://example.org/DoorControl@100fc185_2&#45;&gt;http://example.org/DoorControl@100fc185_1</title>
<path fill="none" stroke="black" d="M100.196,-146.582C88.6994,-155.795 76.2253,-168.356 70,-183 63.7405,-197.725 62.6427,-204.792 70,-219 76.6665,-231.874 88.0594,-242.289 99.9801,-250.368"/>
<polygon fill="black" stroke="black" points="98.3634,-253.486 108.693,-255.839 102.086,-247.557 98.3634,-253.486"/>
<text text-anchor="middle" x="102.676" y="-159.476" font-family="Times New Roman,serif" font-size="8.00">der</text>
</g>
<!-- &#45;attrs2 -->
<g id="node6" class="node"><title>&#45;attrs2</title>
<polygon fill="none" stroke="gray" points="175,-75 69,-75 69,-39 181,-39 181,-69 175,-75"/>
<polyline fill="none" stroke="gray" points="175,-75 175,-69 "/>
<polyline fill="none" stroke="gray" points="181,-69 175,-69 "/>
<text text-anchor="start" x="79" y="-61" font-family="Times New Roman,serif" font-size="10.00">type:</text>
<text text-anchor="start" x="103" y="-61" font-family="Times New Roman,serif" font-size="10.00">u2p:DoorControl</text>
<text text-anchor="start" x="79" y="-48" font-family="Times New Roman,serif" font-size="10.00">state:</text>
<text text-anchor="start" x="103" y="-48" font-family="Times New Roman,serif" font-size="10.00">u2p:Motoropen</text>
</g>
<!-- &#45;attrs2&#45;&gt;http://example.org/DoorControl@100fc185_2 -->
<g id="edge3" class="edge"><title>&#45;attrs2&#45;&gt;http://example.org/DoorControl@100fc185_2</title>
<path fill="none" stroke="gray" stroke-dasharray="5,2" d="M125,-75.3034C125,-86.1537 125,-100.083 125,-110.896"/>
</g>
<!-- http://example.org/DoorControl@100fc185_1&#45;&gt;http://example.org/atFloor_1 -->
<g id="edge10" class="edge"><title>http://example.org/DoorControl@100fc185_1&#45;&gt;http://example.org/atFloor_1</title>
<path fill="none" stroke="black" d="M188.982,-249.851C203.237,-241.791 218.744,-232.675 231.975,-224.578"/>
<polygon fill="none" stroke="black" points="188.858,-249.92 185.572,-256.339 178.383,-255.774 181.669,-249.355 188.858,-249.92"/>
<polygon fill="black" stroke="black" points="234.125,-227.363 240.786,-219.124 230.441,-221.411 234.125,-227.363"/>
<text text-anchor="middle" x="178.593" y="-238.876" font-family="Times New Roman,serif" font-size="8.00">inv</text>
</g>
<!-- http://example.org/DoorControl@100fc185_1&#45;&gt;http://example.org/DoorControl@100fc185_0 -->
<g id="edge12" class="edge"><title>http://example.org/DoorControl@100fc185_1&#45;&gt;http://example.org/DoorControl@100fc185_0</title>
<path fill="none" stroke="black" d="M170.831,-290.589C185.386,-299.936 203.753,-311.732 219.523,-321.859"/>
<polygon fill="black" stroke="black" points="217.671,-324.829 227.976,-327.287 221.453,-318.939 217.671,-324.829"/>
<text text-anchor="middle" x="184.162" y="-281.811" font-family="Times New Roman,serif" font-size="8.00">spe</text>
</g>
<!-- &#45;attrs3 -->
<g id="node8" class="node"><title>&#45;attrs3</title>
<polygon fill="none" stroke="gray" points="204.5,-219 79.5,-219 79.5,-183 210.5,-183 210.5,-213 204.5,-219"/>
<polyline fill="none" stroke="gray" points="204.5,-219 204.5,-213 "/>
<polyline fill="none" stroke="gray" points="210.5,-213 204.5,-213 "/>
<text text-anchor="start" x="90" y="-205" font-family="Times New Roman,serif" font-size="10.00">type:</text>
<text text-anchor="start" x="114" y="-205" font-family="Times New Roman,serif" font-size="10.00">u2p:DoorControl</text>
<text text-anchor="start" x="90" y="-192" font-family="Times New Roman,serif" font-size="10.00">state:</text>
<text text-anchor="start" x="114" y="-192" font-family="Times New Roman,serif" font-size="10.00">u2p:MotorStop/Open</text>
</g>
<!-- &#45;attrs3&#45;&gt;http://example.org/DoorControl@100fc185_1 -->
<g id="edge4" class="edge"><title>&#45;attrs3&#45;&gt;http://example.org/DoorControl@100fc185_1</title>
<path fill="none" stroke="gray" stroke-dasharray="5,2" d="M145,-219.303C145,-230.154 145,-244.083 145,-254.896"/>
</g>
<!-- &#45;attrs4 -->
<g id="node10" class="node"><title>&#45;attrs4</title>
<polygon fill="none" stroke="gray" points="121.5,-363 16.5,-363 16.5,-327 127.5,-327 127.5,-357 121.5,-363"/>
<polyline fill="none" stroke="gray" points="121.5,-363 121.5,-357 "/>
<polyline fill="none" stroke="gray" points="127.5,-357 121.5,-357 "/>
<text text-anchor="start" x="27" y="-342" font-family="Times New Roman,serif" font-size="10.00">type:</text>
<text text-anchor="start" x="50" y="-342" font-family="Times New Roman,serif" font-size="10.00">u2p:DoorControl</text>
</g>
<!-- &#45;attrs4&#45;&gt;http://example.org/DoorControl@100fc185 -->
<g id="edge5" class="edge"><title>&#45;attrs4&#45;&gt;http://example.org/DoorControl@100fc185</title>
<path fill="none" stroke="gray" stroke-dasharray="5,2" d="M102.334,-363.124C123.7,-375.186 151.925,-391.119 171.787,-402.331"/>
</g>
</g>
</svg>
