<?xml version="1.0" encoding="UTF-8" standalone="no"?>
<!DOCTYPE svg PUBLIC "-//W3C//DTD SVG 1.1//EN"
 "http://www.w3.org/Graphics/SVG/1.1/DTD/svg11.dtd">
<!-- Generated by graphviz version 2.38.0 (20140413.2041)
 -->
<!-- Title: PROV Pages: 1 -->
<svg width="455pt" height="459pt"
 viewBox="0.00 0.00 455.00 459.00" xmlns="http://www.w3.org/2000/svg" xmlns:xlink="http://www.w3.org/1999/xlink">
<g id="graph0" class="graph" transform="scale(1 1) rotate(0) translate(4 455)">
<title>PROV</title>
<polygon fill="white" stroke="none" points="-4,4 -4,-455 451,-455 451,4 -4,4"/>
<g id="clust1" class="cluster"><title>clusterhttp://example.org/bundle1</title>
<g id="a_clust1"><a xlink:href="http://example.org/bundle1" xlink:title="bundle1">
<polygon fill="none" stroke="black" points="8,-8 8,-443 439,-443 439,-8 8,-8"/>
<text text-anchor="middle" x="223.5" y="-15.8" font-family="Times New Roman,serif" font-size="14.00">bundle1</text>
</a>
</g>
</g>
<!-- http://example.org/doorOpened_1 -->
<g id="node1" class="node"><title>http://example.org/doorOpened_1</title>
<g id="a_node1"><a xlink:href="http://example.org/doorOpened_1" xlink:title="doorOpened_1">
<polygon fill="#9fb1fc" stroke="#0000ff" points="356,-219 254,-219 254,-183 356,-183 356,-219"/>
<text text-anchor="middle" x="305" y="-197.3" font-family="Times New Roman,serif" font-size="14.00">doorOpened_1</text>
</a>
</g>
</g>
<!-- http://example.org/CarPositionControl@3a82f6ef_1 -->
<g id="node7" class="node"><title>http://example.org/CarPositionControl@3a82f6ef_1</title>
<g id="a_node7"><a xlink:href="http://example.org/CarPositionControl@3a82f6ef_1" xlink:title="CarPositionControl@3a82f6ef_1">
<ellipse fill="#fffc87" stroke="#808080" cx="167" cy="-273" rx="129.977" ry="18"/>
<text text-anchor="middle" x="167" y="-269.3" font-family="Times New Roman,serif" font-size="14.00">CarPositionControl@3a82f6ef_1</text>
</a>
</g>
</g>
<!-- http://example.org/doorOpened_1&#45;&gt;http://example.org/CarPositionControl@3a82f6ef_1 -->
<g id="edge11" class="edge"><title>http://example.org/doorOpened_1&#45;&gt;http://example.org/CarPositionControl@3a82f6ef_1</title>
<path fill="none" stroke="black" d="M265.344,-219.124C245.703,-228.585 222.226,-240.428 203.091,-250.507"/>
<polygon fill="black" stroke="black" points="201.269,-247.511 194.081,-255.294 204.554,-253.692 201.269,-247.511"/>
<text text-anchor="middle" x="264.257" y="-232.184" font-family="Times New Roman,serif" font-size="8.00">use</text>
</g>
<!-- &#45;attrs0 -->
<g id="node2" class="node"><title>&#45;attrs0</title>
<polygon fill="none" stroke="gray" points="398.5,-147 293.5,-147 293.5,-111 404.5,-111 404.5,-141 398.5,-147"/>
<polyline fill="none" stroke="gray" points="398.5,-147 398.5,-141 "/>
<polyline fill="none" stroke="gray" points="404.5,-141 398.5,-141 "/>
<text text-anchor="start" x="304" y="-126" font-family="Times New Roman,serif" font-size="10.00">type:</text>
<text text-anchor="start" x="327" y="-126" font-family="Times New Roman,serif" font-size="10.00">u2p:doorOpened</text>
</g>
<!-- &#45;attrs0&#45;&gt;http://example.org/doorOpened_1 -->
<g id="edge1" class="edge"><title>&#45;attrs0&#45;&gt;http://example.org/doorOpened_1</title>
<path fill="none" stroke="gray" stroke-dasharray="5,2" d="M338.124,-147.303C331.303,-158.154 322.548,-172.083 315.751,-182.896"/>
</g>
<!-- http://example.org/CarPositionControl@3a82f6ef_0 -->
<g id="node3" class="node"><title>http://example.org/CarPositionControl@3a82f6ef_0</title>
<g id="a_node3"><a xlink:href="http://example.org/CarPositionControl@3a82f6ef_0" xlink:title="CarPositionControl@3a82f6ef_0">
<ellipse fill="#fffc87" stroke="#808080" cx="301" cy="-345" rx="129.977" ry="18"/>
<text text-anchor="middle" x="301" y="-341.3" font-family="Times New Roman,serif" font-size="14.00">CarPositionControl@3a82f6ef_0</text>
</a>
</g>
</g>
<!-- http://example.org/CarPositionControl@3a82f6ef -->
<g id="node9" class="node"><title>http://example.org/CarPositionControl@3a82f6ef</title>
<g id="a_node9"><a xlink:href="http://example.org/CarPositionControl@3a82f6ef" xlink:title="CarPositionControl@3a82f6ef">
<polygon fill="#fdb266" stroke="black" points="372.355,-422.562 223,-435 73.6452,-422.562 73.7847,-402.438 372.215,-402.438 372.355,-422.562"/>
<text text-anchor="middle" x="223" y="-413.3" font-family="Times New Roman,serif" font-size="14.00">CarPositionControl@3a82f6ef</text>
</a>
</g>
</g>
<!-- http://example.org/CarPositionControl@3a82f6ef_0&#45;&gt;http://example.org/CarPositionControl@3a82f6ef -->
<g id="edge6" class="edge"><title>http://example.org/CarPositionControl@3a82f6ef_0&#45;&gt;http://example.org/CarPositionControl@3a82f6ef</title>
<path fill="none" stroke="black" d="M282.118,-362.945C271.202,-372.742 257.389,-385.138 245.861,-395.484"/>
<polygon fill="black" stroke="black" points="243.413,-392.978 238.309,-402.262 248.089,-398.187 243.413,-392.978"/>
<text text-anchor="middle" x="285.213" y="-375.722" font-family="Times New Roman,serif" font-size="8.00">att</text>
</g>
<!-- &#45;attrs1 -->
<g id="node4" class="node"><title>&#45;attrs1</title>
<polygon fill="none" stroke="gray" points="425,-291 315,-291 315,-255 431,-255 431,-285 425,-291"/>
<polyline fill="none" stroke="gray" points="425,-291 425,-285 "/>
<polyline fill="none" stroke="gray" points="431,-285 425,-285 "/>
<text text-anchor="start" x="325" y="-270" font-family="Times New Roman,serif" font-size="10.00">type:</text>
<text text-anchor="start" x="348" y="-270" font-family="Times New Roman,serif" font-size="10.00">u2p:StateMachine</text>
</g>
<!-- &#45;attrs1&#45;&gt;http://example.org/CarPositionControl@3a82f6ef_0 -->
<g id="edge2" class="edge"><title>&#45;attrs1&#45;&gt;http://example.org/CarPositionControl@3a82f6ef_0</title>
<path fill="none" stroke="gray" stroke-dasharray="5,2" d="M355.202,-291.303C343.959,-302.235 329.5,-316.291 318.345,-327.137"/>
</g>
<!-- http://example.org/CarPositionControl@3a82f6ef_2 -->
<g id="node5" class="node"><title>http://example.org/CarPositionControl@3a82f6ef_2</title>
<g id="a_node5"><a xlink:href="http://example.org/CarPositionControl@3a82f6ef_2" xlink:title="CarPositionControl@3a82f6ef_2">
<ellipse fill="#fffc87" stroke="#808080" cx="146" cy="-129" rx="129.977" ry="18"/>
<text text-anchor="middle" x="146" y="-125.3" font-family="Times New Roman,serif" font-size="14.00">CarPositionControl@3a82f6ef_2</text>
</a>
</g>
</g>
<!-- http://example.org/CarPositionControl@3a82f6ef_2&#45;&gt;http://example.org/doorOpened_1 -->
<g id="edge8" class="edge"><title>http://example.org/CarPositionControl@3a82f6ef_2&#45;&gt;http://example.org/doorOpened_1</title>
<path fill="none" stroke="black" d="M183.278,-146.412C205.319,-156.115 233.459,-168.504 257.13,-178.925"/>
<polygon fill="black" stroke="black" points="255.732,-182.134 266.295,-182.96 258.553,-175.727 255.732,-182.134"/>
<text text-anchor="middle" x="195.377" y="-135.645" font-family="Times New Roman,serif" font-size="8.00">gen</text>
</g>
<!-- http://example.org/CarPositionControl@3a82f6ef_2&#45;&gt;http://example.org/CarPositionControl@3a82f6ef_0 -->
<g id="edge7" class="edge"><title>http://example.org/CarPositionControl@3a82f6ef_2&#45;&gt;http://example.org/CarPositionControl@3a82f6ef_0</title>
<path fill="none" stroke="black" d="M117.792,-146.691C70.9529,-176.457 -13.7778,-240.331 28,-291 39.2389,-304.631 126.867,-320 199.86,-330.664"/>
<polygon fill="black" stroke="black" points="199.656,-334.171 210.053,-332.137 200.657,-327.243 199.656,-334.171"/>
<text text-anchor="middle" x="118.681" y="-159.764" font-family="Times New Roman,serif" font-size="8.00">spe</text>
</g>
<!-- http://example.org/CarPositionControl@3a82f6ef_2&#45;&gt;http://example.org/CarPositionControl@3a82f6ef_1 -->
<g id="edge9" class="edge"><title>http://example.org/CarPositionControl@3a82f6ef_2&#45;&gt;http://example.org/CarPositionControl@3a82f6ef_1</title>
<path fill="none" stroke="black" d="M119.719,-146.856C107.977,-155.979 95.3686,-168.382 89,-183 82.6094,-197.668 81.5126,-204.86 89,-219 95.8433,-231.924 107.407,-242.281 119.563,-250.289"/>
<polygon fill="black" stroke="black" points="118.1,-253.496 128.461,-255.709 121.741,-247.518 118.1,-253.496"/>
<text text-anchor="middle" x="121.98" y="-159.784" font-family="Times New Roman,serif" font-size="8.00">der</text>
</g>
<!-- &#45;attrs2 -->
<g id="node6" class="node"><title>&#45;attrs2</title>
<polygon fill="none" stroke="gray" points="216.5,-75 69.5,-75 69.5,-39 222.5,-39 222.5,-69 216.5,-75"/>
<polyline fill="none" stroke="gray" points="216.5,-75 216.5,-69 "/>
<polyline fill="none" stroke="gray" points="222.5,-69 216.5,-69 "/>
<text text-anchor="start" x="80" y="-61" font-family="Times New Roman,serif" font-size="10.00">type:</text>
<text text-anchor="start" x="104" y="-61" font-family="Times New Roman,serif" font-size="10.00">u2p:CarPositionControl</text>
<text text-anchor="start" x="80" y="-48" font-family="Times New Roman,serif" font-size="10.00">state:</text>
<text text-anchor="start" x="104" y="-48" font-family="Times New Roman,serif" font-size="10.00">u2p:IndicatingCurrentFloor</text>
</g>
<!-- &#45;attrs2&#45;&gt;http://example.org/CarPositionControl@3a82f6ef_2 -->
<g id="edge3" class="edge"><title>&#45;attrs2&#45;&gt;http://example.org/CarPositionControl@3a82f6ef_2</title>
<path fill="none" stroke="gray" stroke-dasharray="5,2" d="M146,-75.3034C146,-86.1537 146,-100.083 146,-110.896"/>
</g>
<!-- http://example.org/CarPositionControl@3a82f6ef_1&#45;&gt;http://example.org/doorOpened_1 -->
<g id="edge10" class="edge"><title>http://example.org/CarPositionControl@3a82f6ef_1&#45;&gt;http://example.org/doorOpened_1</title>
<path fill="none" stroke="black" d="M215.803,-250.434C233.04,-242 252.094,-232.338 268.185,-223.875"/>
<polygon fill="none" stroke="black" points="215.586,-250.539 211.932,-256.756 204.788,-255.774 208.442,-249.557 215.586,-250.539"/>
<polygon fill="black" stroke="black" points="269.945,-226.903 277.138,-219.124 266.664,-220.719 269.945,-226.903"/>
<text text-anchor="middle" x="205.869" y="-238.913" font-family="Times New Roman,serif" font-size="8.00">inv</text>
</g>
<!-- http://example.org/CarPositionControl@3a82f6ef_1&#45;&gt;http://example.org/CarPositionControl@3a82f6ef_0 -->
<g id="edge12" class="edge"><title>http://example.org/CarPositionControl@3a82f6ef_1&#45;&gt;http://example.org/CarPositionControl@3a82f6ef_0</title>
<path fill="none" stroke="black" d="M198.756,-290.589C217.196,-300.222 240.616,-312.456 260.387,-322.784"/>
<polygon fill="black" stroke="black" points="258.988,-326.002 269.472,-327.53 262.229,-319.798 258.988,-326.002"/>
<text text-anchor="middle" x="211.419" y="-280.648" font-family="Times New Roman,serif" font-size="8.00">spe</text>
</g>
<!-- &#45;attrs3 -->
<g id="node8" class="node"><title>&#45;attrs3</title>
<polygon fill="none" stroke="gray" points="230,-219 98,-219 98,-183 236,-183 236,-213 230,-219"/>
<polyline fill="none" stroke="gray" points="230,-219 230,-213 "/>
<polyline fill="none" stroke="gray" points="236,-213 230,-213 "/>
<text text-anchor="start" x="108" y="-205" font-family="Times New Roman,serif" font-size="10.00">type:</text>
<text text-anchor="start" x="132" y="-205" font-family="Times New Roman,serif" font-size="10.00">u2p:CarPositionControl</text>
<text text-anchor="start" x="108" y="-192" font-family="Times New Roman,serif" font-size="10.00">state:</text>
<text text-anchor="start" x="132" y="-192" font-family="Times New Roman,serif" font-size="10.00">u2p:Idle</text>
</g>
<!-- &#45;attrs3&#45;&gt;http://example.org/CarPositionControl@3a82f6ef_1 -->
<g id="edge4" class="edge"><title>&#45;attrs3&#45;&gt;http://example.org/CarPositionControl@3a82f6ef_1</title>
<path fill="none" stroke="gray" stroke-dasharray="5,2" d="M167,-219.303C167,-230.154 167,-244.083 167,-254.896"/>
</g>
<!-- &#45;attrs4 -->
<g id="node10" class="node"><title>&#45;attrs4</title>
<polygon fill="none" stroke="gray" points="147.5,-363 16.5,-363 16.5,-327 153.5,-327 153.5,-357 147.5,-363"/>
<polyline fill="none" stroke="gray" points="147.5,-363 147.5,-357 "/>
<polyline fill="none" stroke="gray" points="153.5,-357 147.5,-357 "/>
<text text-anchor="start" x="27" y="-342" font-family="Times New Roman,serif" font-size="10.00">type:</text>
<text text-anchor="start" x="50" y="-342" font-family="Times New Roman,serif" font-size="10.00">u2p:CarPositionControl</text>
</g>
<!-- &#45;attrs4&#45;&gt;http://example.org/CarPositionControl@3a82f6ef -->
<g id="edge5" class="edge"><title>&#45;attrs4&#45;&gt;http://example.org/CarPositionControl@3a82f6ef</title>
<path fill="none" stroke="gray" stroke-dasharray="5,2" d="M118.759,-363.124C142.537,-375.186 173.949,-391.119 196.053,-402.331"/>
</g>
</g>
</svg>
