<?xml version="1.0" encoding="UTF-8" standalone="no"?>
<!DOCTYPE svg PUBLIC "-//W3C//DTD SVG 1.1//EN"
 "http://www.w3.org/Graphics/SVG/1.1/DTD/svg11.dtd">
<!-- Generated by graphviz version 2.38.0 (20140413.2041)
 -->
<!-- Title: PROV Pages: 1 -->
<svg width="518pt" height="243pt"
 viewBox="0.00 0.00 518.00 243.00" xmlns="http://www.w3.org/2000/svg" xmlns:xlink="http://www.w3.org/1999/xlink">
<g id="graph0" class="graph" transform="scale(1 1) rotate(0) translate(4 239)">
<title>PROV</title>
<polygon fill="white" stroke="none" points="-4,4 -4,-239 514,-239 514,4 -4,4"/>
<g id="clust1" class="cluster"><title>clusterhttp://example.org/bundle1</title>
<g id="a_clust1"><a xlink:href="http://example.org/bundle1" xlink:title="bundle1">
<polygon fill="none" stroke="black" points="8,-8 8,-227 502,-227 502,-8 8,-8"/>
<text text-anchor="middle" x="255" y="-15.8" font-family="Times New Roman,serif" font-size="14.00">bundle1</text>
</a>
</g>
</g>
<!-- http://example.org/doorOpened_1 -->
<g id="node1" class="node"><title>http://example.org/doorOpened_1</title>
<g id="a_node1"><a xlink:href="http://example.org/doorOpened_1" xlink:title="doorOpened_1">
<polygon fill="#9fb1fc" stroke="#0000ff" points="361,-147 259,-147 259,-111 361,-111 361,-147"/>
<text text-anchor="middle" x="310" y="-125.3" font-family="Times New Roman,serif" font-size="14.00">doorOpened_1</text>
</a>
</g>
</g>
<!-- http://example.org/dataset.caseStudy.CS5ElevatorBis.DoorControl@ -->
<g id="node3" class="node"><title>http://example.org/dataset.caseStudy.CS5ElevatorBis.DoorControl@</title>
<g id="a_node3"><a xlink:href="http://example.org/dataset.caseStudy.CS5ElevatorBis.DoorControl@" xlink:title="dataset.caseStudy.CS5ElevatorBis.DoorControl@">
<polygon fill="#fdb266" stroke="black" points="494.31,-206.562 255,-219 15.6897,-206.562 15.9131,-186.438 494.087,-186.438 494.31,-206.562"/>
<text text-anchor="middle" x="255" y="-197.3" font-family="Times New Roman,serif" font-size="14.00">dataset.caseStudy.CS5ElevatorBis.DoorControl@</text>
</a>
</g>
</g>
<!-- http://example.org/doorOpened_1&#45;&gt;http://example.org/dataset.caseStudy.CS5ElevatorBis.DoorControl@ -->
<g id="edge3" class="edge"><title>http://example.org/doorOpened_1&#45;&gt;http://example.org/dataset.caseStudy.CS5ElevatorBis.DoorControl@</title>
<path fill="none" stroke="black" d="M296.404,-147.303C289.048,-156.666 279.891,-168.321 272.06,-178.288"/>
<polygon fill="black" stroke="black" points="269.288,-176.15 265.862,-186.175 274.792,-180.475 269.288,-176.15"/>
<text text-anchor="middle" x="301.985" y="-159.326" font-family="Times New Roman,serif" font-size="8.00">assoc</text>
</g>
<!-- &#45;attrs0 -->
<g id="node2" class="node"><title>&#45;attrs0</title>
<polygon fill="none" stroke="gray" points="359.5,-75 254.5,-75 254.5,-39 365.5,-39 365.5,-69 359.5,-75"/>
<polyline fill="none" stroke="gray" points="359.5,-75 359.5,-69 "/>
<polyline fill="none" stroke="gray" points="365.5,-69 359.5,-69 "/>
<text text-anchor="start" x="265" y="-54" font-family="Times New Roman,serif" font-size="10.00">type:</text>
<text text-anchor="start" x="288" y="-54" font-family="Times New Roman,serif" font-size="10.00">u2p:doorOpened</text>
</g>
<!-- &#45;attrs0&#45;&gt;http://example.org/doorOpened_1 -->
<g id="edge1" class="edge"><title>&#45;attrs0&#45;&gt;http://example.org/doorOpened_1</title>
<path fill="none" stroke="gray" stroke-dasharray="5,2" d="M310,-75.3034C310,-86.1537 310,-100.083 310,-110.896"/>
</g>
<!-- &#45;attrs1 -->
<g id="node4" class="node"><title>&#45;attrs1</title>
<polygon fill="none" stroke="gray" points="234.5,-147 159.5,-147 159.5,-111 240.5,-111 240.5,-141 234.5,-147"/>
<polyline fill="none" stroke="gray" points="234.5,-147 234.5,-141 "/>
<polyline fill="none" stroke="gray" points="240.5,-141 234.5,-141 "/>
<text text-anchor="start" x="170" y="-126" font-family="Times New Roman,serif" font-size="10.00">type:</text>
<text text-anchor="start" x="193" y="-126" font-family="Times New Roman,serif" font-size="10.00">u2p:Door</text>
</g>
<!-- &#45;attrs1&#45;&gt;http://example.org/dataset.caseStudy.CS5ElevatorBis.DoorControl@ -->
<g id="edge2" class="edge"><title>&#45;attrs1&#45;&gt;http://example.org/dataset.caseStudy.CS5ElevatorBis.DoorControl@</title>
<path fill="none" stroke="gray" stroke-dasharray="5,2" d="M213.596,-147.303C223.011,-159.287 235.379,-175.028 244.138,-186.175"/>
</g>
</g>
</svg>
