<?xml version="1.0" encoding="UTF-8" standalone="no"?>
<!DOCTYPE svg PUBLIC "-//W3C//DTD SVG 1.1//EN"
 "http://www.w3.org/Graphics/SVG/1.1/DTD/svg11.dtd">
<!-- Generated by graphviz version 2.38.0 (20140413.2041)
 -->
<!-- Title: PROV Pages: 1 -->
<svg width="362pt" height="459pt"
 viewBox="0.00 0.00 362.00 459.00" xmlns="http://www.w3.org/2000/svg" xmlns:xlink="http://www.w3.org/1999/xlink">
<g id="graph0" class="graph" transform="scale(1 1) rotate(0) translate(4 455)">
<title>PROV</title>
<polygon fill="white" stroke="none" points="-4,4 -4,-455 358,-455 358,4 -4,4"/>
<g id="clust1" class="cluster"><title>clusterhttp://example.org/bundle1</title>
<g id="a_clust1"><a xlink:href="http://example.org/bundle1" xlink:title="bundle1">
<polygon fill="none" stroke="black" points="8,-8 8,-443 346,-443 346,-8 8,-8"/>
<text text-anchor="middle" x="177" y="-15.8" font-family="Times New Roman,serif" font-size="14.00">bundle1</text>
</a>
</g>
</g>
<!-- http://example.org/deionization_1 -->
<g id="node1" class="node"><title>http://example.org/deionization_1</title>
<g id="a_node1"><a xlink:href="http://example.org/deionization_1" xlink:title="deionization_1">
<polygon fill="#9fb1fc" stroke="#0000ff" points="281,-219 183,-219 183,-183 281,-183 281,-219"/>
<text text-anchor="middle" x="232" y="-197.3" font-family="Times New Roman,serif" font-size="14.00">deionization_1</text>
</a>
</g>
</g>
<!-- http://example.org/Water@57fa26b7_2 -->
<g id="node7" class="node"><title>http://example.org/Water@57fa26b7_2</title>
<g id="a_node7"><a xlink:href="http://example.org/Water@57fa26b7_2" xlink:title="Water@57fa26b7_2">
<ellipse fill="#fffc87" stroke="#808080" cx="120" cy="-273" rx="83.6854" ry="18"/>
<text text-anchor="middle" x="120" y="-269.3" font-family="Times New Roman,serif" font-size="14.00">Water@57fa26b7_2</text>
</a>
</g>
</g>
<!-- http://example.org/deionization_1&#45;&gt;http://example.org/Water@57fa26b7_2 -->
<g id="edge11" class="edge"><title>http://example.org/deionization_1&#45;&gt;http://example.org/Water@57fa26b7_2</title>
<path fill="none" stroke="black" d="M198.705,-219.124C182.901,-228.395 164.266,-239.953 149.041,-249.896"/>
<polygon fill="black" stroke="black" points="146.927,-247.098 140.518,-255.535 150.789,-252.936 146.927,-247.098"/>
<text text-anchor="middle" x="198.852" y="-232.223" font-family="Times New Roman,serif" font-size="8.00">use</text>
</g>
<!-- &#45;attrs0 -->
<g id="node2" class="node"><title>&#45;attrs0</title>
<polygon fill="none" stroke="gray" points="306,-147 202,-147 202,-111 312,-111 312,-141 306,-147"/>
<polyline fill="none" stroke="gray" points="306,-147 306,-141 "/>
<polyline fill="none" stroke="gray" points="312,-141 306,-141 "/>
<text text-anchor="start" x="212" y="-126" font-family="Times New Roman,serif" font-size="10.00">type:</text>
<text text-anchor="start" x="235" y="-126" font-family="Times New Roman,serif" font-size="10.00">u2p:deionization</text>
</g>
<!-- &#45;attrs0&#45;&gt;http://example.org/deionization_1 -->
<g id="edge1" class="edge"><title>&#45;attrs0&#45;&gt;http://example.org/deionization_1</title>
<path fill="none" stroke="gray" stroke-dasharray="5,2" d="M250.82,-147.303C246.945,-158.154 241.97,-172.083 238.109,-182.896"/>
</g>
<!-- http://example.org/Water@57fa26b7_0 -->
<g id="node3" class="node"><title>http://example.org/Water@57fa26b7_0</title>
<g id="a_node3"><a xlink:href="http://example.org/Water@57fa26b7_0" xlink:title="Water@57fa26b7_0">
<ellipse fill="#fffc87" stroke="#808080" cx="204" cy="-345" rx="83.6854" ry="18"/>
<text text-anchor="middle" x="204" y="-341.3" font-family="Times New Roman,serif" font-size="14.00">Water@57fa26b7_0</text>
</a>
</g>
</g>
<!-- http://example.org/Water@57fa26b7 -->
<g id="node9" class="node"><title>http://example.org/Water@57fa26b7</title>
<g id="a_node9"><a xlink:href="http://example.org/Water@57fa26b7" xlink:title="Water@57fa26b7">
<polygon fill="#fdb266" stroke="black" points="248.276,-422.562 156,-435 63.7241,-422.562 63.8102,-402.438 248.19,-402.438 248.276,-422.562"/>
<text text-anchor="middle" x="156" y="-413.3" font-family="Times New Roman,serif" font-size="14.00">Water@57fa26b7</text>
</a>
</g>
</g>
<!-- http://example.org/Water@57fa26b7_0&#45;&gt;http://example.org/Water@57fa26b7 -->
<g id="edge6" class="edge"><title>http://example.org/Water@57fa26b7_0&#45;&gt;http://example.org/Water@57fa26b7</title>
<path fill="none" stroke="black" d="M192.381,-362.945C186.029,-372.208 178.083,-383.795 171.239,-393.776"/>
<polygon fill="black" stroke="black" points="168.345,-391.807 165.577,-402.034 174.118,-395.766 168.345,-391.807"/>
<text text-anchor="middle" x="198.853" y="-374.577" font-family="Times New Roman,serif" font-size="8.00">att</text>
</g>
<!-- &#45;attrs1 -->
<g id="node4" class="node"><title>&#45;attrs1</title>
<polygon fill="none" stroke="gray" points="332,-291 222,-291 222,-255 338,-255 338,-285 332,-291"/>
<polyline fill="none" stroke="gray" points="332,-291 332,-285 "/>
<polyline fill="none" stroke="gray" points="338,-285 332,-285 "/>
<text text-anchor="start" x="232" y="-270" font-family="Times New Roman,serif" font-size="10.00">type:</text>
<text text-anchor="start" x="255" y="-270" font-family="Times New Roman,serif" font-size="10.00">u2p:StateMachine</text>
</g>
<!-- &#45;attrs1&#45;&gt;http://example.org/Water@57fa26b7_0 -->
<g id="edge2" class="edge"><title>&#45;attrs1&#45;&gt;http://example.org/Water@57fa26b7_0</title>
<path fill="none" stroke="gray" stroke-dasharray="5,2" d="M261.213,-291.303C249.257,-302.316 233.857,-316.5 222.047,-327.378"/>
</g>
<!-- http://example.org/Water@57fa26b7_3 -->
<g id="node5" class="node"><title>http://example.org/Water@57fa26b7_3</title>
<g id="a_node5"><a xlink:href="http://example.org/Water@57fa26b7_3" xlink:title="Water@57fa26b7_3">
<ellipse fill="#fffc87" stroke="#808080" cx="100" cy="-129" rx="83.6854" ry="18"/>
<text text-anchor="middle" x="100" y="-125.3" font-family="Times New Roman,serif" font-size="14.00">Water@57fa26b7_3</text>
</a>
</g>
</g>
<!-- http://example.org/Water@57fa26b7_3&#45;&gt;http://example.org/deionization_1 -->
<g id="edge8" class="edge"><title>http://example.org/Water@57fa26b7_3&#45;&gt;http://example.org/deionization_1</title>
<path fill="none" stroke="black" d="M129.953,-145.884C147.945,-155.426 171.094,-167.701 190.793,-178.148"/>
<polygon fill="black" stroke="black" points="189.385,-181.363 199.86,-182.956 192.665,-175.179 189.385,-181.363"/>
<text text-anchor="middle" x="142.665" y="-136.021" font-family="Times New Roman,serif" font-size="8.00">gen</text>
</g>
<!-- http://example.org/Water@57fa26b7_3&#45;&gt;http://example.org/Water@57fa26b7_0 -->
<g id="edge7" class="edge"><title>http://example.org/Water@57fa26b7_3&#45;&gt;http://example.org/Water@57fa26b7_0</title>
<path fill="none" stroke="black" d="M81.5014,-146.773C49.8607,-177.501 -8.00346,-243.98 27,-291 39.8391,-308.247 87.7688,-321.964 130.517,-331.119"/>
<polygon fill="black" stroke="black" points="129.89,-334.564 140.393,-333.175 131.317,-327.711 129.89,-334.564"/>
<text text-anchor="middle" x="85.4375" y="-159.348" font-family="Times New Roman,serif" font-size="8.00">spe</text>
</g>
<!-- http://example.org/Water@57fa26b7_3&#45;&gt;http://example.org/Water@57fa26b7_2 -->
<g id="edge9" class="edge"><title>http://example.org/Water@57fa26b7_3&#45;&gt;http://example.org/Water@57fa26b7_2</title>
<path fill="none" stroke="black" d="M85.6679,-146.86C72.2031,-164.856 55.5662,-194.14 66,-219 70.7575,-230.336 79.2533,-240.466 88.1183,-248.758"/>
<polygon fill="black" stroke="black" points="86.0805,-251.625 95.9191,-255.556 90.6792,-246.347 86.0805,-251.625"/>
<text text-anchor="middle" x="91.8518" y="-158.626" font-family="Times New Roman,serif" font-size="8.00">der</text>
</g>
<!-- &#45;attrs2 -->
<g id="node6" class="node"><title>&#45;attrs2</title>
<polygon fill="none" stroke="gray" points="137.5,-75 56.5,-75 56.5,-39 143.5,-39 143.5,-69 137.5,-75"/>
<polyline fill="none" stroke="gray" points="137.5,-75 137.5,-69 "/>
<polyline fill="none" stroke="gray" points="143.5,-69 137.5,-69 "/>
<text text-anchor="start" x="67" y="-61" font-family="Times New Roman,serif" font-size="10.00">type:</text>
<text text-anchor="start" x="91" y="-61" font-family="Times New Roman,serif" font-size="10.00">u2p:Water</text>
<text text-anchor="start" x="67" y="-48" font-family="Times New Roman,serif" font-size="10.00">state:</text>
<text text-anchor="start" x="91" y="-48" font-family="Times New Roman,serif" font-size="10.00">u2p:Water</text>
</g>
<!-- &#45;attrs2&#45;&gt;http://example.org/Water@57fa26b7_3 -->
<g id="edge3" class="edge"><title>&#45;attrs2&#45;&gt;http://example.org/Water@57fa26b7_3</title>
<path fill="none" stroke="gray" stroke-dasharray="5,2" d="M100,-75.3034C100,-86.1537 100,-100.083 100,-110.896"/>
</g>
<!-- http://example.org/Water@57fa26b7_2&#45;&gt;http://example.org/deionization_1 -->
<g id="edge10" class="edge"><title>http://example.org/Water@57fa26b7_2&#45;&gt;http://example.org/deionization_1</title>
<path fill="none" stroke="black" d="M161.448,-250.042C174.939,-241.962 189.614,-232.8 202.107,-224.659"/>
<polygon fill="none" stroke="black" points="161.276,-250.143 158.146,-256.64 150.946,-256.25 154.075,-249.753 161.276,-250.143"/>
<polygon fill="black" stroke="black" points="204.079,-227.552 210.499,-219.124 200.224,-221.709 204.079,-227.552"/>
<text text-anchor="middle" x="150.792" y="-239.351" font-family="Times New Roman,serif" font-size="8.00">inv</text>
</g>
<!-- http://example.org/Water@57fa26b7_2&#45;&gt;http://example.org/Water@57fa26b7_0 -->
<g id="edge12" class="edge"><title>http://example.org/Water@57fa26b7_2&#45;&gt;http://example.org/Water@57fa26b7_0</title>
<path fill="none" stroke="black" d="M139.907,-290.589C150.708,-299.59 164.233,-310.861 176.072,-320.727"/>
<polygon fill="black" stroke="black" points="174.022,-323.574 183.945,-327.287 178.503,-318.197 174.022,-323.574"/>
<text text-anchor="middle" x="153.985" y="-283.511" font-family="Times New Roman,serif" font-size="8.00">spe</text>
</g>
<!-- &#45;attrs3 -->
<g id="node8" class="node"><title>&#45;attrs3</title>
<polygon fill="none" stroke="gray" points="159,-219 75,-219 75,-183 165,-183 165,-213 159,-219"/>
<polyline fill="none" stroke="gray" points="159,-219 159,-213 "/>
<polyline fill="none" stroke="gray" points="165,-213 159,-213 "/>
<text text-anchor="start" x="85" y="-205" font-family="Times New Roman,serif" font-size="10.00">type:</text>
<text text-anchor="start" x="109" y="-205" font-family="Times New Roman,serif" font-size="10.00">u2p:Water</text>
<text text-anchor="start" x="85" y="-192" font-family="Times New Roman,serif" font-size="10.00">state:</text>
<text text-anchor="start" x="109" y="-192" font-family="Times New Roman,serif" font-size="10.00">u2p:Plasma</text>
</g>
<!-- &#45;attrs3&#45;&gt;http://example.org/Water@57fa26b7_2 -->
<g id="edge4" class="edge"><title>&#45;attrs3&#45;&gt;http://example.org/Water@57fa26b7_2</title>
<path fill="none" stroke="gray" stroke-dasharray="5,2" d="M120,-219.303C120,-230.154 120,-244.083 120,-254.896"/>
</g>
<!-- &#45;attrs4 -->
<g id="node10" class="node"><title>&#45;attrs4</title>
<polygon fill="none" stroke="gray" points="96,-363 16,-363 16,-327 102,-327 102,-357 96,-363"/>
<polyline fill="none" stroke="gray" points="96,-363 96,-357 "/>
<polyline fill="none" stroke="gray" points="102,-357 96,-357 "/>
<text text-anchor="start" x="26" y="-342" font-family="Times New Roman,serif" font-size="10.00">type:</text>
<text text-anchor="start" x="49" y="-342" font-family="Times New Roman,serif" font-size="10.00">u2p:Water</text>
</g>
<!-- &#45;attrs4&#45;&gt;http://example.org/Water@57fa26b7 -->
<g id="edge5" class="edge"><title>&#45;attrs4&#45;&gt;http://example.org/Water@57fa26b7</title>
<path fill="none" stroke="gray" stroke-dasharray="5,2" d="M82.9775,-363.303C99.6961,-375.368 121.69,-391.24 137.155,-402.401"/>
</g>
</g>
</svg>
