<?xml version="1.0" encoding="UTF-8" standalone="no"?>
<!DOCTYPE svg PUBLIC "-//W3C//DTD SVG 1.1//EN"
 "http://www.w3.org/Graphics/SVG/1.1/DTD/svg11.dtd">
<!-- Generated by graphviz version 2.38.0 (20140413.2041)
 -->
<!-- Title: PROV Pages: 1 -->
<svg width="548pt" height="243pt"
 viewBox="0.00 0.00 548.00 243.00" xmlns="http://www.w3.org/2000/svg" xmlns:xlink="http://www.w3.org/1999/xlink">
<g id="graph0" class="graph" transform="scale(1 1) rotate(0) translate(4 239)">
<title>PROV</title>
<polygon fill="white" stroke="none" points="-4,4 -4,-239 544,-239 544,4 -4,4"/>
<g id="clust1" class="cluster"><title>clusterhttp://example.org/bundle1</title>
<g id="a_clust1"><a xlink:href="http://example.org/bundle1" xlink:title="bundle1">
<polygon fill="none" stroke="black" points="8,-8 8,-227 532,-227 532,-8 8,-8"/>
<text text-anchor="middle" x="270" y="-15.8" font-family="Times New Roman,serif" font-size="14.00">bundle1</text>
</a>
</g>
</g>
<!-- http://example.org/deposition_1 -->
<g id="node1" class="node"><title>http://example.org/deposition_1</title>
<g id="a_node1"><a xlink:href="http://example.org/deposition_1" xlink:title="deposition_1">
<polygon fill="#9fb1fc" stroke="#0000ff" points="452.5,-147 363.5,-147 363.5,-111 452.5,-111 452.5,-147"/>
<text text-anchor="middle" x="408" y="-125.3" font-family="Times New Roman,serif" font-size="14.00">deposition_1</text>
</a>
</g>
</g>
<!-- http://openprovenance.org/var#input0 -->
<g id="node3" class="node"><title>http://openprovenance.org/var#input0</title>
<g id="a_node3"><a xlink:href="http://openprovenance.org/var#input0" xlink:title="input0">
<ellipse fill="#fffc87" stroke="#808080" cx="491" cy="-201" rx="33.2948" ry="18"/>
<text text-anchor="middle" x="491" y="-197.3" font-family="Times New Roman,serif" font-size="14.00">input0</text>
</a>
</g>
</g>
<!-- http://example.org/deposition_1&#45;&gt;http://openprovenance.org/var#input0 -->
<g id="edge3" class="edge"><title>http://example.org/deposition_1&#45;&gt;http://openprovenance.org/var#input0</title>
<path fill="none" stroke="black" d="M428.517,-147.303C439.828,-156.843 453.962,-168.763 465.924,-178.852"/>
<polygon fill="black" stroke="black" points="463.897,-181.72 473.798,-185.492 468.41,-176.369 463.897,-181.72"/>
<text text-anchor="middle" x="442.625" y="-140.308" font-family="Times New Roman,serif" font-size="8.00">use</text>
</g>
<!-- http://example.org/dataset.caseStudy.CS2Water.Atmosphere@ -->
<g id="node4" class="node"><title>http://example.org/dataset.caseStudy.CS2Water.Atmosphere@</title>
<g id="a_node4"><a xlink:href="http://example.org/dataset.caseStudy.CS2Water.Atmosphere@" xlink:title="dataset.caseStudy.CS2Water.Atmosphere@">
<polygon fill="#fdb266" stroke="black" points="440.181,-206.562 228,-219 15.8191,-206.562 16.0171,-186.438 439.983,-186.438 440.181,-206.562"/>
<text text-anchor="middle" x="228" y="-197.3" font-family="Times New Roman,serif" font-size="14.00">dataset.caseStudy.CS2Water.Atmosphere@</text>
</a>
</g>
</g>
<!-- http://example.org/deposition_1&#45;&gt;http://example.org/dataset.caseStudy.CS2Water.Atmosphere@ -->
<g id="edge4" class="edge"><title>http://example.org/deposition_1&#45;&gt;http://example.org/dataset.caseStudy.CS2Water.Atmosphere@</title>
<path fill="none" stroke="black" d="M363.967,-147.124C336.223,-157.913 300.511,-171.801 272.65,-182.636"/>
<polygon fill="black" stroke="black" points="271.2,-179.445 263.148,-186.331 273.737,-185.969 271.2,-179.445"/>
<text text-anchor="middle" x="361.685" y="-160.049" font-family="Times New Roman,serif" font-size="8.00">assoc</text>
</g>
<!-- &#45;attrs0 -->
<g id="node2" class="node"><title>&#45;attrs0</title>
<polygon fill="none" stroke="gray" points="454,-75 356,-75 356,-39 460,-39 460,-69 454,-75"/>
<polyline fill="none" stroke="gray" points="454,-75 454,-69 "/>
<polyline fill="none" stroke="gray" points="460,-69 454,-69 "/>
<text text-anchor="start" x="366" y="-54" font-family="Times New Roman,serif" font-size="10.00">type:</text>
<text text-anchor="start" x="389" y="-54" font-family="Times New Roman,serif" font-size="10.00">u2p:deposition</text>
</g>
<!-- &#45;attrs0&#45;&gt;http://example.org/deposition_1 -->
<g id="edge1" class="edge"><title>&#45;attrs0&#45;&gt;http://example.org/deposition_1</title>
<path fill="none" stroke="gray" stroke-dasharray="5,2" d="M408,-75.3034C408,-86.1537 408,-100.083 408,-110.896"/>
</g>
<!-- &#45;attrs1 -->
<g id="node5" class="node"><title>&#45;attrs1</title>
<polygon fill="none" stroke="gray" points="275.5,-147 174.5,-147 174.5,-111 281.5,-111 281.5,-141 275.5,-147"/>
<polyline fill="none" stroke="gray" points="275.5,-147 275.5,-141 "/>
<polyline fill="none" stroke="gray" points="281.5,-141 275.5,-141 "/>
<text text-anchor="start" x="185" y="-126" font-family="Times New Roman,serif" font-size="10.00">type:</text>
<text text-anchor="start" x="208" y="-126" font-family="Times New Roman,serif" font-size="10.00">u2p:atmosphere</text>
</g>
<!-- &#45;attrs1&#45;&gt;http://example.org/dataset.caseStudy.CS2Water.Atmosphere@ -->
<g id="edge2" class="edge"><title>&#45;attrs1&#45;&gt;http://example.org/dataset.caseStudy.CS2Water.Atmosphere@</title>
<path fill="none" stroke="gray" stroke-dasharray="5,2" d="M228,-147.303C228,-159.287 228,-175.028 228,-186.175"/>
</g>
</g>
</svg>
