<?xml version="1.0" encoding="UTF-8" standalone="no"?>
<!DOCTYPE svg PUBLIC "-//W3C//DTD SVG 1.1//EN"
 "http://www.w3.org/Graphics/SVG/1.1/DTD/svg11.dtd">
<!-- Generated by graphviz version 2.38.0 (20140413.2041)
 -->
<!-- Title: PROV Pages: 1 -->
<svg width="362pt" height="459pt"
 viewBox="0.00 0.00 362.00 459.00" xmlns="http://www.w3.org/2000/svg" xmlns:xlink="http://www.w3.org/1999/xlink">
<g id="graph0" class="graph" transform="scale(1 1) rotate(0) translate(4 455)">
<title>PROV</title>
<polygon fill="white" stroke="none" points="-4,4 -4,-455 358,-455 358,4 -4,4"/>
<g id="clust1" class="cluster"><title>clusterhttp://example.org/bundle1</title>
<g id="a_clust1"><a xlink:href="http://example.org/bundle1" xlink:title="bundle1">
<polygon fill="none" stroke="black" points="8,-8 8,-443 346,-443 346,-8 8,-8"/>
<text text-anchor="middle" x="177" y="-15.8" font-family="Times New Roman,serif" font-size="14.00">bundle1</text>
</a>
</g>
</g>
<!-- http://example.org/melting_1 -->
<g id="node1" class="node"><title>http://example.org/melting_1</title>
<g id="a_node1"><a xlink:href="http://example.org/melting_1" xlink:title="melting_1">
<polygon fill="#9fb1fc" stroke="#0000ff" points="252.5,-219 181.5,-219 181.5,-183 252.5,-183 252.5,-219"/>
<text text-anchor="middle" x="217" y="-197.3" font-family="Times New Roman,serif" font-size="14.00">melting_1</text>
</a>
</g>
</g>
<!-- http://example.org/Water@57fa26b7_5 -->
<g id="node7" class="node"><title>http://example.org/Water@57fa26b7_5</title>
<g id="a_node7"><a xlink:href="http://example.org/Water@57fa26b7_5" xlink:title="Water@57fa26b7_5">
<ellipse fill="#fffc87" stroke="#808080" cx="120" cy="-273" rx="83.6854" ry="18"/>
<text text-anchor="middle" x="120" y="-269.3" font-family="Times New Roman,serif" font-size="14.00">Water@57fa26b7_5</text>
</a>
</g>
</g>
<!-- http://example.org/melting_1&#45;&gt;http://example.org/Water@57fa26b7_5 -->
<g id="edge11" class="edge"><title>http://example.org/melting_1&#45;&gt;http://example.org/Water@57fa26b7_5</title>
<path fill="none" stroke="black" d="M187.374,-219.124C173.915,-228.155 158.233,-239.357 145.326,-249.122"/>
<polygon fill="black" stroke="black" points="143.092,-246.425 137.297,-255.294 147.358,-251.975 143.092,-246.425"/>
<text text-anchor="middle" x="188.435" y="-232.186" font-family="Times New Roman,serif" font-size="8.00">use</text>
</g>
<!-- &#45;attrs0 -->
<g id="node2" class="node"><title>&#45;attrs0</title>
<polygon fill="none" stroke="gray" points="286,-147 202,-147 202,-111 292,-111 292,-141 286,-147"/>
<polyline fill="none" stroke="gray" points="286,-147 286,-141 "/>
<polyline fill="none" stroke="gray" points="292,-141 286,-141 "/>
<text text-anchor="start" x="212" y="-126" font-family="Times New Roman,serif" font-size="10.00">type:</text>
<text text-anchor="start" x="235" y="-126" font-family="Times New Roman,serif" font-size="10.00">u2p:melting</text>
</g>
<!-- &#45;attrs0&#45;&gt;http://example.org/melting_1 -->
<g id="edge1" class="edge"><title>&#45;attrs0&#45;&gt;http://example.org/melting_1</title>
<path fill="none" stroke="gray" stroke-dasharray="5,2" d="M239.584,-147.303C234.934,-158.154 228.964,-172.083 224.33,-182.896"/>
</g>
<!-- http://example.org/Water@57fa26b7_0 -->
<g id="node3" class="node"><title>http://example.org/Water@57fa26b7_0</title>
<g id="a_node3"><a xlink:href="http://example.org/Water@57fa26b7_0" xlink:title="Water@57fa26b7_0">
<ellipse fill="#fffc87" stroke="#808080" cx="204" cy="-345" rx="83.6854" ry="18"/>
<text text-anchor="middle" x="204" y="-341.3" font-family="Times New Roman,serif" font-size="14.00">Water@57fa26b7_0</text>
</a>
</g>
</g>
<!-- http://example.org/Water@57fa26b7 -->
<g id="node9" class="node"><title>http://example.org/Water@57fa26b7</title>
<g id="a_node9"><a xlink:href="http://example.org/Water@57fa26b7" xlink:title="Water@57fa26b7">
<polygon fill="#fdb266" stroke="black" points="248.276,-422.562 156,-435 63.7241,-422.562 63.8102,-402.438 248.19,-402.438 248.276,-422.562"/>
<text text-anchor="middle" x="156" y="-413.3" font-family="Times New Roman,serif" font-size="14.00">Water@57fa26b7</text>
</a>
</g>
</g>
<!-- http://example.org/Water@57fa26b7_0&#45;&gt;http://example.org/Water@57fa26b7 -->
<g id="edge6" class="edge"><title>http://example.org/Water@57fa26b7_0&#45;&gt;http://example.org/Water@57fa26b7</title>
<path fill="none" stroke="black" d="M192.381,-362.945C186.029,-372.208 178.083,-383.795 171.239,-393.776"/>
<polygon fill="black" stroke="black" points="168.345,-391.807 165.577,-402.034 174.118,-395.766 168.345,-391.807"/>
<text text-anchor="middle" x="198.853" y="-374.577" font-family="Times New Roman,serif" font-size="8.00">att</text>
</g>
<!-- &#45;attrs1 -->
<g id="node4" class="node"><title>&#45;attrs1</title>
<polygon fill="none" stroke="gray" points="332,-291 222,-291 222,-255 338,-255 338,-285 332,-291"/>
<polyline fill="none" stroke="gray" points="332,-291 332,-285 "/>
<polyline fill="none" stroke="gray" points="338,-285 332,-285 "/>
<text text-anchor="start" x="232" y="-270" font-family="Times New Roman,serif" font-size="10.00">type:</text>
<text text-anchor="start" x="255" y="-270" font-family="Times New Roman,serif" font-size="10.00">u2p:StateMachine</text>
</g>
<!-- &#45;attrs1&#45;&gt;http://example.org/Water@57fa26b7_0 -->
<g id="edge2" class="edge"><title>&#45;attrs1&#45;&gt;http://example.org/Water@57fa26b7_0</title>
<path fill="none" stroke="gray" stroke-dasharray="5,2" d="M261.213,-291.303C249.257,-302.316 233.857,-316.5 222.047,-327.378"/>
</g>
<!-- http://example.org/Water@57fa26b7_6 -->
<g id="node5" class="node"><title>http://example.org/Water@57fa26b7_6</title>
<g id="a_node5"><a xlink:href="http://example.org/Water@57fa26b7_6" xlink:title="Water@57fa26b7_6">
<ellipse fill="#fffc87" stroke="#808080" cx="100" cy="-129" rx="83.6854" ry="18"/>
<text text-anchor="middle" x="100" y="-125.3" font-family="Times New Roman,serif" font-size="14.00">Water@57fa26b7_6</text>
</a>
</g>
</g>
<!-- http://example.org/Water@57fa26b7_6&#45;&gt;http://example.org/melting_1 -->
<g id="edge8" class="edge"><title>http://example.org/Water@57fa26b7_6&#45;&gt;http://example.org/melting_1</title>
<path fill="none" stroke="black" d="M126.842,-146.059C142.469,-155.409 162.408,-167.338 179.56,-177.6"/>
<polygon fill="black" stroke="black" points="177.86,-180.661 188.238,-182.792 181.454,-174.654 177.86,-180.661"/>
<text text-anchor="middle" x="139.948" y="-136.862" font-family="Times New Roman,serif" font-size="8.00">gen</text>
</g>
<!-- http://example.org/Water@57fa26b7_6&#45;&gt;http://example.org/Water@57fa26b7_0 -->
<g id="edge7" class="edge"><title>http://example.org/Water@57fa26b7_6&#45;&gt;http://example.org/Water@57fa26b7_0</title>
<path fill="none" stroke="black" d="M81.5014,-146.773C49.8607,-177.501 -8.00346,-243.98 27,-291 39.8391,-308.247 87.7688,-321.964 130.517,-331.119"/>
<polygon fill="black" stroke="black" points="129.89,-334.564 140.393,-333.175 131.317,-327.711 129.89,-334.564"/>
<text text-anchor="middle" x="85.4375" y="-159.348" font-family="Times New Roman,serif" font-size="8.00">spe</text>
</g>
<!-- http://example.org/Water@57fa26b7_6&#45;&gt;http://example.org/Water@57fa26b7_5 -->
<g id="edge9" class="edge"><title>http://example.org/Water@57fa26b7_6&#45;&gt;http://example.org/Water@57fa26b7_5</title>
<path fill="none" stroke="black" d="M86.0291,-146.878C72.9099,-164.888 56.7206,-194.183 67,-219 71.6989,-230.344 80.1344,-240.526 88.9135,-248.861"/>
<polygon fill="black" stroke="black" points="86.8241,-251.686 96.6317,-255.694 91.464,-246.445 86.8241,-251.686"/>
<text text-anchor="middle" x="92.3858" y="-158.564" font-family="Times New Roman,serif" font-size="8.00">der</text>
</g>
<!-- &#45;attrs2 -->
<g id="node6" class="node"><title>&#45;attrs2</title>
<polygon fill="none" stroke="gray" points="137.5,-75 56.5,-75 56.5,-39 143.5,-39 143.5,-69 137.5,-75"/>
<polyline fill="none" stroke="gray" points="137.5,-75 137.5,-69 "/>
<polyline fill="none" stroke="gray" points="143.5,-69 137.5,-69 "/>
<text text-anchor="start" x="67" y="-61" font-family="Times New Roman,serif" font-size="10.00">type:</text>
<text text-anchor="start" x="91" y="-61" font-family="Times New Roman,serif" font-size="10.00">u2p:Water</text>
<text text-anchor="start" x="67" y="-48" font-family="Times New Roman,serif" font-size="10.00">state:</text>
<text text-anchor="start" x="91" y="-48" font-family="Times New Roman,serif" font-size="10.00">u2p:Liquid</text>
</g>
<!-- &#45;attrs2&#45;&gt;http://example.org/Water@57fa26b7_6 -->
<g id="edge3" class="edge"><title>&#45;attrs2&#45;&gt;http://example.org/Water@57fa26b7_6</title>
<path fill="none" stroke="gray" stroke-dasharray="5,2" d="M100,-75.3034C100,-86.1537 100,-100.083 100,-110.896"/>
</g>
<!-- http://example.org/Water@57fa26b7_5&#45;&gt;http://example.org/melting_1 -->
<g id="edge10" class="edge"><title>http://example.org/Water@57fa26b7_5&#45;&gt;http://example.org/melting_1</title>
<path fill="none" stroke="black" d="M158.292,-248.975C169.156,-241.476 180.714,-233.144 190.713,-225.604"/>
<polygon fill="none" stroke="black" points="158.089,-249.113 155.373,-255.793 148.162,-255.855 150.878,-249.175 158.089,-249.113"/>
<polygon fill="black" stroke="black" points="193.128,-228.163 198.938,-219.303 188.871,-222.606 193.128,-228.163"/>
<text text-anchor="middle" x="147.067" y="-238.995" font-family="Times New Roman,serif" font-size="8.00">inv</text>
</g>
<!-- http://example.org/Water@57fa26b7_5&#45;&gt;http://example.org/Water@57fa26b7_0 -->
<g id="edge12" class="edge"><title>http://example.org/Water@57fa26b7_5&#45;&gt;http://example.org/Water@57fa26b7_0</title>
<path fill="none" stroke="black" d="M139.907,-290.589C150.708,-299.59 164.233,-310.861 176.072,-320.727"/>
<polygon fill="black" stroke="black" points="174.022,-323.574 183.945,-327.287 178.503,-318.197 174.022,-323.574"/>
<text text-anchor="middle" x="153.985" y="-283.511" font-family="Times New Roman,serif" font-size="8.00">spe</text>
</g>
<!-- &#45;attrs3 -->
<g id="node8" class="node"><title>&#45;attrs3</title>
<polygon fill="none" stroke="gray" points="157.5,-219 76.5,-219 76.5,-183 163.5,-183 163.5,-213 157.5,-219"/>
<polyline fill="none" stroke="gray" points="157.5,-219 157.5,-213 "/>
<polyline fill="none" stroke="gray" points="163.5,-213 157.5,-213 "/>
<text text-anchor="start" x="87" y="-205" font-family="Times New Roman,serif" font-size="10.00">type:</text>
<text text-anchor="start" x="111" y="-205" font-family="Times New Roman,serif" font-size="10.00">u2p:Water</text>
<text text-anchor="start" x="87" y="-192" font-family="Times New Roman,serif" font-size="10.00">state:</text>
<text text-anchor="start" x="111" y="-192" font-family="Times New Roman,serif" font-size="10.00">u2p:Frost</text>
</g>
<!-- &#45;attrs3&#45;&gt;http://example.org/Water@57fa26b7_5 -->
<g id="edge4" class="edge"><title>&#45;attrs3&#45;&gt;http://example.org/Water@57fa26b7_5</title>
<path fill="none" stroke="gray" stroke-dasharray="5,2" d="M120,-219.303C120,-230.154 120,-244.083 120,-254.896"/>
</g>
<!-- &#45;attrs4 -->
<g id="node10" class="node"><title>&#45;attrs4</title>
<polygon fill="none" stroke="gray" points="96,-363 16,-363 16,-327 102,-327 102,-357 96,-363"/>
<polyline fill="none" stroke="gray" points="96,-363 96,-357 "/>
<polyline fill="none" stroke="gray" points="102,-357 96,-357 "/>
<text text-anchor="start" x="26" y="-342" font-family="Times New Roman,serif" font-size="10.00">type:</text>
<text text-anchor="start" x="49" y="-342" font-family="Times New Roman,serif" font-size="10.00">u2p:Water</text>
</g>
<!-- &#45;attrs4&#45;&gt;http://example.org/Water@57fa26b7 -->
<g id="edge5" class="edge"><title>&#45;attrs4&#45;&gt;http://example.org/Water@57fa26b7</title>
<path fill="none" stroke="gray" stroke-dasharray="5,2" d="M82.9775,-363.303C99.6961,-375.368 121.69,-391.24 137.155,-402.401"/>
</g>
</g>
</svg>
