<?xml version="1.0" encoding="UTF-8" standalone="no"?>
<!DOCTYPE svg PUBLIC "-//W3C//DTD SVG 1.1//EN"
 "http://www.w3.org/Graphics/SVG/1.1/DTD/svg11.dtd">
<!-- Generated by graphviz version 2.38.0 (20140413.2041)
 -->
<!-- Title: PROV Pages: 1 -->
<svg width="477pt" height="315pt"
 viewBox="0.00 0.00 477.00 315.00" xmlns="http://www.w3.org/2000/svg" xmlns:xlink="http://www.w3.org/1999/xlink">
<g id="graph0" class="graph" transform="scale(1 1) rotate(0) translate(4 311)">
<title>PROV</title>
<polygon fill="white" stroke="none" points="-4,4 -4,-311 473,-311 473,4 -4,4"/>
<g id="clust1" class="cluster"><title>clusterhttp://example.org/bundle1</title>
<g id="a_clust1"><a xlink:href="http://example.org/bundle1" xlink:title="bundle1">
<polygon fill="none" stroke="black" points="8,-8 8,-299 461,-299 461,-8 8,-8"/>
<text text-anchor="middle" x="234.5" y="-15.8" font-family="Times New Roman,serif" font-size="14.00">bundle1</text>
</a>
</g>
</g>
<!-- http://example.org/addUser_1 -->
<g id="node1" class="node"><title>http://example.org/addUser_1</title>
<g id="a_node1"><a xlink:href="http://example.org/addUser_1" xlink:title="addUser_1">
<polygon fill="#9fb1fc" stroke="#0000ff" points="287,-219 209,-219 209,-183 287,-183 287,-219"/>
<text text-anchor="middle" x="248" y="-197.3" font-family="Times New Roman,serif" font-size="14.00">addUser_1</text>
</a>
</g>
</g>
<!-- http://example.org/String@6a38e57f_0 -->
<g id="node3" class="node"><title>http://example.org/String@6a38e57f_0</title>
<g id="a_node3"><a xlink:href="http://example.org/String@6a38e57f_0" xlink:title="String@6a38e57f_0">
<ellipse fill="#fffc87" stroke="#808080" cx="370" cy="-273" rx="82.5854" ry="18"/>
<text text-anchor="middle" x="370" y="-269.3" font-family="Times New Roman,serif" font-size="14.00">String@6a38e57f_0</text>
</a>
</g>
</g>
<!-- http://example.org/addUser_1&#45;&gt;http://example.org/String@6a38e57f_0 -->
<g id="edge5" class="edge"><title>http://example.org/addUser_1&#45;&gt;http://example.org/String@6a38e57f_0</title>
<path fill="none" stroke="black" d="M277.845,-219.124C294.544,-228.706 315.503,-240.731 333.212,-250.892"/>
<polygon fill="black" stroke="black" points="331.721,-254.072 342.136,-256.013 335.204,-248 331.721,-254.072"/>
<text text-anchor="middle" x="290.815" y="-209.689" font-family="Times New Roman,serif" font-size="8.00">use</text>
</g>
<!-- http://example.org/Controller@&#45;1504262072 -->
<g id="node7" class="node"><title>http://example.org/Controller@&#45;1504262072</title>
<g id="a_node7"><a xlink:href="http://example.org/Controller@-1504262072" xlink:title="Controller@&#45;1504262072">
<polygon fill="#fdb266" stroke="black" points="269.866,-278.562 143,-291 16.1341,-278.562 16.2525,-258.438 269.747,-258.438 269.866,-278.562"/>
<text text-anchor="middle" x="143" y="-269.3" font-family="Times New Roman,serif" font-size="14.00">Controller@&#45;1504262072</text>
</a>
</g>
</g>
<!-- http://example.org/addUser_1&#45;&gt;http://example.org/Controller@&#45;1504262072 -->
<g id="edge6" class="edge"><title>http://example.org/addUser_1&#45;&gt;http://example.org/Controller@&#45;1504262072</title>
<path fill="none" stroke="black" d="M222.314,-219.124C207.049,-229.301 187.648,-242.234 171.856,-252.763"/>
<polygon fill="black" stroke="black" points="169.882,-249.872 163.503,-258.331 173.765,-255.696 169.882,-249.872"/>
<text text-anchor="middle" x="223.28" y="-232.193" font-family="Times New Roman,serif" font-size="8.00">assoc</text>
</g>
<!-- &#45;attrs0 -->
<g id="node2" class="node"><title>&#45;attrs0</title>
<polygon fill="none" stroke="gray" points="189.5,-147 100.5,-147 100.5,-111 195.5,-111 195.5,-141 189.5,-147"/>
<polyline fill="none" stroke="gray" points="189.5,-147 189.5,-141 "/>
<polyline fill="none" stroke="gray" points="195.5,-141 189.5,-141 "/>
<text text-anchor="start" x="111" y="-126" font-family="Times New Roman,serif" font-size="10.00">type:</text>
<text text-anchor="start" x="134" y="-126" font-family="Times New Roman,serif" font-size="10.00">u2p:addUser</text>
</g>
<!-- &#45;attrs0&#45;&gt;http://example.org/addUser_1 -->
<g id="edge1" class="edge"><title>&#45;attrs0&#45;&gt;http://example.org/addUser_1</title>
<path fill="none" stroke="gray" stroke-dasharray="5,2" d="M172.463,-147.124C187.959,-157.971 207.929,-171.95 223.443,-182.81"/>
</g>
<!-- &#45;attrs1 -->
<g id="node4" class="node"><title>&#45;attrs1</title>
<polygon fill="none" stroke="gray" points="445,-219 327,-219 327,-183 451,-183 451,-213 445,-219"/>
<polyline fill="none" stroke="gray" points="445,-219 445,-213 "/>
<polyline fill="none" stroke="gray" points="451,-213 445,-213 "/>
<text text-anchor="start" x="337" y="-198" font-family="Times New Roman,serif" font-size="10.00">value:</text>
<text text-anchor="start" x="364" y="-198" font-family="Times New Roman,serif" font-size="10.00">ahio@example.com</text>
</g>
<!-- &#45;attrs1&#45;&gt;http://example.org/String@6a38e57f_0 -->
<g id="edge2" class="edge"><title>&#45;attrs1&#45;&gt;http://example.org/String@6a38e57f_0</title>
<path fill="none" stroke="gray" stroke-dasharray="5,2" d="M384.303,-219.303C381.358,-230.154 377.577,-244.083 374.643,-254.896"/>
</g>
<!-- http://example.org/Boolean@215be6bb_0 -->
<g id="node5" class="node"><title>http://example.org/Boolean@215be6bb_0</title>
<g id="a_node5"><a xlink:href="http://example.org/Boolean@215be6bb_0" xlink:title="Boolean@215be6bb_0">
<ellipse fill="#fffc87" stroke="#808080" cx="308" cy="-129" rx="94.4839" ry="18"/>
<text text-anchor="middle" x="308" y="-125.3" font-family="Times New Roman,serif" font-size="14.00">Boolean@215be6bb_0</text>
</a>
</g>
</g>
<!-- http://example.org/Boolean@215be6bb_0&#45;&gt;http://example.org/addUser_1 -->
<g id="edge7" class="edge"><title>http://example.org/Boolean@215be6bb_0&#45;&gt;http://example.org/addUser_1</title>
<path fill="none" stroke="black" d="M293.476,-146.945C286.287,-155.332 277.465,-165.624 269.511,-174.904"/>
<polygon fill="black" stroke="black" points="266.658,-172.854 262.807,-182.725 271.973,-177.41 266.658,-172.854"/>
<text text-anchor="middle" x="298.458" y="-159.193" font-family="Times New Roman,serif" font-size="8.00">gen</text>
</g>
<!-- http://example.org/Boolean@215be6bb_0&#45;&gt;http://example.org/String@6a38e57f_0 -->
<g id="edge8" class="edge"><title>http://example.org/Boolean@215be6bb_0&#45;&gt;http://example.org/String@6a38e57f_0</title>
<path fill="none" stroke="black" d="M306.703,-147.299C306.025,-165.923 307.049,-195.971 318,-219 323.266,-230.075 331.8,-240.238 340.445,-248.637"/>
<polygon fill="black" stroke="black" points="338.251,-251.374 347.991,-255.543 342.976,-246.209 338.251,-251.374"/>
<text text-anchor="middle" x="319.507" y="-153.214" font-family="Times New Roman,serif" font-size="8.00">der</text>
</g>
<!-- &#45;attrs2 -->
<g id="node6" class="node"><title>&#45;attrs2</title>
<polygon fill="none" stroke="gray" points="333.5,-75 276.5,-75 276.5,-39 339.5,-39 339.5,-69 333.5,-75"/>
<polyline fill="none" stroke="gray" points="333.5,-75 333.5,-69 "/>
<polyline fill="none" stroke="gray" points="339.5,-69 333.5,-69 "/>
<text text-anchor="start" x="287" y="-54" font-family="Times New Roman,serif" font-size="10.00">value:</text>
<text text-anchor="start" x="314" y="-54" font-family="Times New Roman,serif" font-size="10.00">true</text>
</g>
<!-- &#45;attrs2&#45;&gt;http://example.org/Boolean@215be6bb_0 -->
<g id="edge3" class="edge"><title>&#45;attrs2&#45;&gt;http://example.org/Boolean@215be6bb_0</title>
<path fill="none" stroke="gray" stroke-dasharray="5,2" d="M308,-75.3034C308,-86.1537 308,-100.083 308,-110.896"/>
</g>
<!-- &#45;attrs3 -->
<g id="node8" class="node"><title>&#45;attrs3</title>
<polygon fill="none" stroke="gray" points="182,-219 98,-219 98,-183 188,-183 188,-213 182,-219"/>
<polyline fill="none" stroke="gray" points="182,-219 182,-213 "/>
<polyline fill="none" stroke="gray" points="188,-213 182,-213 "/>
<text text-anchor="start" x="108" y="-198" font-family="Times New Roman,serif" font-size="10.00">type:</text>
<text text-anchor="start" x="131" y="-198" font-family="Times New Roman,serif" font-size="10.00">u2p:Lifeline</text>
</g>
<!-- &#45;attrs3&#45;&gt;http://example.org/Controller@&#45;1504262072 -->
<g id="edge4" class="edge"><title>&#45;attrs3&#45;&gt;http://example.org/Controller@&#45;1504262072</title>
<path fill="none" stroke="gray" stroke-dasharray="5,2" d="M143,-219.303C143,-231.287 143,-247.028 143,-258.175"/>
</g>
</g>
</svg>
