<?xml version="1.0" encoding="UTF-8" standalone="no"?>
<!DOCTYPE svg PUBLIC "-//W3C//DTD SVG 1.1//EN"
 "http://www.w3.org/Graphics/SVG/1.1/DTD/svg11.dtd">
<!-- Generated by graphviz version 2.38.0 (20140413.2041)
 -->
<!-- Title: PROV Pages: 1 -->
<svg width="434pt" height="243pt"
 viewBox="0.00 0.00 434.00 243.00" xmlns="http://www.w3.org/2000/svg" xmlns:xlink="http://www.w3.org/1999/xlink">
<g id="graph0" class="graph" transform="scale(1 1) rotate(0) translate(4 239)">
<title>PROV</title>
<polygon fill="white" stroke="none" points="-4,4 -4,-239 430,-239 430,4 -4,4"/>
<g id="clust1" class="cluster"><title>clusterhttp://example.org/bundle1</title>
<g id="a_clust1"><a xlink:href="http://example.org/bundle1" xlink:title="bundle1">
<polygon fill="none" stroke="black" points="8,-8 8,-227 418,-227 418,-8 8,-8"/>
<text text-anchor="middle" x="213" y="-15.8" font-family="Times New Roman,serif" font-size="14.00">bundle1</text>
</a>
</g>
</g>
<!-- http://example.org/insertUser_1 -->
<g id="node1" class="node"><title>http://example.org/insertUser_1</title>
<g id="a_node1"><a xlink:href="http://example.org/insertUser_1" xlink:title="insertUser_1">
<polygon fill="#9fb1fc" stroke="#0000ff" points="256.5,-147 169.5,-147 169.5,-111 256.5,-111 256.5,-147"/>
<text text-anchor="middle" x="213" y="-125.3" font-family="Times New Roman,serif" font-size="14.00">insertUser_1</text>
</a>
</g>
</g>
<!-- http://example.org/String@6a38e57f_0 -->
<g id="node3" class="node"><title>http://example.org/String@6a38e57f_0</title>
<g id="a_node3"><a xlink:href="http://example.org/String@6a38e57f_0" xlink:title="String@6a38e57f_0">
<ellipse fill="#fffc87" stroke="#808080" cx="327" cy="-201" rx="82.5854" ry="18"/>
<text text-anchor="middle" x="327" y="-197.3" font-family="Times New Roman,serif" font-size="14.00">String@6a38e57f_0</text>
</a>
</g>
</g>
<!-- http://example.org/insertUser_1&#45;&gt;http://example.org/String@6a38e57f_0 -->
<g id="edge4" class="edge"><title>http://example.org/insertUser_1&#45;&gt;http://example.org/String@6a38e57f_0</title>
<path fill="none" stroke="black" d="M240.888,-147.124C256.238,-156.55 275.439,-168.34 291.812,-178.394"/>
<polygon fill="black" stroke="black" points="290.222,-181.524 300.575,-183.774 293.885,-175.559 290.222,-181.524"/>
<text text-anchor="middle" x="254.076" y="-138.078" font-family="Times New Roman,serif" font-size="8.00">use</text>
</g>
<!-- http://example.org/Model@&#45;188589315 -->
<g id="node5" class="node"><title>http://example.org/Model@&#45;188589315</title>
<g id="a_node5"><a xlink:href="http://example.org/Model@-188589315" xlink:title="Model@&#45;188589315">
<polygon fill="#fdb266" stroke="black" points="226.484,-206.562 121,-219 15.5157,-206.562 15.6142,-186.438 226.386,-186.438 226.484,-206.562"/>
<text text-anchor="middle" x="121" y="-197.3" font-family="Times New Roman,serif" font-size="14.00">Model@&#45;188589315</text>
</a>
</g>
</g>
<!-- http://example.org/insertUser_1&#45;&gt;http://example.org/Model@&#45;188589315 -->
<g id="edge5" class="edge"><title>http://example.org/insertUser_1&#45;&gt;http://example.org/Model@&#45;188589315</title>
<path fill="none" stroke="black" d="M190.258,-147.303C177.127,-157.295 160.564,-169.897 146.928,-180.272"/>
<polygon fill="black" stroke="black" points="144.712,-177.56 138.873,-186.401 148.951,-183.131 144.712,-177.56"/>
<text text-anchor="middle" x="192.156" y="-160.283" font-family="Times New Roman,serif" font-size="8.00">assoc</text>
</g>
<!-- &#45;attrs0 -->
<g id="node2" class="node"><title>&#45;attrs0</title>
<polygon fill="none" stroke="gray" points="258,-75 162,-75 162,-39 264,-39 264,-69 258,-75"/>
<polyline fill="none" stroke="gray" points="258,-75 258,-69 "/>
<polyline fill="none" stroke="gray" points="264,-69 258,-69 "/>
<text text-anchor="start" x="172" y="-54" font-family="Times New Roman,serif" font-size="10.00">type:</text>
<text text-anchor="start" x="195" y="-54" font-family="Times New Roman,serif" font-size="10.00">u2p:insertUser</text>
</g>
<!-- &#45;attrs0&#45;&gt;http://example.org/insertUser_1 -->
<g id="edge1" class="edge"><title>&#45;attrs0&#45;&gt;http://example.org/insertUser_1</title>
<path fill="none" stroke="gray" stroke-dasharray="5,2" d="M213,-75.3034C213,-86.1537 213,-100.083 213,-110.896"/>
</g>
<!-- &#45;attrs1 -->
<g id="node4" class="node"><title>&#45;attrs1</title>
<polygon fill="none" stroke="gray" points="393,-147 275,-147 275,-111 399,-111 399,-141 393,-147"/>
<polyline fill="none" stroke="gray" points="393,-147 393,-141 "/>
<polyline fill="none" stroke="gray" points="399,-141 393,-141 "/>
<text text-anchor="start" x="285" y="-126" font-family="Times New Roman,serif" font-size="10.00">value:</text>
<text text-anchor="start" x="312" y="-126" font-family="Times New Roman,serif" font-size="10.00">ahio@example.com</text>
</g>
<!-- &#45;attrs1&#45;&gt;http://example.org/String@6a38e57f_0 -->
<g id="edge2" class="edge"><title>&#45;attrs1&#45;&gt;http://example.org/String@6a38e57f_0</title>
<path fill="none" stroke="gray" stroke-dasharray="5,2" d="M334.528,-147.303C332.978,-158.154 330.988,-172.083 329.443,-182.896"/>
</g>
<!-- &#45;attrs2 -->
<g id="node6" class="node"><title>&#45;attrs2</title>
<polygon fill="none" stroke="gray" points="145,-147 61,-147 61,-111 151,-111 151,-141 145,-147"/>
<polyline fill="none" stroke="gray" points="145,-147 145,-141 "/>
<polyline fill="none" stroke="gray" points="151,-141 145,-141 "/>
<text text-anchor="start" x="71" y="-126" font-family="Times New Roman,serif" font-size="10.00">type:</text>
<text text-anchor="start" x="94" y="-126" font-family="Times New Roman,serif" font-size="10.00">u2p:Lifeline</text>
</g>
<!-- &#45;attrs2&#45;&gt;http://example.org/Model@&#45;188589315 -->
<g id="edge3" class="edge"><title>&#45;attrs2&#45;&gt;http://example.org/Model@&#45;188589315</title>
<path fill="none" stroke="gray" stroke-dasharray="5,2" d="M109.708,-147.303C112.276,-159.287 115.649,-175.028 118.038,-186.175"/>
</g>
</g>
</svg>
