<?xml version="1.0" encoding="UTF-8" standalone="no"?>
<!DOCTYPE svg PUBLIC "-//W3C//DTD SVG 1.1//EN"
 "http://www.w3.org/Graphics/SVG/1.1/DTD/svg11.dtd">
<!-- Generated by graphviz version 2.38.0 (20140413.2041)
 -->
<!-- Title: PROV Pages: 1 -->
<svg width="370pt" height="459pt"
 viewBox="0.00 0.00 370.00 459.00" xmlns="http://www.w3.org/2000/svg" xmlns:xlink="http://www.w3.org/1999/xlink">
<g id="graph0" class="graph" transform="scale(1 1) rotate(0) translate(4 455)">
<title>PROV</title>
<polygon fill="white" stroke="none" points="-4,4 -4,-455 366,-455 366,4 -4,4"/>
<g id="clust1" class="cluster"><title>clusterhttp://example.org/bundle1</title>
<g id="a_clust1"><a xlink:href="http://example.org/bundle1" xlink:title="bundle1">
<polygon fill="none" stroke="black" points="8,-8 8,-443 354,-443 354,-8 8,-8"/>
<text text-anchor="middle" x="181" y="-15.8" font-family="Times New Roman,serif" font-size="14.00">bundle1</text>
</a>
</g>
</g>
<!-- http://example.org/insertUser_1 -->
<g id="node1" class="node"><title>http://example.org/insertUser_1</title>
<g id="a_node1"><a xlink:href="http://example.org/insertUser_1" xlink:title="insertUser_1">
<polygon fill="#9fb1fc" stroke="#0000ff" points="278.5,-219 191.5,-219 191.5,-183 278.5,-183 278.5,-219"/>
<text text-anchor="middle" x="235" y="-197.3" font-family="Times New Roman,serif" font-size="14.00">insertUser_1</text>
</a>
</g>
</g>
<!-- http://example.org/Model@32d992b2_1 -->
<g id="node7" class="node"><title>http://example.org/Model@32d992b2_1</title>
<g id="a_node7"><a xlink:href="http://example.org/Model@32d992b2_1" xlink:title="Model@32d992b2_1">
<ellipse fill="#fffc87" stroke="#808080" cx="124" cy="-273" rx="87.9851" ry="18"/>
<text text-anchor="middle" x="124" y="-269.3" font-family="Times New Roman,serif" font-size="14.00">Model@32d992b2_1</text>
</a>
</g>
</g>
<!-- http://example.org/insertUser_1&#45;&gt;http://example.org/Model@32d992b2_1 -->
<g id="edge11" class="edge"><title>http://example.org/insertUser_1&#45;&gt;http://example.org/Model@32d992b2_1</title>
<path fill="none" stroke="black" d="M201.949,-219.124C186.393,-228.327 168.078,-239.784 153.056,-249.678"/>
<polygon fill="black" stroke="black" points="151.014,-246.833 144.638,-255.294 154.899,-252.656 151.014,-246.833"/>
<text text-anchor="middle" x="202.152" y="-232.223" font-family="Times New Roman,serif" font-size="8.00">use</text>
</g>
<!-- &#45;attrs0 -->
<g id="node2" class="node"><title>&#45;attrs0</title>
<polygon fill="none" stroke="gray" points="306,-147 210,-147 210,-111 312,-111 312,-141 306,-147"/>
<polyline fill="none" stroke="gray" points="306,-147 306,-141 "/>
<polyline fill="none" stroke="gray" points="312,-141 306,-141 "/>
<text text-anchor="start" x="220" y="-126" font-family="Times New Roman,serif" font-size="10.00">type:</text>
<text text-anchor="start" x="243" y="-126" font-family="Times New Roman,serif" font-size="10.00">u2p:insertUser</text>
</g>
<!-- &#45;attrs0&#45;&gt;http://example.org/insertUser_1 -->
<g id="edge1" class="edge"><title>&#45;attrs0&#45;&gt;http://example.org/insertUser_1</title>
<path fill="none" stroke="gray" stroke-dasharray="5,2" d="M254.573,-147.303C250.543,-158.154 245.369,-172.083 241.353,-182.896"/>
</g>
<!-- http://example.org/Model@32d992b2_0 -->
<g id="node3" class="node"><title>http://example.org/Model@32d992b2_0</title>
<g id="a_node3"><a xlink:href="http://example.org/Model@32d992b2_0" xlink:title="Model@32d992b2_0">
<ellipse fill="#fffc87" stroke="#808080" cx="209" cy="-345" rx="87.9851" ry="18"/>
<text text-anchor="middle" x="209" y="-341.3" font-family="Times New Roman,serif" font-size="14.00">Model@32d992b2_0</text>
</a>
</g>
</g>
<!-- http://example.org/Model@32d992b2 -->
<g id="node9" class="node"><title>http://example.org/Model@32d992b2</title>
<g id="a_node9"><a xlink:href="http://example.org/Model@32d992b2" xlink:title="Model@32d992b2">
<polygon fill="#fdb266" stroke="black" points="258.417,-422.562 161,-435 63.5833,-422.562 63.6742,-402.438 258.326,-402.438 258.417,-422.562"/>
<text text-anchor="middle" x="161" y="-413.3" font-family="Times New Roman,serif" font-size="14.00">Model@32d992b2</text>
</a>
</g>
</g>
<!-- http://example.org/Model@32d992b2_0&#45;&gt;http://example.org/Model@32d992b2 -->
<g id="edge6" class="edge"><title>http://example.org/Model@32d992b2_0&#45;&gt;http://example.org/Model@32d992b2</title>
<path fill="none" stroke="black" d="M197.381,-362.945C191.029,-372.208 183.083,-383.795 176.239,-393.776"/>
<polygon fill="black" stroke="black" points="173.345,-391.807 170.577,-402.034 179.118,-395.766 173.345,-391.807"/>
<text text-anchor="middle" x="203.853" y="-374.577" font-family="Times New Roman,serif" font-size="8.00">att</text>
</g>
<!-- &#45;attrs1 -->
<g id="node4" class="node"><title>&#45;attrs1</title>
<polygon fill="none" stroke="gray" points="340,-291 230,-291 230,-255 346,-255 346,-285 340,-291"/>
<polyline fill="none" stroke="gray" points="340,-291 340,-285 "/>
<polyline fill="none" stroke="gray" points="346,-285 340,-285 "/>
<text text-anchor="start" x="240" y="-270" font-family="Times New Roman,serif" font-size="10.00">type:</text>
<text text-anchor="start" x="263" y="-270" font-family="Times New Roman,serif" font-size="10.00">u2p:StateMachine</text>
</g>
<!-- &#45;attrs1&#45;&gt;http://example.org/Model@32d992b2_0 -->
<g id="edge2" class="edge"><title>&#45;attrs1&#45;&gt;http://example.org/Model@32d992b2_0</title>
<path fill="none" stroke="gray" stroke-dasharray="5,2" d="M268.472,-291.303C256.044,-302.316 240.036,-316.5 227.759,-327.378"/>
</g>
<!-- http://example.org/Model@32d992b2_2 -->
<g id="node5" class="node"><title>http://example.org/Model@32d992b2_2</title>
<g id="a_node5"><a xlink:href="http://example.org/Model@32d992b2_2" xlink:title="Model@32d992b2_2">
<ellipse fill="#fffc87" stroke="#808080" cx="104" cy="-129" rx="87.9851" ry="18"/>
<text text-anchor="middle" x="104" y="-125.3" font-family="Times New Roman,serif" font-size="14.00">Model@32d992b2_2</text>
</a>
</g>
</g>
<!-- http://example.org/Model@32d992b2_2&#45;&gt;http://example.org/insertUser_1 -->
<g id="edge8" class="edge"><title>http://example.org/Model@32d992b2_2&#45;&gt;http://example.org/insertUser_1</title>
<path fill="none" stroke="black" d="M134.054,-146.059C151.791,-155.537 174.491,-167.667 193.872,-178.023"/>
<polygon fill="black" stroke="black" points="192.327,-181.166 202.797,-182.792 195.626,-174.992 192.327,-181.166"/>
<text text-anchor="middle" x="146.791" y="-136.237" font-family="Times New Roman,serif" font-size="8.00">gen</text>
</g>
<!-- http://example.org/Model@32d992b2_2&#45;&gt;http://example.org/Model@32d992b2_0 -->
<g id="edge7" class="edge"><title>http://example.org/Model@32d992b2_2&#45;&gt;http://example.org/Model@32d992b2_0</title>
<path fill="none" stroke="black" d="M84.7594,-146.713C51.8264,-177.341 -8.51722,-243.665 27,-291 40.1293,-308.498 88.7057,-322.116 132.372,-331.164"/>
<polygon fill="black" stroke="black" points="131.683,-334.596 142.178,-333.138 133.065,-327.733 131.683,-334.596"/>
<text text-anchor="middle" x="88.3802" y="-159.369" font-family="Times New Roman,serif" font-size="8.00">spe</text>
</g>
<!-- http://example.org/Model@32d992b2_2&#45;&gt;http://example.org/Model@32d992b2_1 -->
<g id="edge9" class="edge"><title>http://example.org/Model@32d992b2_2&#45;&gt;http://example.org/Model@32d992b2_1</title>
<path fill="none" stroke="black" d="M87.1103,-147.007C78.7065,-156.685 69.4183,-169.541 65,-183 60.0096,-198.202 58.4837,-204.387 65,-219 70.3098,-230.907 79.7632,-241.257 89.5686,-249.572"/>
<polygon fill="black" stroke="black" points="87.4213,-252.336 97.4354,-255.796 91.7643,-246.846 87.4213,-252.336"/>
<text text-anchor="middle" x="92.1645" y="-159.229" font-family="Times New Roman,serif" font-size="8.00">der</text>
</g>
<!-- &#45;attrs2 -->
<g id="node6" class="node"><title>&#45;attrs2</title>
<polygon fill="none" stroke="gray" points="145.5,-75 56.5,-75 56.5,-39 151.5,-39 151.5,-69 145.5,-75"/>
<polyline fill="none" stroke="gray" points="145.5,-75 145.5,-69 "/>
<polyline fill="none" stroke="gray" points="151.5,-69 145.5,-69 "/>
<text text-anchor="start" x="67" y="-61" font-family="Times New Roman,serif" font-size="10.00">type:</text>
<text text-anchor="start" x="91" y="-61" font-family="Times New Roman,serif" font-size="10.00">u2p:Model</text>
<text text-anchor="start" x="67" y="-48" font-family="Times New Roman,serif" font-size="10.00">state:</text>
<text text-anchor="start" x="91" y="-48" font-family="Times New Roman,serif" font-size="10.00">u2p:Inserted</text>
</g>
<!-- &#45;attrs2&#45;&gt;http://example.org/Model@32d992b2_2 -->
<g id="edge3" class="edge"><title>&#45;attrs2&#45;&gt;http://example.org/Model@32d992b2_2</title>
<path fill="none" stroke="gray" stroke-dasharray="5,2" d="M104,-75.3034C104,-86.1537 104,-100.083 104,-110.896"/>
</g>
<!-- http://example.org/Model@32d992b2_1&#45;&gt;http://example.org/insertUser_1 -->
<g id="edge10" class="edge"><title>http://example.org/Model@32d992b2_1&#45;&gt;http://example.org/insertUser_1</title>
<path fill="none" stroke="black" d="M165.781,-249.651C178.844,-241.748 192.964,-232.851 205.06,-224.903"/>
<polygon fill="none" stroke="black" points="165.428,-249.862 162.326,-256.372 155.124,-256.013 158.226,-249.503 165.428,-249.862"/>
<polygon fill="black" stroke="black" points="207.358,-227.578 213.743,-219.124 203.479,-221.751 207.358,-227.578"/>
<text text-anchor="middle" x="154.906" y="-239.114" font-family="Times New Roman,serif" font-size="8.00">inv</text>
</g>
<!-- http://example.org/Model@32d992b2_1&#45;&gt;http://example.org/Model@32d992b2_0 -->
<g id="edge12" class="edge"><title>http://example.org/Model@32d992b2_1&#45;&gt;http://example.org/Model@32d992b2_0</title>
<path fill="none" stroke="black" d="M144.144,-290.589C155.073,-299.59 168.76,-310.861 180.74,-320.727"/>
<polygon fill="black" stroke="black" points="178.762,-323.632 188.706,-327.287 183.212,-318.229 178.762,-323.632"/>
<text text-anchor="middle" x="158.191" y="-283.429" font-family="Times New Roman,serif" font-size="8.00">spe</text>
</g>
<!-- &#45;attrs3 -->
<g id="node8" class="node"><title>&#45;attrs3</title>
<polygon fill="none" stroke="gray" points="167.5,-219 74.5,-219 74.5,-183 173.5,-183 173.5,-213 167.5,-219"/>
<polyline fill="none" stroke="gray" points="167.5,-219 167.5,-213 "/>
<polyline fill="none" stroke="gray" points="173.5,-213 167.5,-213 "/>
<text text-anchor="start" x="85" y="-205" font-family="Times New Roman,serif" font-size="10.00">type:</text>
<text text-anchor="start" x="109" y="-205" font-family="Times New Roman,serif" font-size="10.00">u2p:Model</text>
<text text-anchor="start" x="85" y="-192" font-family="Times New Roman,serif" font-size="10.00">state:</text>
<text text-anchor="start" x="109" y="-192" font-family="Times New Roman,serif" font-size="10.00">u2p:Checking</text>
</g>
<!-- &#45;attrs3&#45;&gt;http://example.org/Model@32d992b2_1 -->
<g id="edge4" class="edge"><title>&#45;attrs3&#45;&gt;http://example.org/Model@32d992b2_1</title>
<path fill="none" stroke="gray" stroke-dasharray="5,2" d="M124,-219.303C124,-230.154 124,-244.083 124,-254.896"/>
</g>
<!-- &#45;attrs4 -->
<g id="node10" class="node"><title>&#45;attrs4</title>
<polygon fill="none" stroke="gray" points="97.5,-363 16.5,-363 16.5,-327 103.5,-327 103.5,-357 97.5,-363"/>
<polyline fill="none" stroke="gray" points="97.5,-363 97.5,-357 "/>
<polyline fill="none" stroke="gray" points="103.5,-357 97.5,-357 "/>
<text text-anchor="start" x="27" y="-342" font-family="Times New Roman,serif" font-size="10.00">type:</text>
<text text-anchor="start" x="50" y="-342" font-family="Times New Roman,serif" font-size="10.00">u2p:Model</text>
</g>
<!-- &#45;attrs4&#45;&gt;http://example.org/Model@32d992b2 -->
<g id="edge5" class="edge"><title>&#45;attrs4&#45;&gt;http://example.org/Model@32d992b2</title>
<path fill="none" stroke="gray" stroke-dasharray="5,2" d="M84.7074,-363.124C102.111,-375.186 125.1,-391.119 141.278,-402.331"/>
</g>
</g>
</svg>
