<?xml version="1.0" encoding="UTF-8" standalone="no"?>
<!DOCTYPE svg PUBLIC "-//W3C//DTD SVG 1.1//EN"
 "http://www.w3.org/Graphics/SVG/1.1/DTD/svg11.dtd">
<!-- Generated by graphviz version 2.38.0 (20140413.2041)
 -->
<!-- Title: PROV Pages: 1 -->
<svg width="392pt" height="459pt"
 viewBox="0.00 0.00 392.00 459.00" xmlns="http://www.w3.org/2000/svg" xmlns:xlink="http://www.w3.org/1999/xlink">
<g id="graph0" class="graph" transform="scale(1 1) rotate(0) translate(4 455)">
<title>PROV</title>
<polygon fill="white" stroke="none" points="-4,4 -4,-455 388,-455 388,4 -4,4"/>
<g id="clust1" class="cluster"><title>clusterhttp://example.org/bundle1</title>
<g id="a_clust1"><a xlink:href="http://example.org/bundle1" xlink:title="bundle1">
<polygon fill="none" stroke="black" points="8,-8 8,-443 376,-443 376,-8 8,-8"/>
<text text-anchor="middle" x="192" y="-15.8" font-family="Times New Roman,serif" font-size="14.00">bundle1</text>
</a>
</g>
</g>
<!-- http://example.org/register_1 -->
<g id="node1" class="node"><title>http://example.org/register_1</title>
<g id="a_node1"><a xlink:href="http://example.org/register_1" xlink:title="register_1">
<polygon fill="#9fb1fc" stroke="#0000ff" points="275.5,-219 204.5,-219 204.5,-183 275.5,-183 275.5,-219"/>
<text text-anchor="middle" x="240" y="-197.3" font-family="Times New Roman,serif" font-size="14.00">register_1</text>
</a>
</g>
</g>
<!-- http://example.org/Controller@23ceabc1_1 -->
<g id="node7" class="node"><title>http://example.org/Controller@23ceabc1_1</title>
<g id="a_node7"><a xlink:href="http://example.org/Controller@23ceabc1_1" xlink:title="Controller@23ceabc1_1">
<ellipse fill="#fffc87" stroke="#808080" cx="135" cy="-273" rx="99.3824" ry="18"/>
<text text-anchor="middle" x="135" y="-269.3" font-family="Times New Roman,serif" font-size="14.00">Controller@23ceabc1_1</text>
</a>
</g>
</g>
<!-- http://example.org/register_1&#45;&gt;http://example.org/Controller@23ceabc1_1 -->
<g id="edge11" class="edge"><title>http://example.org/register_1&#45;&gt;http://example.org/Controller@23ceabc1_1</title>
<path fill="none" stroke="black" d="M208.417,-219.124C193.788,-228.241 176.64,-239.57 162.541,-249.401"/>
<polygon fill="black" stroke="black" points="160.35,-246.663 154.206,-255.294 164.391,-252.378 160.35,-246.663"/>
<text text-anchor="middle" x="208.969" y="-232.214" font-family="Times New Roman,serif" font-size="8.00">use</text>
</g>
<!-- &#45;attrs0 -->
<g id="node2" class="node"><title>&#45;attrs0</title>
<polygon fill="none" stroke="gray" points="317.5,-147 232.5,-147 232.5,-111 323.5,-111 323.5,-141 317.5,-147"/>
<polyline fill="none" stroke="gray" points="317.5,-147 317.5,-141 "/>
<polyline fill="none" stroke="gray" points="323.5,-141 317.5,-141 "/>
<text text-anchor="start" x="243" y="-126" font-family="Times New Roman,serif" font-size="10.00">type:</text>
<text text-anchor="start" x="266" y="-126" font-family="Times New Roman,serif" font-size="10.00">u2p:register</text>
</g>
<!-- &#45;attrs0&#45;&gt;http://example.org/register_1 -->
<g id="edge1" class="edge"><title>&#45;attrs0&#45;&gt;http://example.org/register_1</title>
<path fill="none" stroke="gray" stroke-dasharray="5,2" d="M268.607,-147.303C262.717,-158.154 255.155,-172.083 249.285,-182.896"/>
</g>
<!-- http://example.org/Controller@23ceabc1_0 -->
<g id="node3" class="node"><title>http://example.org/Controller@23ceabc1_0</title>
<g id="a_node3"><a xlink:href="http://example.org/Controller@23ceabc1_0" xlink:title="Controller@23ceabc1_0">
<ellipse fill="#fffc87" stroke="#808080" cx="235" cy="-345" rx="99.3824" ry="18"/>
<text text-anchor="middle" x="235" y="-341.3" font-family="Times New Roman,serif" font-size="14.00">Controller@23ceabc1_0</text>
</a>
</g>
</g>
<!-- http://example.org/Controller@23ceabc1 -->
<g id="node9" class="node"><title>http://example.org/Controller@23ceabc1</title>
<g id="a_node9"><a xlink:href="http://example.org/Controller@23ceabc1" xlink:title="Controller@23ceabc1">
<polygon fill="#fdb266" stroke="black" points="292.838,-422.562 181,-435 69.1621,-422.562 69.2665,-402.438 292.734,-402.438 292.838,-422.562"/>
<text text-anchor="middle" x="181" y="-413.3" font-family="Times New Roman,serif" font-size="14.00">Controller@23ceabc1</text>
</a>
</g>
</g>
<!-- http://example.org/Controller@23ceabc1_0&#45;&gt;http://example.org/Controller@23ceabc1 -->
<g id="edge6" class="edge"><title>http://example.org/Controller@23ceabc1_0&#45;&gt;http://example.org/Controller@23ceabc1</title>
<path fill="none" stroke="black" d="M221.928,-362.945C214.71,-372.302 205.663,-384.03 197.911,-394.078"/>
<polygon fill="black" stroke="black" points="195.11,-391.978 191.774,-402.034 200.653,-396.254 195.11,-391.978"/>
<text text-anchor="middle" x="227.633" y="-374.918" font-family="Times New Roman,serif" font-size="8.00">att</text>
</g>
<!-- &#45;attrs1 -->
<g id="node4" class="node"><title>&#45;attrs1</title>
<polygon fill="none" stroke="gray" points="362,-291 252,-291 252,-255 368,-255 368,-285 362,-291"/>
<polyline fill="none" stroke="gray" points="362,-291 362,-285 "/>
<polyline fill="none" stroke="gray" points="368,-285 362,-285 "/>
<text text-anchor="start" x="262" y="-270" font-family="Times New Roman,serif" font-size="10.00">type:</text>
<text text-anchor="start" x="285" y="-270" font-family="Times New Roman,serif" font-size="10.00">u2p:StateMachine</text>
</g>
<!-- &#45;attrs1&#45;&gt;http://example.org/Controller@23ceabc1_0 -->
<g id="edge2" class="edge"><title>&#45;attrs1&#45;&gt;http://example.org/Controller@23ceabc1_0</title>
<path fill="none" stroke="gray" stroke-dasharray="5,2" d="M291.461,-291.303C279.749,-302.235 264.688,-316.291 253.067,-327.137"/>
</g>
<!-- http://example.org/Controller@23ceabc1_2 -->
<g id="node5" class="node"><title>http://example.org/Controller@23ceabc1_2</title>
<g id="a_node5"><a xlink:href="http://example.org/Controller@23ceabc1_2" xlink:title="Controller@23ceabc1_2">
<ellipse fill="#fffc87" stroke="#808080" cx="115" cy="-129" rx="99.3824" ry="18"/>
<text text-anchor="middle" x="115" y="-125.3" font-family="Times New Roman,serif" font-size="14.00">Controller@23ceabc1_2</text>
</a>
</g>
</g>
<!-- http://example.org/Controller@23ceabc1_2&#45;&gt;http://example.org/register_1 -->
<g id="edge8" class="edge"><title>http://example.org/Controller@23ceabc1_2&#45;&gt;http://example.org/register_1</title>
<path fill="none" stroke="black" d="M143.992,-146.235C160.85,-155.676 182.327,-167.703 200.69,-177.987"/>
<polygon fill="black" stroke="black" points="198.986,-181.044 209.422,-182.876 202.407,-174.936 198.986,-181.044"/>
<text text-anchor="middle" x="156.883" y="-136.666" font-family="Times New Roman,serif" font-size="8.00">gen</text>
</g>
<!-- http://example.org/Controller@23ceabc1_2&#45;&gt;http://example.org/Controller@23ceabc1_0 -->
<g id="edge7" class="edge"><title>http://example.org/Controller@23ceabc1_2&#45;&gt;http://example.org/Controller@23ceabc1_0</title>
<path fill="none" stroke="black" d="M93.3525,-146.816C56.675,-177.328 -10.2364,-243.086 27,-291 35.4399,-301.86 103.323,-317.821 159.28,-329.388"/>
<polygon fill="black" stroke="black" points="158.716,-332.845 169.215,-331.422 160.12,-325.987 158.716,-332.845"/>
<text text-anchor="middle" x="96.1584" y="-159.651" font-family="Times New Roman,serif" font-size="8.00">spe</text>
</g>
<!-- http://example.org/Controller@23ceabc1_2&#45;&gt;http://example.org/Controller@23ceabc1_1 -->
<g id="edge9" class="edge"><title>http://example.org/Controller@23ceabc1_2&#45;&gt;http://example.org/Controller@23ceabc1_1</title>
<path fill="none" stroke="black" d="M97.6845,-146.931C89.0674,-156.587 79.5407,-169.446 75,-183 69.9175,-198.171 68.4228,-204.414 75,-219 80.3648,-230.897 89.8662,-241.197 99.7479,-249.471"/>
<polygon fill="black" stroke="black" points="97.646,-252.27 107.683,-255.664 101.953,-246.752 97.646,-252.27"/>
<text text-anchor="middle" x="102.549" y="-159.22" font-family="Times New Roman,serif" font-size="8.00">der</text>
</g>
<!-- &#45;attrs2 -->
<g id="node6" class="node"><title>&#45;attrs2</title>
<polygon fill="none" stroke="gray" points="161.5,-75 62.5,-75 62.5,-39 167.5,-39 167.5,-69 161.5,-75"/>
<polyline fill="none" stroke="gray" points="161.5,-75 161.5,-69 "/>
<polyline fill="none" stroke="gray" points="167.5,-69 161.5,-69 "/>
<text text-anchor="start" x="73" y="-61" font-family="Times New Roman,serif" font-size="10.00">type:</text>
<text text-anchor="start" x="97" y="-61" font-family="Times New Roman,serif" font-size="10.00">u2p:Controller</text>
<text text-anchor="start" x="73" y="-48" font-family="Times New Roman,serif" font-size="10.00">state:</text>
<text text-anchor="start" x="97" y="-48" font-family="Times New Roman,serif" font-size="10.00">u2p:Registered</text>
</g>
<!-- &#45;attrs2&#45;&gt;http://example.org/Controller@23ceabc1_2 -->
<g id="edge3" class="edge"><title>&#45;attrs2&#45;&gt;http://example.org/Controller@23ceabc1_2</title>
<path fill="none" stroke="gray" stroke-dasharray="5,2" d="M115,-75.3034C115,-86.1537 115,-100.083 115,-110.896"/>
</g>
<!-- http://example.org/Controller@23ceabc1_1&#45;&gt;http://example.org/register_1 -->
<g id="edge10" class="edge"><title>http://example.org/Controller@23ceabc1_1&#45;&gt;http://example.org/register_1</title>
<path fill="none" stroke="black" d="M175.47,-249.265C187.56,-241.539 200.526,-232.901 211.678,-225.144"/>
<polygon fill="none" stroke="black" points="175.291,-249.377 172.347,-255.96 165.138,-255.774 168.082,-249.192 175.291,-249.377"/>
<polygon fill="black" stroke="black" points="214.057,-227.748 220.211,-219.124 210.022,-222.028 214.057,-227.748"/>
<text text-anchor="middle" x="164.559" y="-238.885" font-family="Times New Roman,serif" font-size="8.00">inv</text>
</g>
<!-- http://example.org/Controller@23ceabc1_1&#45;&gt;http://example.org/Controller@23ceabc1_0 -->
<g id="edge12" class="edge"><title>http://example.org/Controller@23ceabc1_1&#45;&gt;http://example.org/Controller@23ceabc1_0</title>
<path fill="none" stroke="black" d="M158.699,-290.589C171.804,-299.763 188.279,-311.296 202.564,-321.295"/>
<polygon fill="black" stroke="black" points="200.925,-324.42 211.125,-327.287 204.94,-318.685 200.925,-324.42"/>
<text text-anchor="middle" x="172.292" y="-282.348" font-family="Times New Roman,serif" font-size="8.00">spe</text>
</g>
<!-- &#45;attrs3 -->
<g id="node8" class="node"><title>&#45;attrs3</title>
<polygon fill="none" stroke="gray" points="180,-219 84,-219 84,-183 186,-183 186,-213 180,-219"/>
<polyline fill="none" stroke="gray" points="180,-219 180,-213 "/>
<polyline fill="none" stroke="gray" points="186,-213 180,-213 "/>
<text text-anchor="start" x="94" y="-205" font-family="Times New Roman,serif" font-size="10.00">type:</text>
<text text-anchor="start" x="118" y="-205" font-family="Times New Roman,serif" font-size="10.00">u2p:Controller</text>
<text text-anchor="start" x="94" y="-192" font-family="Times New Roman,serif" font-size="10.00">state:</text>
<text text-anchor="start" x="118" y="-192" font-family="Times New Roman,serif" font-size="10.00">u2p:Not</text>
</g>
<!-- &#45;attrs3&#45;&gt;http://example.org/Controller@23ceabc1_1 -->
<g id="edge4" class="edge"><title>&#45;attrs3&#45;&gt;http://example.org/Controller@23ceabc1_1</title>
<path fill="none" stroke="gray" stroke-dasharray="5,2" d="M135,-219.303C135,-230.154 135,-244.083 135,-254.896"/>
</g>
<!-- &#45;attrs4 -->
<g id="node10" class="node"><title>&#45;attrs4</title>
<polygon fill="none" stroke="gray" points="111.5,-363 16.5,-363 16.5,-327 117.5,-327 117.5,-357 111.5,-363"/>
<polyline fill="none" stroke="gray" points="111.5,-363 111.5,-357 "/>
<polyline fill="none" stroke="gray" points="117.5,-357 111.5,-357 "/>
<text text-anchor="start" x="27" y="-342" font-family="Times New Roman,serif" font-size="10.00">type:</text>
<text text-anchor="start" x="50" y="-342" font-family="Times New Roman,serif" font-size="10.00">u2p:Controller</text>
</g>
<!-- &#45;attrs4&#45;&gt;http://example.org/Controller@23ceabc1 -->
<g id="edge5" class="edge"><title>&#45;attrs4&#45;&gt;http://example.org/Controller@23ceabc1</title>
<path fill="none" stroke="gray" stroke-dasharray="5,2" d="M94.8875,-363.124C114.531,-375.186 140.48,-391.119 158.739,-402.331"/>
</g>
</g>
</svg>
