<?xml version="1.0" encoding="UTF-8" standalone="no"?>
<!DOCTYPE svg PUBLIC "-//W3C//DTD SVG 1.1//EN"
 "http://www.w3.org/Graphics/SVG/1.1/DTD/svg11.dtd">
<!-- Generated by graphviz version 2.38.0 (20140413.2041)
 -->
<!-- Title: PROV Pages: 1 -->
<svg width="410pt" height="243pt"
 viewBox="0.00 0.00 410.00 243.00" xmlns="http://www.w3.org/2000/svg" xmlns:xlink="http://www.w3.org/1999/xlink">
<g id="graph0" class="graph" transform="scale(1 1) rotate(0) translate(4 239)">
<title>PROV</title>
<polygon fill="white" stroke="none" points="-4,4 -4,-239 406,-239 406,4 -4,4"/>
<g id="clust1" class="cluster"><title>clusterhttp://example.org/bundle1</title>
<g id="a_clust1"><a xlink:href="http://example.org/bundle1" xlink:title="bundle1">
<polygon fill="none" stroke="black" points="8,-8 8,-227 394,-227 394,-8 8,-8"/>
<text text-anchor="middle" x="201" y="-15.8" font-family="Times New Roman,serif" font-size="14.00">bundle1</text>
</a>
</g>
</g>
<!-- http://example.org/submit_1 -->
<g id="node1" class="node"><title>http://example.org/submit_1</title>
<g id="a_node1"><a xlink:href="http://example.org/submit_1" xlink:title="submit_1">
<polygon fill="#9fb1fc" stroke="#0000ff" points="231,-147 163,-147 163,-111 231,-111 231,-147"/>
<text text-anchor="middle" x="197" y="-125.3" font-family="Times New Roman,serif" font-size="14.00">submit_1</text>
</a>
</g>
</g>
<!-- http://example.org/String@6a38e57f_0 -->
<g id="node3" class="node"><title>http://example.org/String@6a38e57f_0</title>
<g id="a_node3"><a xlink:href="http://example.org/String@6a38e57f_0" xlink:title="String@6a38e57f_0">
<ellipse fill="#fffc87" stroke="#808080" cx="303" cy="-201" rx="82.5854" ry="18"/>
<text text-anchor="middle" x="303" y="-197.3" font-family="Times New Roman,serif" font-size="14.00">String@6a38e57f_0</text>
</a>
</g>
</g>
<!-- http://example.org/submit_1&#45;&gt;http://example.org/String@6a38e57f_0 -->
<g id="edge4" class="edge"><title>http://example.org/submit_1&#45;&gt;http://example.org/String@6a38e57f_0</title>
<path fill="none" stroke="black" d="M222.931,-147.124C237.072,-156.462 254.727,-168.122 269.858,-178.114"/>
<polygon fill="black" stroke="black" points="268.156,-181.184 278.43,-183.774 272.014,-175.343 268.156,-181.184"/>
<text text-anchor="middle" x="236.348" y="-138.517" font-family="Times New Roman,serif" font-size="8.00">use</text>
</g>
<!-- http://example.org/User@825442679 -->
<g id="node5" class="node"><title>http://example.org/User@825442679</title>
<g id="a_node5"><a xlink:href="http://example.org/User@825442679" xlink:title="User@825442679">
<polygon fill="#fdb266" stroke="black" points="202.383,-206.562 109,-219 15.6171,-206.562 15.7043,-186.438 202.296,-186.438 202.383,-206.562"/>
<text text-anchor="middle" x="109" y="-197.3" font-family="Times New Roman,serif" font-size="14.00">User@825442679</text>
</a>
</g>
</g>
<!-- http://example.org/submit_1&#45;&gt;http://example.org/User@825442679 -->
<g id="edge5" class="edge"><title>http://example.org/submit_1&#45;&gt;http://example.org/User@825442679</title>
<path fill="none" stroke="black" d="M175.247,-147.303C162.805,-157.2 147.143,-169.659 134.171,-179.978"/>
<polygon fill="black" stroke="black" points="131.743,-177.436 126.096,-186.401 136.101,-182.915 131.743,-177.436"/>
<text text-anchor="middle" x="177.464" y="-160.239" font-family="Times New Roman,serif" font-size="8.00">assoc</text>
</g>
<!-- &#45;attrs0 -->
<g id="node2" class="node"><title>&#45;attrs0</title>
<polygon fill="none" stroke="gray" points="235,-75 153,-75 153,-39 241,-39 241,-69 235,-75"/>
<polyline fill="none" stroke="gray" points="235,-75 235,-69 "/>
<polyline fill="none" stroke="gray" points="241,-69 235,-69 "/>
<text text-anchor="start" x="163" y="-54" font-family="Times New Roman,serif" font-size="10.00">type:</text>
<text text-anchor="start" x="186" y="-54" font-family="Times New Roman,serif" font-size="10.00">u2p:submit</text>
</g>
<!-- &#45;attrs0&#45;&gt;http://example.org/submit_1 -->
<g id="edge1" class="edge"><title>&#45;attrs0&#45;&gt;http://example.org/submit_1</title>
<path fill="none" stroke="gray" stroke-dasharray="5,2" d="M197,-75.3034C197,-86.1537 197,-100.083 197,-110.896"/>
</g>
<!-- &#45;attrs1 -->
<g id="node4" class="node"><title>&#45;attrs1</title>
<polygon fill="none" stroke="gray" points="367,-147 249,-147 249,-111 373,-111 373,-141 367,-147"/>
<polyline fill="none" stroke="gray" points="367,-147 367,-141 "/>
<polyline fill="none" stroke="gray" points="373,-141 367,-141 "/>
<text text-anchor="start" x="259" y="-126" font-family="Times New Roman,serif" font-size="10.00">value:</text>
<text text-anchor="start" x="286" y="-126" font-family="Times New Roman,serif" font-size="10.00">ahio@example.com</text>
</g>
<!-- &#45;attrs1&#45;&gt;http://example.org/String@6a38e57f_0 -->
<g id="edge2" class="edge"><title>&#45;attrs1&#45;&gt;http://example.org/String@6a38e57f_0</title>
<path fill="none" stroke="gray" stroke-dasharray="5,2" d="M309.022,-147.303C307.782,-158.154 306.19,-172.083 304.955,-182.896"/>
</g>
<!-- &#45;attrs2 -->
<g id="node6" class="node"><title>&#45;attrs2</title>
<polygon fill="none" stroke="gray" points="139,-147 55,-147 55,-111 145,-111 145,-141 139,-147"/>
<polyline fill="none" stroke="gray" points="139,-147 139,-141 "/>
<polyline fill="none" stroke="gray" points="145,-141 139,-141 "/>
<text text-anchor="start" x="65" y="-126" font-family="Times New Roman,serif" font-size="10.00">type:</text>
<text text-anchor="start" x="88" y="-126" font-family="Times New Roman,serif" font-size="10.00">u2p:Lifeline</text>
</g>
<!-- &#45;attrs2&#45;&gt;http://example.org/User@825442679 -->
<g id="edge3" class="edge"><title>&#45;attrs2&#45;&gt;http://example.org/User@825442679</title>
<path fill="none" stroke="gray" stroke-dasharray="5,2" d="M102.225,-147.303C103.766,-159.287 105.789,-175.028 107.223,-186.175"/>
</g>
</g>
</svg>
