<?xml version="1.0" encoding="UTF-8" standalone="no"?>
<!DOCTYPE svg PUBLIC "-//W3C//DTD SVG 1.1//EN"
 "http://www.w3.org/Graphics/SVG/1.1/DTD/svg11.dtd">
<!-- Generated by graphviz version 2.38.0 (20140413.2041)
 -->
<!-- Title: PROV Pages: 1 -->
<svg width="415pt" height="315pt"
 viewBox="0.00 0.00 415.00 315.00" xmlns="http://www.w3.org/2000/svg" xmlns:xlink="http://www.w3.org/1999/xlink">
<g id="graph0" class="graph" transform="scale(1 1) rotate(0) translate(4 311)">
<title>PROV</title>
<polygon fill="white" stroke="none" points="-4,4 -4,-311 411,-311 411,4 -4,4"/>
<g id="clust1" class="cluster"><title>clusterhttp://example.org/bundle1</title>
<g id="a_clust1"><a xlink:href="http://example.org/bundle1" xlink:title="bundle1">
<polygon fill="none" stroke="black" points="8,-8 8,-299 399,-299 399,-8 8,-8"/>
<text text-anchor="middle" x="203.5" y="-15.8" font-family="Times New Roman,serif" font-size="14.00">bundle1</text>
</a>
</g>
</g>
<!-- http://example.org/validateEmail_1 -->
<g id="node1" class="node"><title>http://example.org/validateEmail_1</title>
<g id="a_node1"><a xlink:href="http://example.org/validateEmail_1" xlink:title="validateEmail_1">
<polygon fill="#9fb1fc" stroke="#0000ff" points="229,-219 125,-219 125,-183 229,-183 229,-219"/>
<text text-anchor="middle" x="177" y="-197.3" font-family="Times New Roman,serif" font-size="14.00">validateEmail_1</text>
</a>
</g>
</g>
<!-- http://example.org/String@6a38e57f_0 -->
<g id="node3" class="node"><title>http://example.org/String@6a38e57f_0</title>
<g id="a_node3"><a xlink:href="http://example.org/String@6a38e57f_0" xlink:title="String@6a38e57f_0">
<ellipse fill="#fffc87" stroke="#808080" cx="308" cy="-273" rx="82.5854" ry="18"/>
<text text-anchor="middle" x="308" y="-269.3" font-family="Times New Roman,serif" font-size="14.00">String@6a38e57f_0</text>
</a>
</g>
</g>
<!-- http://example.org/validateEmail_1&#45;&gt;http://example.org/String@6a38e57f_0 -->
<g id="edge5" class="edge"><title>http://example.org/validateEmail_1&#45;&gt;http://example.org/String@6a38e57f_0</title>
<path fill="none" stroke="black" d="M209.046,-219.124C227.143,-228.794 249.896,-240.952 269.02,-251.171"/>
<polygon fill="black" stroke="black" points="267.611,-254.387 278.081,-256.013 270.91,-248.213 267.611,-254.387"/>
<text text-anchor="middle" x="221.783" y="-209.301" font-family="Times New Roman,serif" font-size="8.00">use</text>
</g>
<!-- http://example.org/View@825462865 -->
<g id="node7" class="node"><title>http://example.org/View@825462865</title>
<g id="a_node7"><a xlink:href="http://example.org/View@825462865" xlink:title="View@825462865">
<polygon fill="#fdb266" stroke="black" points="207.703,-278.562 112,-291 16.2971,-278.562 16.3865,-258.438 207.614,-258.438 207.703,-278.562"/>
<text text-anchor="middle" x="112" y="-269.3" font-family="Times New Roman,serif" font-size="14.00">View@825462865</text>
</a>
</g>
</g>
<!-- http://example.org/validateEmail_1&#45;&gt;http://example.org/View@825462865 -->
<g id="edge6" class="edge"><title>http://example.org/validateEmail_1&#45;&gt;http://example.org/View@825462865</title>
<path fill="none" stroke="black" d="M160.933,-219.303C152.152,-228.759 141.2,-240.554 131.884,-250.586"/>
<polygon fill="black" stroke="black" points="129.077,-248.466 124.837,-258.175 134.206,-253.229 129.077,-248.466"/>
<text text-anchor="middle" x="165.348" y="-231.739" font-family="Times New Roman,serif" font-size="8.00">assoc</text>
</g>
<!-- &#45;attrs0 -->
<g id="node2" class="node"><title>&#45;attrs0</title>
<polygon fill="none" stroke="gray" points="130.5,-147 23.5,-147 23.5,-111 136.5,-111 136.5,-141 130.5,-147"/>
<polyline fill="none" stroke="gray" points="130.5,-147 130.5,-141 "/>
<polyline fill="none" stroke="gray" points="136.5,-141 130.5,-141 "/>
<text text-anchor="start" x="34" y="-126" font-family="Times New Roman,serif" font-size="10.00">type:</text>
<text text-anchor="start" x="57" y="-126" font-family="Times New Roman,serif" font-size="10.00">u2p:validateEmail</text>
</g>
<!-- &#45;attrs0&#45;&gt;http://example.org/validateEmail_1 -->
<g id="edge1" class="edge"><title>&#45;attrs0&#45;&gt;http://example.org/validateEmail_1</title>
<path fill="none" stroke="gray" stroke-dasharray="5,2" d="M103.978,-147.303C119.013,-158.154 138.315,-172.083 153.298,-182.896"/>
</g>
<!-- &#45;attrs1 -->
<g id="node4" class="node"><title>&#45;attrs1</title>
<polygon fill="none" stroke="gray" points="385,-219 267,-219 267,-183 391,-183 391,-213 385,-219"/>
<polyline fill="none" stroke="gray" points="385,-219 385,-213 "/>
<polyline fill="none" stroke="gray" points="391,-213 385,-213 "/>
<text text-anchor="start" x="277" y="-198" font-family="Times New Roman,serif" font-size="10.00">value:</text>
<text text-anchor="start" x="304" y="-198" font-family="Times New Roman,serif" font-size="10.00">ahio@example.com</text>
</g>
<!-- &#45;attrs1&#45;&gt;http://example.org/String@6a38e57f_0 -->
<g id="edge2" class="edge"><title>&#45;attrs1&#45;&gt;http://example.org/String@6a38e57f_0</title>
<path fill="none" stroke="gray" stroke-dasharray="5,2" d="M323.809,-219.303C320.554,-230.154 316.375,-244.083 313.131,-254.896"/>
</g>
<!-- http://example.org/Boolean@5577140b_0 -->
<g id="node5" class="node"><title>http://example.org/Boolean@5577140b_0</title>
<g id="a_node5"><a xlink:href="http://example.org/Boolean@5577140b_0" xlink:title="Boolean@5577140b_0">
<ellipse fill="#fffc87" stroke="#808080" cx="248" cy="-129" rx="93.6835" ry="18"/>
<text text-anchor="middle" x="248" y="-125.3" font-family="Times New Roman,serif" font-size="14.00">Boolean@5577140b_0</text>
</a>
</g>
</g>
<!-- http://example.org/Boolean@5577140b_0&#45;&gt;http://example.org/validateEmail_1 -->
<g id="edge7" class="edge"><title>http://example.org/Boolean@5577140b_0&#45;&gt;http://example.org/validateEmail_1</title>
<path fill="none" stroke="black" d="M230.813,-146.945C222.134,-155.502 211.445,-166.041 201.886,-175.465"/>
<polygon fill="black" stroke="black" points="199.186,-173.212 194.522,-182.725 204.1,-178.196 199.186,-173.212"/>
<text text-anchor="middle" x="234.592" y="-159.561" font-family="Times New Roman,serif" font-size="8.00">gen</text>
</g>
<!-- http://example.org/Boolean@5577140b_0&#45;&gt;http://example.org/String@6a38e57f_0 -->
<g id="edge8" class="edge"><title>http://example.org/Boolean@5577140b_0&#45;&gt;http://example.org/String@6a38e57f_0</title>
<path fill="none" stroke="black" d="M246.791,-147.258C246.188,-165.846 247.275,-195.865 258,-219 263.061,-229.918 271.266,-240.041 279.578,-248.451"/>
<polygon fill="black" stroke="black" points="277.185,-251.005 286.835,-255.378 282.018,-245.942 277.185,-251.005"/>
<text text-anchor="middle" x="259.623" y="-153.126" font-family="Times New Roman,serif" font-size="8.00">der</text>
</g>
<!-- &#45;attrs2 -->
<g id="node6" class="node"><title>&#45;attrs2</title>
<polygon fill="none" stroke="gray" points="273.5,-75 216.5,-75 216.5,-39 279.5,-39 279.5,-69 273.5,-75"/>
<polyline fill="none" stroke="gray" points="273.5,-75 273.5,-69 "/>
<polyline fill="none" stroke="gray" points="279.5,-69 273.5,-69 "/>
<text text-anchor="start" x="227" y="-54" font-family="Times New Roman,serif" font-size="10.00">value:</text>
<text text-anchor="start" x="254" y="-54" font-family="Times New Roman,serif" font-size="10.00">true</text>
</g>
<!-- &#45;attrs2&#45;&gt;http://example.org/Boolean@5577140b_0 -->
<g id="edge3" class="edge"><title>&#45;attrs2&#45;&gt;http://example.org/Boolean@5577140b_0</title>
<path fill="none" stroke="gray" stroke-dasharray="5,2" d="M248,-75.3034C248,-86.1537 248,-100.083 248,-110.896"/>
</g>
<!-- &#45;attrs3 -->
<g id="node8" class="node"><title>&#45;attrs3</title>
<polygon fill="none" stroke="gray" points="101,-219 17,-219 17,-183 107,-183 107,-213 101,-219"/>
<polyline fill="none" stroke="gray" points="101,-219 101,-213 "/>
<polyline fill="none" stroke="gray" points="107,-213 101,-213 "/>
<text text-anchor="start" x="27" y="-198" font-family="Times New Roman,serif" font-size="10.00">type:</text>
<text text-anchor="start" x="50" y="-198" font-family="Times New Roman,serif" font-size="10.00">u2p:Lifeline</text>
</g>
<!-- &#45;attrs3&#45;&gt;http://example.org/View@825462865 -->
<g id="edge4" class="edge"><title>&#45;attrs3&#45;&gt;http://example.org/View@825462865</title>
<path fill="none" stroke="gray" stroke-dasharray="5,2" d="M74.3596,-219.303C82.9195,-231.287 94.1625,-247.028 102.125,-258.175"/>
</g>
</g>
</svg>
