<?xml version="1.0" encoding="UTF-8" standalone="no"?>
<!DOCTYPE svg PUBLIC "-//W3C//DTD SVG 1.1//EN"
 "http://www.w3.org/Graphics/SVG/1.1/DTD/svg11.dtd">
<!-- Generated by graphviz version 2.38.0 (20140413.2041)
 -->
<!-- Title: PROV Pages: 1 -->
<svg width="360pt" height="459pt"
 viewBox="0.00 0.00 360.00 459.00" xmlns="http://www.w3.org/2000/svg" xmlns:xlink="http://www.w3.org/1999/xlink">
<g id="graph0" class="graph" transform="scale(1 1) rotate(0) translate(4 455)">
<title>PROV</title>
<polygon fill="white" stroke="none" points="-4,4 -4,-455 356,-455 356,4 -4,4"/>
<g id="clust1" class="cluster"><title>clusterhttp://example.org/bundle1</title>
<g id="a_clust1"><a xlink:href="http://example.org/bundle1" xlink:title="bundle1">
<polygon fill="none" stroke="black" points="8,-8 8,-443 344,-443 344,-8 8,-8"/>
<text text-anchor="middle" x="176" y="-15.8" font-family="Times New Roman,serif" font-size="14.00">bundle1</text>
</a>
</g>
</g>
<!-- http://example.org/validateEmail_1 -->
<g id="node1" class="node"><title>http://example.org/validateEmail_1</title>
<g id="a_node1"><a xlink:href="http://example.org/validateEmail_1" xlink:title="validateEmail_1">
<polygon fill="#9fb1fc" stroke="#0000ff" points="300,-219 196,-219 196,-183 300,-183 300,-219"/>
<text text-anchor="middle" x="248" y="-197.3" font-family="Times New Roman,serif" font-size="14.00">validateEmail_1</text>
</a>
</g>
</g>
<!-- http://example.org/View@4141d797_1 -->
<g id="node7" class="node"><title>http://example.org/View@4141d797_1</title>
<g id="a_node7"><a xlink:href="http://example.org/View@4141d797_1" xlink:title="View@4141d797_1">
<ellipse fill="#fffc87" stroke="#808080" cx="119" cy="-273" rx="82.5854" ry="18"/>
<text text-anchor="middle" x="119" y="-269.3" font-family="Times New Roman,serif" font-size="14.00">View@4141d797_1</text>
</a>
</g>
</g>
<!-- http://example.org/validateEmail_1&#45;&gt;http://example.org/View@4141d797_1 -->
<g id="edge11" class="edge"><title>http://example.org/validateEmail_1&#45;&gt;http://example.org/View@4141d797_1</title>
<path fill="none" stroke="black" d="M210.546,-219.124C192.02,-228.637 169.926,-240.558 152.034,-250.672"/>
<polygon fill="black" stroke="black" points="150.049,-247.775 143.102,-255.774 153.521,-253.854 150.049,-247.775"/>
<text text-anchor="middle" x="209.844" y="-232.207" font-family="Times New Roman,serif" font-size="8.00">use</text>
</g>
<!-- &#45;attrs0 -->
<g id="node2" class="node"><title>&#45;attrs0</title>
<polygon fill="none" stroke="gray" points="306.5,-147 199.5,-147 199.5,-111 312.5,-111 312.5,-141 306.5,-147"/>
<polyline fill="none" stroke="gray" points="306.5,-147 306.5,-141 "/>
<polyline fill="none" stroke="gray" points="312.5,-141 306.5,-141 "/>
<text text-anchor="start" x="210" y="-126" font-family="Times New Roman,serif" font-size="10.00">type:</text>
<text text-anchor="start" x="233" y="-126" font-family="Times New Roman,serif" font-size="10.00">u2p:validateEmail</text>
</g>
<!-- &#45;attrs0&#45;&gt;http://example.org/validateEmail_1 -->
<g id="edge1" class="edge"><title>&#45;attrs0&#45;&gt;http://example.org/validateEmail_1</title>
<path fill="none" stroke="gray" stroke-dasharray="5,2" d="M254.022,-147.303C252.782,-158.154 251.19,-172.083 249.955,-182.896"/>
</g>
<!-- http://example.org/View@4141d797_0 -->
<g id="node3" class="node"><title>http://example.org/View@4141d797_0</title>
<g id="a_node3"><a xlink:href="http://example.org/View@4141d797_0" xlink:title="View@4141d797_0">
<ellipse fill="#fffc87" stroke="#808080" cx="197" cy="-345" rx="82.5854" ry="18"/>
<text text-anchor="middle" x="197" y="-341.3" font-family="Times New Roman,serif" font-size="14.00">View@4141d797_0</text>
</a>
</g>
</g>
<!-- http://example.org/View@4141d797 -->
<g id="node9" class="node"><title>http://example.org/View@4141d797</title>
<g id="a_node9"><a xlink:href="http://example.org/View@4141d797" xlink:title="View@4141d797">
<polygon fill="#fdb266" stroke="black" points="242.563,-422.562 152,-435 61.4372,-422.562 61.5217,-402.438 242.478,-402.438 242.563,-422.562"/>
<text text-anchor="middle" x="152" y="-413.3" font-family="Times New Roman,serif" font-size="14.00">View@4141d797</text>
</a>
</g>
</g>
<!-- http://example.org/View@4141d797_0&#45;&gt;http://example.org/View@4141d797 -->
<g id="edge6" class="edge"><title>http://example.org/View@4141d797_0&#45;&gt;http://example.org/View@4141d797</title>
<path fill="none" stroke="black" d="M186.107,-362.945C180.212,-372.115 172.853,-383.561 166.482,-393.473"/>
<polygon fill="black" stroke="black" points="163.442,-391.73 160.978,-402.034 169.33,-395.515 163.442,-391.73"/>
<text text-anchor="middle" x="192.978" y="-374.379" font-family="Times New Roman,serif" font-size="8.00">att</text>
</g>
<!-- &#45;attrs1 -->
<g id="node4" class="node"><title>&#45;attrs1</title>
<polygon fill="none" stroke="gray" points="330,-291 220,-291 220,-255 336,-255 336,-285 330,-291"/>
<polyline fill="none" stroke="gray" points="330,-291 330,-285 "/>
<polyline fill="none" stroke="gray" points="336,-285 330,-285 "/>
<text text-anchor="start" x="230" y="-270" font-family="Times New Roman,serif" font-size="10.00">type:</text>
<text text-anchor="start" x="253" y="-270" font-family="Times New Roman,serif" font-size="10.00">u2p:StateMachine</text>
</g>
<!-- &#45;attrs1&#45;&gt;http://example.org/View@4141d797_0 -->
<g id="edge2" class="edge"><title>&#45;attrs1&#45;&gt;http://example.org/View@4141d797_0</title>
<path fill="none" stroke="gray" stroke-dasharray="5,2" d="M257.978,-291.303C245.235,-302.316 228.822,-316.5 216.234,-327.378"/>
</g>
<!-- http://example.org/View@4141d797_2 -->
<g id="node5" class="node"><title>http://example.org/View@4141d797_2</title>
<g id="a_node5"><a xlink:href="http://example.org/View@4141d797_2" xlink:title="View@4141d797_2">
<ellipse fill="#fffc87" stroke="#808080" cx="99" cy="-129" rx="82.5854" ry="18"/>
<text text-anchor="middle" x="99" y="-125.3" font-family="Times New Roman,serif" font-size="14.00">View@4141d797_2</text>
</a>
</g>
</g>
<!-- http://example.org/View@4141d797_2&#45;&gt;http://example.org/validateEmail_1 -->
<g id="edge8" class="edge"><title>http://example.org/View@4141d797_2&#45;&gt;http://example.org/validateEmail_1</title>
<path fill="none" stroke="black" d="M132.068,-145.535C152.79,-155.271 179.783,-167.952 202.508,-178.628"/>
<polygon fill="black" stroke="black" points="201.092,-181.83 211.631,-182.914 204.068,-175.494 201.092,-181.83"/>
<text text-anchor="middle" x="144.38" y="-135.067" font-family="Times New Roman,serif" font-size="8.00">gen</text>
</g>
<!-- http://example.org/View@4141d797_2&#45;&gt;http://example.org/View@4141d797_0 -->
<g id="edge7" class="edge"><title>http://example.org/View@4141d797_2&#45;&gt;http://example.org/View@4141d797_0</title>
<path fill="none" stroke="black" d="M75.936,-146.454C64.3657,-155.883 51.1209,-168.677 43,-183 19.0669,-225.211 -1.75557,-251.914 27,-291 39.2282,-307.621 84.9295,-321.319 125.869,-330.624"/>
<polygon fill="black" stroke="black" points="125.358,-334.095 135.877,-332.835 126.868,-327.26 125.358,-334.095"/>
<text text-anchor="middle" x="78.4878" y="-159.336" font-family="Times New Roman,serif" font-size="8.00">spe</text>
</g>
<!-- http://example.org/View@4141d797_2&#45;&gt;http://example.org/View@4141d797_1 -->
<g id="edge9" class="edge"><title>http://example.org/View@4141d797_2&#45;&gt;http://example.org/View@4141d797_1</title>
<path fill="none" stroke="black" d="M78.0421,-146.515C67.788,-155.961 56.4927,-168.753 51,-183 45.2445,-197.929 43.9777,-204.623 51,-219 57.1772,-231.646 67.9908,-242.153 79.2015,-250.386"/>
<polygon fill="black" stroke="black" points="77.5475,-253.494 87.7815,-256.236 81.4909,-247.711 77.5475,-253.494"/>
<text text-anchor="middle" x="81.5186" y="-159.207" font-family="Times New Roman,serif" font-size="8.00">der</text>
</g>
<!-- &#45;attrs2 -->
<g id="node6" class="node"><title>&#45;attrs2</title>
<polygon fill="none" stroke="gray" points="144.5,-75 47.5,-75 47.5,-39 150.5,-39 150.5,-69 144.5,-75"/>
<polyline fill="none" stroke="gray" points="144.5,-75 144.5,-69 "/>
<polyline fill="none" stroke="gray" points="150.5,-69 144.5,-69 "/>
<text text-anchor="start" x="58" y="-61" font-family="Times New Roman,serif" font-size="10.00">type:</text>
<text text-anchor="start" x="82" y="-61" font-family="Times New Roman,serif" font-size="10.00">u2p:View</text>
<text text-anchor="start" x="58" y="-48" font-family="Times New Roman,serif" font-size="10.00">state:</text>
<text text-anchor="start" x="82" y="-48" font-family="Times New Roman,serif" font-size="10.00">u2p:ValidEmail</text>
</g>
<!-- &#45;attrs2&#45;&gt;http://example.org/View@4141d797_2 -->
<g id="edge3" class="edge"><title>&#45;attrs2&#45;&gt;http://example.org/View@4141d797_2</title>
<path fill="none" stroke="gray" stroke-dasharray="5,2" d="M99,-75.3034C99,-86.1537 99,-100.083 99,-110.896"/>
</g>
<!-- http://example.org/View@4141d797_1&#45;&gt;http://example.org/validateEmail_1 -->
<g id="edge10" class="edge"><title>http://example.org/View@4141d797_1&#45;&gt;http://example.org/validateEmail_1</title>
<path fill="none" stroke="black" d="M164.195,-250.87C180.409,-242.416 198.385,-232.675 213.554,-224.125"/>
<polygon fill="none" stroke="black" points="163.973,-250.984 160.474,-257.29 153.308,-256.486 156.807,-250.18 163.973,-250.984"/>
<polygon fill="black" stroke="black" points="215.38,-227.112 222.34,-219.124 211.918,-221.029 215.38,-227.112"/>
<text text-anchor="middle" x="154.018" y="-239.603" font-family="Times New Roman,serif" font-size="8.00">inv</text>
</g>
<!-- http://example.org/View@4141d797_1&#45;&gt;http://example.org/View@4141d797_0 -->
<g id="edge12" class="edge"><title>http://example.org/View@4141d797_1&#45;&gt;http://example.org/View@4141d797_0</title>
<path fill="none" stroke="black" d="M137.485,-290.589C147.418,-299.503 159.833,-310.645 170.75,-320.442"/>
<polygon fill="black" stroke="black" points="168.597,-323.213 178.377,-327.287 173.273,-318.003 168.597,-323.213"/>
<text text-anchor="middle" x="151.743" y="-284.03" font-family="Times New Roman,serif" font-size="8.00">spe</text>
</g>
<!-- &#45;attrs3 -->
<g id="node8" class="node"><title>&#45;attrs3</title>
<polygon fill="none" stroke="gray" points="172,-219 60,-219 60,-183 178,-183 178,-213 172,-219"/>
<polyline fill="none" stroke="gray" points="172,-219 172,-213 "/>
<polyline fill="none" stroke="gray" points="178,-213 172,-213 "/>
<text text-anchor="start" x="70" y="-205" font-family="Times New Roman,serif" font-size="10.00">type:</text>
<text text-anchor="start" x="94" y="-205" font-family="Times New Roman,serif" font-size="10.00">u2p:View</text>
<text text-anchor="start" x="70" y="-192" font-family="Times New Roman,serif" font-size="10.00">state:</text>
<text text-anchor="start" x="94" y="-192" font-family="Times New Roman,serif" font-size="10.00">u2p:NotValidEmail</text>
</g>
<!-- &#45;attrs3&#45;&gt;http://example.org/View@4141d797_1 -->
<g id="edge4" class="edge"><title>&#45;attrs3&#45;&gt;http://example.org/View@4141d797_1</title>
<path fill="none" stroke="gray" stroke-dasharray="5,2" d="M119,-219.303C119,-230.154 119,-244.083 119,-254.896"/>
</g>
<!-- &#45;attrs4 -->
<g id="node10" class="node"><title>&#45;attrs4</title>
<polygon fill="none" stroke="gray" points="90,-363 16,-363 16,-327 96,-327 96,-357 90,-363"/>
<polyline fill="none" stroke="gray" points="90,-363 90,-357 "/>
<polyline fill="none" stroke="gray" points="96,-357 90,-357 "/>
<text text-anchor="start" x="26" y="-342" font-family="Times New Roman,serif" font-size="10.00">type:</text>
<text text-anchor="start" x="49" y="-342" font-family="Times New Roman,serif" font-size="10.00">u2p:View</text>
</g>
<!-- &#45;attrs4&#45;&gt;http://example.org/View@4141d797 -->
<g id="edge5" class="edge"><title>&#45;attrs4&#45;&gt;http://example.org/View@4141d797</title>
<path fill="none" stroke="gray" stroke-dasharray="5,2" d="M79.7303,-363.303C96.2765,-375.368 118.044,-391.24 133.35,-402.401"/>
</g>
</g>
</svg>
