<?xml version="1.0" encoding="UTF-8" standalone="no"?>
<!DOCTYPE svg PUBLIC "-//W3C//DTD SVG 1.1//EN"
 "http://www.w3.org/Graphics/SVG/1.1/DTD/svg11.dtd">
<!-- Generated by graphviz version 2.38.0 (20140413.2041)
 -->
<!-- Title: PROV Pages: 1 -->
<svg width="452pt" height="243pt"
 viewBox="0.00 0.00 452.00 243.00" xmlns="http://www.w3.org/2000/svg" xmlns:xlink="http://www.w3.org/1999/xlink">
<g id="graph0" class="graph" transform="scale(1 1) rotate(0) translate(4 239)">
<title>PROV</title>
<polygon fill="white" stroke="none" points="-4,4 -4,-239 448,-239 448,4 -4,4"/>
<g id="clust1" class="cluster"><title>clusterhttp://example.org/bundle1</title>
<g id="a_clust1"><a xlink:href="http://example.org/bundle1" xlink:title="bundle1">
<polygon fill="none" stroke="black" points="8,-8 8,-227 436,-227 436,-8 8,-8"/>
<text text-anchor="middle" x="222" y="-15.8" font-family="Times New Roman,serif" font-size="14.00">bundle1</text>
</a>
</g>
</g>
<!-- http://example.org/atFloor_1 -->
<g id="node1" class="node"><title>http://example.org/atFloor_1</title>
<g id="a_node1"><a xlink:href="http://example.org/atFloor_1" xlink:title="atFloor_1">
<polygon fill="#9fb1fc" stroke="#0000ff" points="304.5,-147 233.5,-147 233.5,-111 304.5,-111 304.5,-147"/>
<text text-anchor="middle" x="269" y="-125.3" font-family="Times New Roman,serif" font-size="14.00">atFloor_1</text>
</a>
</g>
</g>
<!-- http://example.org/dataset.caseStudy.CS5ElevatorBis.Drive@ -->
<g id="node3" class="node"><title>http://example.org/dataset.caseStudy.CS5ElevatorBis.Drive@</title>
<g id="a_node3"><a xlink:href="http://example.org/dataset.caseStudy.CS5ElevatorBis.Drive@" xlink:title="dataset.caseStudy.CS5ElevatorBis.Drive@">
<polygon fill="#fdb266" stroke="black" points="427.827,-206.562 222,-219 16.1729,-206.562 16.3651,-186.438 427.635,-186.438 427.827,-206.562"/>
<text text-anchor="middle" x="222" y="-197.3" font-family="Times New Roman,serif" font-size="14.00">dataset.caseStudy.CS5ElevatorBis.Drive@</text>
</a>
</g>
</g>
<!-- http://example.org/atFloor_1&#45;&gt;http://example.org/dataset.caseStudy.CS5ElevatorBis.Drive@ -->
<g id="edge3" class="edge"><title>http://example.org/atFloor_1&#45;&gt;http://example.org/dataset.caseStudy.CS5ElevatorBis.Drive@</title>
<path fill="none" stroke="black" d="M257.382,-147.303C251.222,-156.479 243.583,-167.856 236.981,-177.688"/>
<polygon fill="black" stroke="black" points="233.951,-175.922 231.282,-186.175 239.762,-179.824 233.951,-175.922"/>
<text text-anchor="middle" x="263.986" y="-158.871" font-family="Times New Roman,serif" font-size="8.00">assoc</text>
</g>
<!-- &#45;attrs0 -->
<g id="node2" class="node"><title>&#45;attrs0</title>
<polygon fill="none" stroke="gray" points="307.5,-75 224.5,-75 224.5,-39 313.5,-39 313.5,-69 307.5,-75"/>
<polyline fill="none" stroke="gray" points="307.5,-75 307.5,-69 "/>
<polyline fill="none" stroke="gray" points="313.5,-69 307.5,-69 "/>
<text text-anchor="start" x="235" y="-54" font-family="Times New Roman,serif" font-size="10.00">type:</text>
<text text-anchor="start" x="258" y="-54" font-family="Times New Roman,serif" font-size="10.00">u2p:atFloor</text>
</g>
<!-- &#45;attrs0&#45;&gt;http://example.org/atFloor_1 -->
<g id="edge1" class="edge"><title>&#45;attrs0&#45;&gt;http://example.org/atFloor_1</title>
<path fill="none" stroke="gray" stroke-dasharray="5,2" d="M269,-75.3034C269,-86.1537 269,-100.083 269,-110.896"/>
</g>
<!-- &#45;attrs1 -->
<g id="node4" class="node"><title>&#45;attrs1</title>
<polygon fill="none" stroke="gray" points="209.5,-147 132.5,-147 132.5,-111 215.5,-111 215.5,-141 209.5,-147"/>
<polyline fill="none" stroke="gray" points="209.5,-147 209.5,-141 "/>
<polyline fill="none" stroke="gray" points="215.5,-141 209.5,-141 "/>
<text text-anchor="start" x="143" y="-126" font-family="Times New Roman,serif" font-size="10.00">type:</text>
<text text-anchor="start" x="166" y="-126" font-family="Times New Roman,serif" font-size="10.00">u2p:Drive</text>
</g>
<!-- &#45;attrs1&#45;&gt;http://example.org/dataset.caseStudy.CS5ElevatorBis.Drive@ -->
<g id="edge2" class="edge"><title>&#45;attrs1&#45;&gt;http://example.org/dataset.caseStudy.CS5ElevatorBis.Drive@</title>
<path fill="none" stroke="gray" stroke-dasharray="5,2" d="M185.865,-147.303C194.083,-159.287 204.876,-175.028 212.52,-186.175"/>
</g>
</g>
</svg>
