<?xml version="1.0" encoding="UTF-8" standalone="no"?>
<!DOCTYPE svg PUBLIC "-//W3C//DTD SVG 1.1//EN"
 "http://www.w3.org/Graphics/SVG/1.1/DTD/svg11.dtd">
<!-- Generated by graphviz version 2.38.0 (20140413.2041)
 -->
<!-- Title: PROV Pages: 1 -->
<svg width="416pt" height="459pt"
 viewBox="0.00 0.00 416.00 459.00" xmlns="http://www.w3.org/2000/svg" xmlns:xlink="http://www.w3.org/1999/xlink">
<g id="graph0" class="graph" transform="scale(1 1) rotate(0) translate(4 455)">
<title>PROV</title>
<polygon fill="white" stroke="none" points="-4,4 -4,-455 412,-455 412,4 -4,4"/>
<g id="clust1" class="cluster"><title>clusterhttp://example.org/bundle1</title>
<g id="a_clust1"><a xlink:href="http://example.org/bundle1" xlink:title="bundle1">
<polygon fill="none" stroke="black" points="8,-8 8,-443 400,-443 400,-8 8,-8"/>
<text text-anchor="middle" x="204" y="-15.8" font-family="Times New Roman,serif" font-size="14.00">bundle1</text>
</a>
</g>
</g>
<!-- http://example.org/desiredFloor_1 -->
<g id="node1" class="node"><title>http://example.org/desiredFloor_1</title>
<g id="a_node1"><a xlink:href="http://example.org/desiredFloor_1" xlink:title="desiredFloor_1">
<polygon fill="#9fb1fc" stroke="#0000ff" points="324,-219 222,-219 222,-183 324,-183 324,-219"/>
<text text-anchor="middle" x="273" y="-197.3" font-family="Times New Roman,serif" font-size="14.00">desiredFloor_1</text>
</a>
</g>
</g>
<!-- http://example.org/DriveControl@6d00a15d_2 -->
<g id="node7" class="node"><title>http://example.org/DriveControl@6d00a15d_2</title>
<g id="a_node7"><a xlink:href="http://example.org/DriveControl@6d00a15d_2" xlink:title="DriveControl@6d00a15d_2">
<ellipse fill="#fffc87" stroke="#808080" cx="147" cy="-273" rx="111.28" ry="18"/>
<text text-anchor="middle" x="147" y="-269.3" font-family="Times New Roman,serif" font-size="14.00">DriveControl@6d00a15d_2</text>
</a>
</g>
</g>
<!-- http://example.org/desiredFloor_1&#45;&gt;http://example.org/DriveControl@6d00a15d_2 -->
<g id="edge11" class="edge"><title>http://example.org/desiredFloor_1&#45;&gt;http://example.org/DriveControl@6d00a15d_2</title>
<path fill="none" stroke="black" d="M236.28,-219.124C218.424,-228.499 197.203,-240.213 179.882,-250.231"/>
<polygon fill="black" stroke="black" points="178.086,-247.227 171.217,-255.294 181.617,-253.271 178.086,-247.227"/>
<text text-anchor="middle" x="235.715" y="-232.213" font-family="Times New Roman,serif" font-size="8.00">use</text>
</g>
<!-- &#45;attrs0 -->
<g id="node2" class="node"><title>&#45;attrs0</title>
<polygon fill="none" stroke="gray" points="361.5,-147 256.5,-147 256.5,-111 367.5,-111 367.5,-141 361.5,-147"/>
<polyline fill="none" stroke="gray" points="361.5,-147 361.5,-141 "/>
<polyline fill="none" stroke="gray" points="367.5,-141 361.5,-141 "/>
<text text-anchor="start" x="267" y="-126" font-family="Times New Roman,serif" font-size="10.00">type:</text>
<text text-anchor="start" x="290" y="-126" font-family="Times New Roman,serif" font-size="10.00">u2p:desiredFloor</text>
</g>
<!-- &#45;attrs0&#45;&gt;http://example.org/desiredFloor_1 -->
<g id="edge1" class="edge"><title>&#45;attrs0&#45;&gt;http://example.org/desiredFloor_1</title>
<path fill="none" stroke="gray" stroke-dasharray="5,2" d="M302.36,-147.303C296.314,-158.154 288.554,-172.083 282.53,-182.896"/>
</g>
<!-- http://example.org/DriveControl@6d00a15d_0 -->
<g id="node3" class="node"><title>http://example.org/DriveControl@6d00a15d_0</title>
<g id="a_node3"><a xlink:href="http://example.org/DriveControl@6d00a15d_0" xlink:title="DriveControl@6d00a15d_0">
<ellipse fill="#fffc87" stroke="#808080" cx="259" cy="-345" rx="111.28" ry="18"/>
<text text-anchor="middle" x="259" y="-341.3" font-family="Times New Roman,serif" font-size="14.00">DriveControl@6d00a15d_0</text>
</a>
</g>
</g>
<!-- http://example.org/DriveControl@6d00a15d -->
<g id="node9" class="node"><title>http://example.org/DriveControl@6d00a15d</title>
<g id="a_node9"><a xlink:href="http://example.org/DriveControl@6d00a15d" xlink:title="DriveControl@6d00a15d">
<polygon fill="#fdb266" stroke="black" points="326.259,-422.562 200,-435 73.7408,-422.562 73.8586,-402.438 326.141,-402.438 326.259,-422.562"/>
<text text-anchor="middle" x="200" y="-413.3" font-family="Times New Roman,serif" font-size="14.00">DriveControl@6d00a15d</text>
</a>
</g>
</g>
<!-- http://example.org/DriveControl@6d00a15d_0&#45;&gt;http://example.org/DriveControl@6d00a15d -->
<g id="edge6" class="edge"><title>http://example.org/DriveControl@6d00a15d_0&#45;&gt;http://example.org/DriveControl@6d00a15d</title>
<path fill="none" stroke="black" d="M244.718,-362.945C236.752,-372.396 226.749,-384.264 218.224,-394.379"/>
<polygon fill="black" stroke="black" points="215.54,-392.132 211.771,-402.034 220.892,-396.644 215.54,-392.132"/>
<text text-anchor="middle" x="249.817" y="-375.152" font-family="Times New Roman,serif" font-size="8.00">att</text>
</g>
<!-- &#45;attrs1 -->
<g id="node4" class="node"><title>&#45;attrs1</title>
<polygon fill="none" stroke="gray" points="386,-291 276,-291 276,-255 392,-255 392,-285 386,-291"/>
<polyline fill="none" stroke="gray" points="386,-291 386,-285 "/>
<polyline fill="none" stroke="gray" points="392,-285 386,-285 "/>
<text text-anchor="start" x="286" y="-270" font-family="Times New Roman,serif" font-size="10.00">type:</text>
<text text-anchor="start" x="309" y="-270" font-family="Times New Roman,serif" font-size="10.00">u2p:StateMachine</text>
</g>
<!-- &#45;attrs1&#45;&gt;http://example.org/DriveControl@6d00a15d_0 -->
<g id="edge2" class="edge"><title>&#45;attrs1&#45;&gt;http://example.org/DriveControl@6d00a15d_0</title>
<path fill="none" stroke="gray" stroke-dasharray="5,2" d="M315.461,-291.303C303.749,-302.235 288.688,-316.291 277.067,-327.137"/>
</g>
<!-- http://example.org/DriveControl@6d00a15d_3 -->
<g id="node5" class="node"><title>http://example.org/DriveControl@6d00a15d_3</title>
<g id="a_node5"><a xlink:href="http://example.org/DriveControl@6d00a15d_3" xlink:title="DriveControl@6d00a15d_3">
<ellipse fill="#fffc87" stroke="#808080" cx="127" cy="-129" rx="111.28" ry="18"/>
<text text-anchor="middle" x="127" y="-125.3" font-family="Times New Roman,serif" font-size="14.00">DriveControl@6d00a15d_3</text>
</a>
</g>
</g>
<!-- http://example.org/DriveControl@6d00a15d_3&#45;&gt;http://example.org/desiredFloor_1 -->
<g id="edge8" class="edge"><title>http://example.org/DriveControl@6d00a15d_3&#45;&gt;http://example.org/desiredFloor_1</title>
<path fill="none" stroke="black" d="M160.862,-146.235C180.985,-155.883 206.74,-168.231 228.492,-178.661"/>
<polygon fill="black" stroke="black" points="227.011,-181.832 237.541,-182.999 230.037,-175.52 227.011,-181.832"/>
<text text-anchor="middle" x="173.241" y="-135.864" font-family="Times New Roman,serif" font-size="8.00">gen</text>
</g>
<!-- http://example.org/DriveControl@6d00a15d_3&#45;&gt;http://example.org/DriveControl@6d00a15d_0 -->
<g id="edge7" class="edge"><title>http://example.org/DriveControl@6d00a15d_3&#45;&gt;http://example.org/DriveControl@6d00a15d_0</title>
<path fill="none" stroke="black" d="M103.036,-146.6C62.378,-176.767 -12.0772,-241.989 27,-291 36.4891,-302.901 111.932,-318.663 174.251,-329.898"/>
<polygon fill="black" stroke="black" points="173.669,-333.349 184.128,-331.66 174.899,-326.458 173.669,-333.349"/>
<text text-anchor="middle" x="105.013" y="-159.57" font-family="Times New Roman,serif" font-size="8.00">spe</text>
</g>
<!-- http://example.org/DriveControl@6d00a15d_3&#45;&gt;http://example.org/DriveControl@6d00a15d_2 -->
<g id="edge9" class="edge"><title>http://example.org/DriveControl@6d00a15d_3&#45;&gt;http://example.org/DriveControl@6d00a15d_2</title>
<path fill="none" stroke="black" d="M106.658,-146.916C96.891,-156.385 86.2001,-169.075 81,-183 75.4025,-197.989 74.0823,-204.573 81,-219 86.8732,-231.249 97.1102,-241.562 107.794,-249.741"/>
<polygon fill="black" stroke="black" points="105.81,-252.625 115.986,-255.576 109.871,-246.923 105.81,-252.625"/>
<text text-anchor="middle" x="110.501" y="-159.516" font-family="Times New Roman,serif" font-size="8.00">der</text>
</g>
<!-- &#45;attrs2 -->
<g id="node6" class="node"><title>&#45;attrs2</title>
<polygon fill="none" stroke="gray" points="178,-75 70,-75 70,-39 184,-39 184,-69 178,-75"/>
<polyline fill="none" stroke="gray" points="178,-75 178,-69 "/>
<polyline fill="none" stroke="gray" points="184,-69 178,-69 "/>
<text text-anchor="start" x="80" y="-61" font-family="Times New Roman,serif" font-size="10.00">type:</text>
<text text-anchor="start" x="104" y="-61" font-family="Times New Roman,serif" font-size="10.00">u2p:DriveControl</text>
<text text-anchor="start" x="80" y="-48" font-family="Times New Roman,serif" font-size="10.00">state:</text>
<text text-anchor="start" x="104" y="-48" font-family="Times New Roman,serif" font-size="10.00">u2p:Moving</text>
</g>
<!-- &#45;attrs2&#45;&gt;http://example.org/DriveControl@6d00a15d_3 -->
<g id="edge3" class="edge"><title>&#45;attrs2&#45;&gt;http://example.org/DriveControl@6d00a15d_3</title>
<path fill="none" stroke="gray" stroke-dasharray="5,2" d="M127,-75.3034C127,-86.1537 127,-100.083 127,-110.896"/>
</g>
<!-- http://example.org/DriveControl@6d00a15d_2&#45;&gt;http://example.org/desiredFloor_1 -->
<g id="edge10" class="edge"><title>http://example.org/DriveControl@6d00a15d_2&#45;&gt;http://example.org/desiredFloor_1</title>
<path fill="none" stroke="black" d="M192.857,-250.033C208.185,-241.835 224.953,-232.523 239.206,-224.296"/>
<polygon fill="none" stroke="black" points="192.613,-250.162 189.18,-256.504 182.006,-255.774 185.438,-249.433 192.613,-250.162"/>
<polygon fill="black" stroke="black" points="241.199,-227.185 248.074,-219.124 237.672,-221.138 241.199,-227.185"/>
<text text-anchor="middle" x="182.56" y="-238.885" font-family="Times New Roman,serif" font-size="8.00">inv</text>
</g>
<!-- http://example.org/DriveControl@6d00a15d_2&#45;&gt;http://example.org/DriveControl@6d00a15d_0 -->
<g id="edge12" class="edge"><title>http://example.org/DriveControl@6d00a15d_2&#45;&gt;http://example.org/DriveControl@6d00a15d_0</title>
<path fill="none" stroke="black" d="M173.542,-290.589C188.497,-299.936 207.37,-311.732 223.574,-321.859"/>
<polygon fill="black" stroke="black" points="221.925,-324.955 232.26,-327.287 225.635,-319.019 221.925,-324.955"/>
<text text-anchor="middle" x="186.787" y="-281.648" font-family="Times New Roman,serif" font-size="8.00">spe</text>
</g>
<!-- &#45;attrs3 -->
<g id="node8" class="node"><title>&#45;attrs3</title>
<polygon fill="none" stroke="gray" points="198,-219 90,-219 90,-183 204,-183 204,-213 198,-219"/>
<polyline fill="none" stroke="gray" points="198,-219 198,-213 "/>
<polyline fill="none" stroke="gray" points="204,-213 198,-213 "/>
<text text-anchor="start" x="100" y="-205" font-family="Times New Roman,serif" font-size="10.00">type:</text>
<text text-anchor="start" x="124" y="-205" font-family="Times New Roman,serif" font-size="10.00">u2p:DriveControl</text>
<text text-anchor="start" x="100" y="-192" font-family="Times New Roman,serif" font-size="10.00">state:</text>
<text text-anchor="start" x="124" y="-192" font-family="Times New Roman,serif" font-size="10.00">u2p:Stopped</text>
</g>
<!-- &#45;attrs3&#45;&gt;http://example.org/DriveControl@6d00a15d_2 -->
<g id="edge4" class="edge"><title>&#45;attrs3&#45;&gt;http://example.org/DriveControl@6d00a15d_2</title>
<path fill="none" stroke="gray" stroke-dasharray="5,2" d="M147,-219.303C147,-230.154 147,-244.083 147,-254.896"/>
</g>
<!-- &#45;attrs4 -->
<g id="node10" class="node"><title>&#45;attrs4</title>
<polygon fill="none" stroke="gray" points="123.5,-363 16.5,-363 16.5,-327 129.5,-327 129.5,-357 123.5,-363"/>
<polyline fill="none" stroke="gray" points="123.5,-363 123.5,-357 "/>
<polyline fill="none" stroke="gray" points="129.5,-357 123.5,-357 "/>
<text text-anchor="start" x="27" y="-342" font-family="Times New Roman,serif" font-size="10.00">type:</text>
<text text-anchor="start" x="50" y="-342" font-family="Times New Roman,serif" font-size="10.00">u2p:DriveControl</text>
</g>
<!-- &#45;attrs4&#45;&gt;http://example.org/DriveControl@6d00a15d -->
<g id="edge5" class="edge"><title>&#45;attrs4&#45;&gt;http://example.org/DriveControl@6d00a15d</title>
<path fill="none" stroke="gray" stroke-dasharray="5,2" d="M104.068,-363.124C125.951,-375.186 154.859,-391.119 175.201,-402.331"/>
</g>
</g>
</svg>
