<?xml version="1.0" encoding="UTF-8" standalone="no"?>
<!DOCTYPE svg PUBLIC "-//W3C//DTD SVG 1.1//EN"
 "http://www.w3.org/Graphics/SVG/1.1/DTD/svg11.dtd">
<!-- Generated by graphviz version 2.38.0 (20140413.2041)
 -->
<!-- Title: PROV Pages: 1 -->
<svg width="500pt" height="243pt"
 viewBox="0.00 0.00 500.00 243.00" xmlns="http://www.w3.org/2000/svg" xmlns:xlink="http://www.w3.org/1999/xlink">
<g id="graph0" class="graph" transform="scale(1 1) rotate(0) translate(4 239)">
<title>PROV</title>
<polygon fill="white" stroke="none" points="-4,4 -4,-239 496,-239 496,4 -4,4"/>
<g id="clust1" class="cluster"><title>clusterhttp://example.org/bundle1</title>
<g id="a_clust1"><a xlink:href="http://example.org/bundle1" xlink:title="bundle1">
<polygon fill="none" stroke="black" points="8,-8 8,-227 484,-227 484,-8 8,-8"/>
<text text-anchor="middle" x="246" y="-15.8" font-family="Times New Roman,serif" font-size="14.00">bundle1</text>
</a>
</g>
</g>
<!-- http://example.org/desiredFloor_1 -->
<g id="node1" class="node"><title>http://example.org/desiredFloor_1</title>
<g id="a_node1"><a xlink:href="http://example.org/desiredFloor_1" xlink:title="desiredFloor_1">
<polygon fill="#9fb1fc" stroke="#0000ff" points="357,-147 255,-147 255,-111 357,-111 357,-147"/>
<text text-anchor="middle" x="306" y="-125.3" font-family="Times New Roman,serif" font-size="14.00">desiredFloor_1</text>
</a>
</g>
</g>
<!-- http://example.org/dataset.caseStudy.CS5ElevatorBis.Dispatcher@ -->
<g id="node3" class="node"><title>http://example.org/dataset.caseStudy.CS5ElevatorBis.Dispatcher@</title>
<g id="a_node3"><a xlink:href="http://example.org/dataset.caseStudy.CS5ElevatorBis.Dispatcher@" xlink:title="dataset.caseStudy.CS5ElevatorBis.Dispatcher@">
<polygon fill="#fdb266" stroke="black" points="475.53,-206.562 246,-219 16.4705,-206.562 16.6847,-186.438 475.315,-186.438 475.53,-206.562"/>
<text text-anchor="middle" x="246" y="-197.3" font-family="Times New Roman,serif" font-size="14.00">dataset.caseStudy.CS5ElevatorBis.Dispatcher@</text>
</a>
</g>
</g>
<!-- http://example.org/desiredFloor_1&#45;&gt;http://example.org/dataset.caseStudy.CS5ElevatorBis.Dispatcher@ -->
<g id="edge3" class="edge"><title>http://example.org/desiredFloor_1&#45;&gt;http://example.org/dataset.caseStudy.CS5ElevatorBis.Dispatcher@</title>
<path fill="none" stroke="black" d="M291.169,-147.303C283.144,-156.666 273.153,-168.321 264.61,-178.288"/>
<polygon fill="black" stroke="black" points="261.7,-176.305 257.85,-186.175 267.015,-180.861 261.7,-176.305"/>
<text text-anchor="middle" x="296.151" y="-159.552" font-family="Times New Roman,serif" font-size="8.00">assoc</text>
</g>
<!-- &#45;attrs0 -->
<g id="node2" class="node"><title>&#45;attrs0</title>
<polygon fill="none" stroke="gray" points="355.5,-75 250.5,-75 250.5,-39 361.5,-39 361.5,-69 355.5,-75"/>
<polyline fill="none" stroke="gray" points="355.5,-75 355.5,-69 "/>
<polyline fill="none" stroke="gray" points="361.5,-69 355.5,-69 "/>
<text text-anchor="start" x="261" y="-54" font-family="Times New Roman,serif" font-size="10.00">type:</text>
<text text-anchor="start" x="284" y="-54" font-family="Times New Roman,serif" font-size="10.00">u2p:desiredFloor</text>
</g>
<!-- &#45;attrs0&#45;&gt;http://example.org/desiredFloor_1 -->
<g id="edge1" class="edge"><title>&#45;attrs0&#45;&gt;http://example.org/desiredFloor_1</title>
<path fill="none" stroke="gray" stroke-dasharray="5,2" d="M306,-75.3034C306,-86.1537 306,-100.083 306,-110.896"/>
</g>
<!-- &#45;attrs1 -->
<g id="node4" class="node"><title>&#45;attrs1</title>
<polygon fill="none" stroke="gray" points="231,-147 133,-147 133,-111 237,-111 237,-141 231,-147"/>
<polyline fill="none" stroke="gray" points="231,-147 231,-141 "/>
<polyline fill="none" stroke="gray" points="237,-141 231,-141 "/>
<text text-anchor="start" x="143" y="-126" font-family="Times New Roman,serif" font-size="10.00">type:</text>
<text text-anchor="start" x="166" y="-126" font-family="Times New Roman,serif" font-size="10.00">u2p:Dispatcher</text>
</g>
<!-- &#45;attrs1&#45;&gt;http://example.org/dataset.caseStudy.CS5ElevatorBis.Dispatcher@ -->
<g id="edge2" class="edge"><title>&#45;attrs1&#45;&gt;http://example.org/dataset.caseStudy.CS5ElevatorBis.Dispatcher@</title>
<path fill="none" stroke="gray" stroke-dasharray="5,2" d="M200.079,-147.303C210.522,-159.287 224.238,-175.028 233.953,-186.175"/>
</g>
</g>
</svg>
