<?xml version="1.0" encoding="UTF-8" standalone="no"?>
<!DOCTYPE svg PUBLIC "-//W3C//DTD SVG 1.1//EN"
 "http://www.w3.org/Graphics/SVG/1.1/DTD/svg11.dtd">
<!-- Generated by graphviz version 2.38.0 (20140413.2041)
 -->
<!-- Title: PROV Pages: 1 -->
<svg width="461pt" height="459pt"
 viewBox="0.00 0.00 461.00 459.00" xmlns="http://www.w3.org/2000/svg" xmlns:xlink="http://www.w3.org/1999/xlink">
<g id="graph0" class="graph" transform="scale(1 1) rotate(0) translate(4 455)">
<title>PROV</title>
<polygon fill="white" stroke="none" points="-4,4 -4,-455 457,-455 457,4 -4,4"/>
<g id="clust1" class="cluster"><title>clusterhttp://example.org/bundle1</title>
<g id="a_clust1"><a xlink:href="http://example.org/bundle1" xlink:title="bundle1">
<polygon fill="none" stroke="black" points="8,-8 8,-443 445,-443 445,-8 8,-8"/>
<text text-anchor="middle" x="226.5" y="-15.8" font-family="Times New Roman,serif" font-size="14.00">bundle1</text>
</a>
</g>
</g>
<!-- http://example.org/doorOpened_1 -->
<g id="node1" class="node"><title>http://example.org/doorOpened_1</title>
<g id="a_node1"><a xlink:href="http://example.org/doorOpened_1" xlink:title="doorOpened_1">
<polygon fill="#9fb1fc" stroke="#0000ff" points="359,-219 257,-219 257,-183 359,-183 359,-219"/>
<text text-anchor="middle" x="308" y="-197.3" font-family="Times New Roman,serif" font-size="14.00">doorOpened_1</text>
</a>
</g>
</g>
<!-- http://example.org/CarPositionControl@100fc185_1 -->
<g id="node7" class="node"><title>http://example.org/CarPositionControl@100fc185_1</title>
<g id="a_node7"><a xlink:href="http://example.org/CarPositionControl@100fc185_1" xlink:title="CarPositionControl@100fc185_1">
<ellipse fill="#fffc87" stroke="#808080" cx="170" cy="-273" rx="132.677" ry="18"/>
<text text-anchor="middle" x="170" y="-269.3" font-family="Times New Roman,serif" font-size="14.00">CarPositionControl@100fc185_1</text>
</a>
</g>
</g>
<!-- http://example.org/doorOpened_1&#45;&gt;http://example.org/CarPositionControl@100fc185_1 -->
<g id="edge11" class="edge"><title>http://example.org/doorOpened_1&#45;&gt;http://example.org/CarPositionControl@100fc185_1</title>
<path fill="none" stroke="black" d="M268.344,-219.124C248.703,-228.585 225.226,-240.428 206.091,-250.507"/>
<polygon fill="black" stroke="black" points="204.269,-247.511 197.081,-255.294 207.554,-253.692 204.269,-247.511"/>
<text text-anchor="middle" x="267.257" y="-232.184" font-family="Times New Roman,serif" font-size="8.00">use</text>
</g>
<!-- &#45;attrs0 -->
<g id="node2" class="node"><title>&#45;attrs0</title>
<polygon fill="none" stroke="gray" points="404.5,-147 299.5,-147 299.5,-111 410.5,-111 410.5,-141 404.5,-147"/>
<polyline fill="none" stroke="gray" points="404.5,-147 404.5,-141 "/>
<polyline fill="none" stroke="gray" points="410.5,-141 404.5,-141 "/>
<text text-anchor="start" x="310" y="-126" font-family="Times New Roman,serif" font-size="10.00">type:</text>
<text text-anchor="start" x="333" y="-126" font-family="Times New Roman,serif" font-size="10.00">u2p:doorOpened</text>
</g>
<!-- &#45;attrs0&#45;&gt;http://example.org/doorOpened_1 -->
<g id="edge1" class="edge"><title>&#45;attrs0&#45;&gt;http://example.org/doorOpened_1</title>
<path fill="none" stroke="gray" stroke-dasharray="5,2" d="M343.382,-147.303C336.097,-158.154 326.744,-172.083 319.484,-182.896"/>
</g>
<!-- http://example.org/CarPositionControl@100fc185_0 -->
<g id="node3" class="node"><title>http://example.org/CarPositionControl@100fc185_0</title>
<g id="a_node3"><a xlink:href="http://example.org/CarPositionControl@100fc185_0" xlink:title="CarPositionControl@100fc185_0">
<ellipse fill="#fffc87" stroke="#808080" cx="304" cy="-345" rx="132.677" ry="18"/>
<text text-anchor="middle" x="304" y="-341.3" font-family="Times New Roman,serif" font-size="14.00">CarPositionControl@100fc185_0</text>
</a>
</g>
</g>
<!-- http://example.org/CarPositionControl@100fc185 -->
<g id="node9" class="node"><title>http://example.org/CarPositionControl@100fc185</title>
<g id="a_node9"><a xlink:href="http://example.org/CarPositionControl@100fc185" xlink:title="CarPositionControl@100fc185">
<polygon fill="#fdb266" stroke="black" points="378.782,-422.562 226,-435 73.2182,-422.562 73.3608,-402.438 378.639,-402.438 378.782,-422.562"/>
<text text-anchor="middle" x="226" y="-413.3" font-family="Times New Roman,serif" font-size="14.00">CarPositionControl@100fc185</text>
</a>
</g>
</g>
<!-- http://example.org/CarPositionControl@100fc185_0&#45;&gt;http://example.org/CarPositionControl@100fc185 -->
<g id="edge6" class="edge"><title>http://example.org/CarPositionControl@100fc185_0&#45;&gt;http://example.org/CarPositionControl@100fc185</title>
<path fill="none" stroke="black" d="M285.118,-362.945C274.202,-372.742 260.389,-385.138 248.861,-395.484"/>
<polygon fill="black" stroke="black" points="246.413,-392.978 241.309,-402.262 251.089,-398.187 246.413,-392.978"/>
<text text-anchor="middle" x="288.213" y="-375.722" font-family="Times New Roman,serif" font-size="8.00">att</text>
</g>
<!-- &#45;attrs1 -->
<g id="node4" class="node"><title>&#45;attrs1</title>
<polygon fill="none" stroke="gray" points="431,-291 321,-291 321,-255 437,-255 437,-285 431,-291"/>
<polyline fill="none" stroke="gray" points="431,-291 431,-285 "/>
<polyline fill="none" stroke="gray" points="437,-285 431,-285 "/>
<text text-anchor="start" x="331" y="-270" font-family="Times New Roman,serif" font-size="10.00">type:</text>
<text text-anchor="start" x="354" y="-270" font-family="Times New Roman,serif" font-size="10.00">u2p:StateMachine</text>
</g>
<!-- &#45;attrs1&#45;&gt;http://example.org/CarPositionControl@100fc185_0 -->
<g id="edge2" class="edge"><title>&#45;attrs1&#45;&gt;http://example.org/CarPositionControl@100fc185_0</title>
<path fill="none" stroke="gray" stroke-dasharray="5,2" d="M360.461,-291.303C348.749,-302.235 333.688,-316.291 322.067,-327.137"/>
</g>
<!-- http://example.org/CarPositionControl@100fc185_2 -->
<g id="node5" class="node"><title>http://example.org/CarPositionControl@100fc185_2</title>
<g id="a_node5"><a xlink:href="http://example.org/CarPositionControl@100fc185_2" xlink:title="CarPositionControl@100fc185_2">
<ellipse fill="#fffc87" stroke="#808080" cx="149" cy="-129" rx="132.677" ry="18"/>
<text text-anchor="middle" x="149" y="-125.3" font-family="Times New Roman,serif" font-size="14.00">CarPositionControl@100fc185_2</text>
</a>
</g>
</g>
<!-- http://example.org/CarPositionControl@100fc185_2&#45;&gt;http://example.org/doorOpened_1 -->
<g id="edge8" class="edge"><title>http://example.org/CarPositionControl@100fc185_2&#45;&gt;http://example.org/doorOpened_1</title>
<path fill="none" stroke="black" d="M186.278,-146.412C208.319,-156.115 236.459,-168.504 260.13,-178.925"/>
<polygon fill="black" stroke="black" points="258.732,-182.134 269.295,-182.96 261.553,-175.727 258.732,-182.134"/>
<text text-anchor="middle" x="198.377" y="-135.645" font-family="Times New Roman,serif" font-size="8.00">gen</text>
</g>
<!-- http://example.org/CarPositionControl@100fc185_2&#45;&gt;http://example.org/CarPositionControl@100fc185_0 -->
<g id="edge7" class="edge"><title>http://example.org/CarPositionControl@100fc185_2&#45;&gt;http://example.org/CarPositionControl@100fc185_0</title>
<path fill="none" stroke="black" d="M120.204,-146.608C72.3753,-176.243 -14.204,-239.921 28,-291 39.3349,-304.719 127.384,-320.014 201.031,-330.633"/>
<polygon fill="black" stroke="black" points="200.924,-334.153 211.318,-332.1 201.912,-327.223 200.924,-334.153"/>
<text text-anchor="middle" x="120.921" y="-159.69" font-family="Times New Roman,serif" font-size="8.00">spe</text>
</g>
<!-- http://example.org/CarPositionControl@100fc185_2&#45;&gt;http://example.org/CarPositionControl@100fc185_1 -->
<g id="edge9" class="edge"><title>http://example.org/CarPositionControl@100fc185_2&#45;&gt;http://example.org/CarPositionControl@100fc185_1</title>
<path fill="none" stroke="black" d="M122.719,-146.856C110.977,-155.979 98.3686,-168.382 92,-183 85.6094,-197.668 84.5126,-204.86 92,-219 98.8433,-231.924 110.407,-242.281 122.563,-250.289"/>
<polygon fill="black" stroke="black" points="121.1,-253.496 131.461,-255.709 124.741,-247.518 121.1,-253.496"/>
<text text-anchor="middle" x="124.98" y="-159.784" font-family="Times New Roman,serif" font-size="8.00">der</text>
</g>
<!-- &#45;attrs2 -->
<g id="node6" class="node"><title>&#45;attrs2</title>
<polygon fill="none" stroke="gray" points="219.5,-75 72.5,-75 72.5,-39 225.5,-39 225.5,-69 219.5,-75"/>
<polyline fill="none" stroke="gray" points="219.5,-75 219.5,-69 "/>
<polyline fill="none" stroke="gray" points="225.5,-69 219.5,-69 "/>
<text text-anchor="start" x="83" y="-61" font-family="Times New Roman,serif" font-size="10.00">type:</text>
<text text-anchor="start" x="107" y="-61" font-family="Times New Roman,serif" font-size="10.00">u2p:CarPositionControl</text>
<text text-anchor="start" x="83" y="-48" font-family="Times New Roman,serif" font-size="10.00">state:</text>
<text text-anchor="start" x="107" y="-48" font-family="Times New Roman,serif" font-size="10.00">u2p:IndicatingCurrentFloor</text>
</g>
<!-- &#45;attrs2&#45;&gt;http://example.org/CarPositionControl@100fc185_2 -->
<g id="edge3" class="edge"><title>&#45;attrs2&#45;&gt;http://example.org/CarPositionControl@100fc185_2</title>
<path fill="none" stroke="gray" stroke-dasharray="5,2" d="M149,-75.3034C149,-86.1537 149,-100.083 149,-110.896"/>
</g>
<!-- http://example.org/CarPositionControl@100fc185_1&#45;&gt;http://example.org/doorOpened_1 -->
<g id="edge10" class="edge"><title>http://example.org/CarPositionControl@100fc185_1&#45;&gt;http://example.org/doorOpened_1</title>
<path fill="none" stroke="black" d="M219.251,-250.215C236.394,-241.821 255.287,-232.238 271.252,-223.839"/>
<polygon fill="none" stroke="black" points="219.082,-250.296 215.43,-256.514 208.286,-255.535 211.938,-249.317 219.082,-250.296"/>
<polygon fill="black" stroke="black" points="272.946,-226.903 280.138,-219.124 269.664,-220.72 272.946,-226.903"/>
<text text-anchor="middle" x="209.363" y="-238.674" font-family="Times New Roman,serif" font-size="8.00">inv</text>
</g>
<!-- http://example.org/CarPositionControl@100fc185_1&#45;&gt;http://example.org/CarPositionControl@100fc185_0 -->
<g id="edge12" class="edge"><title>http://example.org/CarPositionControl@100fc185_1&#45;&gt;http://example.org/CarPositionControl@100fc185_0</title>
<path fill="none" stroke="black" d="M201.756,-290.589C220.063,-300.152 243.277,-312.279 262.957,-322.559"/>
<polygon fill="black" stroke="black" points="261.523,-325.759 272.007,-327.287 264.765,-319.555 261.523,-325.759"/>
<text text-anchor="middle" x="214.419" y="-280.648" font-family="Times New Roman,serif" font-size="8.00">spe</text>
</g>
<!-- &#45;attrs3 -->
<g id="node8" class="node"><title>&#45;attrs3</title>
<polygon fill="none" stroke="gray" points="233,-219 101,-219 101,-183 239,-183 239,-213 233,-219"/>
<polyline fill="none" stroke="gray" points="233,-219 233,-213 "/>
<polyline fill="none" stroke="gray" points="239,-213 233,-213 "/>
<text text-anchor="start" x="111" y="-205" font-family="Times New Roman,serif" font-size="10.00">type:</text>
<text text-anchor="start" x="135" y="-205" font-family="Times New Roman,serif" font-size="10.00">u2p:CarPositionControl</text>
<text text-anchor="start" x="111" y="-192" font-family="Times New Roman,serif" font-size="10.00">state:</text>
<text text-anchor="start" x="135" y="-192" font-family="Times New Roman,serif" font-size="10.00">u2p:Idle</text>
</g>
<!-- &#45;attrs3&#45;&gt;http://example.org/CarPositionControl@100fc185_1 -->
<g id="edge4" class="edge"><title>&#45;attrs3&#45;&gt;http://example.org/CarPositionControl@100fc185_1</title>
<path fill="none" stroke="gray" stroke-dasharray="5,2" d="M170,-219.303C170,-230.154 170,-244.083 170,-254.896"/>
</g>
<!-- &#45;attrs4 -->
<g id="node10" class="node"><title>&#45;attrs4</title>
<polygon fill="none" stroke="gray" points="147.5,-363 16.5,-363 16.5,-327 153.5,-327 153.5,-357 147.5,-363"/>
<polyline fill="none" stroke="gray" points="147.5,-363 147.5,-357 "/>
<polyline fill="none" stroke="gray" points="153.5,-357 147.5,-357 "/>
<text text-anchor="start" x="27" y="-342" font-family="Times New Roman,serif" font-size="10.00">type:</text>
<text text-anchor="start" x="50" y="-342" font-family="Times New Roman,serif" font-size="10.00">u2p:CarPositionControl</text>
</g>
<!-- &#45;attrs4&#45;&gt;http://example.org/CarPositionControl@100fc185 -->
<g id="edge5" class="edge"><title>&#45;attrs4&#45;&gt;http://example.org/CarPositionControl@100fc185</title>
<path fill="none" stroke="gray" stroke-dasharray="5,2" d="M119.492,-363.124C143.788,-375.186 175.883,-391.119 198.467,-402.331"/>
</g>
</g>
</svg>
