<?xml version="1.0" encoding="UTF-8" standalone="no"?>
<!DOCTYPE svg PUBLIC "-//W3C//DTD SVG 1.1//EN"
 "http://www.w3.org/Graphics/SVG/1.1/DTD/svg11.dtd">
<!-- Generated by graphviz version 2.38.0 (20140413.2041)
 -->
<!-- Title: PROV Pages: 1 -->
<svg width="448pt" height="459pt"
 viewBox="0.00 0.00 448.00 459.00" xmlns="http://www.w3.org/2000/svg" xmlns:xlink="http://www.w3.org/1999/xlink">
<g id="graph0" class="graph" transform="scale(1 1) rotate(0) translate(4 455)">
<title>PROV</title>
<polygon fill="white" stroke="none" points="-4,4 -4,-455 444,-455 444,4 -4,4"/>
<g id="clust1" class="cluster"><title>clusterhttp://example.org/bundle1</title>
<g id="a_clust1"><a xlink:href="http://example.org/bundle1" xlink:title="bundle1">
<polygon fill="none" stroke="black" points="8,-8 8,-443 432,-443 432,-8 8,-8"/>
<text text-anchor="middle" x="220" y="-15.8" font-family="Times New Roman,serif" font-size="14.00">bundle1</text>
</a>
</g>
</g>
<!-- http://example.org/hallCall_1 -->
<g id="node1" class="node"><title>http://example.org/hallCall_1</title>
<g id="a_node1"><a xlink:href="http://example.org/hallCall_1" xlink:title="hallCall_1">
<polygon fill="#9fb1fc" stroke="#0000ff" points="319.5,-219 248.5,-219 248.5,-183 319.5,-183 319.5,-219"/>
<text text-anchor="middle" x="284" y="-197.3" font-family="Times New Roman,serif" font-size="14.00">hallCall_1</text>
</a>
</g>
</g>
<!-- http://example.org/HallButtonControl@2ef5e5e3_2 -->
<g id="node7" class="node"><title>http://example.org/HallButtonControl@2ef5e5e3_2</title>
<g id="a_node7"><a xlink:href="http://example.org/HallButtonControl@2ef5e5e3_2" xlink:title="HallButtonControl@2ef5e5e3_2">
<ellipse fill="#fffc87" stroke="#808080" cx="163" cy="-273" rx="126.978" ry="18"/>
<text text-anchor="middle" x="163" y="-269.3" font-family="Times New Roman,serif" font-size="14.00">HallButtonControl@2ef5e5e3_2</text>
</a>
</g>
</g>
<!-- http://example.org/hallCall_1&#45;&gt;http://example.org/HallButtonControl@2ef5e5e3_2 -->
<g id="edge11" class="edge"><title>http://example.org/hallCall_1&#45;&gt;http://example.org/HallButtonControl@2ef5e5e3_2</title>
<path fill="none" stroke="black" d="M248.503,-219.124C231.474,-228.413 211.307,-239.999 194.785,-249.955"/>
<polygon fill="black" stroke="black" points="192.742,-247.102 186.024,-255.294 196.385,-253.079 192.742,-247.102"/>
<text text-anchor="middle" x="248.178" y="-232.22" font-family="Times New Roman,serif" font-size="8.00">use</text>
</g>
<!-- &#45;attrs0 -->
<g id="node2" class="node"><title>&#45;attrs0</title>
<polygon fill="none" stroke="gray" points="372,-147 288,-147 288,-111 378,-111 378,-141 372,-147"/>
<polyline fill="none" stroke="gray" points="372,-147 372,-141 "/>
<polyline fill="none" stroke="gray" points="378,-141 372,-141 "/>
<text text-anchor="start" x="298" y="-126" font-family="Times New Roman,serif" font-size="10.00">type:</text>
<text text-anchor="start" x="321" y="-126" font-family="Times New Roman,serif" font-size="10.00">u2p:hallCall</text>
</g>
<!-- &#45;attrs0&#45;&gt;http://example.org/hallCall_1 -->
<g id="edge1" class="edge"><title>&#45;attrs0&#45;&gt;http://example.org/hallCall_1</title>
<path fill="none" stroke="gray" stroke-dasharray="5,2" d="M320.888,-147.303C313.292,-158.154 303.542,-172.083 295.973,-182.896"/>
</g>
<!-- http://example.org/HallButtonControl@2ef5e5e3_0 -->
<g id="node3" class="node"><title>http://example.org/HallButtonControl@2ef5e5e3_0</title>
<g id="a_node3"><a xlink:href="http://example.org/HallButtonControl@2ef5e5e3_0" xlink:title="HallButtonControl@2ef5e5e3_0">
<ellipse fill="#fffc87" stroke="#808080" cx="295" cy="-345" rx="126.978" ry="18"/>
<text text-anchor="middle" x="295" y="-341.3" font-family="Times New Roman,serif" font-size="14.00">HallButtonControl@2ef5e5e3_0</text>
</a>
</g>
</g>
<!-- http://example.org/HallButtonControl@2ef5e5e3 -->
<g id="node9" class="node"><title>http://example.org/HallButtonControl@2ef5e5e3</title>
<g id="a_node9"><a xlink:href="http://example.org/HallButtonControl@2ef5e5e3" xlink:title="HallButtonControl@2ef5e5e3">
<polygon fill="#fdb266" stroke="black" points="365.321,-422.562 220,-435 74.679,-422.562 74.8146,-402.438 365.185,-402.438 365.321,-422.562"/>
<text text-anchor="middle" x="220" y="-413.3" font-family="Times New Roman,serif" font-size="14.00">HallButtonControl@2ef5e5e3</text>
</a>
</g>
</g>
<!-- http://example.org/HallButtonControl@2ef5e5e3_0&#45;&gt;http://example.org/HallButtonControl@2ef5e5e3 -->
<g id="edge6" class="edge"><title>http://example.org/HallButtonControl@2ef5e5e3_0&#45;&gt;http://example.org/HallButtonControl@2ef5e5e3</title>
<path fill="none" stroke="black" d="M276.845,-362.945C266.519,-372.583 253.498,-384.735 242.524,-394.977"/>
<polygon fill="black" stroke="black" points="239.886,-392.652 234.963,-402.034 244.662,-397.77 239.886,-392.652"/>
<text text-anchor="middle" x="280.225" y="-375.659" font-family="Times New Roman,serif" font-size="8.00">att</text>
</g>
<!-- &#45;attrs1 -->
<g id="node4" class="node"><title>&#45;attrs1</title>
<polygon fill="none" stroke="gray" points="418,-291 308,-291 308,-255 424,-255 424,-285 418,-291"/>
<polyline fill="none" stroke="gray" points="418,-291 418,-285 "/>
<polyline fill="none" stroke="gray" points="424,-285 418,-285 "/>
<text text-anchor="start" x="318" y="-270" font-family="Times New Roman,serif" font-size="10.00">type:</text>
<text text-anchor="start" x="341" y="-270" font-family="Times New Roman,serif" font-size="10.00">u2p:StateMachine</text>
</g>
<!-- &#45;attrs1&#45;&gt;http://example.org/HallButtonControl@2ef5e5e3_0 -->
<g id="edge2" class="edge"><title>&#45;attrs1&#45;&gt;http://example.org/HallButtonControl@2ef5e5e3_0</title>
<path fill="none" stroke="gray" stroke-dasharray="5,2" d="M348.449,-291.303C337.444,-302.154 323.316,-316.083 312.349,-326.896"/>
</g>
<!-- http://example.org/HallButtonControl@2ef5e5e3_3 -->
<g id="node5" class="node"><title>http://example.org/HallButtonControl@2ef5e5e3_3</title>
<g id="a_node5"><a xlink:href="http://example.org/HallButtonControl@2ef5e5e3_3" xlink:title="HallButtonControl@2ef5e5e3_3">
<ellipse fill="#fffc87" stroke="#808080" cx="143" cy="-129" rx="126.978" ry="18"/>
<text text-anchor="middle" x="143" y="-125.3" font-family="Times New Roman,serif" font-size="14.00">HallButtonControl@2ef5e5e3_3</text>
</a>
</g>
</g>
<!-- http://example.org/HallButtonControl@2ef5e5e3_3&#45;&gt;http://example.org/hallCall_1 -->
<g id="edge8" class="edge"><title>http://example.org/HallButtonControl@2ef5e5e3_3&#45;&gt;http://example.org/hallCall_1</title>
<path fill="none" stroke="black" d="M176.058,-146.412C195.344,-155.987 219.897,-168.176 240.711,-178.509"/>
<polygon fill="black" stroke="black" points="239.163,-181.648 249.677,-182.96 242.276,-175.378 239.163,-181.648"/>
<text text-anchor="middle" x="188.552" y="-136.212" font-family="Times New Roman,serif" font-size="8.00">gen</text>
</g>
<!-- http://example.org/HallButtonControl@2ef5e5e3_3&#45;&gt;http://example.org/HallButtonControl@2ef5e5e3_0 -->
<g id="edge7" class="edge"><title>http://example.org/HallButtonControl@2ef5e5e3_3&#45;&gt;http://example.org/HallButtonControl@2ef5e5e3_0</title>
<path fill="none" stroke="black" d="M115.195,-146.736C69.0305,-176.574 -14.4438,-240.558 27,-291 38.0352,-304.431 124.323,-319.861 196.054,-330.595"/>
<polygon fill="black" stroke="black" points="195.665,-334.075 206.07,-332.078 196.691,-327.151 195.665,-334.075"/>
<text text-anchor="middle" x="116.2" y="-159.803" font-family="Times New Roman,serif" font-size="8.00">spe</text>
</g>
<!-- http://example.org/HallButtonControl@2ef5e5e3_3&#45;&gt;http://example.org/HallButtonControl@2ef5e5e3_2 -->
<g id="edge9" class="edge"><title>http://example.org/HallButtonControl@2ef5e5e3_3&#45;&gt;http://example.org/HallButtonControl@2ef5e5e3_2</title>
<path fill="none" stroke="black" d="M117.017,-146.625C105.191,-155.769 92.4226,-168.258 86,-183 79.6094,-197.668 78.5551,-204.838 86,-219 92.7448,-231.831 104.157,-242.16 116.158,-250.171"/>
<polygon fill="black" stroke="black" points="114.595,-253.32 124.942,-255.598 118.274,-247.365 114.595,-253.32"/>
<text text-anchor="middle" x="119.244" y="-159.558" font-family="Times New Roman,serif" font-size="8.00">der</text>
</g>
<!-- &#45;attrs2 -->
<g id="node6" class="node"><title>&#45;attrs2</title>
<polygon fill="none" stroke="gray" points="204.5,-75 75.5,-75 75.5,-39 210.5,-39 210.5,-69 204.5,-75"/>
<polyline fill="none" stroke="gray" points="204.5,-75 204.5,-69 "/>
<polyline fill="none" stroke="gray" points="210.5,-69 204.5,-69 "/>
<text text-anchor="start" x="86" y="-61" font-family="Times New Roman,serif" font-size="10.00">type:</text>
<text text-anchor="start" x="110" y="-61" font-family="Times New Roman,serif" font-size="10.00">u2p:HallButtonControl</text>
<text text-anchor="start" x="86" y="-48" font-family="Times New Roman,serif" font-size="10.00">state:</text>
<text text-anchor="start" x="110" y="-48" font-family="Times New Roman,serif" font-size="10.00">u2p:On</text>
</g>
<!-- &#45;attrs2&#45;&gt;http://example.org/HallButtonControl@2ef5e5e3_3 -->
<g id="edge3" class="edge"><title>&#45;attrs2&#45;&gt;http://example.org/HallButtonControl@2ef5e5e3_3</title>
<path fill="none" stroke="gray" stroke-dasharray="5,2" d="M143,-75.3034C143,-86.1537 143,-100.083 143,-110.896"/>
</g>
<!-- http://example.org/HallButtonControl@2ef5e5e3_2&#45;&gt;http://example.org/hallCall_1 -->
<g id="edge10" class="edge"><title>http://example.org/HallButtonControl@2ef5e5e3_2&#45;&gt;http://example.org/hallCall_1</title>
<path fill="none" stroke="black" d="M208.003,-249.635C222.406,-241.614 238.041,-232.572 251.398,-224.537"/>
<polygon fill="none" stroke="black" points="207.799,-249.747 204.473,-256.145 197.287,-255.535 200.614,-249.137 207.799,-249.747"/>
<polygon fill="black" stroke="black" points="253.572,-227.311 260.297,-219.124 249.935,-221.33 253.572,-227.311"/>
<text text-anchor="middle" x="197.592" y="-238.638" font-family="Times New Roman,serif" font-size="8.00">inv</text>
</g>
<!-- http://example.org/HallButtonControl@2ef5e5e3_2&#45;&gt;http://example.org/HallButtonControl@2ef5e5e3_0 -->
<g id="edge12" class="edge"><title>http://example.org/HallButtonControl@2ef5e5e3_2&#45;&gt;http://example.org/HallButtonControl@2ef5e5e3_0</title>
<path fill="none" stroke="black" d="M194.282,-290.589C212.447,-300.222 235.517,-312.456 254.993,-322.784"/>
<polygon fill="black" stroke="black" points="253.468,-325.937 263.942,-327.53 256.748,-319.753 253.468,-325.937"/>
<text text-anchor="middle" x="206.994" y="-280.726" font-family="Times New Roman,serif" font-size="8.00">spe</text>
</g>
<!-- &#45;attrs3 -->
<g id="node8" class="node"><title>&#45;attrs3</title>
<polygon fill="none" stroke="gray" points="224.5,-219 95.5,-219 95.5,-183 230.5,-183 230.5,-213 224.5,-219"/>
<polyline fill="none" stroke="gray" points="224.5,-219 224.5,-213 "/>
<polyline fill="none" stroke="gray" points="230.5,-213 224.5,-213 "/>
<text text-anchor="start" x="106" y="-205" font-family="Times New Roman,serif" font-size="10.00">type:</text>
<text text-anchor="start" x="130" y="-205" font-family="Times New Roman,serif" font-size="10.00">u2p:HallButtonControl</text>
<text text-anchor="start" x="106" y="-192" font-family="Times New Roman,serif" font-size="10.00">state:</text>
<text text-anchor="start" x="130" y="-192" font-family="Times New Roman,serif" font-size="10.00">u2p:Off</text>
</g>
<!-- &#45;attrs3&#45;&gt;http://example.org/HallButtonControl@2ef5e5e3_2 -->
<g id="edge4" class="edge"><title>&#45;attrs3&#45;&gt;http://example.org/HallButtonControl@2ef5e5e3_2</title>
<path fill="none" stroke="gray" stroke-dasharray="5,2" d="M163,-219.303C163,-230.154 163,-244.083 163,-254.896"/>
</g>
<!-- &#45;attrs4 -->
<g id="node10" class="node"><title>&#45;attrs4</title>
<polygon fill="none" stroke="gray" points="144,-363 16,-363 16,-327 150,-327 150,-357 144,-363"/>
<polyline fill="none" stroke="gray" points="144,-363 144,-357 "/>
<polyline fill="none" stroke="gray" points="150,-357 144,-357 "/>
<text text-anchor="start" x="26" y="-342" font-family="Times New Roman,serif" font-size="10.00">type:</text>
<text text-anchor="start" x="49" y="-342" font-family="Times New Roman,serif" font-size="10.00">u2p:HallButtonControl</text>
</g>
<!-- &#45;attrs4&#45;&gt;http://example.org/HallButtonControl@2ef5e5e3 -->
<g id="edge5" class="edge"><title>&#45;attrs4&#45;&gt;http://example.org/HallButtonControl@2ef5e5e3</title>
<path fill="none" stroke="gray" stroke-dasharray="5,2" d="M116.514,-363.124C140.12,-375.186 171.304,-391.119 193.248,-402.331"/>
</g>
</g>
</svg>
