<?xml version="1.0" encoding="UTF-8" standalone="no"?>
<!DOCTYPE svg PUBLIC "-//W3C//DTD SVG 1.1//EN"
 "http://www.w3.org/Graphics/SVG/1.1/DTD/svg11.dtd">
<!-- Generated by graphviz version 2.38.0 (20140413.2041)
 -->
<!-- Title: PROV Pages: 1 -->
<svg width="498pt" height="243pt"
 viewBox="0.00 0.00 498.00 243.00" xmlns="http://www.w3.org/2000/svg" xmlns:xlink="http://www.w3.org/1999/xlink">
<g id="graph0" class="graph" transform="scale(1 1) rotate(0) translate(4 239)">
<title>PROV</title>
<polygon fill="white" stroke="none" points="-4,4 -4,-239 494,-239 494,4 -4,4"/>
<g id="clust1" class="cluster"><title>clusterhttp://example.org/bundle1</title>
<g id="a_clust1"><a xlink:href="http://example.org/bundle1" xlink:title="bundle1">
<polygon fill="none" stroke="black" points="8,-8 8,-227 482,-227 482,-8 8,-8"/>
<text text-anchor="middle" x="245" y="-15.8" font-family="Times New Roman,serif" font-size="14.00">bundle1</text>
</a>
</g>
</g>
<!-- http://example.org/hallCall_1 -->
<g id="node1" class="node"><title>http://example.org/hallCall_1</title>
<g id="a_node1"><a xlink:href="http://example.org/hallCall_1" xlink:title="hallCall_1">
<polygon fill="#9fb1fc" stroke="#0000ff" points="333.5,-147 262.5,-147 262.5,-111 333.5,-111 333.5,-147"/>
<text text-anchor="middle" x="298" y="-125.3" font-family="Times New Roman,serif" font-size="14.00">hallCall_1</text>
</a>
</g>
</g>
<!-- http://example.org/dataset.caseStudy.CS5ElevatorBis.HallButton@ -->
<g id="node3" class="node"><title>http://example.org/dataset.caseStudy.CS5ElevatorBis.HallButton@</title>
<g id="a_node3"><a xlink:href="http://example.org/dataset.caseStudy.CS5ElevatorBis.HallButton@" xlink:title="dataset.caseStudy.CS5ElevatorBis.HallButton@">
<polygon fill="#fdb266" stroke="black" points="473.923,-206.562 245,-219 16.0774,-206.562 16.2911,-186.438 473.709,-186.438 473.923,-206.562"/>
<text text-anchor="middle" x="245" y="-197.3" font-family="Times New Roman,serif" font-size="14.00">dataset.caseStudy.CS5ElevatorBis.HallButton@</text>
</a>
</g>
</g>
<!-- http://example.org/hallCall_1&#45;&gt;http://example.org/dataset.caseStudy.CS5ElevatorBis.HallButton@ -->
<g id="edge3" class="edge"><title>http://example.org/hallCall_1&#45;&gt;http://example.org/dataset.caseStudy.CS5ElevatorBis.HallButton@</title>
<path fill="none" stroke="black" d="M284.899,-147.303C277.881,-156.572 269.162,-168.088 261.666,-177.988"/>
<polygon fill="black" stroke="black" points="258.713,-176.09 255.467,-186.175 264.294,-180.316 258.713,-176.09"/>
<text text-anchor="middle" x="290.728" y="-159.224" font-family="Times New Roman,serif" font-size="8.00">assoc</text>
</g>
<!-- &#45;attrs0 -->
<g id="node2" class="node"><title>&#45;attrs0</title>
<polygon fill="none" stroke="gray" points="337,-75 253,-75 253,-39 343,-39 343,-69 337,-75"/>
<polyline fill="none" stroke="gray" points="337,-75 337,-69 "/>
<polyline fill="none" stroke="gray" points="343,-69 337,-69 "/>
<text text-anchor="start" x="263" y="-54" font-family="Times New Roman,serif" font-size="10.00">type:</text>
<text text-anchor="start" x="286" y="-54" font-family="Times New Roman,serif" font-size="10.00">u2p:hallCall</text>
</g>
<!-- &#45;attrs0&#45;&gt;http://example.org/hallCall_1 -->
<g id="edge1" class="edge"><title>&#45;attrs0&#45;&gt;http://example.org/hallCall_1</title>
<path fill="none" stroke="gray" stroke-dasharray="5,2" d="M298,-75.3034C298,-86.1537 298,-100.083 298,-110.896"/>
</g>
<!-- &#45;attrs1 -->
<g id="node4" class="node"><title>&#45;attrs1</title>
<polygon fill="none" stroke="gray" points="238,-147 140,-147 140,-111 244,-111 244,-141 238,-147"/>
<polyline fill="none" stroke="gray" points="238,-147 238,-141 "/>
<polyline fill="none" stroke="gray" points="244,-141 238,-141 "/>
<text text-anchor="start" x="150" y="-126" font-family="Times New Roman,serif" font-size="10.00">type:</text>
<text text-anchor="start" x="173" y="-126" font-family="Times New Roman,serif" font-size="10.00">u2p:HallButton</text>
</g>
<!-- &#45;attrs1&#45;&gt;http://example.org/dataset.caseStudy.CS5ElevatorBis.HallButton@ -->
<g id="edge2" class="edge"><title>&#45;attrs1&#45;&gt;http://example.org/dataset.caseStudy.CS5ElevatorBis.HallButton@</title>
<path fill="none" stroke="gray" stroke-dasharray="5,2" d="M205.101,-147.303C214.175,-159.287 226.092,-175.028 234.533,-186.175"/>
</g>
</g>
</svg>
