<?xml version="1.0" encoding="UTF-8" standalone="no"?>
<!DOCTYPE svg PUBLIC "-//W3C//DTD SVG 1.1//EN"
 "http://www.w3.org/Graphics/SVG/1.1/DTD/svg11.dtd">
<!-- Generated by graphviz version 2.38.0 (20140413.2041)
 -->
<!-- Title: PROV Pages: 1 -->
<svg width="520pt" height="243pt"
 viewBox="0.00 0.00 520.00 243.00" xmlns="http://www.w3.org/2000/svg" xmlns:xlink="http://www.w3.org/1999/xlink">
<g id="graph0" class="graph" transform="scale(1 1) rotate(0) translate(4 239)">
<title>PROV</title>
<polygon fill="white" stroke="none" points="-4,4 -4,-239 516,-239 516,4 -4,4"/>
<g id="clust1" class="cluster"><title>clusterhttp://example.org/bundle1</title>
<g id="a_clust1"><a xlink:href="http://example.org/bundle1" xlink:title="bundle1">
<polygon fill="none" stroke="black" points="8,-8 8,-227 504,-227 504,-8 8,-8"/>
<text text-anchor="middle" x="256" y="-15.8" font-family="Times New Roman,serif" font-size="14.00">bundle1</text>
</a>
</g>
</g>
<!-- http://example.org/move_1 -->
<g id="node1" class="node"><title>http://example.org/move_1</title>
<g id="a_node1"><a xlink:href="http://example.org/move_1" xlink:title="move_1">
<polygon fill="#9fb1fc" stroke="#0000ff" points="340,-147 278,-147 278,-111 340,-111 340,-147"/>
<text text-anchor="middle" x="309" y="-125.3" font-family="Times New Roman,serif" font-size="14.00">move_1</text>
</a>
</g>
</g>
<!-- http://example.org/dataset.caseStudy.CS5ElevatorBis.DriveControl@ -->
<g id="node3" class="node"><title>http://example.org/dataset.caseStudy.CS5ElevatorBis.DriveControl@</title>
<g id="a_node3"><a xlink:href="http://example.org/dataset.caseStudy.CS5ElevatorBis.DriveControl@" xlink:title="dataset.caseStudy.CS5ElevatorBis.DriveControl@">
<polygon fill="#fdb266" stroke="black" points="496.417,-206.562 256,-219 15.5828,-206.562 15.8072,-186.438 496.193,-186.438 496.417,-206.562"/>
<text text-anchor="middle" x="256" y="-197.3" font-family="Times New Roman,serif" font-size="14.00">dataset.caseStudy.CS5ElevatorBis.DriveControl@</text>
</a>
</g>
</g>
<!-- http://example.org/move_1&#45;&gt;http://example.org/dataset.caseStudy.CS5ElevatorBis.DriveControl@ -->
<g id="edge3" class="edge"><title>http://example.org/move_1&#45;&gt;http://example.org/dataset.caseStudy.CS5ElevatorBis.DriveControl@</title>
<path fill="none" stroke="black" d="M295.899,-147.303C288.881,-156.572 280.162,-168.088 272.666,-177.988"/>
<polygon fill="black" stroke="black" points="269.713,-176.09 266.467,-186.175 275.294,-180.316 269.713,-176.09"/>
<text text-anchor="middle" x="301.728" y="-159.224" font-family="Times New Roman,serif" font-size="8.00">assoc</text>
</g>
<!-- &#45;attrs0 -->
<g id="node2" class="node"><title>&#45;attrs0</title>
<polygon fill="none" stroke="gray" points="344.5,-75 267.5,-75 267.5,-39 350.5,-39 350.5,-69 344.5,-75"/>
<polyline fill="none" stroke="gray" points="344.5,-75 344.5,-69 "/>
<polyline fill="none" stroke="gray" points="350.5,-69 344.5,-69 "/>
<text text-anchor="start" x="278" y="-54" font-family="Times New Roman,serif" font-size="10.00">type:</text>
<text text-anchor="start" x="301" y="-54" font-family="Times New Roman,serif" font-size="10.00">u2p:move</text>
</g>
<!-- &#45;attrs0&#45;&gt;http://example.org/move_1 -->
<g id="edge1" class="edge"><title>&#45;attrs0&#45;&gt;http://example.org/move_1</title>
<path fill="none" stroke="gray" stroke-dasharray="5,2" d="M309,-75.3034C309,-86.1537 309,-100.083 309,-110.896"/>
</g>
<!-- &#45;attrs1 -->
<g id="node4" class="node"><title>&#45;attrs1</title>
<polygon fill="none" stroke="gray" points="253.5,-147 146.5,-147 146.5,-111 259.5,-111 259.5,-141 253.5,-147"/>
<polyline fill="none" stroke="gray" points="253.5,-147 253.5,-141 "/>
<polyline fill="none" stroke="gray" points="259.5,-141 253.5,-141 "/>
<text text-anchor="start" x="157" y="-126" font-family="Times New Roman,serif" font-size="10.00">type:</text>
<text text-anchor="start" x="180" y="-126" font-family="Times New Roman,serif" font-size="10.00">u2p:DriveControl</text>
</g>
<!-- &#45;attrs1&#45;&gt;http://example.org/dataset.caseStudy.CS5ElevatorBis.DriveControl@ -->
<g id="edge2" class="edge"><title>&#45;attrs1&#45;&gt;http://example.org/dataset.caseStudy.CS5ElevatorBis.DriveControl@</title>
<path fill="none" stroke="gray" stroke-dasharray="5,2" d="M216.101,-147.303C225.175,-159.287 237.092,-175.028 245.533,-186.175"/>
</g>
</g>
</svg>
