<?xml version="1.0" encoding="UTF-8" standalone="no"?>
<!DOCTYPE svg PUBLIC "-//W3C//DTD SVG 1.1//EN"
 "http://www.w3.org/Graphics/SVG/1.1/DTD/svg11.dtd">
<!-- Generated by graphviz version 2.38.0 (20140413.2041)
 -->
<!-- Title: PROV Pages: 1 -->
<svg width="352pt" height="459pt"
 viewBox="0.00 0.00 352.00 459.00" xmlns="http://www.w3.org/2000/svg" xmlns:xlink="http://www.w3.org/1999/xlink">
<g id="graph0" class="graph" transform="scale(1 1) rotate(0) translate(4 455)">
<title>PROV</title>
<polygon fill="white" stroke="none" points="-4,4 -4,-455 348,-455 348,4 -4,4"/>
<g id="clust1" class="cluster"><title>clusterhttp://example.org/bundle1</title>
<g id="a_clust1"><a xlink:href="http://example.org/bundle1" xlink:title="bundle1">
<polygon fill="none" stroke="black" points="8,-8 8,-443 336,-443 336,-8 8,-8"/>
<text text-anchor="middle" x="172" y="-15.8" font-family="Times New Roman,serif" font-size="14.00">bundle1</text>
</a>
</g>
</g>
<!-- http://example.org/move_1 -->
<g id="node1" class="node"><title>http://example.org/move_1</title>
<g id="a_node1"><a xlink:href="http://example.org/move_1" xlink:title="move_1">
<polygon fill="#9fb1fc" stroke="#0000ff" points="243,-219 181,-219 181,-183 243,-183 243,-219"/>
<text text-anchor="middle" x="212" y="-197.3" font-family="Times New Roman,serif" font-size="14.00">move_1</text>
</a>
</g>
</g>
<!-- http://example.org/Drive@36d4b5c_2 -->
<g id="node7" class="node"><title>http://example.org/Drive@36d4b5c_2</title>
<g id="a_node7"><a xlink:href="http://example.org/Drive@36d4b5c_2" xlink:title="Drive@36d4b5c_2">
<ellipse fill="#fffc87" stroke="#808080" cx="115" cy="-273" rx="79.0865" ry="18"/>
<text text-anchor="middle" x="115" y="-269.3" font-family="Times New Roman,serif" font-size="14.00">Drive@36d4b5c_2</text>
</a>
</g>
</g>
<!-- http://example.org/move_1&#45;&gt;http://example.org/Drive@36d4b5c_2 -->
<g id="edge11" class="edge"><title>http://example.org/move_1&#45;&gt;http://example.org/Drive@36d4b5c_2</title>
<path fill="none" stroke="black" d="M182.374,-219.124C168.915,-228.155 153.233,-239.357 140.326,-249.122"/>
<polygon fill="black" stroke="black" points="138.092,-246.425 132.297,-255.294 142.358,-251.975 138.092,-246.425"/>
<text text-anchor="middle" x="183.435" y="-232.186" font-family="Times New Roman,serif" font-size="8.00">use</text>
</g>
<!-- &#45;attrs0 -->
<g id="node2" class="node"><title>&#45;attrs0</title>
<polygon fill="none" stroke="gray" points="269.5,-147 192.5,-147 192.5,-111 275.5,-111 275.5,-141 269.5,-147"/>
<polyline fill="none" stroke="gray" points="269.5,-147 269.5,-141 "/>
<polyline fill="none" stroke="gray" points="275.5,-141 269.5,-141 "/>
<text text-anchor="start" x="203" y="-126" font-family="Times New Roman,serif" font-size="10.00">type:</text>
<text text-anchor="start" x="226" y="-126" font-family="Times New Roman,serif" font-size="10.00">u2p:move</text>
</g>
<!-- &#45;attrs0&#45;&gt;http://example.org/move_1 -->
<g id="edge1" class="edge"><title>&#45;attrs0&#45;&gt;http://example.org/move_1</title>
<path fill="none" stroke="gray" stroke-dasharray="5,2" d="M228.562,-147.303C225.152,-158.154 220.774,-172.083 217.376,-182.896"/>
</g>
<!-- http://example.org/Drive@36d4b5c_0 -->
<g id="node3" class="node"><title>http://example.org/Drive@36d4b5c_0</title>
<g id="a_node3"><a xlink:href="http://example.org/Drive@36d4b5c_0" xlink:title="Drive@36d4b5c_0">
<ellipse fill="#fffc87" stroke="#808080" cx="197" cy="-345" rx="79.0865" ry="18"/>
<text text-anchor="middle" x="197" y="-341.3" font-family="Times New Roman,serif" font-size="14.00">Drive@36d4b5c_0</text>
</a>
</g>
</g>
<!-- http://example.org/Drive@36d4b5c -->
<g id="node9" class="node"><title>http://example.org/Drive@36d4b5c</title>
<g id="a_node9"><a xlink:href="http://example.org/Drive@36d4b5c" xlink:title="Drive@36d4b5c">
<polygon fill="#fdb266" stroke="black" points="236.529,-422.562 150,-435 63.4708,-422.562 63.5516,-402.438 236.448,-402.438 236.529,-422.562"/>
<text text-anchor="middle" x="150" y="-413.3" font-family="Times New Roman,serif" font-size="14.00">Drive@36d4b5c</text>
</a>
</g>
</g>
<!-- http://example.org/Drive@36d4b5c_0&#45;&gt;http://example.org/Drive@36d4b5c -->
<g id="edge6" class="edge"><title>http://example.org/Drive@36d4b5c_0&#45;&gt;http://example.org/Drive@36d4b5c</title>
<path fill="none" stroke="black" d="M185.623,-362.945C179.466,-372.115 171.78,-383.561 165.125,-393.473"/>
<polygon fill="black" stroke="black" points="162.046,-391.781 159.377,-402.034 167.857,-395.683 162.046,-391.781"/>
<text text-anchor="middle" x="192.227" y="-374.513" font-family="Times New Roman,serif" font-size="8.00">att</text>
</g>
<!-- &#45;attrs1 -->
<g id="node4" class="node"><title>&#45;attrs1</title>
<polygon fill="none" stroke="gray" points="322,-291 212,-291 212,-255 328,-255 328,-285 322,-291"/>
<polyline fill="none" stroke="gray" points="322,-291 322,-285 "/>
<polyline fill="none" stroke="gray" points="328,-285 322,-285 "/>
<text text-anchor="start" x="222" y="-270" font-family="Times New Roman,serif" font-size="10.00">type:</text>
<text text-anchor="start" x="245" y="-270" font-family="Times New Roman,serif" font-size="10.00">u2p:StateMachine</text>
</g>
<!-- &#45;attrs1&#45;&gt;http://example.org/Drive@36d4b5c_0 -->
<g id="edge2" class="edge"><title>&#45;attrs1&#45;&gt;http://example.org/Drive@36d4b5c_0</title>
<path fill="none" stroke="gray" stroke-dasharray="5,2" d="M251.955,-291.303C240.471,-302.316 225.679,-316.5 214.335,-327.378"/>
</g>
<!-- http://example.org/Drive@36d4b5c_3 -->
<g id="node5" class="node"><title>http://example.org/Drive@36d4b5c_3</title>
<g id="a_node5"><a xlink:href="http://example.org/Drive@36d4b5c_3" xlink:title="Drive@36d4b5c_3">
<ellipse fill="#fffc87" stroke="#808080" cx="95" cy="-129" rx="79.0865" ry="18"/>
<text text-anchor="middle" x="95" y="-125.3" font-family="Times New Roman,serif" font-size="14.00">Drive@36d4b5c_3</text>
</a>
</g>
</g>
<!-- http://example.org/Drive@36d4b5c_3&#45;&gt;http://example.org/move_1 -->
<g id="edge8" class="edge"><title>http://example.org/Drive@36d4b5c_3&#45;&gt;http://example.org/move_1</title>
<path fill="none" stroke="black" d="M121.842,-146.059C137.469,-155.409 157.408,-167.338 174.56,-177.6"/>
<polygon fill="black" stroke="black" points="172.86,-180.661 183.238,-182.792 176.454,-174.654 172.86,-180.661"/>
<text text-anchor="middle" x="134.948" y="-136.862" font-family="Times New Roman,serif" font-size="8.00">gen</text>
</g>
<!-- http://example.org/Drive@36d4b5c_3&#45;&gt;http://example.org/Drive@36d4b5c_0 -->
<g id="edge7" class="edge"><title>http://example.org/Drive@36d4b5c_3&#45;&gt;http://example.org/Drive@36d4b5c_0</title>
<path fill="none" stroke="black" d="M77.4324,-146.839C47.4124,-177.673 -7.34371,-244.319 27,-291 39.3813,-307.829 86.0788,-321.662 127.404,-330.971"/>
<polygon fill="black" stroke="black" points="126.702,-334.4 137.219,-333.122 128.2,-327.562 126.702,-334.4"/>
<text text-anchor="middle" x="81.7744" y="-159.297" font-family="Times New Roman,serif" font-size="8.00">spe</text>
</g>
<!-- http://example.org/Drive@36d4b5c_3&#45;&gt;http://example.org/Drive@36d4b5c_2 -->
<g id="edge9" class="edge"><title>http://example.org/Drive@36d4b5c_3&#45;&gt;http://example.org/Drive@36d4b5c_2</title>
<path fill="none" stroke="black" d="M79.3484,-146.686C71.2718,-156.462 62.2423,-169.512 58,-183 53.1994,-198.263 51.6094,-204.332 58,-219 63.1019,-230.711 72.2082,-240.999 81.6658,-249.32"/>
<polygon fill="black" stroke="black" points="79.66,-252.201 89.6127,-255.834 84.0976,-246.787 79.66,-252.201"/>
<text text-anchor="middle" x="84.7414" y="-158.783" font-family="Times New Roman,serif" font-size="8.00">der</text>
</g>
<!-- &#45;attrs2 -->
<g id="node6" class="node"><title>&#45;attrs2</title>
<polygon fill="none" stroke="gray" points="136,-75 48,-75 48,-39 142,-39 142,-69 136,-75"/>
<polyline fill="none" stroke="gray" points="136,-75 136,-69 "/>
<polyline fill="none" stroke="gray" points="142,-69 136,-69 "/>
<text text-anchor="start" x="58" y="-61" font-family="Times New Roman,serif" font-size="10.00">type:</text>
<text text-anchor="start" x="82" y="-61" font-family="Times New Roman,serif" font-size="10.00">u2p:Drive</text>
<text text-anchor="start" x="58" y="-48" font-family="Times New Roman,serif" font-size="10.00">state:</text>
<text text-anchor="start" x="82" y="-48" font-family="Times New Roman,serif" font-size="10.00">u2p:Moving</text>
</g>
<!-- &#45;attrs2&#45;&gt;http://example.org/Drive@36d4b5c_3 -->
<g id="edge3" class="edge"><title>&#45;attrs2&#45;&gt;http://example.org/Drive@36d4b5c_3</title>
<path fill="none" stroke="gray" stroke-dasharray="5,2" d="M95,-75.3034C95,-86.1537 95,-100.083 95,-110.896"/>
</g>
<!-- http://example.org/Drive@36d4b5c_2&#45;&gt;http://example.org/move_1 -->
<g id="edge10" class="edge"><title>http://example.org/Drive@36d4b5c_2&#45;&gt;http://example.org/move_1</title>
<path fill="none" stroke="black" d="M152.988,-249.185C163.917,-241.648 175.572,-233.25 185.65,-225.651"/>
<polygon fill="none" stroke="black" points="152.737,-249.355 150.017,-256.034 142.807,-256.093 145.526,-249.414 152.737,-249.355"/>
<polygon fill="black" stroke="black" points="188.127,-228.163 193.938,-219.303 183.871,-222.605 188.127,-228.163"/>
<text text-anchor="middle" x="141.719" y="-239.232" font-family="Times New Roman,serif" font-size="8.00">inv</text>
</g>
<!-- http://example.org/Drive@36d4b5c_2&#45;&gt;http://example.org/Drive@36d4b5c_0 -->
<g id="edge12" class="edge"><title>http://example.org/Drive@36d4b5c_2&#45;&gt;http://example.org/Drive@36d4b5c_0</title>
<path fill="none" stroke="black" d="M134.433,-290.589C145.053,-299.655 158.373,-311.026 169.99,-320.943"/>
<polygon fill="black" stroke="black" points="167.829,-323.699 177.707,-327.53 172.373,-318.375 167.829,-323.699"/>
<text text-anchor="middle" x="148.571" y="-283.678" font-family="Times New Roman,serif" font-size="8.00">spe</text>
</g>
<!-- &#45;attrs3 -->
<g id="node8" class="node"><title>&#45;attrs3</title>
<polygon fill="none" stroke="gray" points="157,-219 67,-219 67,-183 163,-183 163,-213 157,-219"/>
<polyline fill="none" stroke="gray" points="157,-219 157,-213 "/>
<polyline fill="none" stroke="gray" points="163,-213 157,-213 "/>
<text text-anchor="start" x="77" y="-205" font-family="Times New Roman,serif" font-size="10.00">type:</text>
<text text-anchor="start" x="101" y="-205" font-family="Times New Roman,serif" font-size="10.00">u2p:Drive</text>
<text text-anchor="start" x="77" y="-192" font-family="Times New Roman,serif" font-size="10.00">state:</text>
<text text-anchor="start" x="101" y="-192" font-family="Times New Roman,serif" font-size="10.00">u2p:Stopped</text>
</g>
<!-- &#45;attrs3&#45;&gt;http://example.org/Drive@36d4b5c_2 -->
<g id="edge4" class="edge"><title>&#45;attrs3&#45;&gt;http://example.org/Drive@36d4b5c_2</title>
<path fill="none" stroke="gray" stroke-dasharray="5,2" d="M115,-219.303C115,-230.154 115,-244.083 115,-254.896"/>
</g>
<!-- &#45;attrs4 -->
<g id="node10" class="node"><title>&#45;attrs4</title>
<polygon fill="none" stroke="gray" points="93.5,-363 16.5,-363 16.5,-327 99.5,-327 99.5,-357 93.5,-363"/>
<polyline fill="none" stroke="gray" points="93.5,-363 93.5,-357 "/>
<polyline fill="none" stroke="gray" points="99.5,-357 93.5,-357 "/>
<text text-anchor="start" x="27" y="-342" font-family="Times New Roman,serif" font-size="10.00">type:</text>
<text text-anchor="start" x="50" y="-342" font-family="Times New Roman,serif" font-size="10.00">u2p:Drive</text>
</g>
<!-- &#45;attrs4&#45;&gt;http://example.org/Drive@36d4b5c -->
<g id="edge5" class="edge"><title>&#45;attrs4&#45;&gt;http://example.org/Drive@36d4b5c</title>
<path fill="none" stroke="gray" stroke-dasharray="5,2" d="M80.7416,-363.303C96.5983,-375.368 117.459,-391.24 132.127,-402.401"/>
</g>
</g>
</svg>
