<?xml version="1.0" encoding="UTF-8" standalone="no"?>
<!DOCTYPE svg PUBLIC "-//W3C//DTD SVG 1.1//EN"
 "http://www.w3.org/Graphics/SVG/1.1/DTD/svg11.dtd">
<!-- Generated by graphviz version 2.38.0 (20140413.2041)
 -->
<!-- Title: PROV Pages: 1 -->
<svg width="352pt" height="459pt"
 viewBox="0.00 0.00 352.00 459.00" xmlns="http://www.w3.org/2000/svg" xmlns:xlink="http://www.w3.org/1999/xlink">
<g id="graph0" class="graph" transform="scale(1 1) rotate(0) translate(4 455)">
<title>PROV</title>
<polygon fill="white" stroke="none" points="-4,4 -4,-455 348,-455 348,4 -4,4"/>
<g id="clust1" class="cluster"><title>clusterhttp://example.org/bundle1</title>
<g id="a_clust1"><a xlink:href="http://example.org/bundle1" xlink:title="bundle1">
<polygon fill="none" stroke="black" points="8,-8 8,-443 336,-443 336,-8 8,-8"/>
<text text-anchor="middle" x="172" y="-15.8" font-family="Times New Roman,serif" font-size="14.00">bundle1</text>
</a>
</g>
</g>
<!-- http://example.org/open_1 -->
<g id="node1" class="node"><title>http://example.org/open_1</title>
<g id="a_node1"><a xlink:href="http://example.org/open_1" xlink:title="open_1">
<polygon fill="#9fb1fc" stroke="#0000ff" points="237.5,-219 178.5,-219 178.5,-183 237.5,-183 237.5,-219"/>
<text text-anchor="middle" x="208" y="-197.3" font-family="Times New Roman,serif" font-size="14.00">open_1</text>
</a>
</g>
</g>
<!-- http://example.org/Door@3a82f6ef_1 -->
<g id="node7" class="node"><title>http://example.org/Door@3a82f6ef_1</title>
<g id="a_node7"><a xlink:href="http://example.org/Door@3a82f6ef_1" xlink:title="Door@3a82f6ef_1">
<ellipse fill="#fffc87" stroke="#808080" cx="115" cy="-273" rx="78.7863" ry="18"/>
<text text-anchor="middle" x="115" y="-269.3" font-family="Times New Roman,serif" font-size="14.00">Door@3a82f6ef_1</text>
</a>
</g>
</g>
<!-- http://example.org/open_1&#45;&gt;http://example.org/Door@3a82f6ef_1 -->
<g id="edge11" class="edge"><title>http://example.org/open_1&#45;&gt;http://example.org/Door@3a82f6ef_1</title>
<path fill="none" stroke="black" d="M179.353,-219.124C166.533,-228.069 151.654,-239.143 139.372,-248.843"/>
<polygon fill="black" stroke="black" points="136.945,-246.303 131.342,-255.294 141.33,-251.759 136.945,-246.303"/>
<text text-anchor="middle" x="180.688" y="-232.164" font-family="Times New Roman,serif" font-size="8.00">use</text>
</g>
<!-- &#45;attrs0 -->
<g id="node2" class="node"><title>&#45;attrs0</title>
<polygon fill="none" stroke="gray" points="266.5,-147 191.5,-147 191.5,-111 272.5,-111 272.5,-141 266.5,-147"/>
<polyline fill="none" stroke="gray" points="266.5,-147 266.5,-141 "/>
<polyline fill="none" stroke="gray" points="272.5,-141 266.5,-141 "/>
<text text-anchor="start" x="202" y="-126" font-family="Times New Roman,serif" font-size="10.00">type:</text>
<text text-anchor="start" x="225" y="-126" font-family="Times New Roman,serif" font-size="10.00">u2p:open</text>
</g>
<!-- &#45;attrs0&#45;&gt;http://example.org/open_1 -->
<g id="edge1" class="edge"><title>&#45;attrs0&#45;&gt;http://example.org/open_1</title>
<path fill="none" stroke="gray" stroke-dasharray="5,2" d="M226.067,-147.303C222.347,-158.154 217.571,-172.083 213.864,-182.896"/>
</g>
<!-- http://example.org/Door@3a82f6ef_0 -->
<g id="node3" class="node"><title>http://example.org/Door@3a82f6ef_0</title>
<g id="a_node3"><a xlink:href="http://example.org/Door@3a82f6ef_0" xlink:title="Door@3a82f6ef_0">
<ellipse fill="#fffc87" stroke="#808080" cx="194" cy="-345" rx="78.7863" ry="18"/>
<text text-anchor="middle" x="194" y="-341.3" font-family="Times New Roman,serif" font-size="14.00">Door@3a82f6ef_0</text>
</a>
</g>
</g>
<!-- http://example.org/Door@3a82f6ef -->
<g id="node9" class="node"><title>http://example.org/Door@3a82f6ef</title>
<g id="a_node9"><a xlink:href="http://example.org/Door@3a82f6ef" xlink:title="Door@3a82f6ef">
<polygon fill="#fdb266" stroke="black" points="233.922,-422.562 148,-435 62.0782,-422.562 62.1584,-402.438 233.842,-402.438 233.922,-422.562"/>
<text text-anchor="middle" x="148" y="-413.3" font-family="Times New Roman,serif" font-size="14.00">Door@3a82f6ef</text>
</a>
</g>
</g>
<!-- http://example.org/Door@3a82f6ef_0&#45;&gt;http://example.org/Door@3a82f6ef -->
<g id="edge6" class="edge"><title>http://example.org/Door@3a82f6ef_0&#45;&gt;http://example.org/Door@3a82f6ef</title>
<path fill="none" stroke="black" d="M182.865,-362.945C176.839,-372.115 169.317,-383.561 162.804,-393.473"/>
<polygon fill="black" stroke="black" points="159.744,-391.755 157.178,-402.034 165.594,-395.599 159.744,-391.755"/>
<text text-anchor="middle" x="189.602" y="-374.447" font-family="Times New Roman,serif" font-size="8.00">att</text>
</g>
<!-- &#45;attrs1 -->
<g id="node4" class="node"><title>&#45;attrs1</title>
<polygon fill="none" stroke="gray" points="322,-291 212,-291 212,-255 328,-255 328,-285 322,-291"/>
<polyline fill="none" stroke="gray" points="322,-291 322,-285 "/>
<polyline fill="none" stroke="gray" points="328,-285 322,-285 "/>
<text text-anchor="start" x="222" y="-270" font-family="Times New Roman,serif" font-size="10.00">type:</text>
<text text-anchor="start" x="245" y="-270" font-family="Times New Roman,serif" font-size="10.00">u2p:StateMachine</text>
</g>
<!-- &#45;attrs1&#45;&gt;http://example.org/Door@3a82f6ef_0 -->
<g id="edge2" class="edge"><title>&#45;attrs1&#45;&gt;http://example.org/Door@3a82f6ef_0</title>
<path fill="none" stroke="gray" stroke-dasharray="5,2" d="M251.213,-291.303C239.257,-302.316 223.857,-316.5 212.047,-327.378"/>
</g>
<!-- http://example.org/Door@3a82f6ef_2 -->
<g id="node5" class="node"><title>http://example.org/Door@3a82f6ef_2</title>
<g id="a_node5"><a xlink:href="http://example.org/Door@3a82f6ef_2" xlink:title="Door@3a82f6ef_2">
<ellipse fill="#fffc87" stroke="#808080" cx="95" cy="-129" rx="78.7863" ry="18"/>
<text text-anchor="middle" x="95" y="-125.3" font-family="Times New Roman,serif" font-size="14.00">Door@3a82f6ef_2</text>
</a>
</g>
</g>
<!-- http://example.org/Door@3a82f6ef_2&#45;&gt;http://example.org/open_1 -->
<g id="edge8" class="edge"><title>http://example.org/Door@3a82f6ef_2&#45;&gt;http://example.org/open_1</title>
<path fill="none" stroke="black" d="M120.924,-146.059C135.878,-155.323 154.922,-167.12 171.384,-177.317"/>
<polygon fill="black" stroke="black" points="169.877,-180.501 180.221,-182.792 173.564,-174.55 169.877,-180.501"/>
<text text-anchor="middle" x="134.141" y="-137.066" font-family="Times New Roman,serif" font-size="8.00">gen</text>
</g>
<!-- http://example.org/Door@3a82f6ef_2&#45;&gt;http://example.org/Door@3a82f6ef_0 -->
<g id="edge7" class="edge"><title>http://example.org/Door@3a82f6ef_2&#45;&gt;http://example.org/Door@3a82f6ef_0</title>
<path fill="none" stroke="black" d="M77.4554,-146.822C47.4729,-177.629 -7.22465,-244.231 27,-291 39.1145,-307.555 84.8214,-321.377 125.36,-330.752"/>
<polygon fill="black" stroke="black" points="124.736,-334.199 135.261,-332.979 126.273,-327.369 124.736,-334.199"/>
<text text-anchor="middle" x="81.8001" y="-159.279" font-family="Times New Roman,serif" font-size="8.00">spe</text>
</g>
<!-- http://example.org/Door@3a82f6ef_2&#45;&gt;http://example.org/Door@3a82f6ef_1 -->
<g id="edge9" class="edge"><title>http://example.org/Door@3a82f6ef_2&#45;&gt;http://example.org/Door@3a82f6ef_1</title>
<path fill="none" stroke="black" d="M80.6679,-146.86C67.2031,-164.856 50.5662,-194.14 61,-219 65.8453,-230.545 74.568,-240.84 83.6093,-249.215"/>
<polygon fill="black" stroke="black" points="81.3486,-251.887 91.2008,-255.784 85.9292,-246.594 81.3486,-251.887"/>
<text text-anchor="middle" x="86.8518" y="-158.626" font-family="Times New Roman,serif" font-size="8.00">der</text>
</g>
<!-- &#45;attrs2 -->
<g id="node6" class="node"><title>&#45;attrs2</title>
<polygon fill="none" stroke="gray" points="135.5,-75 48.5,-75 48.5,-39 141.5,-39 141.5,-69 135.5,-75"/>
<polyline fill="none" stroke="gray" points="135.5,-75 135.5,-69 "/>
<polyline fill="none" stroke="gray" points="141.5,-69 135.5,-69 "/>
<text text-anchor="start" x="59" y="-61" font-family="Times New Roman,serif" font-size="10.00">type:</text>
<text text-anchor="start" x="83" y="-61" font-family="Times New Roman,serif" font-size="10.00">u2p:Door</text>
<text text-anchor="start" x="59" y="-48" font-family="Times New Roman,serif" font-size="10.00">state:</text>
<text text-anchor="start" x="83" y="-48" font-family="Times New Roman,serif" font-size="10.00">u2p:Opened</text>
</g>
<!-- &#45;attrs2&#45;&gt;http://example.org/Door@3a82f6ef_2 -->
<g id="edge3" class="edge"><title>&#45;attrs2&#45;&gt;http://example.org/Door@3a82f6ef_2</title>
<path fill="none" stroke="gray" stroke-dasharray="5,2" d="M95,-75.3034C95,-86.1537 95,-100.083 95,-110.896"/>
</g>
<!-- http://example.org/Door@3a82f6ef_1&#45;&gt;http://example.org/open_1 -->
<g id="edge10" class="edge"><title>http://example.org/Door@3a82f6ef_1&#45;&gt;http://example.org/open_1</title>
<path fill="none" stroke="black" d="M152.299,-248.743C162.64,-241.305 173.592,-233.066 183.062,-225.604"/>
<polygon fill="none" stroke="black" points="152.038,-248.927 149.448,-255.658 142.24,-255.855 144.83,-249.125 152.038,-248.927"/>
<polygon fill="black" stroke="black" points="185.311,-228.287 190.927,-219.303 180.934,-222.824 185.311,-228.287"/>
<text text-anchor="middle" x="140.864" y="-239.019" font-family="Times New Roman,serif" font-size="8.00">inv</text>
</g>
<!-- http://example.org/Door@3a82f6ef_1&#45;&gt;http://example.org/Door@3a82f6ef_0 -->
<g id="edge12" class="edge"><title>http://example.org/Door@3a82f6ef_1&#45;&gt;http://example.org/Door@3a82f6ef_0</title>
<path fill="none" stroke="black" d="M133.722,-290.589C143.782,-299.503 156.356,-310.645 167.413,-320.442"/>
<polygon fill="black" stroke="black" points="165.333,-323.275 175.139,-327.287 169.975,-318.036 165.333,-323.275"/>
<text text-anchor="middle" x="147.95" y="-283.94" font-family="Times New Roman,serif" font-size="8.00">spe</text>
</g>
<!-- &#45;attrs3 -->
<g id="node8" class="node"><title>&#45;attrs3</title>
<polygon fill="none" stroke="gray" points="154,-219 70,-219 70,-183 160,-183 160,-213 154,-219"/>
<polyline fill="none" stroke="gray" points="154,-219 154,-213 "/>
<polyline fill="none" stroke="gray" points="160,-213 154,-213 "/>
<text text-anchor="start" x="80" y="-205" font-family="Times New Roman,serif" font-size="10.00">type:</text>
<text text-anchor="start" x="104" y="-205" font-family="Times New Roman,serif" font-size="10.00">u2p:Door</text>
<text text-anchor="start" x="80" y="-192" font-family="Times New Roman,serif" font-size="10.00">state:</text>
<text text-anchor="start" x="104" y="-192" font-family="Times New Roman,serif" font-size="10.00">u2p:Closed</text>
</g>
<!-- &#45;attrs3&#45;&gt;http://example.org/Door@3a82f6ef_1 -->
<g id="edge4" class="edge"><title>&#45;attrs3&#45;&gt;http://example.org/Door@3a82f6ef_1</title>
<path fill="none" stroke="gray" stroke-dasharray="5,2" d="M115,-219.303C115,-230.154 115,-244.083 115,-254.896"/>
</g>
<!-- &#45;attrs4 -->
<g id="node10" class="node"><title>&#45;attrs4</title>
<polygon fill="none" stroke="gray" points="91.5,-363 16.5,-363 16.5,-327 97.5,-327 97.5,-357 91.5,-363"/>
<polyline fill="none" stroke="gray" points="91.5,-363 91.5,-357 "/>
<polyline fill="none" stroke="gray" points="97.5,-357 91.5,-357 "/>
<text text-anchor="start" x="27" y="-342" font-family="Times New Roman,serif" font-size="10.00">type:</text>
<text text-anchor="start" x="50" y="-342" font-family="Times New Roman,serif" font-size="10.00">u2p:Door</text>
</g>
<!-- &#45;attrs4&#45;&gt;http://example.org/Door@3a82f6ef -->
<g id="edge5" class="edge"><title>&#45;attrs4&#45;&gt;http://example.org/Door@3a82f6ef</title>
<path fill="none" stroke="gray" stroke-dasharray="5,2" d="M79.4944,-363.303C95.1788,-375.368 115.813,-391.24 130.321,-402.401"/>
</g>
</g>
</svg>
