<?xml version="1.0" encoding="UTF-8" standalone="no"?>
<!DOCTYPE svg PUBLIC "-//W3C//DTD SVG 1.1//EN"
 "http://www.w3.org/Graphics/SVG/1.1/DTD/svg11.dtd">
<!-- Generated by graphviz version 2.38.0 (20140413.2041)
 -->
<!-- Title: PROV Pages: 1 -->
<svg width="518pt" height="243pt"
 viewBox="0.00 0.00 518.00 243.00" xmlns="http://www.w3.org/2000/svg" xmlns:xlink="http://www.w3.org/1999/xlink">
<g id="graph0" class="graph" transform="scale(1 1) rotate(0) translate(4 239)">
<title>PROV</title>
<polygon fill="white" stroke="none" points="-4,4 -4,-239 514,-239 514,4 -4,4"/>
<g id="clust1" class="cluster"><title>clusterhttp://example.org/bundle1</title>
<g id="a_clust1"><a xlink:href="http://example.org/bundle1" xlink:title="bundle1">
<polygon fill="none" stroke="black" points="8,-8 8,-227 502,-227 502,-8 8,-8"/>
<text text-anchor="middle" x="255" y="-15.8" font-family="Times New Roman,serif" font-size="14.00">bundle1</text>
</a>
</g>
</g>
<!-- http://example.org/open_1 -->
<g id="node1" class="node"><title>http://example.org/open_1</title>
<g id="a_node1"><a xlink:href="http://example.org/open_1" xlink:title="open_1">
<polygon fill="#9fb1fc" stroke="#0000ff" points="335.5,-147 276.5,-147 276.5,-111 335.5,-111 335.5,-147"/>
<text text-anchor="middle" x="306" y="-125.3" font-family="Times New Roman,serif" font-size="14.00">open_1</text>
</a>
</g>
</g>
<!-- http://example.org/dataset.caseStudy.CS5ElevatorBis.DoorControl@ -->
<g id="node4" class="node"><title>http://example.org/dataset.caseStudy.CS5ElevatorBis.DoorControl@</title>
<g id="a_node4"><a xlink:href="http://example.org/dataset.caseStudy.CS5ElevatorBis.DoorControl@" xlink:title="dataset.caseStudy.CS5ElevatorBis.DoorControl@">
<polygon fill="#fdb266" stroke="black" points="494.31,-206.562 255,-219 15.6897,-206.562 15.9131,-186.438 494.087,-186.438 494.31,-206.562"/>
<text text-anchor="middle" x="255" y="-197.3" font-family="Times New Roman,serif" font-size="14.00">dataset.caseStudy.CS5ElevatorBis.DoorControl@</text>
</a>
</g>
</g>
<!-- http://example.org/open_1&#45;&gt;http://example.org/dataset.caseStudy.CS5ElevatorBis.DoorControl@ -->
<g id="edge3" class="edge"><title>http://example.org/open_1&#45;&gt;http://example.org/dataset.caseStudy.CS5ElevatorBis.DoorControl@</title>
<path fill="none" stroke="black" d="M293.393,-147.303C286.64,-156.572 278.25,-168.088 271.037,-177.988"/>
<polygon fill="black" stroke="black" points="268.132,-176.032 265.072,-186.175 273.79,-180.154 268.132,-176.032"/>
<text text-anchor="middle" x="299.476" y="-159.115" font-family="Times New Roman,serif" font-size="8.00">assoc</text>
</g>
<!-- &#45;attrs0 -->
<g id="node2" class="node"><title>&#45;attrs0</title>
<polygon fill="none" stroke="gray" points="388.5,-75 313.5,-75 313.5,-39 394.5,-39 394.5,-69 388.5,-75"/>
<polyline fill="none" stroke="gray" points="388.5,-75 388.5,-69 "/>
<polyline fill="none" stroke="gray" points="394.5,-69 388.5,-69 "/>
<text text-anchor="start" x="324" y="-54" font-family="Times New Roman,serif" font-size="10.00">type:</text>
<text text-anchor="start" x="347" y="-54" font-family="Times New Roman,serif" font-size="10.00">u2p:open</text>
</g>
<!-- &#45;attrs0&#45;&gt;http://example.org/open_1 -->
<g id="edge1" class="edge"><title>&#45;attrs0&#45;&gt;http://example.org/open_1</title>
<path fill="none" stroke="gray" stroke-dasharray="5,2" d="M342.135,-75.3034C334.695,-86.1537 325.143,-100.083 317.729,-110.896"/>
</g>
<!-- http://openprovenance.org/var#output0 -->
<g id="node3" class="node"><title>http://openprovenance.org/var#output0</title>
<g id="a_node3"><a xlink:href="http://openprovenance.org/var#output0" xlink:title="output0">
<ellipse fill="#fffc87" stroke="#808080" cx="257" cy="-57" rx="38.1938" ry="18"/>
<text text-anchor="middle" x="257" y="-53.3" font-family="Times New Roman,serif" font-size="14.00">output0</text>
</a>
</g>
</g>
<!-- http://openprovenance.org/var#output0&#45;&gt;http://example.org/open_1 -->
<g id="edge4" class="edge"><title>http://openprovenance.org/var#output0&#45;&gt;http://example.org/open_1</title>
<path fill="none" stroke="black" d="M268.365,-74.2354C274.252,-82.6462 281.577,-93.1096 288.195,-102.564"/>
<polygon fill="black" stroke="black" points="285.411,-104.691 294.013,-110.876 291.146,-100.677 285.411,-104.691"/>
<text text-anchor="middle" x="283.308" y="-71.0301" font-family="Times New Roman,serif" font-size="8.00">gen</text>
</g>
<!-- &#45;attrs1 -->
<g id="node5" class="node"><title>&#45;attrs1</title>
<polygon fill="none" stroke="gray" points="252.5,-147 147.5,-147 147.5,-111 258.5,-111 258.5,-141 252.5,-147"/>
<polyline fill="none" stroke="gray" points="252.5,-147 252.5,-141 "/>
<polyline fill="none" stroke="gray" points="258.5,-141 252.5,-141 "/>
<text text-anchor="start" x="158" y="-126" font-family="Times New Roman,serif" font-size="10.00">type:</text>
<text text-anchor="start" x="181" y="-126" font-family="Times New Roman,serif" font-size="10.00">u2p:DoorControl</text>
</g>
<!-- &#45;attrs1&#45;&gt;http://example.org/dataset.caseStudy.CS5ElevatorBis.DoorControl@ -->
<g id="edge2" class="edge"><title>&#45;attrs1&#45;&gt;http://example.org/dataset.caseStudy.CS5ElevatorBis.DoorControl@</title>
<path fill="none" stroke="gray" stroke-dasharray="5,2" d="M215.854,-147.303C224.756,-159.287 236.449,-175.028 244.73,-186.175"/>
</g>
</g>
</svg>
