<?xml version="1.0" encoding="UTF-8" standalone="no"?>
<!DOCTYPE svg PUBLIC "-//W3C//DTD SVG 1.1//EN"
 "http://www.w3.org/Graphics/SVG/1.1/DTD/svg11.dtd">
<!-- Generated by graphviz version 2.38.0 (20140413.2041)
 -->
<!-- Title: PROV Pages: 1 -->
<svg width="398pt" height="459pt"
 viewBox="0.00 0.00 398.00 459.00" xmlns="http://www.w3.org/2000/svg" xmlns:xlink="http://www.w3.org/1999/xlink">
<g id="graph0" class="graph" transform="scale(1 1) rotate(0) translate(4 455)">
<title>PROV</title>
<polygon fill="white" stroke="none" points="-4,4 -4,-455 394,-455 394,4 -4,4"/>
<g id="clust1" class="cluster"><title>clusterhttp://example.org/bundle1</title>
<g id="a_clust1"><a xlink:href="http://example.org/bundle1" xlink:title="bundle1">
<polygon fill="none" stroke="black" points="8,-8 8,-443 382,-443 382,-8 8,-8"/>
<text text-anchor="middle" x="195" y="-15.8" font-family="Times New Roman,serif" font-size="14.00">bundle1</text>
</a>
</g>
</g>
<!-- http://example.org/press_1 -->
<g id="node1" class="node"><title>http://example.org/press_1</title>
<g id="a_node1"><a xlink:href="http://example.org/press_1" xlink:title="press_1">
<polygon fill="#9fb1fc" stroke="#0000ff" points="269.5,-219 208.5,-219 208.5,-183 269.5,-183 269.5,-219"/>
<text text-anchor="middle" x="239" y="-197.3" font-family="Times New Roman,serif" font-size="14.00">press_1</text>
</a>
</g>
</g>
<!-- http://example.org/HallButton@2db0f6b2_3 -->
<g id="node7" class="node"><title>http://example.org/HallButton@2db0f6b2_3</title>
<g id="a_node7"><a xlink:href="http://example.org/HallButton@2db0f6b2_3" xlink:title="HallButton@2db0f6b2_3">
<ellipse fill="#fffc87" stroke="#808080" cx="138" cy="-273" rx="102.082" ry="18"/>
<text text-anchor="middle" x="138" y="-269.3" font-family="Times New Roman,serif" font-size="14.00">HallButton@2db0f6b2_3</text>
</a>
</g>
</g>
<!-- http://example.org/press_1&#45;&gt;http://example.org/HallButton@2db0f6b2_3 -->
<g id="edge11" class="edge"><title>http://example.org/press_1&#45;&gt;http://example.org/HallButton@2db0f6b2_3</title>
<path fill="none" stroke="black" d="M208.396,-219.124C194.523,-228.089 178.338,-239.192 164.931,-248.906"/>
<polygon fill="black" stroke="black" points="162.556,-246.308 156.574,-255.053 166.703,-251.947 162.556,-246.308"/>
<text text-anchor="middle" x="209.194" y="-232.203" font-family="Times New Roman,serif" font-size="8.00">use</text>
</g>
<!-- &#45;attrs0 -->
<g id="node2" class="node"><title>&#45;attrs0</title>
<polygon fill="none" stroke="gray" points="315.5,-147 238.5,-147 238.5,-111 321.5,-111 321.5,-141 315.5,-147"/>
<polyline fill="none" stroke="gray" points="315.5,-147 315.5,-141 "/>
<polyline fill="none" stroke="gray" points="321.5,-141 315.5,-141 "/>
<text text-anchor="start" x="249" y="-126" font-family="Times New Roman,serif" font-size="10.00">type:</text>
<text text-anchor="start" x="272" y="-126" font-family="Times New Roman,serif" font-size="10.00">u2p:press</text>
</g>
<!-- &#45;attrs0&#45;&gt;http://example.org/press_1 -->
<g id="edge1" class="edge"><title>&#45;attrs0&#45;&gt;http://example.org/press_1</title>
<path fill="none" stroke="gray" stroke-dasharray="5,2" d="M269.865,-147.303C263.51,-158.154 255.351,-172.083 249.018,-182.896"/>
</g>
<!-- http://example.org/HallButton@2db0f6b2_0 -->
<g id="node3" class="node"><title>http://example.org/HallButton@2db0f6b2_0</title>
<g id="a_node3"><a xlink:href="http://example.org/HallButton@2db0f6b2_0" xlink:title="HallButton@2db0f6b2_0">
<ellipse fill="#fffc87" stroke="#808080" cx="240" cy="-345" rx="102.082" ry="18"/>
<text text-anchor="middle" x="240" y="-341.3" font-family="Times New Roman,serif" font-size="14.00">HallButton@2db0f6b2_0</text>
</a>
</g>
</g>
<!-- http://example.org/HallButton@2db0f6b2 -->
<g id="node9" class="node"><title>http://example.org/HallButton@2db0f6b2</title>
<g id="a_node9"><a xlink:href="http://example.org/HallButton@2db0f6b2" xlink:title="HallButton@2db0f6b2">
<polygon fill="#fdb266" stroke="black" points="299.765,-422.562 185,-435 70.2352,-422.562 70.3423,-402.438 299.658,-402.438 299.765,-422.562"/>
<text text-anchor="middle" x="185" y="-413.3" font-family="Times New Roman,serif" font-size="14.00">HallButton@2db0f6b2</text>
</a>
</g>
</g>
<!-- http://example.org/HallButton@2db0f6b2_0&#45;&gt;http://example.org/HallButton@2db0f6b2 -->
<g id="edge6" class="edge"><title>http://example.org/HallButton@2db0f6b2_0&#45;&gt;http://example.org/HallButton@2db0f6b2</title>
<path fill="none" stroke="black" d="M226.686,-362.945C219.334,-372.302 210.12,-384.03 202.225,-394.078"/>
<polygon fill="black" stroke="black" points="199.399,-392.009 195.973,-402.034 204.904,-396.333 199.399,-392.009"/>
<text text-anchor="middle" x="232.267" y="-374.968" font-family="Times New Roman,serif" font-size="8.00">att</text>
</g>
<!-- &#45;attrs1 -->
<g id="node4" class="node"><title>&#45;attrs1</title>
<polygon fill="none" stroke="gray" points="368,-291 258,-291 258,-255 374,-255 374,-285 368,-291"/>
<polyline fill="none" stroke="gray" points="368,-291 368,-285 "/>
<polyline fill="none" stroke="gray" points="374,-285 368,-285 "/>
<text text-anchor="start" x="268" y="-270" font-family="Times New Roman,serif" font-size="10.00">type:</text>
<text text-anchor="start" x="291" y="-270" font-family="Times New Roman,serif" font-size="10.00">u2p:StateMachine</text>
</g>
<!-- &#45;attrs1&#45;&gt;http://example.org/HallButton@2db0f6b2_0 -->
<g id="edge2" class="edge"><title>&#45;attrs1&#45;&gt;http://example.org/HallButton@2db0f6b2_0</title>
<path fill="none" stroke="gray" stroke-dasharray="5,2" d="M297.213,-291.303C285.345,-302.235 270.084,-316.291 258.308,-327.137"/>
</g>
<!-- http://example.org/HallButton@2db0f6b2_4 -->
<g id="node5" class="node"><title>http://example.org/HallButton@2db0f6b2_4</title>
<g id="a_node5"><a xlink:href="http://example.org/HallButton@2db0f6b2_4" xlink:title="HallButton@2db0f6b2_4">
<ellipse fill="#fffc87" stroke="#808080" cx="118" cy="-129" rx="102.082" ry="18"/>
<text text-anchor="middle" x="118" y="-125.3" font-family="Times New Roman,serif" font-size="14.00">HallButton@2db0f6b2_4</text>
</a>
</g>
</g>
<!-- http://example.org/HallButton@2db0f6b2_4&#45;&gt;http://example.org/press_1 -->
<g id="edge8" class="edge"><title>http://example.org/HallButton@2db0f6b2_4&#45;&gt;http://example.org/press_1</title>
<path fill="none" stroke="black" d="M146.369,-146.412C162.548,-155.772 183.047,-167.63 200.645,-177.811"/>
<polygon fill="black" stroke="black" points="199.137,-180.982 209.545,-182.96 202.642,-174.923 199.137,-180.982"/>
<text text-anchor="middle" x="159.366" y="-137.023" font-family="Times New Roman,serif" font-size="8.00">gen</text>
</g>
<!-- http://example.org/HallButton@2db0f6b2_4&#45;&gt;http://example.org/HallButton@2db0f6b2_0 -->
<g id="edge7" class="edge"><title>http://example.org/HallButton@2db0f6b2_4&#45;&gt;http://example.org/HallButton@2db0f6b2_0</title>
<path fill="none" stroke="black" d="M95.7791,-146.762C58.1154,-177.188 -10.6679,-242.811 27,-291 35.6658,-302.086 105.239,-318.023 162.551,-329.523"/>
<polygon fill="black" stroke="black" points="161.87,-332.956 172.36,-331.472 163.234,-326.09 161.87,-332.956"/>
<text text-anchor="middle" x="98.3709" y="-159.636" font-family="Times New Roman,serif" font-size="8.00">spe</text>
</g>
<!-- http://example.org/HallButton@2db0f6b2_4&#45;&gt;http://example.org/HallButton@2db0f6b2_3 -->
<g id="edge9" class="edge"><title>http://example.org/HallButton@2db0f6b2_4&#45;&gt;http://example.org/HallButton@2db0f6b2_3</title>
<path fill="none" stroke="black" d="M99.8341,-146.776C90.7906,-156.387 80.787,-169.252 76,-183 70.7388,-198.11 69.3046,-204.468 76,-219 81.5174,-230.975 91.2229,-241.25 101.34,-249.478"/>
<polygon fill="black" stroke="black" points="99.3842,-252.387 109.47,-255.631 103.609,-246.805 99.3842,-252.387"/>
<text text-anchor="middle" x="104.328" y="-159.187" font-family="Times New Roman,serif" font-size="8.00">der</text>
</g>
<!-- &#45;attrs2 -->
<g id="node6" class="node"><title>&#45;attrs2</title>
<polygon fill="none" stroke="gray" points="164.5,-75 65.5,-75 65.5,-39 170.5,-39 170.5,-69 164.5,-75"/>
<polyline fill="none" stroke="gray" points="164.5,-75 164.5,-69 "/>
<polyline fill="none" stroke="gray" points="170.5,-69 164.5,-69 "/>
<text text-anchor="start" x="76" y="-61" font-family="Times New Roman,serif" font-size="10.00">type:</text>
<text text-anchor="start" x="100" y="-61" font-family="Times New Roman,serif" font-size="10.00">u2p:HallButton</text>
<text text-anchor="start" x="76" y="-48" font-family="Times New Roman,serif" font-size="10.00">state:</text>
<text text-anchor="start" x="100" y="-48" font-family="Times New Roman,serif" font-size="10.00">u2p:nolighted</text>
</g>
<!-- &#45;attrs2&#45;&gt;http://example.org/HallButton@2db0f6b2_4 -->
<g id="edge3" class="edge"><title>&#45;attrs2&#45;&gt;http://example.org/HallButton@2db0f6b2_4</title>
<path fill="none" stroke="gray" stroke-dasharray="5,2" d="M118,-75.3034C118,-86.1537 118,-100.083 118,-110.896"/>
</g>
<!-- http://example.org/HallButton@2db0f6b2_3&#45;&gt;http://example.org/press_1 -->
<g id="edge10" class="edge"><title>http://example.org/HallButton@2db0f6b2_3&#45;&gt;http://example.org/press_1</title>
<path fill="none" stroke="black" d="M177.677,-248.929C189.114,-241.333 201.306,-232.886 211.819,-225.275"/>
<polygon fill="none" stroke="black" points="177.497,-249.047 174.666,-255.679 167.455,-255.617 170.286,-248.985 177.497,-249.047"/>
<polygon fill="black" stroke="black" points="213.962,-228.044 219.949,-219.303 209.818,-222.402 213.962,-228.044"/>
<text text-anchor="middle" x="166.619" y="-238.74" font-family="Times New Roman,serif" font-size="8.00">inv</text>
</g>
<!-- http://example.org/HallButton@2db0f6b2_3&#45;&gt;http://example.org/HallButton@2db0f6b2_0 -->
<g id="edge12" class="edge"><title>http://example.org/HallButton@2db0f6b2_3&#45;&gt;http://example.org/HallButton@2db0f6b2_0</title>
<path fill="none" stroke="black" d="M162.173,-290.589C175.666,-299.849 192.662,-311.513 207.327,-321.577"/>
<polygon fill="black" stroke="black" points="205.422,-324.515 215.647,-327.287 209.383,-318.743 205.422,-324.515"/>
<text text-anchor="middle" x="175.707" y="-282.222" font-family="Times New Roman,serif" font-size="8.00">spe</text>
</g>
<!-- &#45;attrs3 -->
<g id="node8" class="node"><title>&#45;attrs3</title>
<polygon fill="none" stroke="gray" points="184.5,-219 85.5,-219 85.5,-183 190.5,-183 190.5,-213 184.5,-219"/>
<polyline fill="none" stroke="gray" points="184.5,-219 184.5,-213 "/>
<polyline fill="none" stroke="gray" points="190.5,-213 184.5,-213 "/>
<text text-anchor="start" x="96" y="-205" font-family="Times New Roman,serif" font-size="10.00">type:</text>
<text text-anchor="start" x="120" y="-205" font-family="Times New Roman,serif" font-size="10.00">u2p:HallButton</text>
<text text-anchor="start" x="96" y="-192" font-family="Times New Roman,serif" font-size="10.00">state:</text>
<text text-anchor="start" x="120" y="-192" font-family="Times New Roman,serif" font-size="10.00">u2p:nolighted</text>
</g>
<!-- &#45;attrs3&#45;&gt;http://example.org/HallButton@2db0f6b2_3 -->
<g id="edge4" class="edge"><title>&#45;attrs3&#45;&gt;http://example.org/HallButton@2db0f6b2_3</title>
<path fill="none" stroke="gray" stroke-dasharray="5,2" d="M138,-219.303C138,-230.154 138,-244.083 138,-254.896"/>
</g>
<!-- &#45;attrs4 -->
<g id="node10" class="node"><title>&#45;attrs4</title>
<polygon fill="none" stroke="gray" points="114,-363 16,-363 16,-327 120,-327 120,-357 114,-363"/>
<polyline fill="none" stroke="gray" points="114,-363 114,-357 "/>
<polyline fill="none" stroke="gray" points="120,-357 114,-357 "/>
<text text-anchor="start" x="26" y="-342" font-family="Times New Roman,serif" font-size="10.00">type:</text>
<text text-anchor="start" x="49" y="-342" font-family="Times New Roman,serif" font-size="10.00">u2p:HallButton</text>
</g>
<!-- &#45;attrs4&#45;&gt;http://example.org/HallButton@2db0f6b2 -->
<g id="edge5" class="edge"><title>&#45;attrs4&#45;&gt;http://example.org/HallButton@2db0f6b2</title>
<path fill="none" stroke="gray" stroke-dasharray="5,2" d="M96.6214,-363.124C116.782,-375.186 143.413,-391.119 162.154,-402.331"/>
</g>
</g>
</svg>
