<?xml version="1.0" encoding="UTF-8" standalone="no"?>
<!DOCTYPE svg PUBLIC "-//W3C//DTD SVG 1.1//EN"
 "http://www.w3.org/Graphics/SVG/1.1/DTD/svg11.dtd">
<!-- Generated by graphviz version 2.38.0 (20140413.2041)
 -->
<!-- Title: PROV Pages: 1 -->
<svg width="234pt" height="243pt"
 viewBox="0.00 0.00 234.00 243.00" xmlns="http://www.w3.org/2000/svg" xmlns:xlink="http://www.w3.org/1999/xlink">
<g id="graph0" class="graph" transform="scale(1 1) rotate(0) translate(4 239)">
<title>PROV</title>
<polygon fill="white" stroke="none" points="-4,4 -4,-239 230,-239 230,4 -4,4"/>
<g id="clust1" class="cluster"><title>clusterhttp://example.org/bundle1</title>
<g id="a_clust1"><a xlink:href="http://example.org/bundle1" xlink:title="bundle1">
<polygon fill="none" stroke="black" points="8,-8 8,-227 218,-227 218,-8 8,-8"/>
<text text-anchor="middle" x="113" y="-15.8" font-family="Times New Roman,serif" font-size="14.00">bundle1</text>
</a>
</g>
</g>
<!-- http://example.org/press_1 -->
<g id="node1" class="node"><title>http://example.org/press_1</title>
<g id="a_node1"><a xlink:href="http://example.org/press_1" xlink:title="press_1">
<polygon fill="#9fb1fc" stroke="#0000ff" points="197.5,-147 136.5,-147 136.5,-111 197.5,-111 197.5,-147"/>
<text text-anchor="middle" x="167" y="-125.3" font-family="Times New Roman,serif" font-size="14.00">press_1</text>
</a>
</g>
</g>
<!-- http://example.org/dataset.Principal@ -->
<g id="node3" class="node"><title>http://example.org/dataset.Principal@</title>
<g id="a_node3"><a xlink:href="http://example.org/dataset.Principal@" xlink:title="dataset.Principal@">
<polygon fill="#fdb266" stroke="black" points="210.417,-206.562 113,-219 15.5833,-206.562 15.6742,-186.438 210.326,-186.438 210.417,-206.562"/>
<text text-anchor="middle" x="113" y="-197.3" font-family="Times New Roman,serif" font-size="14.00">dataset.Principal@</text>
</a>
</g>
</g>
<!-- http://example.org/press_1&#45;&gt;http://example.org/dataset.Principal@ -->
<g id="edge3" class="edge"><title>http://example.org/press_1&#45;&gt;http://example.org/dataset.Principal@</title>
<path fill="none" stroke="black" d="M153.652,-147.303C146.501,-156.572 137.618,-168.088 129.98,-177.988"/>
<polygon fill="black" stroke="black" points="127.001,-176.12 123.665,-186.175 132.544,-180.395 127.001,-176.12"/>
<text text-anchor="middle" x="159.356" y="-159.276" font-family="Times New Roman,serif" font-size="8.00">assoc</text>
</g>
<!-- &#45;attrs0 -->
<g id="node2" class="node"><title>&#45;attrs0</title>
<polygon fill="none" stroke="gray" points="202.5,-75 125.5,-75 125.5,-39 208.5,-39 208.5,-69 202.5,-75"/>
<polyline fill="none" stroke="gray" points="202.5,-75 202.5,-69 "/>
<polyline fill="none" stroke="gray" points="208.5,-69 202.5,-69 "/>
<text text-anchor="start" x="136" y="-54" font-family="Times New Roman,serif" font-size="10.00">type:</text>
<text text-anchor="start" x="159" y="-54" font-family="Times New Roman,serif" font-size="10.00">u2p:press</text>
</g>
<!-- &#45;attrs0&#45;&gt;http://example.org/press_1 -->
<g id="edge1" class="edge"><title>&#45;attrs0&#45;&gt;http://example.org/press_1</title>
<path fill="none" stroke="gray" stroke-dasharray="5,2" d="M167,-75.3034C167,-86.1537 167,-100.083 167,-110.896"/>
</g>
<!-- &#45;attrs1 -->
<g id="node4" class="node"><title>&#45;attrs1</title>
<polygon fill="none" stroke="gray" points="112,-147 16,-147 16,-111 118,-111 118,-141 112,-147"/>
<polyline fill="none" stroke="gray" points="112,-147 112,-141 "/>
<polyline fill="none" stroke="gray" points="118,-141 112,-141 "/>
<text text-anchor="start" x="26" y="-126" font-family="Times New Roman,serif" font-size="10.00">type:</text>
<text text-anchor="start" x="49" y="-126" font-family="Times New Roman,serif" font-size="10.00">u2p:Passenger</text>
</g>
<!-- &#45;attrs1&#45;&gt;http://example.org/dataset.Principal@ -->
<g id="edge2" class="edge"><title>&#45;attrs1&#45;&gt;http://example.org/dataset.Principal@</title>
<path fill="none" stroke="gray" stroke-dasharray="5,2" d="M78.3708,-147.303C86.246,-159.287 96.5895,-175.028 103.915,-186.175"/>
</g>
</g>
</svg>
