<?xml version="1.0" encoding="UTF-8" standalone="no"?>
<!DOCTYPE svg PUBLIC "-//W3C//DTD SVG 1.1//EN"
 "http://www.w3.org/Graphics/SVG/1.1/DTD/svg11.dtd">
<!-- Generated by graphviz version 2.38.0 (20140413.2041)
 -->
<!-- Title: PROV Pages: 1 -->
<svg width="352pt" height="459pt"
 viewBox="0.00 0.00 352.00 459.00" xmlns="http://www.w3.org/2000/svg" xmlns:xlink="http://www.w3.org/1999/xlink">
<g id="graph0" class="graph" transform="scale(1 1) rotate(0) translate(4 455)">
<title>PROV</title>
<polygon fill="white" stroke="none" points="-4,4 -4,-455 348,-455 348,4 -4,4"/>
<g id="clust1" class="cluster"><title>clusterhttp://example.org/bundle1</title>
<g id="a_clust1"><a xlink:href="http://example.org/bundle1" xlink:title="bundle1">
<polygon fill="none" stroke="black" points="8,-8 8,-443 336,-443 336,-8 8,-8"/>
<text text-anchor="middle" x="172" y="-15.8" font-family="Times New Roman,serif" font-size="14.00">bundle1</text>
</a>
</g>
</g>
<!-- http://example.org/stop_1 -->
<g id="node1" class="node"><title>http://example.org/stop_1</title>
<g id="a_node1"><a xlink:href="http://example.org/stop_1" xlink:title="stop_1">
<polygon fill="#9fb1fc" stroke="#0000ff" points="236,-219 180,-219 180,-183 236,-183 236,-219"/>
<text text-anchor="middle" x="208" y="-197.3" font-family="Times New Roman,serif" font-size="14.00">stop_1</text>
</a>
</g>
</g>
<!-- http://example.org/Drive@36d4b5c_1 -->
<g id="node7" class="node"><title>http://example.org/Drive@36d4b5c_1</title>
<g id="a_node7"><a xlink:href="http://example.org/Drive@36d4b5c_1" xlink:title="Drive@36d4b5c_1">
<ellipse fill="#fffc87" stroke="#808080" cx="115" cy="-273" rx="79.0865" ry="18"/>
<text text-anchor="middle" x="115" y="-269.3" font-family="Times New Roman,serif" font-size="14.00">Drive@36d4b5c_1</text>
</a>
</g>
</g>
<!-- http://example.org/stop_1&#45;&gt;http://example.org/Drive@36d4b5c_1 -->
<g id="edge11" class="edge"><title>http://example.org/stop_1&#45;&gt;http://example.org/Drive@36d4b5c_1</title>
<path fill="none" stroke="black" d="M179.865,-218.767C166.933,-227.771 151.823,-239.01 139.379,-248.837"/>
<polygon fill="black" stroke="black" points="136.852,-246.378 131.25,-255.37 141.237,-251.834 136.852,-246.378"/>
<text text-anchor="middle" x="181.187" y="-231.808" font-family="Times New Roman,serif" font-size="8.00">use</text>
</g>
<!-- &#45;attrs0 -->
<g id="node2" class="node"><title>&#45;attrs0</title>
<polygon fill="none" stroke="gray" points="265.5,-147 192.5,-147 192.5,-111 271.5,-111 271.5,-141 265.5,-147"/>
<polyline fill="none" stroke="gray" points="265.5,-147 265.5,-141 "/>
<polyline fill="none" stroke="gray" points="271.5,-141 265.5,-141 "/>
<text text-anchor="start" x="203" y="-126" font-family="Times New Roman,serif" font-size="10.00">type:</text>
<text text-anchor="start" x="226" y="-126" font-family="Times New Roman,serif" font-size="10.00">u2p:stop</text>
</g>
<!-- &#45;attrs0&#45;&gt;http://example.org/stop_1 -->
<g id="edge1" class="edge"><title>&#45;attrs0&#45;&gt;http://example.org/stop_1</title>
<path fill="none" stroke="gray" stroke-dasharray="5,2" d="M226.067,-147.303C222.347,-158.154 217.571,-172.083 213.864,-182.896"/>
</g>
<!-- http://example.org/Drive@36d4b5c_0 -->
<g id="node3" class="node"><title>http://example.org/Drive@36d4b5c_0</title>
<g id="a_node3"><a xlink:href="http://example.org/Drive@36d4b5c_0" xlink:title="Drive@36d4b5c_0">
<ellipse fill="#fffc87" stroke="#808080" cx="197" cy="-345" rx="79.0865" ry="18"/>
<text text-anchor="middle" x="197" y="-341.3" font-family="Times New Roman,serif" font-size="14.00">Drive@36d4b5c_0</text>
</a>
</g>
</g>
<!-- http://example.org/Drive@36d4b5c -->
<g id="node9" class="node"><title>http://example.org/Drive@36d4b5c</title>
<g id="a_node9"><a xlink:href="http://example.org/Drive@36d4b5c" xlink:title="Drive@36d4b5c">
<polygon fill="#fdb266" stroke="black" points="236.529,-422.562 150,-435 63.4708,-422.562 63.5516,-402.438 236.448,-402.438 236.529,-422.562"/>
<text text-anchor="middle" x="150" y="-413.3" font-family="Times New Roman,serif" font-size="14.00">Drive@36d4b5c</text>
</a>
</g>
</g>
<!-- http://example.org/Drive@36d4b5c_0&#45;&gt;http://example.org/Drive@36d4b5c -->
<g id="edge6" class="edge"><title>http://example.org/Drive@36d4b5c_0&#45;&gt;http://example.org/Drive@36d4b5c</title>
<path fill="none" stroke="black" d="M185.623,-362.945C179.466,-372.115 171.78,-383.561 165.125,-393.473"/>
<polygon fill="black" stroke="black" points="162.046,-391.781 159.377,-402.034 167.857,-395.683 162.046,-391.781"/>
<text text-anchor="middle" x="192.227" y="-374.513" font-family="Times New Roman,serif" font-size="8.00">att</text>
</g>
<!-- &#45;attrs1 -->
<g id="node4" class="node"><title>&#45;attrs1</title>
<polygon fill="none" stroke="gray" points="322,-291 212,-291 212,-255 328,-255 328,-285 322,-291"/>
<polyline fill="none" stroke="gray" points="322,-291 322,-285 "/>
<polyline fill="none" stroke="gray" points="328,-285 322,-285 "/>
<text text-anchor="start" x="222" y="-270" font-family="Times New Roman,serif" font-size="10.00">type:</text>
<text text-anchor="start" x="245" y="-270" font-family="Times New Roman,serif" font-size="10.00">u2p:StateMachine</text>
</g>
<!-- &#45;attrs1&#45;&gt;http://example.org/Drive@36d4b5c_0 -->
<g id="edge2" class="edge"><title>&#45;attrs1&#45;&gt;http://example.org/Drive@36d4b5c_0</title>
<path fill="none" stroke="gray" stroke-dasharray="5,2" d="M251.955,-291.303C240.471,-302.316 225.679,-316.5 214.335,-327.378"/>
</g>
<!-- http://example.org/Drive@36d4b5c_2 -->
<g id="node5" class="node"><title>http://example.org/Drive@36d4b5c_2</title>
<g id="a_node5"><a xlink:href="http://example.org/Drive@36d4b5c_2" xlink:title="Drive@36d4b5c_2">
<ellipse fill="#fffc87" stroke="#808080" cx="95" cy="-129" rx="79.0865" ry="18"/>
<text text-anchor="middle" x="95" y="-125.3" font-family="Times New Roman,serif" font-size="14.00">Drive@36d4b5c_2</text>
</a>
</g>
</g>
<!-- http://example.org/Drive@36d4b5c_2&#45;&gt;http://example.org/stop_1 -->
<g id="edge8" class="edge"><title>http://example.org/Drive@36d4b5c_2&#45;&gt;http://example.org/stop_1</title>
<path fill="none" stroke="black" d="M120.924,-146.059C135.878,-155.323 154.922,-167.12 171.384,-177.317"/>
<polygon fill="black" stroke="black" points="169.877,-180.501 180.221,-182.792 173.564,-174.55 169.877,-180.501"/>
<text text-anchor="middle" x="134.141" y="-137.066" font-family="Times New Roman,serif" font-size="8.00">gen</text>
</g>
<!-- http://example.org/Drive@36d4b5c_2&#45;&gt;http://example.org/Drive@36d4b5c_0 -->
<g id="edge7" class="edge"><title>http://example.org/Drive@36d4b5c_2&#45;&gt;http://example.org/Drive@36d4b5c_0</title>
<path fill="none" stroke="black" d="M77.4324,-146.839C47.4124,-177.673 -7.34371,-244.319 27,-291 39.3813,-307.829 86.0788,-321.662 127.404,-330.971"/>
<polygon fill="black" stroke="black" points="126.702,-334.4 137.219,-333.122 128.2,-327.562 126.702,-334.4"/>
<text text-anchor="middle" x="81.7744" y="-159.297" font-family="Times New Roman,serif" font-size="8.00">spe</text>
</g>
<!-- http://example.org/Drive@36d4b5c_2&#45;&gt;http://example.org/Drive@36d4b5c_1 -->
<g id="edge9" class="edge"><title>http://example.org/Drive@36d4b5c_2&#45;&gt;http://example.org/Drive@36d4b5c_1</title>
<path fill="none" stroke="black" d="M79.7651,-146.757C71.9048,-156.555 63.1195,-169.604 59,-183 54.2972,-198.293 52.6743,-204.304 59,-219 64.0029,-230.623 72.9469,-240.889 82.2392,-249.215"/>
<polygon fill="black" stroke="black" points="80.1299,-252.014 90.0478,-255.74 84.6185,-246.642 80.1299,-252.014"/>
<text text-anchor="middle" x="85.3561" y="-158.776" font-family="Times New Roman,serif" font-size="8.00">der</text>
</g>
<!-- &#45;attrs2 -->
<g id="node6" class="node"><title>&#45;attrs2</title>
<polygon fill="none" stroke="gray" points="137,-75 47,-75 47,-39 143,-39 143,-69 137,-75"/>
<polyline fill="none" stroke="gray" points="137,-75 137,-69 "/>
<polyline fill="none" stroke="gray" points="143,-69 137,-69 "/>
<text text-anchor="start" x="57" y="-61" font-family="Times New Roman,serif" font-size="10.00">type:</text>
<text text-anchor="start" x="81" y="-61" font-family="Times New Roman,serif" font-size="10.00">u2p:Drive</text>
<text text-anchor="start" x="57" y="-48" font-family="Times New Roman,serif" font-size="10.00">state:</text>
<text text-anchor="start" x="81" y="-48" font-family="Times New Roman,serif" font-size="10.00">u2p:Stopped</text>
</g>
<!-- &#45;attrs2&#45;&gt;http://example.org/Drive@36d4b5c_2 -->
<g id="edge3" class="edge"><title>&#45;attrs2&#45;&gt;http://example.org/Drive@36d4b5c_2</title>
<path fill="none" stroke="gray" stroke-dasharray="5,2" d="M95,-75.3034C95,-86.1537 95,-100.083 95,-110.896"/>
</g>
<!-- http://example.org/Drive@36d4b5c_1&#45;&gt;http://example.org/stop_1 -->
<g id="edge10" class="edge"><title>http://example.org/Drive@36d4b5c_1&#45;&gt;http://example.org/stop_1</title>
<path fill="none" stroke="black" d="M152.299,-248.743C162.64,-241.305 173.592,-233.066 183.062,-225.604"/>
<polygon fill="none" stroke="black" points="152.038,-248.927 149.448,-255.658 142.24,-255.855 144.83,-249.125 152.038,-248.927"/>
<polygon fill="black" stroke="black" points="185.311,-228.287 190.927,-219.303 180.934,-222.824 185.311,-228.287"/>
<text text-anchor="middle" x="140.864" y="-239.019" font-family="Times New Roman,serif" font-size="8.00">inv</text>
</g>
<!-- http://example.org/Drive@36d4b5c_1&#45;&gt;http://example.org/Drive@36d4b5c_0 -->
<g id="edge12" class="edge"><title>http://example.org/Drive@36d4b5c_1&#45;&gt;http://example.org/Drive@36d4b5c_0</title>
<path fill="none" stroke="black" d="M134.433,-290.589C145.053,-299.655 158.373,-311.026 169.99,-320.943"/>
<polygon fill="black" stroke="black" points="167.829,-323.699 177.707,-327.53 172.373,-318.375 167.829,-323.699"/>
<text text-anchor="middle" x="148.571" y="-283.678" font-family="Times New Roman,serif" font-size="8.00">spe</text>
</g>
<!-- &#45;attrs3 -->
<g id="node8" class="node"><title>&#45;attrs3</title>
<polygon fill="none" stroke="gray" points="156,-219 68,-219 68,-183 162,-183 162,-213 156,-219"/>
<polyline fill="none" stroke="gray" points="156,-219 156,-213 "/>
<polyline fill="none" stroke="gray" points="162,-213 156,-213 "/>
<text text-anchor="start" x="78" y="-205" font-family="Times New Roman,serif" font-size="10.00">type:</text>
<text text-anchor="start" x="102" y="-205" font-family="Times New Roman,serif" font-size="10.00">u2p:Drive</text>
<text text-anchor="start" x="78" y="-192" font-family="Times New Roman,serif" font-size="10.00">state:</text>
<text text-anchor="start" x="102" y="-192" font-family="Times New Roman,serif" font-size="10.00">u2p:Moving</text>
</g>
<!-- &#45;attrs3&#45;&gt;http://example.org/Drive@36d4b5c_1 -->
<g id="edge4" class="edge"><title>&#45;attrs3&#45;&gt;http://example.org/Drive@36d4b5c_1</title>
<path fill="none" stroke="gray" stroke-dasharray="5,2" d="M115,-219.303C115,-230.154 115,-244.083 115,-254.896"/>
</g>
<!-- &#45;attrs4 -->
<g id="node10" class="node"><title>&#45;attrs4</title>
<polygon fill="none" stroke="gray" points="93.5,-363 16.5,-363 16.5,-327 99.5,-327 99.5,-357 93.5,-363"/>
<polyline fill="none" stroke="gray" points="93.5,-363 93.5,-357 "/>
<polyline fill="none" stroke="gray" points="99.5,-357 93.5,-357 "/>
<text text-anchor="start" x="27" y="-342" font-family="Times New Roman,serif" font-size="10.00">type:</text>
<text text-anchor="start" x="50" y="-342" font-family="Times New Roman,serif" font-size="10.00">u2p:Drive</text>
</g>
<!-- &#45;attrs4&#45;&gt;http://example.org/Drive@36d4b5c -->
<g id="edge5" class="edge"><title>&#45;attrs4&#45;&gt;http://example.org/Drive@36d4b5c</title>
<path fill="none" stroke="gray" stroke-dasharray="5,2" d="M80.7416,-363.303C96.5983,-375.368 117.459,-391.24 132.127,-402.401"/>
</g>
</g>
</svg>
