<?xml version="1.0" encoding="UTF-8" standalone="no"?>
<!DOCTYPE svg PUBLIC "-//W3C//DTD SVG 1.1//EN"
 "http://www.w3.org/Graphics/SVG/1.1/DTD/svg11.dtd">
<!-- Generated by graphviz version 2.38.0 (20140413.2041)
 -->
<!-- Title: PROV Pages: 1 -->
<svg width="568pt" height="243pt"
 viewBox="0.00 0.00 568.00 243.00" xmlns="http://www.w3.org/2000/svg" xmlns:xlink="http://www.w3.org/1999/xlink">
<g id="graph0" class="graph" transform="scale(1 1) rotate(0) translate(4 239)">
<title>PROV</title>
<polygon fill="white" stroke="none" points="-4,4 -4,-239 564,-239 564,4 -4,4"/>
<g id="clust1" class="cluster"><title>clusterhttp://example.org/bundle1</title>
<g id="a_clust1"><a xlink:href="http://example.org/bundle1" xlink:title="bundle1">
<polygon fill="none" stroke="black" points="8,-8 8,-227 552,-227 552,-8 8,-8"/>
<text text-anchor="middle" x="280" y="-15.8" font-family="Times New Roman,serif" font-size="14.00">bundle1</text>
</a>
</g>
</g>
<!-- http://example.org/turnOn_1 -->
<g id="node1" class="node"><title>http://example.org/turnOn_1</title>
<g id="a_node1"><a xlink:href="http://example.org/turnOn_1" xlink:title="turnOn_1">
<polygon fill="#9fb1fc" stroke="#0000ff" points="375,-147 305,-147 305,-111 375,-111 375,-147"/>
<text text-anchor="middle" x="340" y="-125.3" font-family="Times New Roman,serif" font-size="14.00">turnOn_1</text>
</a>
</g>
</g>
<!-- http://example.org/dataset.caseStudy.CS5ElevatorBis.HallButtonControl@ -->
<g id="node3" class="node"><title>http://example.org/dataset.caseStudy.CS5ElevatorBis.HallButtonControl@</title>
<g id="a_node3"><a xlink:href="http://example.org/dataset.caseStudy.CS5ElevatorBis.HallButtonControl@" xlink:title="dataset.caseStudy.CS5ElevatorBis.HallButtonControl@">
<polygon fill="#fdb266" stroke="black" points="543.513,-206.562 280,-219 16.4874,-206.562 16.7333,-186.438 543.267,-186.438 543.513,-206.562"/>
<text text-anchor="middle" x="280" y="-197.3" font-family="Times New Roman,serif" font-size="14.00">dataset.caseStudy.CS5ElevatorBis.HallButtonControl@</text>
</a>
</g>
</g>
<!-- http://example.org/turnOn_1&#45;&gt;http://example.org/dataset.caseStudy.CS5ElevatorBis.HallButtonControl@ -->
<g id="edge3" class="edge"><title>http://example.org/turnOn_1&#45;&gt;http://example.org/dataset.caseStudy.CS5ElevatorBis.HallButtonControl@</title>
<path fill="none" stroke="black" d="M325.169,-147.303C317.144,-156.666 307.153,-168.321 298.61,-178.288"/>
<polygon fill="black" stroke="black" points="295.7,-176.305 291.85,-186.175 301.015,-180.861 295.7,-176.305"/>
<text text-anchor="middle" x="330.151" y="-159.552" font-family="Times New Roman,serif" font-size="8.00">assoc</text>
</g>
<!-- &#45;attrs0 -->
<g id="node2" class="node"><title>&#45;attrs0</title>
<polygon fill="none" stroke="gray" points="378.5,-75 295.5,-75 295.5,-39 384.5,-39 384.5,-69 378.5,-75"/>
<polyline fill="none" stroke="gray" points="378.5,-75 378.5,-69 "/>
<polyline fill="none" stroke="gray" points="384.5,-69 378.5,-69 "/>
<text text-anchor="start" x="306" y="-54" font-family="Times New Roman,serif" font-size="10.00">type:</text>
<text text-anchor="start" x="329" y="-54" font-family="Times New Roman,serif" font-size="10.00">u2p:turnOn</text>
</g>
<!-- &#45;attrs0&#45;&gt;http://example.org/turnOn_1 -->
<g id="edge1" class="edge"><title>&#45;attrs0&#45;&gt;http://example.org/turnOn_1</title>
<path fill="none" stroke="gray" stroke-dasharray="5,2" d="M340,-75.3034C340,-86.1537 340,-100.083 340,-110.896"/>
</g>
<!-- &#45;attrs1 -->
<g id="node4" class="node"><title>&#45;attrs1</title>
<polygon fill="none" stroke="gray" points="281,-147 153,-147 153,-111 287,-111 287,-141 281,-147"/>
<polyline fill="none" stroke="gray" points="281,-147 281,-141 "/>
<polyline fill="none" stroke="gray" points="287,-141 281,-141 "/>
<text text-anchor="start" x="163" y="-126" font-family="Times New Roman,serif" font-size="10.00">type:</text>
<text text-anchor="start" x="186" y="-126" font-family="Times New Roman,serif" font-size="10.00">u2p:HallButtonControl</text>
</g>
<!-- &#45;attrs1&#45;&gt;http://example.org/dataset.caseStudy.CS5ElevatorBis.HallButtonControl@ -->
<g id="edge2" class="edge"><title>&#45;attrs1&#45;&gt;http://example.org/dataset.caseStudy.CS5ElevatorBis.HallButtonControl@</title>
<path fill="none" stroke="gray" stroke-dasharray="5,2" d="M234.831,-147.303C245.103,-159.287 258.595,-175.028 268.15,-186.175"/>
</g>
</g>
</svg>
