<?xml version="1.0" encoding="UTF-8" standalone="no"?>
<!DOCTYPE svg PUBLIC "-//W3C//DTD SVG 1.1//EN"
 "http://www.w3.org/Graphics/SVG/1.1/DTD/svg11.dtd">
<!-- Generated by graphviz version 2.38.0 (20140413.2041)
 -->
<!-- Title: PROV Pages: 1 -->
<svg width="620pt" height="315pt"
 viewBox="0.00 0.00 620.00 315.00" xmlns="http://www.w3.org/2000/svg" xmlns:xlink="http://www.w3.org/1999/xlink">
<g id="graph0" class="graph" transform="scale(1 1) rotate(0) translate(4 311)">
<title>PROV</title>
<polygon fill="white" stroke="none" points="-4,4 -4,-311 616,-311 616,4 -4,4"/>
<g id="clust1" class="cluster"><title>clusterhttp://example.org/bundle1</title>
<g id="a_clust1"><a xlink:href="http://example.org/bundle1" xlink:title="bundle1">
<polygon fill="none" stroke="black" points="8,-8 8,-299 604,-299 604,-8 8,-8"/>
<text text-anchor="middle" x="306" y="-15.8" font-family="Times New Roman,serif" font-size="14.00">bundle1</text>
</a>
</g>
</g>
<!-- http://example.org/call_1 -->
<g id="node1" class="node"><title>http://example.org/call_1</title>
<g id="a_node1"><a xlink:href="http://example.org/call_1" xlink:title="call_1">
<polygon fill="#9fb1fc" stroke="#0000ff" points="399,-219 345,-219 345,-183 399,-183 399,-219"/>
<text text-anchor="middle" x="372" y="-197.3" font-family="Times New Roman,serif" font-size="14.00">call_1</text>
</a>
</g>
</g>
<!-- http://example.org/String@6d78f375_0 -->
<g id="node3" class="node"><title>http://example.org/String@6d78f375_0</title>
<g id="a_node3"><a xlink:href="http://example.org/String@6d78f375_0" xlink:title="String@6d78f375_0">
<ellipse fill="#fffc87" stroke="#808080" cx="512" cy="-273" rx="83.6854" ry="18"/>
<text text-anchor="middle" x="512" y="-269.3" font-family="Times New Roman,serif" font-size="14.00">String@6d78f375_0</text>
</a>
</g>
</g>
<!-- http://example.org/call_1&#45;&gt;http://example.org/String@6d78f375_0 -->
<g id="edge5" class="edge"><title>http://example.org/call_1&#45;&gt;http://example.org/String@6d78f375_0</title>
<path fill="none" stroke="black" d="M399.326,-215.663C419.818,-225.909 448.2,-240.1 471.352,-251.676"/>
<polygon fill="black" stroke="black" points="470.079,-254.953 480.589,-256.294 473.21,-248.692 470.079,-254.953"/>
<text text-anchor="middle" x="411.843" y="-205.498" font-family="Times New Roman,serif" font-size="8.00">use</text>
</g>
<!-- http://example.org/dataset.caseStudy.CS4PhoneCall.User@ -->
<g id="node7" class="node"><title>http://example.org/dataset.caseStudy.CS4PhoneCall.User@</title>
<g id="a_node7"><a xlink:href="http://example.org/dataset.caseStudy.CS4PhoneCall.User@" xlink:title="dataset.caseStudy.CS4PhoneCall.User@">
<polygon fill="#fdb266" stroke="black" points="409.653,-278.562 213,-291 16.3471,-278.562 16.5307,-258.438 409.469,-258.438 409.653,-278.562"/>
<text text-anchor="middle" x="213" y="-269.3" font-family="Times New Roman,serif" font-size="14.00">dataset.caseStudy.CS4PhoneCall.User@</text>
</a>
</g>
</g>
<!-- http://example.org/call_1&#45;&gt;http://example.org/dataset.caseStudy.CS4PhoneCall.User@ -->
<g id="edge6" class="edge"><title>http://example.org/call_1&#45;&gt;http://example.org/dataset.caseStudy.CS4PhoneCall.User@</title>
<path fill="none" stroke="black" d="M344.667,-214.033C319.539,-225.096 281.961,-241.64 253.375,-254.225"/>
<polygon fill="black" stroke="black" points="251.798,-251.095 244.056,-258.328 254.618,-257.502 251.798,-251.095"/>
<text text-anchor="middle" x="343.037" y="-227.045" font-family="Times New Roman,serif" font-size="8.00">assoc</text>
</g>
<!-- &#45;attrs0 -->
<g id="node2" class="node"><title>&#45;attrs0</title>
<polygon fill="none" stroke="gray" points="352,-147 284,-147 284,-111 358,-111 358,-141 352,-147"/>
<polyline fill="none" stroke="gray" points="352,-147 352,-141 "/>
<polyline fill="none" stroke="gray" points="358,-141 352,-141 "/>
<text text-anchor="start" x="294" y="-126" font-family="Times New Roman,serif" font-size="10.00">type:</text>
<text text-anchor="start" x="317" y="-126" font-family="Times New Roman,serif" font-size="10.00">u2p:call</text>
</g>
<!-- &#45;attrs0&#45;&gt;http://example.org/call_1 -->
<g id="edge1" class="edge"><title>&#45;attrs0&#45;&gt;http://example.org/call_1</title>
<path fill="none" stroke="gray" stroke-dasharray="5,2" d="M333.607,-147.303C341.512,-158.154 351.661,-172.083 359.538,-182.896"/>
</g>
<!-- &#45;attrs1 -->
<g id="node4" class="node"><title>&#45;attrs1</title>
<polygon fill="none" stroke="gray" points="570,-219 488,-219 488,-183 576,-183 576,-213 570,-219"/>
<polyline fill="none" stroke="gray" points="570,-219 570,-213 "/>
<polyline fill="none" stroke="gray" points="576,-213 570,-213 "/>
<text text-anchor="start" x="498" y="-198" font-family="Times New Roman,serif" font-size="10.00">value:</text>
<text text-anchor="start" x="525" y="-198" font-family="Times New Roman,serif" font-size="10.00">123456789</text>
</g>
<!-- &#45;attrs1&#45;&gt;http://example.org/String@6d78f375_0 -->
<g id="edge2" class="edge"><title>&#45;attrs1&#45;&gt;http://example.org/String@6d78f375_0</title>
<path fill="none" stroke="gray" stroke-dasharray="5,2" d="M527.056,-219.303C523.956,-230.154 519.976,-244.083 516.887,-254.896"/>
</g>
<!-- http://example.org/Boolean@1810399e_0 -->
<g id="node5" class="node"><title>http://example.org/Boolean@1810399e_0</title>
<g id="a_node5"><a xlink:href="http://example.org/Boolean@1810399e_0" xlink:title="Boolean@1810399e_0">
<ellipse fill="#fffc87" stroke="#808080" cx="469" cy="-129" rx="92.8835" ry="18"/>
<text text-anchor="middle" x="469" y="-125.3" font-family="Times New Roman,serif" font-size="14.00">Boolean@1810399e_0</text>
</a>
</g>
</g>
<!-- http://example.org/Boolean@1810399e_0&#45;&gt;http://example.org/call_1 -->
<g id="edge7" class="edge"><title>http://example.org/Boolean@1810399e_0&#45;&gt;http://example.org/call_1</title>
<path fill="none" stroke="black" d="M446.012,-146.589C433.486,-155.629 417.785,-166.959 404.071,-176.856"/>
<polygon fill="black" stroke="black" points="401.896,-174.109 395.836,-182.799 405.993,-179.785 401.896,-174.109"/>
<text text-anchor="middle" x="447.532" y="-159.612" font-family="Times New Roman,serif" font-size="8.00">gen</text>
</g>
<!-- http://example.org/Boolean@1810399e_0&#45;&gt;http://example.org/String@6d78f375_0 -->
<g id="edge8" class="edge"><title>http://example.org/Boolean@1810399e_0&#45;&gt;http://example.org/String@6d78f375_0</title>
<path fill="none" stroke="black" d="M468.707,-147.224C468.902,-165.524 470.682,-195.06 479,-219 482.292,-228.474 487.515,-238.024 492.844,-246.356"/>
<polygon fill="black" stroke="black" points="490.086,-248.527 498.581,-254.859 495.889,-244.612 490.086,-248.527"/>
<text text-anchor="middle" x="481.838" y="-152.575" font-family="Times New Roman,serif" font-size="8.00">der</text>
</g>
<!-- &#45;attrs2 -->
<g id="node6" class="node"><title>&#45;attrs2</title>
<polygon fill="none" stroke="gray" points="494.5,-75 437.5,-75 437.5,-39 500.5,-39 500.5,-69 494.5,-75"/>
<polyline fill="none" stroke="gray" points="494.5,-75 494.5,-69 "/>
<polyline fill="none" stroke="gray" points="500.5,-69 494.5,-69 "/>
<text text-anchor="start" x="448" y="-54" font-family="Times New Roman,serif" font-size="10.00">value:</text>
<text text-anchor="start" x="475" y="-54" font-family="Times New Roman,serif" font-size="10.00">true</text>
</g>
<!-- &#45;attrs2&#45;&gt;http://example.org/Boolean@1810399e_0 -->
<g id="edge3" class="edge"><title>&#45;attrs2&#45;&gt;http://example.org/Boolean@1810399e_0</title>
<path fill="none" stroke="gray" stroke-dasharray="5,2" d="M469,-75.3034C469,-86.1537 469,-100.083 469,-110.896"/>
</g>
<!-- &#45;attrs3 -->
<g id="node8" class="node"><title>&#45;attrs3</title>
<polygon fill="none" stroke="gray" points="247,-219 173,-219 173,-183 253,-183 253,-213 247,-219"/>
<polyline fill="none" stroke="gray" points="247,-219 247,-213 "/>
<polyline fill="none" stroke="gray" points="253,-213 247,-213 "/>
<text text-anchor="start" x="183" y="-198" font-family="Times New Roman,serif" font-size="10.00">type:</text>
<text text-anchor="start" x="206" y="-198" font-family="Times New Roman,serif" font-size="10.00">u2p:User</text>
</g>
<!-- &#45;attrs3&#45;&gt;http://example.org/dataset.caseStudy.CS4PhoneCall.User@ -->
<g id="edge4" class="edge"><title>&#45;attrs3&#45;&gt;http://example.org/dataset.caseStudy.CS4PhoneCall.User@</title>
<path fill="none" stroke="gray" stroke-dasharray="5,2" d="M213,-219.303C213,-231.287 213,-247.028 213,-258.175"/>
</g>
</g>
</svg>
