<?xml version="1.0" encoding="UTF-8" standalone="no"?>
<!DOCTYPE svg PUBLIC "-//W3C//DTD SVG 1.1//EN"
 "http://www.w3.org/Graphics/SVG/1.1/DTD/svg11.dtd">
<!-- Generated by graphviz version 2.38.0 (20140413.2041)
 -->
<!-- Title: PROV Pages: 1 -->
<svg width="394pt" height="459pt"
 viewBox="0.00 0.00 394.00 459.00" xmlns="http://www.w3.org/2000/svg" xmlns:xlink="http://www.w3.org/1999/xlink">
<g id="graph0" class="graph" transform="scale(1 1) rotate(0) translate(4 455)">
<title>PROV</title>
<polygon fill="white" stroke="none" points="-4,4 -4,-455 390,-455 390,4 -4,4"/>
<g id="clust1" class="cluster"><title>clusterhttp://example.org/bundle1</title>
<g id="a_clust1"><a xlink:href="http://example.org/bundle1" xlink:title="bundle1">
<polygon fill="none" stroke="black" points="8,-8 8,-443 378,-443 378,-8 8,-8"/>
<text text-anchor="middle" x="193" y="-15.8" font-family="Times New Roman,serif" font-size="14.00">bundle1</text>
</a>
</g>
</g>
<!-- http://example.org/connect_1 -->
<g id="node1" class="node"><title>http://example.org/connect_1</title>
<g id="a_node1"><a xlink:href="http://example.org/connect_1" xlink:title="connect_1">
<polygon fill="#9fb1fc" stroke="#0000ff" points="287.5,-219 212.5,-219 212.5,-183 287.5,-183 287.5,-219"/>
<text text-anchor="middle" x="250" y="-197.3" font-family="Times New Roman,serif" font-size="14.00">connect_1</text>
</a>
</g>
</g>
<!-- http://example.org/CellTower@5f375618_1 -->
<g id="node7" class="node"><title>http://example.org/CellTower@5f375618_1</title>
<g id="a_node7"><a xlink:href="http://example.org/CellTower@5f375618_1" xlink:title="CellTower@5f375618_1">
<ellipse fill="#fffc87" stroke="#808080" cx="136" cy="-273" rx="100.182" ry="18"/>
<text text-anchor="middle" x="136" y="-269.3" font-family="Times New Roman,serif" font-size="14.00">CellTower@5f375618_1</text>
</a>
</g>
</g>
<!-- http://example.org/connect_1&#45;&gt;http://example.org/CellTower@5f375618_1 -->
<g id="edge11" class="edge"><title>http://example.org/connect_1&#45;&gt;http://example.org/CellTower@5f375618_1</title>
<path fill="none" stroke="black" d="M216.215,-219.124C200.265,-228.327 181.458,-239.784 166.013,-249.678"/>
<polygon fill="black" stroke="black" points="163.839,-246.916 157.354,-255.294 167.648,-252.789 163.839,-246.916"/>
<text text-anchor="middle" x="216.253" y="-232.224" font-family="Times New Roman,serif" font-size="8.00">use</text>
</g>
<!-- &#45;attrs0 -->
<g id="node2" class="node"><title>&#45;attrs0</title>
<polygon fill="none" stroke="gray" points="321.5,-147 234.5,-147 234.5,-111 327.5,-111 327.5,-141 321.5,-147"/>
<polyline fill="none" stroke="gray" points="321.5,-147 321.5,-141 "/>
<polyline fill="none" stroke="gray" points="327.5,-141 321.5,-141 "/>
<text text-anchor="start" x="245" y="-126" font-family="Times New Roman,serif" font-size="10.00">type:</text>
<text text-anchor="start" x="268" y="-126" font-family="Times New Roman,serif" font-size="10.00">u2p:connect</text>
</g>
<!-- &#45;attrs0&#45;&gt;http://example.org/connect_1 -->
<g id="edge1" class="edge"><title>&#45;attrs0&#45;&gt;http://example.org/connect_1</title>
<path fill="none" stroke="gray" stroke-dasharray="5,2" d="M273.337,-147.303C268.532,-158.154 262.363,-172.083 257.575,-182.896"/>
</g>
<!-- http://example.org/CellTower@5f375618_0 -->
<g id="node3" class="node"><title>http://example.org/CellTower@5f375618_0</title>
<g id="a_node3"><a xlink:href="http://example.org/CellTower@5f375618_0" xlink:title="CellTower@5f375618_0">
<ellipse fill="#fffc87" stroke="#808080" cx="236" cy="-345" rx="100.182" ry="18"/>
<text text-anchor="middle" x="236" y="-341.3" font-family="Times New Roman,serif" font-size="14.00">CellTower@5f375618_0</text>
</a>
</g>
</g>
<!-- http://example.org/CellTower@5f375618 -->
<g id="node9" class="node"><title>http://example.org/CellTower@5f375618</title>
<g id="a_node9"><a xlink:href="http://example.org/CellTower@5f375618" xlink:title="CellTower@5f375618">
<polygon fill="#fdb266" stroke="black" points="294.444,-422.562 182,-435 69.5556,-422.562 69.6605,-402.438 294.339,-402.438 294.444,-422.562"/>
<text text-anchor="middle" x="182" y="-413.3" font-family="Times New Roman,serif" font-size="14.00">CellTower@5f375618</text>
</a>
</g>
</g>
<!-- http://example.org/CellTower@5f375618_0&#45;&gt;http://example.org/CellTower@5f375618 -->
<g id="edge6" class="edge"><title>http://example.org/CellTower@5f375618_0&#45;&gt;http://example.org/CellTower@5f375618</title>
<path fill="none" stroke="black" d="M222.928,-362.945C215.71,-372.302 206.663,-384.03 198.911,-394.078"/>
<polygon fill="black" stroke="black" points="196.11,-391.978 192.774,-402.034 201.653,-396.254 196.11,-391.978"/>
<text text-anchor="middle" x="228.633" y="-374.918" font-family="Times New Roman,serif" font-size="8.00">att</text>
</g>
<!-- &#45;attrs1 -->
<g id="node4" class="node"><title>&#45;attrs1</title>
<polygon fill="none" stroke="gray" points="364,-291 254,-291 254,-255 370,-255 370,-285 364,-291"/>
<polyline fill="none" stroke="gray" points="364,-291 364,-285 "/>
<polyline fill="none" stroke="gray" points="370,-285 364,-285 "/>
<text text-anchor="start" x="264" y="-270" font-family="Times New Roman,serif" font-size="10.00">type:</text>
<text text-anchor="start" x="287" y="-270" font-family="Times New Roman,serif" font-size="10.00">u2p:StateMachine</text>
</g>
<!-- &#45;attrs1&#45;&gt;http://example.org/CellTower@5f375618_0 -->
<g id="edge2" class="edge"><title>&#45;attrs1&#45;&gt;http://example.org/CellTower@5f375618_0</title>
<path fill="none" stroke="gray" stroke-dasharray="5,2" d="M293.213,-291.303C281.345,-302.235 266.084,-316.291 254.308,-327.137"/>
</g>
<!-- http://example.org/CellTower@5f375618_2 -->
<g id="node5" class="node"><title>http://example.org/CellTower@5f375618_2</title>
<g id="a_node5"><a xlink:href="http://example.org/CellTower@5f375618_2" xlink:title="CellTower@5f375618_2">
<ellipse fill="#fffc87" stroke="#808080" cx="116" cy="-129" rx="100.182" ry="18"/>
<text text-anchor="middle" x="116" y="-125.3" font-family="Times New Roman,serif" font-size="14.00">CellTower@5f375618_2</text>
</a>
</g>
</g>
<!-- http://example.org/CellTower@5f375618_2&#45;&gt;http://example.org/connect_1 -->
<g id="edge8" class="edge"><title>http://example.org/CellTower@5f375618_2&#45;&gt;http://example.org/connect_1</title>
<path fill="none" stroke="black" d="M147.079,-146.235C165.233,-155.719 188.383,-167.812 208.128,-178.127"/>
<polygon fill="black" stroke="black" points="206.736,-181.348 217.22,-182.876 209.977,-175.144 206.736,-181.348"/>
<text text-anchor="middle" x="159.741" y="-136.294" font-family="Times New Roman,serif" font-size="8.00">gen</text>
</g>
<!-- http://example.org/CellTower@5f375618_2&#45;&gt;http://example.org/CellTower@5f375618_0 -->
<g id="edge7" class="edge"><title>http://example.org/CellTower@5f375618_2&#45;&gt;http://example.org/CellTower@5f375618_0</title>
<path fill="none" stroke="black" d="M94.165,-146.795C57.1647,-177.275 -10.3617,-242.981 27,-291 35.4843,-301.904 103.693,-317.859 159.918,-329.412"/>
<polygon fill="black" stroke="black" points="159.403,-332.878 169.901,-331.443 160.799,-326.019 159.403,-332.878"/>
<text text-anchor="middle" x="96.8992" y="-159.644" font-family="Times New Roman,serif" font-size="8.00">spe</text>
</g>
<!-- http://example.org/CellTower@5f375618_2&#45;&gt;http://example.org/CellTower@5f375618_1 -->
<g id="edge9" class="edge"><title>http://example.org/CellTower@5f375618_2&#45;&gt;http://example.org/CellTower@5f375618_1</title>
<path fill="none" stroke="black" d="M94.7918,-146.746C84.6048,-156.169 73.448,-168.869 68,-183 62.2445,-197.929 60.9777,-204.623 68,-219 74.0725,-231.432 84.6256,-241.796 95.6318,-249.965"/>
<polygon fill="black" stroke="black" points="93.8501,-252.988 104.07,-255.782 97.823,-247.225 93.8501,-252.988"/>
<text text-anchor="middle" x="98.2982" y="-159.431" font-family="Times New Roman,serif" font-size="8.00">der</text>
</g>
<!-- &#45;attrs2 -->
<g id="node6" class="node"><title>&#45;attrs2</title>
<polygon fill="none" stroke="gray" points="162.5,-75 63.5,-75 63.5,-39 168.5,-39 168.5,-69 162.5,-75"/>
<polyline fill="none" stroke="gray" points="162.5,-75 162.5,-69 "/>
<polyline fill="none" stroke="gray" points="168.5,-69 162.5,-69 "/>
<text text-anchor="start" x="74" y="-61" font-family="Times New Roman,serif" font-size="10.00">type:</text>
<text text-anchor="start" x="98" y="-61" font-family="Times New Roman,serif" font-size="10.00">u2p:CellTower</text>
<text text-anchor="start" x="74" y="-48" font-family="Times New Roman,serif" font-size="10.00">state:</text>
<text text-anchor="start" x="98" y="-48" font-family="Times New Roman,serif" font-size="10.00">u2p:Connected</text>
</g>
<!-- &#45;attrs2&#45;&gt;http://example.org/CellTower@5f375618_2 -->
<g id="edge3" class="edge"><title>&#45;attrs2&#45;&gt;http://example.org/CellTower@5f375618_2</title>
<path fill="none" stroke="gray" stroke-dasharray="5,2" d="M116,-75.3034C116,-86.1537 116,-100.083 116,-110.896"/>
</g>
<!-- http://example.org/CellTower@5f375618_1&#45;&gt;http://example.org/connect_1 -->
<g id="edge10" class="edge"><title>http://example.org/CellTower@5f375618_1&#45;&gt;http://example.org/connect_1</title>
<path fill="none" stroke="black" d="M178.802,-249.613C192.37,-241.612 207.059,-232.595 219.588,-224.578"/>
<polygon fill="none" stroke="black" points="178.594,-249.735 175.422,-256.211 168.224,-255.774 171.396,-249.298 178.594,-249.735"/>
<polygon fill="black" stroke="black" points="221.518,-227.497 228.01,-219.124 217.713,-221.622 221.518,-227.497"/>
<text text-anchor="middle" x="168.167" y="-238.874" font-family="Times New Roman,serif" font-size="8.00">inv</text>
</g>
<!-- http://example.org/CellTower@5f375618_1&#45;&gt;http://example.org/CellTower@5f375618_0 -->
<g id="edge12" class="edge"><title>http://example.org/CellTower@5f375618_1&#45;&gt;http://example.org/CellTower@5f375618_0</title>
<path fill="none" stroke="black" d="M159.699,-290.589C172.804,-299.763 189.279,-311.296 203.564,-321.295"/>
<polygon fill="black" stroke="black" points="201.925,-324.42 212.125,-327.287 205.94,-318.685 201.925,-324.42"/>
<text text-anchor="middle" x="173.292" y="-282.348" font-family="Times New Roman,serif" font-size="8.00">spe</text>
</g>
<!-- &#45;attrs3 -->
<g id="node8" class="node"><title>&#45;attrs3</title>
<polygon fill="none" stroke="gray" points="188.5,-219 77.5,-219 77.5,-183 194.5,-183 194.5,-213 188.5,-219"/>
<polyline fill="none" stroke="gray" points="188.5,-219 188.5,-213 "/>
<polyline fill="none" stroke="gray" points="194.5,-213 188.5,-213 "/>
<text text-anchor="start" x="88" y="-205" font-family="Times New Roman,serif" font-size="10.00">type:</text>
<text text-anchor="start" x="112" y="-205" font-family="Times New Roman,serif" font-size="10.00">u2p:CellTower</text>
<text text-anchor="start" x="88" y="-192" font-family="Times New Roman,serif" font-size="10.00">state:</text>
<text text-anchor="start" x="112" y="-192" font-family="Times New Roman,serif" font-size="10.00">u2p:Disconnected</text>
</g>
<!-- &#45;attrs3&#45;&gt;http://example.org/CellTower@5f375618_1 -->
<g id="edge4" class="edge"><title>&#45;attrs3&#45;&gt;http://example.org/CellTower@5f375618_1</title>
<path fill="none" stroke="gray" stroke-dasharray="5,2" d="M136,-219.303C136,-230.154 136,-244.083 136,-254.896"/>
</g>
<!-- &#45;attrs4 -->
<g id="node10" class="node"><title>&#45;attrs4</title>
<polygon fill="none" stroke="gray" points="111.5,-363 16.5,-363 16.5,-327 117.5,-327 117.5,-357 111.5,-363"/>
<polyline fill="none" stroke="gray" points="111.5,-363 111.5,-357 "/>
<polyline fill="none" stroke="gray" points="117.5,-357 111.5,-357 "/>
<text text-anchor="start" x="27" y="-342" font-family="Times New Roman,serif" font-size="10.00">type:</text>
<text text-anchor="start" x="50" y="-342" font-family="Times New Roman,serif" font-size="10.00">u2p:CellTower</text>
</g>
<!-- &#45;attrs4&#45;&gt;http://example.org/CellTower@5f375618 -->
<g id="edge5" class="edge"><title>&#45;attrs4&#45;&gt;http://example.org/CellTower@5f375618</title>
<path fill="none" stroke="gray" stroke-dasharray="5,2" d="M95.1322,-363.124C114.948,-375.186 141.124,-391.119 159.544,-402.331"/>
</g>
</g>
</svg>
