<?xml version="1.0" encoding="UTF-8" standalone="no"?>
<!DOCTYPE svg PUBLIC "-//W3C//DTD SVG 1.1//EN"
 "http://www.w3.org/Graphics/SVG/1.1/DTD/svg11.dtd">
<!-- Generated by graphviz version 2.38.0 (20140413.2041)
 -->
<!-- Title: PROV Pages: 1 -->
<svg width="634pt" height="315pt"
 viewBox="0.00 0.00 634.00 315.00" xmlns="http://www.w3.org/2000/svg" xmlns:xlink="http://www.w3.org/1999/xlink">
<g id="graph0" class="graph" transform="scale(1 1) rotate(0) translate(4 311)">
<title>PROV</title>
<polygon fill="white" stroke="none" points="-4,4 -4,-311 630,-311 630,4 -4,4"/>
<g id="clust1" class="cluster"><title>clusterhttp://example.org/bundle1</title>
<g id="a_clust1"><a xlink:href="http://example.org/bundle1" xlink:title="bundle1">
<polygon fill="none" stroke="black" points="8,-8 8,-299 618,-299 618,-8 8,-8"/>
<text text-anchor="middle" x="313" y="-15.8" font-family="Times New Roman,serif" font-size="14.00">bundle1</text>
</a>
</g>
</g>
<!-- http://example.org/connect_1 -->
<g id="node1" class="node"><title>http://example.org/connect_1</title>
<g id="a_node1"><a xlink:href="http://example.org/connect_1" xlink:title="connect_1">
<polygon fill="#9fb1fc" stroke="#0000ff" points="420.5,-219 345.5,-219 345.5,-183 420.5,-183 420.5,-219"/>
<text text-anchor="middle" x="383" y="-197.3" font-family="Times New Roman,serif" font-size="14.00">connect_1</text>
</a>
</g>
</g>
<!-- http://example.org/String@6d78f375_0 -->
<g id="node3" class="node"><title>http://example.org/String@6d78f375_0</title>
<g id="a_node3"><a xlink:href="http://example.org/String@6d78f375_0" xlink:title="String@6d78f375_0">
<ellipse fill="#fffc87" stroke="#808080" cx="526" cy="-273" rx="83.6854" ry="18"/>
<text text-anchor="middle" x="526" y="-269.3" font-family="Times New Roman,serif" font-size="14.00">String@6d78f375_0</text>
</a>
</g>
</g>
<!-- http://example.org/connect_1&#45;&gt;http://example.org/String@6d78f375_0 -->
<g id="edge5" class="edge"><title>http://example.org/connect_1&#45;&gt;http://example.org/String@6d78f375_0</title>
<path fill="none" stroke="black" d="M417.982,-219.124C438.149,-228.996 463.615,-241.462 484.755,-251.81"/>
<polygon fill="black" stroke="black" points="483.304,-254.997 493.824,-256.25 486.382,-248.71 483.304,-254.997"/>
<text text-anchor="middle" x="430.429" y="-208.854" font-family="Times New Roman,serif" font-size="8.00">use</text>
</g>
<!-- http://example.org/dataset.caseStudy.CS4PhoneCall.Phone@ -->
<g id="node7" class="node"><title>http://example.org/dataset.caseStudy.CS4PhoneCall.Phone@</title>
<g id="a_node7"><a xlink:href="http://example.org/dataset.caseStudy.CS4PhoneCall.Phone@" xlink:title="dataset.caseStudy.CS4PhoneCall.Phone@">
<polygon fill="#fdb266" stroke="black" points="424.113,-278.562 220,-291 15.8866,-278.562 16.0771,-258.438 423.923,-258.438 424.113,-278.562"/>
<text text-anchor="middle" x="220" y="-269.3" font-family="Times New Roman,serif" font-size="14.00">dataset.caseStudy.CS4PhoneCall.Phone@</text>
</a>
</g>
</g>
<!-- http://example.org/connect_1&#45;&gt;http://example.org/dataset.caseStudy.CS4PhoneCall.Phone@ -->
<g id="edge6" class="edge"><title>http://example.org/connect_1&#45;&gt;http://example.org/dataset.caseStudy.CS4PhoneCall.Phone@</title>
<path fill="none" stroke="black" d="M345.195,-218.235C320.094,-229.015 287.141,-243.166 261.344,-254.245"/>
<polygon fill="black" stroke="black" points="259.647,-251.165 251.839,-258.327 262.409,-257.597 259.647,-251.165"/>
<text text-anchor="middle" x="343.429" y="-231.231" font-family="Times New Roman,serif" font-size="8.00">assoc</text>
</g>
<!-- &#45;attrs0 -->
<g id="node2" class="node"><title>&#45;attrs0</title>
<polygon fill="none" stroke="gray" points="365.5,-147 278.5,-147 278.5,-111 371.5,-111 371.5,-141 365.5,-147"/>
<polyline fill="none" stroke="gray" points="365.5,-147 365.5,-141 "/>
<polyline fill="none" stroke="gray" points="371.5,-141 365.5,-141 "/>
<text text-anchor="start" x="289" y="-126" font-family="Times New Roman,serif" font-size="10.00">type:</text>
<text text-anchor="start" x="312" y="-126" font-family="Times New Roman,serif" font-size="10.00">u2p:connect</text>
</g>
<!-- &#45;attrs0&#45;&gt;http://example.org/connect_1 -->
<g id="edge1" class="edge"><title>&#45;attrs0&#45;&gt;http://example.org/connect_1</title>
<path fill="none" stroke="gray" stroke-dasharray="5,2" d="M339.337,-147.303C348.327,-158.154 359.869,-172.083 368.828,-182.896"/>
</g>
<!-- &#45;attrs1 -->
<g id="node4" class="node"><title>&#45;attrs1</title>
<polygon fill="none" stroke="gray" points="584,-219 502,-219 502,-183 590,-183 590,-213 584,-219"/>
<polyline fill="none" stroke="gray" points="584,-219 584,-213 "/>
<polyline fill="none" stroke="gray" points="590,-213 584,-213 "/>
<text text-anchor="start" x="512" y="-198" font-family="Times New Roman,serif" font-size="10.00">value:</text>
<text text-anchor="start" x="539" y="-198" font-family="Times New Roman,serif" font-size="10.00">123456789</text>
</g>
<!-- &#45;attrs1&#45;&gt;http://example.org/String@6d78f375_0 -->
<g id="edge2" class="edge"><title>&#45;attrs1&#45;&gt;http://example.org/String@6d78f375_0</title>
<path fill="none" stroke="gray" stroke-dasharray="5,2" d="M541.056,-219.303C537.956,-230.154 533.976,-244.083 530.887,-254.896"/>
</g>
<!-- http://example.org/Boolean@50c87b21_0 -->
<g id="node5" class="node"><title>http://example.org/Boolean@50c87b21_0</title>
<g id="a_node5"><a xlink:href="http://example.org/Boolean@50c87b21_0" xlink:title="Boolean@50c87b21_0">
<ellipse fill="#fffc87" stroke="#808080" cx="483" cy="-129" rx="93.6835" ry="18"/>
<text text-anchor="middle" x="483" y="-125.3" font-family="Times New Roman,serif" font-size="14.00">Boolean@50c87b21_0</text>
</a>
</g>
</g>
<!-- http://example.org/Boolean@50c87b21_0&#45;&gt;http://example.org/connect_1 -->
<g id="edge7" class="edge"><title>http://example.org/Boolean@50c87b21_0&#45;&gt;http://example.org/connect_1</title>
<path fill="none" stroke="black" d="M459.301,-146.589C446.387,-155.629 430.201,-166.959 416.063,-176.856"/>
<polygon fill="black" stroke="black" points="413.758,-174.197 407.573,-182.799 417.772,-179.932 413.758,-174.197"/>
<text text-anchor="middle" x="460.607" y="-159.632" font-family="Times New Roman,serif" font-size="8.00">gen</text>
</g>
<!-- http://example.org/Boolean@50c87b21_0&#45;&gt;http://example.org/String@6d78f375_0 -->
<g id="edge8" class="edge"><title>http://example.org/Boolean@50c87b21_0&#45;&gt;http://example.org/String@6d78f375_0</title>
<path fill="none" stroke="black" d="M482.707,-147.224C482.902,-165.524 484.682,-195.06 493,-219 496.292,-228.474 501.515,-238.024 506.844,-246.356"/>
<polygon fill="black" stroke="black" points="504.086,-248.527 512.581,-254.859 509.889,-244.612 504.086,-248.527"/>
<text text-anchor="middle" x="495.838" y="-152.575" font-family="Times New Roman,serif" font-size="8.00">der</text>
</g>
<!-- &#45;attrs2 -->
<g id="node6" class="node"><title>&#45;attrs2</title>
<polygon fill="none" stroke="gray" points="508.5,-75 451.5,-75 451.5,-39 514.5,-39 514.5,-69 508.5,-75"/>
<polyline fill="none" stroke="gray" points="508.5,-75 508.5,-69 "/>
<polyline fill="none" stroke="gray" points="514.5,-69 508.5,-69 "/>
<text text-anchor="start" x="462" y="-54" font-family="Times New Roman,serif" font-size="10.00">value:</text>
<text text-anchor="start" x="489" y="-54" font-family="Times New Roman,serif" font-size="10.00">true</text>
</g>
<!-- &#45;attrs2&#45;&gt;http://example.org/Boolean@50c87b21_0 -->
<g id="edge3" class="edge"><title>&#45;attrs2&#45;&gt;http://example.org/Boolean@50c87b21_0</title>
<path fill="none" stroke="gray" stroke-dasharray="5,2" d="M483,-75.3034C483,-86.1537 483,-100.083 483,-110.896"/>
</g>
<!-- &#45;attrs3 -->
<g id="node8" class="node"><title>&#45;attrs3</title>
<polygon fill="none" stroke="gray" points="257,-219 177,-219 177,-183 263,-183 263,-213 257,-219"/>
<polyline fill="none" stroke="gray" points="257,-219 257,-213 "/>
<polyline fill="none" stroke="gray" points="263,-213 257,-213 "/>
<text text-anchor="start" x="187" y="-198" font-family="Times New Roman,serif" font-size="10.00">type:</text>
<text text-anchor="start" x="210" y="-198" font-family="Times New Roman,serif" font-size="10.00">u2p:Phone</text>
</g>
<!-- &#45;attrs3&#45;&gt;http://example.org/dataset.caseStudy.CS4PhoneCall.Phone@ -->
<g id="edge4" class="edge"><title>&#45;attrs3&#45;&gt;http://example.org/dataset.caseStudy.CS4PhoneCall.Phone@</title>
<path fill="none" stroke="gray" stroke-dasharray="5,2" d="M220,-219.303C220,-231.287 220,-247.028 220,-258.175"/>
</g>
</g>
</svg>
