<?xml version="1.0" encoding="UTF-8" standalone="no"?>
<!DOCTYPE svg PUBLIC "-//W3C//DTD SVG 1.1//EN"
 "http://www.w3.org/Graphics/SVG/1.1/DTD/svg11.dtd">
<!-- Generated by graphviz version 2.38.0 (20140413.2041)
 -->
<!-- Title: PROV Pages: 1 -->
<svg width="448pt" height="243pt"
 viewBox="0.00 0.00 448.00 243.00" xmlns="http://www.w3.org/2000/svg" xmlns:xlink="http://www.w3.org/1999/xlink">
<g id="graph0" class="graph" transform="scale(1 1) rotate(0) translate(4 239)">
<title>PROV</title>
<polygon fill="white" stroke="none" points="-4,4 -4,-239 444,-239 444,4 -4,4"/>
<g id="clust1" class="cluster"><title>clusterhttp://example.org/bundle1</title>
<g id="a_clust1"><a xlink:href="http://example.org/bundle1" xlink:title="bundle1">
<polygon fill="none" stroke="black" points="8,-8 8,-227 432,-227 432,-8 8,-8"/>
<text text-anchor="middle" x="220" y="-15.8" font-family="Times New Roman,serif" font-size="14.00">bundle1</text>
</a>
</g>
</g>
<!-- http://example.org/disconnect_1 -->
<g id="node1" class="node"><title>http://example.org/disconnect_1</title>
<g id="a_node1"><a xlink:href="http://example.org/disconnect_1" xlink:title="disconnect_1">
<polygon fill="#9fb1fc" stroke="#0000ff" points="319,-147 227,-147 227,-111 319,-111 319,-147"/>
<text text-anchor="middle" x="273" y="-125.3" font-family="Times New Roman,serif" font-size="14.00">disconnect_1</text>
</a>
</g>
</g>
<!-- http://example.org/dataset.caseStudy.CS4PhoneCall.Phone@ -->
<g id="node3" class="node"><title>http://example.org/dataset.caseStudy.CS4PhoneCall.Phone@</title>
<g id="a_node3"><a xlink:href="http://example.org/dataset.caseStudy.CS4PhoneCall.Phone@" xlink:title="dataset.caseStudy.CS4PhoneCall.Phone@">
<polygon fill="#fdb266" stroke="black" points="424.113,-206.562 220,-219 15.8866,-206.562 16.0771,-186.438 423.923,-186.438 424.113,-206.562"/>
<text text-anchor="middle" x="220" y="-197.3" font-family="Times New Roman,serif" font-size="14.00">dataset.caseStudy.CS4PhoneCall.Phone@</text>
</a>
</g>
</g>
<!-- http://example.org/disconnect_1&#45;&gt;http://example.org/dataset.caseStudy.CS4PhoneCall.Phone@ -->
<g id="edge3" class="edge"><title>http://example.org/disconnect_1&#45;&gt;http://example.org/dataset.caseStudy.CS4PhoneCall.Phone@</title>
<path fill="none" stroke="black" d="M259.899,-147.303C252.881,-156.572 244.162,-168.088 236.666,-177.988"/>
<polygon fill="black" stroke="black" points="233.713,-176.09 230.467,-186.175 239.294,-180.316 233.713,-176.09"/>
<text text-anchor="middle" x="265.728" y="-159.224" font-family="Times New Roman,serif" font-size="8.00">assoc</text>
</g>
<!-- &#45;attrs0 -->
<g id="node2" class="node"><title>&#45;attrs0</title>
<polygon fill="none" stroke="gray" points="319.5,-75 220.5,-75 220.5,-39 325.5,-39 325.5,-69 319.5,-75"/>
<polyline fill="none" stroke="gray" points="319.5,-75 319.5,-69 "/>
<polyline fill="none" stroke="gray" points="325.5,-69 319.5,-69 "/>
<text text-anchor="start" x="231" y="-54" font-family="Times New Roman,serif" font-size="10.00">type:</text>
<text text-anchor="start" x="254" y="-54" font-family="Times New Roman,serif" font-size="10.00">u2p:disconnect</text>
</g>
<!-- &#45;attrs0&#45;&gt;http://example.org/disconnect_1 -->
<g id="edge1" class="edge"><title>&#45;attrs0&#45;&gt;http://example.org/disconnect_1</title>
<path fill="none" stroke="gray" stroke-dasharray="5,2" d="M273,-75.3034C273,-86.1537 273,-100.083 273,-110.896"/>
</g>
<!-- &#45;attrs1 -->
<g id="node4" class="node"><title>&#45;attrs1</title>
<polygon fill="none" stroke="gray" points="203,-147 123,-147 123,-111 209,-111 209,-141 203,-147"/>
<polyline fill="none" stroke="gray" points="203,-147 203,-141 "/>
<polyline fill="none" stroke="gray" points="209,-141 203,-141 "/>
<text text-anchor="start" x="133" y="-126" font-family="Times New Roman,serif" font-size="10.00">type:</text>
<text text-anchor="start" x="156" y="-126" font-family="Times New Roman,serif" font-size="10.00">u2p:Phone</text>
</g>
<!-- &#45;attrs1&#45;&gt;http://example.org/dataset.caseStudy.CS4PhoneCall.Phone@ -->
<g id="edge2" class="edge"><title>&#45;attrs1&#45;&gt;http://example.org/dataset.caseStudy.CS4PhoneCall.Phone@</title>
<path fill="none" stroke="gray" stroke-dasharray="5,2" d="M179.348,-147.303C188.593,-159.287 200.736,-175.028 209.335,-186.175"/>
</g>
</g>
</svg>
