<?xml version="1.0" encoding="UTF-8" standalone="no"?>
<!DOCTYPE svg PUBLIC "-//W3C//DTD SVG 1.1//EN"
 "http://www.w3.org/Graphics/SVG/1.1/DTD/svg11.dtd">
<!-- Generated by graphviz version 2.38.0 (20140413.2041)
 -->
<!-- Title: PROV Pages: 1 -->
<svg width="360pt" height="459pt"
 viewBox="0.00 0.00 360.00 459.00" xmlns="http://www.w3.org/2000/svg" xmlns:xlink="http://www.w3.org/1999/xlink">
<g id="graph0" class="graph" transform="scale(1 1) rotate(0) translate(4 455)">
<title>PROV</title>
<polygon fill="white" stroke="none" points="-4,4 -4,-455 356,-455 356,4 -4,4"/>
<g id="clust1" class="cluster"><title>clusterhttp://example.org/bundle1</title>
<g id="a_clust1"><a xlink:href="http://example.org/bundle1" xlink:title="bundle1">
<polygon fill="none" stroke="black" points="8,-8 8,-443 344,-443 344,-8 8,-8"/>
<text text-anchor="middle" x="176" y="-15.8" font-family="Times New Roman,serif" font-size="14.00">bundle1</text>
</a>
</g>
</g>
<!-- http://example.org/hangUp_1 -->
<g id="node1" class="node"><title>http://example.org/hangUp_1</title>
<g id="a_node1"><a xlink:href="http://example.org/hangUp_1" xlink:title="hangUp_1">
<polygon fill="#9fb1fc" stroke="#0000ff" points="264,-219 190,-219 190,-183 264,-183 264,-219"/>
<text text-anchor="middle" x="227" y="-197.3" font-family="Times New Roman,serif" font-size="14.00">hangUp_1</text>
</a>
</g>
</g>
<!-- http://example.org/Phone@2f410acf_3 -->
<g id="node7" class="node"><title>http://example.org/Phone@2f410acf_3</title>
<g id="a_node7"><a xlink:href="http://example.org/Phone@2f410acf_3" xlink:title="Phone@2f410acf_3">
<ellipse fill="#fffc87" stroke="#808080" cx="119" cy="-273" rx="83.3857" ry="18"/>
<text text-anchor="middle" x="119" y="-269.3" font-family="Times New Roman,serif" font-size="14.00">Phone@2f410acf_3</text>
</a>
</g>
</g>
<!-- http://example.org/hangUp_1&#45;&gt;http://example.org/Phone@2f410acf_3 -->
<g id="edge11" class="edge"><title>http://example.org/hangUp_1&#45;&gt;http://example.org/Phone@2f410acf_3</title>
<path fill="none" stroke="black" d="M194.683,-219.124C179.663,-228.241 162.03,-239.57 147.509,-249.401"/>
<polygon fill="black" stroke="black" points="145.186,-246.75 138.922,-255.294 149.147,-252.521 145.186,-246.75"/>
<text text-anchor="middle" x="195.057" y="-232.219" font-family="Times New Roman,serif" font-size="8.00">use</text>
</g>
<!-- &#45;attrs0 -->
<g id="node2" class="node"><title>&#45;attrs0</title>
<polygon fill="none" stroke="gray" points="287.5,-147 200.5,-147 200.5,-111 293.5,-111 293.5,-141 287.5,-147"/>
<polyline fill="none" stroke="gray" points="287.5,-147 287.5,-141 "/>
<polyline fill="none" stroke="gray" points="293.5,-141 287.5,-141 "/>
<text text-anchor="start" x="211" y="-126" font-family="Times New Roman,serif" font-size="10.00">type:</text>
<text text-anchor="start" x="234" y="-126" font-family="Times New Roman,serif" font-size="10.00">u2p:hangUp</text>
</g>
<!-- &#45;attrs0&#45;&gt;http://example.org/hangUp_1 -->
<g id="edge1" class="edge"><title>&#45;attrs0&#45;&gt;http://example.org/hangUp_1</title>
<path fill="none" stroke="gray" stroke-dasharray="5,2" d="M242.056,-147.303C238.956,-158.154 234.976,-172.083 231.887,-182.896"/>
</g>
<!-- http://example.org/Phone@2f410acf_0 -->
<g id="node3" class="node"><title>http://example.org/Phone@2f410acf_0</title>
<g id="a_node3"><a xlink:href="http://example.org/Phone@2f410acf_0" xlink:title="Phone@2f410acf_0">
<ellipse fill="#fffc87" stroke="#808080" cx="203" cy="-345" rx="83.3857" ry="18"/>
<text text-anchor="middle" x="203" y="-341.3" font-family="Times New Roman,serif" font-size="14.00">Phone@2f410acf_0</text>
</a>
</g>
</g>
<!-- http://example.org/Phone@2f410acf -->
<g id="node9" class="node"><title>http://example.org/Phone@2f410acf</title>
<g id="a_node9"><a xlink:href="http://example.org/Phone@2f410acf" xlink:title="Phone@2f410acf">
<polygon fill="#fdb266" stroke="black" points="245.563,-422.562 155,-435 64.4372,-422.562 64.5217,-402.438 245.478,-402.438 245.563,-422.562"/>
<text text-anchor="middle" x="155" y="-413.3" font-family="Times New Roman,serif" font-size="14.00">Phone@2f410acf</text>
</a>
</g>
</g>
<!-- http://example.org/Phone@2f410acf_0&#45;&gt;http://example.org/Phone@2f410acf -->
<g id="edge6" class="edge"><title>http://example.org/Phone@2f410acf_0&#45;&gt;http://example.org/Phone@2f410acf</title>
<path fill="none" stroke="black" d="M191.381,-362.945C185.029,-372.208 177.083,-383.795 170.239,-393.776"/>
<polygon fill="black" stroke="black" points="167.345,-391.807 164.577,-402.034 173.118,-395.766 167.345,-391.807"/>
<text text-anchor="middle" x="197.853" y="-374.577" font-family="Times New Roman,serif" font-size="8.00">att</text>
</g>
<!-- &#45;attrs1 -->
<g id="node4" class="node"><title>&#45;attrs1</title>
<polygon fill="none" stroke="gray" points="330,-291 220,-291 220,-255 336,-255 336,-285 330,-291"/>
<polyline fill="none" stroke="gray" points="330,-291 330,-285 "/>
<polyline fill="none" stroke="gray" points="336,-285 330,-285 "/>
<text text-anchor="start" x="230" y="-270" font-family="Times New Roman,serif" font-size="10.00">type:</text>
<text text-anchor="start" x="253" y="-270" font-family="Times New Roman,serif" font-size="10.00">u2p:StateMachine</text>
</g>
<!-- &#45;attrs1&#45;&gt;http://example.org/Phone@2f410acf_0 -->
<g id="edge2" class="edge"><title>&#45;attrs1&#45;&gt;http://example.org/Phone@2f410acf_0</title>
<path fill="none" stroke="gray" stroke-dasharray="5,2" d="M259.461,-291.303C247.662,-302.316 232.465,-316.5 220.81,-327.378"/>
</g>
<!-- http://example.org/Phone@2f410acf_4 -->
<g id="node5" class="node"><title>http://example.org/Phone@2f410acf_4</title>
<g id="a_node5"><a xlink:href="http://example.org/Phone@2f410acf_4" xlink:title="Phone@2f410acf_4">
<ellipse fill="#fffc87" stroke="#808080" cx="99" cy="-129" rx="83.3857" ry="18"/>
<text text-anchor="middle" x="99" y="-125.3" font-family="Times New Roman,serif" font-size="14.00">Phone@2f410acf_4</text>
</a>
</g>
</g>
<!-- http://example.org/Phone@2f410acf_4&#45;&gt;http://example.org/hangUp_1 -->
<g id="edge8" class="edge"><title>http://example.org/Phone@2f410acf_4&#45;&gt;http://example.org/hangUp_1</title>
<path fill="none" stroke="black" d="M128.045,-145.884C145.492,-155.426 167.939,-167.701 187.042,-178.148"/>
<polygon fill="black" stroke="black" points="185.38,-181.228 195.833,-182.956 188.739,-175.087 185.38,-181.228"/>
<text text-anchor="middle" x="140.858" y="-136.185" font-family="Times New Roman,serif" font-size="8.00">gen</text>
</g>
<!-- http://example.org/Phone@2f410acf_4&#45;&gt;http://example.org/Phone@2f410acf_0 -->
<g id="edge7" class="edge"><title>http://example.org/Phone@2f410acf_4&#45;&gt;http://example.org/Phone@2f410acf_0</title>
<path fill="none" stroke="black" d="M80.6849,-146.789C49.3639,-177.543 -7.88554,-244.062 27,-291 39.7591,-308.167 87.4184,-321.889 129.927,-331.065"/>
<polygon fill="black" stroke="black" points="129.243,-334.498 139.748,-333.127 130.68,-327.647 129.243,-334.498"/>
<text text-anchor="middle" x="84.7009" y="-159.342" font-family="Times New Roman,serif" font-size="8.00">spe</text>
</g>
<!-- http://example.org/Phone@2f410acf_4&#45;&gt;http://example.org/Phone@2f410acf_3 -->
<g id="edge9" class="edge"><title>http://example.org/Phone@2f410acf_4&#45;&gt;http://example.org/Phone@2f410acf_3</title>
<path fill="none" stroke="black" d="M80.8341,-146.776C71.7906,-156.387 61.787,-169.252 57,-183 51.7388,-198.11 50.3046,-204.468 57,-219 62.5642,-231.077 72.3878,-241.424 82.5976,-249.687"/>
<polygon fill="black" stroke="black" points="80.7006,-252.64 90.7944,-255.859 84.9115,-247.048 80.7006,-252.64"/>
<text text-anchor="middle" x="85.3283" y="-159.187" font-family="Times New Roman,serif" font-size="8.00">der</text>
</g>
<!-- &#45;attrs2 -->
<g id="node6" class="node"><title>&#45;attrs2</title>
<polygon fill="none" stroke="gray" points="151.5,-75 40.5,-75 40.5,-39 157.5,-39 157.5,-69 151.5,-75"/>
<polyline fill="none" stroke="gray" points="151.5,-75 151.5,-69 "/>
<polyline fill="none" stroke="gray" points="157.5,-69 151.5,-69 "/>
<text text-anchor="start" x="51" y="-61" font-family="Times New Roman,serif" font-size="10.00">type:</text>
<text text-anchor="start" x="75" y="-61" font-family="Times New Roman,serif" font-size="10.00">u2p:Phone</text>
<text text-anchor="start" x="51" y="-48" font-family="Times New Roman,serif" font-size="10.00">state:</text>
<text text-anchor="start" x="75" y="-48" font-family="Times New Roman,serif" font-size="10.00">u2p:Disconnected</text>
</g>
<!-- &#45;attrs2&#45;&gt;http://example.org/Phone@2f410acf_4 -->
<g id="edge3" class="edge"><title>&#45;attrs2&#45;&gt;http://example.org/Phone@2f410acf_4</title>
<path fill="none" stroke="gray" stroke-dasharray="5,2" d="M99,-75.3034C99,-86.1537 99,-100.083 99,-110.896"/>
</g>
<!-- http://example.org/Phone@2f410acf_3&#45;&gt;http://example.org/hangUp_1 -->
<g id="edge10" class="edge"><title>http://example.org/Phone@2f410acf_3&#45;&gt;http://example.org/hangUp_1</title>
<path fill="none" stroke="black" d="M159.823,-249.651C172.548,-241.748 186.287,-232.851 198.041,-224.903"/>
<polygon fill="none" stroke="black" points="159.671,-249.744 156.645,-256.289 149.439,-256.013 152.466,-249.467 159.671,-249.744"/>
<polygon fill="black" stroke="black" points="200.206,-227.663 206.477,-219.124 196.249,-221.888 200.206,-227.663"/>
<text text-anchor="middle" x="149.048" y="-239.118" font-family="Times New Roman,serif" font-size="8.00">inv</text>
</g>
<!-- http://example.org/Phone@2f410acf_3&#45;&gt;http://example.org/Phone@2f410acf_0 -->
<g id="edge12" class="edge"><title>http://example.org/Phone@2f410acf_3&#45;&gt;http://example.org/Phone@2f410acf_0</title>
<path fill="none" stroke="black" d="M138.907,-290.589C149.708,-299.59 163.233,-310.861 175.072,-320.727"/>
<polygon fill="black" stroke="black" points="173.022,-323.574 182.945,-327.287 177.503,-318.197 173.022,-323.574"/>
<text text-anchor="middle" x="152.985" y="-283.511" font-family="Times New Roman,serif" font-size="8.00">spe</text>
</g>
<!-- &#45;attrs3 -->
<g id="node8" class="node"><title>&#45;attrs3</title>
<polygon fill="none" stroke="gray" points="165.5,-219 66.5,-219 66.5,-183 171.5,-183 171.5,-213 165.5,-219"/>
<polyline fill="none" stroke="gray" points="165.5,-219 165.5,-213 "/>
<polyline fill="none" stroke="gray" points="171.5,-213 165.5,-213 "/>
<text text-anchor="start" x="77" y="-205" font-family="Times New Roman,serif" font-size="10.00">type:</text>
<text text-anchor="start" x="101" y="-205" font-family="Times New Roman,serif" font-size="10.00">u2p:Phone</text>
<text text-anchor="start" x="77" y="-192" font-family="Times New Roman,serif" font-size="10.00">state:</text>
<text text-anchor="start" x="101" y="-192" font-family="Times New Roman,serif" font-size="10.00">u2p:Connected</text>
</g>
<!-- &#45;attrs3&#45;&gt;http://example.org/Phone@2f410acf_3 -->
<g id="edge4" class="edge"><title>&#45;attrs3&#45;&gt;http://example.org/Phone@2f410acf_3</title>
<path fill="none" stroke="gray" stroke-dasharray="5,2" d="M119,-219.303C119,-230.154 119,-244.083 119,-254.896"/>
</g>
<!-- &#45;attrs4 -->
<g id="node10" class="node"><title>&#45;attrs4</title>
<polygon fill="none" stroke="gray" points="96,-363 16,-363 16,-327 102,-327 102,-357 96,-363"/>
<polyline fill="none" stroke="gray" points="96,-363 96,-357 "/>
<polyline fill="none" stroke="gray" points="102,-357 96,-357 "/>
<text text-anchor="start" x="26" y="-342" font-family="Times New Roman,serif" font-size="10.00">type:</text>
<text text-anchor="start" x="49" y="-342" font-family="Times New Roman,serif" font-size="10.00">u2p:Phone</text>
</g>
<!-- &#45;attrs4&#45;&gt;http://example.org/Phone@2f410acf -->
<g id="edge5" class="edge"><title>&#45;attrs4&#45;&gt;http://example.org/Phone@2f410acf</title>
<path fill="none" stroke="gray" stroke-dasharray="5,2" d="M82.7303,-363.303C99.2765,-375.368 121.044,-391.24 136.35,-402.401"/>
</g>
</g>
</svg>
