<?xml version="1.0" encoding="UTF-8" standalone="no"?>
<!DOCTYPE svg PUBLIC "-//W3C//DTD SVG 1.1//EN"
 "http://www.w3.org/Graphics/SVG/1.1/DTD/svg11.dtd">
<!-- Generated by graphviz version 2.38.0 (20140413.2041)
 -->
<!-- Title: PROV Pages: 1 -->
<svg width="434pt" height="243pt"
 viewBox="0.00 0.00 434.00 243.00" xmlns="http://www.w3.org/2000/svg" xmlns:xlink="http://www.w3.org/1999/xlink">
<g id="graph0" class="graph" transform="scale(1 1) rotate(0) translate(4 239)">
<title>PROV</title>
<polygon fill="white" stroke="none" points="-4,4 -4,-239 430,-239 430,4 -4,4"/>
<g id="clust1" class="cluster"><title>clusterhttp://example.org/bundle1</title>
<g id="a_clust1"><a xlink:href="http://example.org/bundle1" xlink:title="bundle1">
<polygon fill="none" stroke="black" points="8,-8 8,-227 418,-227 418,-8 8,-8"/>
<text text-anchor="middle" x="213" y="-15.8" font-family="Times New Roman,serif" font-size="14.00">bundle1</text>
</a>
</g>
</g>
<!-- http://example.org/pickUp_1 -->
<g id="node1" class="node"><title>http://example.org/pickUp_1</title>
<g id="a_node1"><a xlink:href="http://example.org/pickUp_1" xlink:title="pickUp_1">
<polygon fill="#9fb1fc" stroke="#0000ff" points="296,-147 224,-147 224,-111 296,-111 296,-147"/>
<text text-anchor="middle" x="260" y="-125.3" font-family="Times New Roman,serif" font-size="14.00">pickUp_1</text>
</a>
</g>
</g>
<!-- http://example.org/dataset.caseStudy.CS4PhoneCall.User@ -->
<g id="node3" class="node"><title>http://example.org/dataset.caseStudy.CS4PhoneCall.User@</title>
<g id="a_node3"><a xlink:href="http://example.org/dataset.caseStudy.CS4PhoneCall.User@" xlink:title="dataset.caseStudy.CS4PhoneCall.User@">
<polygon fill="#fdb266" stroke="black" points="409.653,-206.562 213,-219 16.3471,-206.562 16.5307,-186.438 409.469,-186.438 409.653,-206.562"/>
<text text-anchor="middle" x="213" y="-197.3" font-family="Times New Roman,serif" font-size="14.00">dataset.caseStudy.CS4PhoneCall.User@</text>
</a>
</g>
</g>
<!-- http://example.org/pickUp_1&#45;&gt;http://example.org/dataset.caseStudy.CS4PhoneCall.User@ -->
<g id="edge3" class="edge"><title>http://example.org/pickUp_1&#45;&gt;http://example.org/dataset.caseStudy.CS4PhoneCall.User@</title>
<path fill="none" stroke="black" d="M248.382,-147.303C242.222,-156.479 234.583,-167.856 227.981,-177.688"/>
<polygon fill="black" stroke="black" points="224.951,-175.922 222.282,-186.175 230.762,-179.824 224.951,-175.922"/>
<text text-anchor="middle" x="254.986" y="-158.871" font-family="Times New Roman,serif" font-size="8.00">assoc</text>
</g>
<!-- &#45;attrs0 -->
<g id="node2" class="node"><title>&#45;attrs0</title>
<polygon fill="none" stroke="gray" points="298.5,-75 215.5,-75 215.5,-39 304.5,-39 304.5,-69 298.5,-75"/>
<polyline fill="none" stroke="gray" points="298.5,-75 298.5,-69 "/>
<polyline fill="none" stroke="gray" points="304.5,-69 298.5,-69 "/>
<text text-anchor="start" x="226" y="-54" font-family="Times New Roman,serif" font-size="10.00">type:</text>
<text text-anchor="start" x="249" y="-54" font-family="Times New Roman,serif" font-size="10.00">u2p:pickUp</text>
</g>
<!-- &#45;attrs0&#45;&gt;http://example.org/pickUp_1 -->
<g id="edge1" class="edge"><title>&#45;attrs0&#45;&gt;http://example.org/pickUp_1</title>
<path fill="none" stroke="gray" stroke-dasharray="5,2" d="M260,-75.3034C260,-86.1537 260,-100.083 260,-110.896"/>
</g>
<!-- &#45;attrs1 -->
<g id="node4" class="node"><title>&#45;attrs1</title>
<polygon fill="none" stroke="gray" points="200,-147 126,-147 126,-111 206,-111 206,-141 200,-147"/>
<polyline fill="none" stroke="gray" points="200,-147 200,-141 "/>
<polyline fill="none" stroke="gray" points="206,-141 200,-141 "/>
<text text-anchor="start" x="136" y="-126" font-family="Times New Roman,serif" font-size="10.00">type:</text>
<text text-anchor="start" x="159" y="-126" font-family="Times New Roman,serif" font-size="10.00">u2p:User</text>
</g>
<!-- &#45;attrs1&#45;&gt;http://example.org/dataset.caseStudy.CS4PhoneCall.User@ -->
<g id="edge2" class="edge"><title>&#45;attrs1&#45;&gt;http://example.org/dataset.caseStudy.CS4PhoneCall.User@</title>
<path fill="none" stroke="gray" stroke-dasharray="5,2" d="M177.618,-147.303C185.664,-159.287 196.233,-175.028 203.718,-186.175"/>
</g>
</g>
</svg>
